<svg width="19" height="20" viewBox="0 0 19 20" fill="none" xmlns="http://www.w3.org/2000/svg">
<path d="M5.54015 4.95996C5.54015 5.74317 5.7724 6.50878 6.20753 7.16C6.64265 7.81121 7.26111 8.31877 7.9847 8.61849C8.70829 8.91821 9.50451 8.99663 10.2727 8.84383C11.0408 8.69103 11.7464 8.31389 12.3002 7.76007C12.854 7.20626 13.2312 6.50067 13.384 5.73251C13.5368 4.96435 13.4584 4.16814 13.1586 3.44455C12.8589 2.72096 12.3514 2.1025 11.7001 1.66737C11.0489 1.23225 10.2833 1 9.50011 1C8.45022 1.00117 7.44367 1.41875 6.70128 2.16113C5.9589 2.90352 5.54132 3.91007 5.54015 4.95996ZM12.7402 4.95996C12.7402 5.60078 12.5501 6.22721 12.1941 6.76003C11.8381 7.29285 11.3321 7.70814 10.74 7.95337C10.148 8.1986 9.49652 8.26276 8.86801 8.13775C8.23951 8.01273 7.66219 7.70414 7.20906 7.25102C6.75593 6.79789 6.44735 6.22057 6.32233 5.59206C6.19731 4.96356 6.26147 4.31209 6.50671 3.72005C6.75194 3.12801 7.16722 2.62199 7.70004 2.26597C8.23286 1.90995 8.85929 1.71992 9.50011 1.71992C10.3591 1.72091 11.1827 2.06258 11.7901 2.67C12.3975 3.27741 12.7392 4.10095 12.7402 4.95996ZM9.50011 9.88008C7.38688 9.88585 5.34647 10.6528 3.75272 12.0406C2.15897 13.4283 1.11859 15.3438 0.822182 17.4361C0.795137 17.6306 0.810076 17.8286 0.865993 18.0169C0.92191 18.2051 1.01751 18.3792 1.14635 18.5274C1.27519 18.6755 1.43429 18.7944 1.61292 18.8759C1.79156 18.9575 1.98559 18.9998 2.18195 19H16.8183C17.0146 18.9998 17.2087 18.9575 17.3873 18.8759C17.5659 18.7944 17.725 18.6755 17.8539 18.5274C17.9827 18.3792 18.0783 18.2051 18.1342 18.0169C18.1901 17.8286 18.2051 17.6306 18.178 17.4361C17.8816 15.3438 16.8413 13.4283 15.2475 12.0406C13.6538 10.6528 11.6133 9.88585 9.50011 9.88008ZM17.309 18.0566C17.2483 18.1272 17.173 18.1838 17.0882 18.2224C17.0035 18.2609 16.9114 18.2806 16.8183 18.2801H2.18195C2.08885 18.2806 1.99674 18.2609 1.912 18.2224C1.82727 18.1838 1.75194 18.1272 1.69123 18.0566C1.62944 17.9857 1.58356 17.9024 1.55669 17.8123C1.52982 17.7222 1.52258 17.6273 1.53546 17.5342C1.80267 15.6118 2.75616 13.8509 4.22 12.5764C5.68384 11.302 7.55923 10.6 9.50011 10.6C11.441 10.6 13.3164 11.302 14.7802 12.5764C16.2441 13.8509 17.1976 15.6118 17.4648 17.5342C17.4776 17.6273 17.4704 17.7222 17.4435 17.8123C17.4167 17.9024 17.3708 17.9857 17.309 18.0566Z" fill="#1D1D1D" stroke="#1D1D1D" stroke-width="0.35"/>
</svg>
