<svg width="48" height="48" viewBox="0 0 48 48" fill="none" xmlns="http://www.w3.org/2000/svg">
<circle opacity="0.3" cx="24" cy="24" r="24" fill="#FDB001"/>
<path d="M11.5252 22.7184C11.5252 22.7184 11.5249 22.7175 11.5242 22.7156C11.5249 22.7174 11.5253 22.7183 11.5252 22.7184ZM11.5242 22.2844C11.5249 22.2825 11.5252 22.2816 11.5252 22.2816C11.5253 22.2817 11.5249 22.2826 11.5242 22.2844ZM19.4748 22.2816C19.4748 22.2816 19.4751 22.2825 19.4758 22.2844C19.4751 22.2826 19.4747 22.2817 19.4748 22.2816ZM19.4758 22.7156C19.4751 22.7175 19.4748 22.7184 19.4748 22.7184C19.4747 22.7183 19.4751 22.7174 19.4758 22.7156Z" fill="#1D1D1D" stroke="#1D1D1D"/>
<path d="M28.5252 22.7184C28.5252 22.7184 28.5249 22.7175 28.5242 22.7156C28.5249 22.7174 28.5253 22.7183 28.5252 22.7184ZM28.5242 22.2844C28.5249 22.2825 28.5252 22.2816 28.5252 22.2816C28.5253 22.2817 28.5249 22.2826 28.5242 22.2844ZM36.4748 22.2816C36.4748 22.2816 36.4751 22.2825 36.4758 22.2844C36.4751 22.2826 36.4747 22.2817 36.4748 22.2816ZM36.4758 22.7156C36.4751 22.7175 36.4748 22.7184 36.4748 22.7184C36.4747 22.7183 36.4751 22.7174 36.4758 22.7156Z" fill="#1D1D1D" stroke="#1D1D1D"/>
<mask id="path-4-inside-1_590_9475" fill="white">
<path d="M13.7625 16.8999H13.3699C12.7413 16.8999 12.1386 17.1826 11.6941 17.6858C11.2497 18.1891 11 18.8716 11 19.5832V32.436C11.0179 33.1341 11.2754 33.7968 11.7179 34.2833C12.1605 34.7699 12.7531 35.0419 13.3699 35.0416H34.6301C35.2469 35.0419 35.8395 34.7699 36.282 34.2833C36.7246 33.7968 36.9821 33.1341 37 32.436V19.5832C37 18.8716 36.7503 18.1891 36.3059 17.6858C35.8614 17.1826 35.2586 16.8999 34.6301 16.8999H13.7625L13.6471 17.8227L34.6301 17.8721C35.0295 17.8772 35.4113 18.0591 35.6938 18.3789C35.9762 18.6987 36.1369 19.131 36.1413 19.5832V32.3582C36.1369 32.8105 35.9762 33.2428 35.6938 33.5626C35.4113 33.8824 35.0295 34.0643 34.6301 34.0693H13.3699C12.9691 34.0693 12.5847 33.8891 12.3013 33.5682C12.0179 33.2473 11.8587 32.812 11.8587 32.3582V19.5055C11.8587 19.0516 12.0179 18.6164 12.3013 18.2955C12.5847 17.9746 12.9691 17.7943 13.3699 17.7943L13.8745 17.7962L13.7625 16.8999Z"/>
</mask>
<path d="M13.7625 16.8999H13.3699C12.7413 16.8999 12.1386 17.1826 11.6941 17.6858C11.2497 18.1891 11 18.8716 11 19.5832V32.436C11.0179 33.1341 11.2754 33.7968 11.7179 34.2833C12.1605 34.7699 12.7531 35.0419 13.3699 35.0416H34.6301C35.2469 35.0419 35.8395 34.7699 36.282 34.2833C36.7246 33.7968 36.9821 33.1341 37 32.436V19.5832C37 18.8716 36.7503 18.1891 36.3059 17.6858C35.8614 17.1826 35.2586 16.8999 34.6301 16.8999H13.7625L13.6471 17.8227L34.6301 17.8721C35.0295 17.8772 35.4113 18.0591 35.6938 18.3789C35.9762 18.6987 36.1369 19.131 36.1413 19.5832V32.3582C36.1369 32.8105 35.9762 33.2428 35.6938 33.5626C35.4113 33.8824 35.0295 34.0643 34.6301 34.0693H13.3699C12.9691 34.0693 12.5847 33.8891 12.3013 33.5682C12.0179 33.2473 11.8587 32.812 11.8587 32.3582V19.5055C11.8587 19.0516 12.0179 18.6164 12.3013 18.2955C12.5847 17.9746 12.9691 17.7943 13.3699 17.7943L13.8745 17.7962L13.7625 16.8999Z" fill="#1D1D1D"/>
<path d="M11 32.436H10V32.4488L10.0003 32.4616L11 32.436ZM11.7179 34.2833L10.9782 34.9562L10.9782 34.9562L11.7179 34.2833ZM13.3699 35.0416V34.0416H13.3694L13.3699 35.0416ZM34.6301 35.0416L34.6306 34.0416H34.6301V35.0416ZM36.282 34.2833L37.0218 34.9562L37.0218 34.9562L36.282 34.2833ZM37 32.436L37.9997 32.4616L38 32.4488V32.436H37ZM36.3059 17.6858L35.5563 18.3478L35.5563 18.3478L36.3059 17.6858ZM13.6471 17.8227L12.6549 17.6987L12.5147 18.82L13.6448 18.8227L13.6471 17.8227ZM34.6301 17.8721L34.6428 16.8722L34.6325 16.8721L34.6301 17.8721ZM35.6938 18.3789L34.9443 19.0409V19.0409L35.6938 18.3789ZM36.1413 19.5832H37.1414L37.1413 19.5734L36.1413 19.5832ZM36.1413 32.3582L37.1413 32.3681V32.3582H36.1413ZM35.6938 33.5626L36.4433 34.2246V34.2246L35.6938 33.5626ZM34.6301 34.0693V35.0694L34.6428 35.0693L34.6301 34.0693ZM12.3013 33.5682L11.5518 34.2301H11.5518L12.3013 33.5682ZM12.3013 18.2955L11.5518 17.6335L11.5518 17.6335L12.3013 18.2955ZM13.3699 17.7943L13.3735 16.7943H13.3699V17.7943ZM13.8745 17.7962L13.8709 18.7962L15.0078 18.8003L14.8668 17.6722L13.8745 17.7962ZM13.3699 17.8999H13.7625V15.8999H13.3699V17.8999ZM12.4437 18.3478C12.7129 18.0429 13.0495 17.8999 13.3699 17.8999V15.8999C12.4332 15.8999 11.5642 16.3223 10.9446 17.0239L12.4437 18.3478ZM12 19.5832C12 19.0994 12.1709 18.6567 12.4437 18.3478L10.9446 17.0239C10.3285 17.7214 10 18.6437 10 19.5832H12ZM12 32.436V19.5832H10V32.436H12ZM12.4577 33.6105C12.1872 33.3131 12.0118 32.8847 11.9997 32.4104L10.0003 32.4616C10.0239 33.3836 10.3636 34.2805 10.9782 34.9562L12.4577 33.6105ZM13.3694 34.0416C13.0548 34.0417 12.7247 33.9041 12.4577 33.6105L10.9782 34.9562C11.5962 35.6357 12.4514 36.042 13.3704 36.0416L13.3694 34.0416ZM34.6301 34.0416H13.3699V36.0416H34.6301V34.0416ZM35.5423 33.6105C35.2752 33.9041 34.9452 34.0417 34.6306 34.0416L34.6296 36.0416C35.5486 36.042 36.4038 35.6357 37.0218 34.9562L35.5423 33.6105ZM36.0003 32.4104C35.9882 32.8847 35.8128 33.3131 35.5423 33.6105L37.0218 34.9562C37.6364 34.2805 37.9761 33.3836 37.9997 32.4616L36.0003 32.4104ZM36 19.5832V32.436H38V19.5832H36ZM35.5563 18.3478C35.8291 18.6567 36 19.0994 36 19.5832H38C38 18.6437 37.6715 17.7214 37.0554 17.0239L35.5563 18.3478ZM34.6301 17.8999C34.9505 17.8999 35.2871 18.0429 35.5563 18.3478L37.0554 17.0239C36.4358 16.3223 35.5668 15.8999 34.6301 15.8999V17.8999ZM13.7625 17.8999H34.6301V15.8999H13.7625V17.8999ZM12.7702 16.7759L12.6549 17.6987L14.6394 17.9467L14.7548 17.0239L12.7702 16.7759ZM34.6325 16.8721L13.6495 16.8227L13.6448 18.8227L34.6278 18.8721L34.6325 16.8721ZM36.4433 17.7169C35.9883 17.2017 35.3455 16.8811 34.6428 16.8722L34.6175 18.872C34.7136 18.8733 34.8344 18.9164 34.9443 19.0409L36.4433 17.7169ZM37.1413 19.5734C37.1346 18.8964 36.895 18.2283 36.4433 17.7169L34.9443 19.0409C35.0575 19.1691 35.1392 19.3656 35.1414 19.5931L37.1413 19.5734ZM37.1413 32.3582V19.5832H35.1413V32.3582H37.1413ZM36.4433 34.2246C36.895 33.7131 37.1346 33.0451 37.1413 32.3681L35.1414 32.3484C35.1392 32.5759 35.0575 32.7724 34.9443 32.9006L36.4433 34.2246ZM34.6428 35.0693C35.3455 35.0604 35.9883 34.7397 36.4433 34.2246L34.9443 32.9006C34.8344 33.025 34.7136 33.0682 34.6175 33.0694L34.6428 35.0693ZM13.3699 35.0693H34.6301V33.0693H13.3699V35.0693ZM11.5518 34.2301C12.0104 34.7494 12.6609 35.0693 13.3699 35.0693V33.0693C13.2772 33.0693 13.159 33.0287 13.0508 32.9062L11.5518 34.2301ZM10.8587 32.3582C10.8587 33.0399 11.0967 33.7149 11.5518 34.2301L13.0508 32.9062C12.939 32.7797 12.8587 32.5842 12.8587 32.3582H10.8587ZM10.8587 19.5055V32.3582H12.8587V19.5055H10.8587ZM11.5518 17.6335C11.0967 18.1488 10.8587 18.8238 10.8587 19.5055H12.8587C12.8587 19.2795 12.939 19.084 13.0508 18.9575L11.5518 17.6335ZM13.3699 16.7943C12.6609 16.7943 12.0104 17.1143 11.5518 17.6335L13.0508 18.9575C13.159 18.835 13.2772 18.7943 13.3699 18.7943V16.7943ZM13.8782 16.7962L13.3735 16.7944L13.3662 18.7943L13.8709 18.7962L13.8782 16.7962ZM14.8668 17.6722L14.7548 16.7759L12.7702 17.0239L12.8823 17.9202L14.8668 17.6722Z" fill="#1D1D1D" mask="url(#path-4-inside-1_590_9475)"/>
<circle cx="23.9" cy="25.9" r="5.45" stroke="#1D1D1D" stroke-width="0.9"/>
<path d="M23.9004 23L23.9004 29" stroke="#1D1D1D" stroke-width="0.9"/>
<path d="M27 25.8999L21 25.8999" stroke="#1D1D1D" stroke-width="0.9"/>
</svg>
