<svg width="94" height="32" viewBox="0 0 94 32" fill="none" xmlns="http://www.w3.org/2000/svg">
<rect width="94" height="29" fill="#FDB001" fill-opacity="0.3"/>
<path d="M20.912 18.8407L20.912 21.6293C20.912 21.6293 20.912 21.6294 20.912 21.6295V21.6297H20.837C20.8373 21.6863 20.8206 21.7418 20.7892 21.789C20.7577 21.8362 20.7129 21.8729 20.6605 21.8944L20.912 18.8407ZM20.912 18.8407L23.7123 18.8407L23.7127 18.8407C23.7837 18.8403 23.8531 18.8189 23.9119 18.7792C23.9704 18.7398 24.016 18.6841 24.0431 18.619C24.0733 18.552 24.0824 18.4774 24.0689 18.4051C24.0555 18.3325 24.0199 18.2659 23.9672 18.2141C23.9671 18.214 23.967 18.214 23.967 18.2139L21.4432 15.6901C21.8838 14.7798 22.0894 13.7734 22.0409 12.7627C21.9916 11.734 21.6806 10.735 21.1375 9.86003C20.5943 8.98507 19.837 8.26315 18.937 7.76255C18.037 7.26195 17.0242 6.99922 15.9944 6.99922C14.9645 6.99922 13.9517 7.26195 13.0518 7.76255C12.1518 8.26315 11.3944 8.98507 10.8513 9.86003C10.3081 10.735 9.99715 11.734 9.94781 12.7627C9.89933 13.7734 10.105 14.7798 10.5456 15.6901L8.02123 18.2144L8.02117 18.2144L8.01882 18.2169C7.9713 18.2691 7.94017 18.3341 7.9293 18.4038C7.91859 18.4724 7.92801 18.5427 7.95639 18.6061C7.98084 18.6722 8.02415 18.7296 8.08097 18.7713L8.12532 18.7108L8.08097 18.7713C8.13863 18.8135 8.20759 18.8377 8.27903 18.8406L8.27903 18.8407H8.28209H11.0825V21.6409V21.641H11.1575L20.912 18.8407ZM20.552 21.9893C20.5523 21.9893 20.5525 21.9893 20.5527 21.9893L20.5523 21.9143L20.5514 21.9893C20.5516 21.9893 20.5518 21.9893 20.552 21.9893ZM11.4417 22.0007C11.4419 22.0007 11.4422 22.0007 11.4424 22.0007C11.4426 22.0007 11.4428 22.0007 11.4431 22.0007L11.4422 21.9257L11.4417 22.0007ZM15.9972 16.4549H15.9973C16.9124 16.4542 17.7898 16.0903 18.4369 15.4432C19.084 14.7961 19.4479 13.9187 19.4487 13.0036V13.0035C19.4487 12.3209 19.2462 11.6536 18.867 11.086C18.4877 10.5184 17.9487 10.076 17.318 9.81479C16.6874 9.55356 15.9934 9.48521 15.3239 9.61838C14.6544 9.75156 14.0394 10.0803 13.5567 10.563C13.074 11.0457 12.7453 11.6606 12.6121 12.3302C12.4789 12.9997 12.5473 13.6936 12.8085 14.3243C13.0697 14.955 13.5121 15.494 14.0797 15.8733C14.6473 16.2525 15.3146 16.4549 15.9972 16.4549ZM13.8429 18.7296L11.8018 20.763V18.481C11.8018 18.3856 11.764 18.2941 11.6965 18.2266C11.629 18.1592 11.5376 18.1213 11.4422 18.1213H9.1521L10.9139 16.3595C11.6154 17.4393 12.6409 18.269 13.8429 18.7296ZM10.6631 13.0718C10.6631 12.0168 10.9759 10.9855 11.562 10.1083C12.1482 9.23115 12.9812 8.54746 13.9559 8.14373C14.9306 7.74 16.0031 7.63437 17.0379 7.84019C18.0726 8.04601 19.023 8.55403 19.769 9.30003C20.515 10.046 21.023 10.9965 21.2289 12.0312C21.4347 13.0659 21.329 14.1384 20.9253 15.1131C20.5216 16.0878 19.8379 16.9209 18.9607 17.507C18.0835 18.0931 17.0522 18.406 15.9972 18.406C14.5825 18.406 13.2258 17.844 12.2254 16.8436C11.2251 15.8433 10.6631 14.4865 10.6631 13.0718ZM20.5523 18.1213C20.4569 18.1213 20.3654 18.1592 20.2979 18.2266C20.2305 18.2941 20.1926 18.3856 20.1926 18.481V20.7737L18.1511 18.7296C19.3544 18.2667 20.3796 17.4328 21.0778 16.3485L22.8429 18.1213H20.5523ZM14.4794 10.7319C14.9286 10.4317 15.4568 10.2715 15.9971 10.2714C16.7215 10.2722 17.416 10.5603 17.9282 11.0725C18.4405 11.5847 18.7285 12.2792 18.7293 13.0036C18.7293 13.5439 18.569 14.0721 18.2688 14.5214C17.9686 14.9706 17.5419 15.3208 17.0427 15.5276C16.5435 15.7344 15.9942 15.7885 15.4642 15.6831C14.9343 15.5776 14.4474 15.3174 14.0654 14.9354C13.6833 14.5533 13.4231 14.0665 13.3177 13.5365C13.2122 13.0065 13.2663 12.4572 13.4731 11.958C13.6799 11.4588 14.0301 11.0321 14.4794 10.7319Z" fill="#1D1D1D" stroke="black" stroke-width="0.15"/>
<path d="M29.3977 18H32.7297C34.6617 18 36.0197 16.992 36.0197 15.144C36.0197 13.632 35.0397 13.002 34.3537 12.75C34.9277 12.554 35.6977 12.022 35.6977 10.748C35.6977 9.292 34.6477 8.354 32.8417 8.354H29.3977V18ZM30.7137 12.302V9.418H32.6457C33.8077 9.418 34.3817 9.992 34.3817 10.86C34.3817 11.784 33.8497 12.302 32.5477 12.302H30.7137ZM30.7137 13.366H32.4917C33.9477 13.366 34.6477 14.038 34.6477 15.158C34.6477 16.404 33.7797 16.95 32.6177 16.95H30.7137V13.366ZM43.1689 14.71C43.1829 14.654 43.1829 14.206 43.1829 14.15C43.1829 12.47 42.5249 10.734 40.2569 10.734C38.0169 10.734 37.1489 12.68 37.1489 14.43C37.1489 16.418 37.9469 18.14 40.1869 18.14C42.1049 18.14 42.8189 16.908 43.0709 15.956H41.7969C41.6709 16.32 41.3349 17.076 40.2429 17.076C39.0249 17.076 38.4649 16.026 38.4789 14.71H43.1689ZM38.5069 13.786C38.5629 12.974 38.8849 11.77 40.2289 11.77C41.4189 11.77 41.8669 12.652 41.9089 13.786H38.5069ZM44.1182 15.928C44.2582 17.426 45.3502 18.126 46.8902 18.126C48.4442 18.126 49.5222 17.328 49.5222 15.97C49.5222 14.85 48.9482 14.206 47.1002 13.716C45.9382 13.422 45.6722 13.156 45.6722 12.652C45.6722 12.092 46.0222 11.728 46.7642 11.728C47.7022 11.728 47.9962 12.274 48.0942 12.806H49.3682C49.2702 11.7 48.5842 10.734 46.8342 10.734C45.0002 10.734 44.3702 11.826 44.3702 12.764C44.3702 13.73 44.8322 14.36 46.5962 14.85C47.7862 15.172 48.2342 15.48 48.2342 16.082C48.2342 16.67 47.8422 17.132 46.9182 17.132C46.0922 17.132 45.5182 16.698 45.3922 15.928H44.1182ZM50.1117 11.938H51.2317V16.46C51.2317 17.664 51.7217 18.098 52.8277 18.098C53.0797 18.098 53.4997 18.07 53.7937 17.972V17.006C53.6397 17.034 53.4577 17.062 53.2757 17.062C52.6737 17.062 52.5197 16.81 52.5197 16.236V11.938H53.9337V10.874H52.5197V8.83H51.2317V10.874H50.1117V11.938ZM54.5909 15.928C54.7309 17.426 55.8229 18.126 57.3629 18.126C58.9169 18.126 59.9949 17.328 59.9949 15.97C59.9949 14.85 59.4209 14.206 57.5729 13.716C56.4109 13.422 56.1449 13.156 56.1449 12.652C56.1449 12.092 56.4949 11.728 57.2369 11.728C58.1749 11.728 58.4689 12.274 58.5669 12.806H59.8409C59.7429 11.7 59.0569 10.734 57.3069 10.734C55.4729 10.734 54.8429 11.826 54.8429 12.764C54.8429 13.73 55.3049 14.36 57.0689 14.85C58.2589 15.172 58.7069 15.48 58.7069 16.082C58.7069 16.67 58.3149 17.132 57.3909 17.132C56.5649 17.132 55.9909 16.698 55.8649 15.928H54.5909ZM67.0536 14.71C67.0676 14.654 67.0676 14.206 67.0676 14.15C67.0676 12.47 66.4096 10.734 64.1416 10.734C61.9016 10.734 61.0336 12.68 61.0336 14.43C61.0336 16.418 61.8316 18.14 64.0716 18.14C65.9896 18.14 66.7036 16.908 66.9556 15.956H65.6816C65.5556 16.32 65.2196 17.076 64.1276 17.076C62.9096 17.076 62.3496 16.026 62.3636 14.71H67.0536ZM62.3916 13.786C62.4476 12.974 62.7696 11.77 64.1136 11.77C65.3036 11.77 65.7516 12.652 65.7936 13.786H62.3916ZM69.9073 18V7.808H68.6053V18H69.9073ZM73.2023 18V7.808H71.9003V18H73.2023ZM80.7392 14.71C80.7532 14.654 80.7532 14.206 80.7532 14.15C80.7532 12.47 80.0952 10.734 77.8272 10.734C75.5872 10.734 74.7192 12.68 74.7192 14.43C74.7192 16.418 75.5172 18.14 77.7572 18.14C79.6752 18.14 80.3892 16.908 80.6412 15.956H79.3672C79.2412 16.32 78.9052 17.076 77.8132 17.076C76.5952 17.076 76.0352 16.026 76.0492 14.71H80.7392ZM76.0772 13.786C76.1332 12.974 76.4552 11.77 77.7992 11.77C78.9892 11.77 79.4372 12.652 79.4792 13.786H76.0772ZM82.2635 18H83.5655V14.556C83.5655 13.002 84.2375 12.134 85.8195 12.092V10.748C84.6155 10.762 83.8595 11.462 83.5375 12.288C83.5375 11.672 83.5375 11.21 83.5095 10.874H82.2355C82.2495 11.252 82.2635 12.148 82.2635 13.296V18Z" fill="#1D1D1D"/>
<path d="M24 29L20.1667 32L16.3333 29L12.5 32L8.34722 29L4.19444 32L0 29L8.34722 29L16.3333 29L24 29Z" fill="#FDB001" fill-opacity="0.3"/>
<path d="M48 29L44.1667 32L40.3333 29L36.5 32L32.3472 29L28.1944 32L24 29L32.3472 29L40.3333 29L48 29Z" fill="#FDB001" fill-opacity="0.3"/>
<path d="M88 29L84.1667 32L80.3333 29L76.5 32L72.3472 29L68.1944 32L64 29L72.3472 29L80.3333 29L88 29Z" fill="#FDB001" fill-opacity="0.3"/>
<path d="M64 29L59.9792 32L55.9994 29L52.0197 32L48 29L55.9994 29L64 29Z" fill="#FDB001" fill-opacity="0.3"/>
<path d="M91.5 32L94 29L88 29L91.5 32Z" fill="#FDB001" fill-opacity="0.3"/>
</svg>
