<svg width="669" height="146" viewBox="0 0 669 146" fill="none" xmlns="http://www.w3.org/2000/svg">
<path d="M-2 0.5L-1.93457 76.7109L-1.92148 137.835L9.32008 145.5L20.5486 137.835L31.7771 145.5L43.0055 137.835L54.234 145.5L65.4625 137.835L76.6779 145.5L87.9064 137.835L99.1349 145.5L109.827 138.202L120.545 145.5L121.055 145.146L121.579 145.5L132.297 138.189L143.002 145.5L143.512 145.159L144.023 145.5L154.741 138.189L165.459 145.5L165.969 145.159L166.48 145.5L177.185 138.189L187.903 145.5L188.413 145.159L188.91 145.5L199.628 138.189L210.347 145.5L210.857 145.159L211.354 145.5L222.072 138.176L232.804 145.5L244.032 137.835L255.247 145.5L266.476 137.835L277.704 145.5L288.92 137.835L300.135 145.5L311.364 137.835L322.579 145.5L333.533 138.018L344.513 145.5L355.754 137.835L366.97 145.5L378.198 137.835L389.427 145.5L400.655 137.835L411.87 145.5L423.099 137.835L434.327 145.5L445.032 138.202L455.737 145.5L456.261 145.146L456.771 145.5L467.489 138.189L478.194 145.5L478.705 145.159L479.215 145.5L489.933 138.189L500.651 145.5L501.162 145.159L501.672 145.5L512.39 138.189L523.095 145.5L523.606 145.159L524.116 145.5L534.821 138.189L545.552 145.5L546.049 145.159L546.547 145.5L557.278 138.176L567.996 145.5L579.224 137.835L590.44 145.5L601.668 137.835L612.897 145.5L624.112 137.835L635.341 145.5L646.556 137.835L657.772 145.5L669 137.835V76.7109V54.8556V0.5H-2Z" fill="white"/>
</svg>
