<svg width="38" height="37" viewBox="0 0 38 37" fill="none" xmlns="http://www.w3.org/2000/svg">
<path d="M30.6671 0H16.5592C12.4942 0 9.22632 3.34763 9.22632 7.29304C9.22632 10.7602 11.737 13.7492 15.1245 14.4267V18.3322C15.1245 18.8503 15.7622 19.1293 16.1607 18.7706L20.3452 14.5462H31.504C33.4169 14.5462 38 12.1551 38 7.25319C38 3.26792 34.732 0 30.6671 0ZM31.504 13.3507H20.1061C19.9467 13.3507 19.7873 13.4304 19.6677 13.5101L16.3201 16.8577V13.9086C16.3201 13.5898 16.081 13.3507 15.802 13.3108C12.7334 12.9123 10.4618 10.3218 10.4618 7.29304C10.4618 4.02512 13.1319 1.19558 16.5991 1.19558H30.7069C34.0944 1.19558 36.8442 3.90556 36.8442 7.29304C36.8044 11.0791 33.4568 13.2311 31.504 13.3507Z" fill="white"/>
<path d="M24.3735 31.6697L20.4609 27.7647C19.936 27.2409 19.1726 27.1456 18.5046 27.479L15.8326 28.6219C15.1646 28.2886 13.3037 27.2885 11.3474 25.336C9.39108 23.3835 8.38907 21.5263 8.05507 20.8596L9.20022 18.1927C9.53422 17.5737 9.43879 16.7641 8.91393 16.2402L5.00133 12.3353C4.52418 11.859 3.90389 11.859 3.33132 12.621C3.04503 13.002 3.42675 12.3829 0.373007 17.3832C-0.199569 18.0975 -0.0564251 18.9547 0.420722 19.7643C0.516151 19.9547 2.80646 24.1455 7.67335 29.0029C11.3951 32.7174 15.4986 35.5271 16.9777 36.289C18.2183 36.9081 18.7432 36.7176 19.3157 36.3367C24.3735 33.1936 23.7055 33.6222 24.0872 33.3365C24.8506 32.7174 24.8029 32.0983 24.3735 31.6697ZM18.4569 35.1461C18.3614 35.2414 18.266 35.3366 17.598 35.0033C17.4549 34.908 13.3514 32.6698 8.67536 28.0028C3.99932 23.3359 1.75673 19.2404 1.6613 19.0976C1.3273 18.4308 1.42273 18.3356 1.51816 18.2404C1.56587 18.1451 4.28561 13.7639 4.33332 13.7163L7.91192 17.2879C8.05507 17.4308 7.95964 17.526 7.91192 17.6689L6.67134 20.6215C6.62363 20.7643 6.57591 21.0024 6.67134 21.1453C6.71906 21.2405 7.72107 23.6693 10.3931 26.3361C13.0651 29.0029 15.4986 30.003 15.594 30.0506C15.7848 30.0982 15.9757 30.0982 16.1188 30.0506C16.2143 30.003 19.1249 28.8124 19.1726 28.7648C19.268 28.7172 19.3634 28.7172 19.4589 28.8124L23.0375 32.3841C22.942 32.3841 18.5523 35.0985 18.4569 35.1461Z" fill="white"/>
<line x1="15.343" y1="5.35366" x2="31.3531" y2="5.35366" stroke="white" stroke-width="1.3"/>
<line x1="15.343" y1="8.68936" x2="24.6822" y2="8.68936" stroke="white" stroke-width="1.3"/>
</svg>
