<svg width="38" height="36" viewBox="0 0 38 36" fill="none" xmlns="http://www.w3.org/2000/svg">
<path d="M11.5182 22.6443L19.168 28.9875L19.1507 29.0023L11.5182 22.6443ZM19.1596 27.4858L12.2512 21.7577L19.1448 27.4989L19.1596 27.4858ZM38 12.5157V35.6735H0V12.5136L4.06262 9.85461V3.50719H13.7611L19.1199 0L24.4104 3.50719H33.9348V9.82088L38 12.5157ZM33.9353 15.0212L36.4678 12.8799L33.9353 11.2012V15.0212ZM15.8612 3.50719H22.3288L19.1157 1.37733L15.8612 3.50719ZM5.21402 15.8972L12.2512 21.7577L19.1448 27.4989L19.16 27.4858L32.7843 15.9006V10.4381V9.05781V4.65686H26.1448H24.0629H14.1048H12.0046H5.21402V9.10123V10.476V15.8972ZM1.54238 12.8791L4.06262 14.9689V11.2298L1.54238 12.8791ZM36.8486 14.0642L19.1832 28.9997L19.1685 28.9875L11.5182 22.6443L1.1514 14.0486V34.5242H36.849V14.0642H36.8486ZM18.9143 21.3918C15.9309 21.3918 13.4013 19.2109 13.4013 15.7227C13.4013 11.9798 16.0026 8.74583 20.0433 8.74583C23.2091 8.74583 25.338 10.9621 25.338 13.9963C25.338 16.7218 23.8091 18.3213 22.0987 18.3213C21.3704 18.3213 20.6973 17.8306 20.7526 16.7218H20.6796C20.0429 17.7939 19.2052 18.3213 18.1138 18.3213C17.0586 18.3213 16.1487 17.4668 16.1487 16.0313C16.1487 13.7787 17.9322 11.726 20.4617 11.726C21.2433 11.726 21.9353 11.8896 22.4078 12.1076L21.79 15.396C21.5164 16.7767 21.7347 17.4132 22.336 17.431C23.2636 17.4499 24.301 16.2138 24.301 14.1059C24.301 11.4718 22.7181 9.58184 19.8972 9.58184C16.9315 9.58184 14.4387 11.9263 14.4387 15.6135C14.4387 18.6477 16.4215 20.5191 19.1148 20.5191C20.1522 20.5191 21.1162 20.3011 21.8622 19.8833L22.1536 20.665C21.1525 21.1915 20.1341 21.3918 18.9143 21.3918ZM21.1525 12.8154C20.9709 12.7615 20.661 12.6881 20.2426 12.6881C18.642 12.6881 17.35 14.1957 17.35 15.9588C17.35 16.7581 17.7494 17.3395 18.5512 17.3395C19.6063 17.3395 20.5702 15.9954 20.7708 14.8681L21.1525 12.8154Z" fill="white"/>
</svg>
