<svg width="36" height="50" viewBox="0 0 36 50" fill="none" xmlns="http://www.w3.org/2000/svg">
<path d="M30.3525 1H5.24748C2.90166 1 1 2.87735 1 5.19318V44.8068C1 47.1227 2.90166 49 5.24748 49H30.3525C32.6983 49 34.5999 47.1227 34.5999 44.8068V5.19318C34.5999 2.87735 32.6983 1 30.3525 1Z" stroke="#1D1D1B" stroke-width="1.4" stroke-linecap="round" stroke-linejoin="round"/>
<path d="M1 19.7159H34.6" stroke="#1D1D1B" stroke-width="1.4" stroke-linecap="round" stroke-linejoin="round"/>
<path d="M6.69922 9.42023V13.8523" stroke="#1D1D1B" stroke-width="1.4" stroke-linecap="round" stroke-linejoin="round"/>
<path d="M6.69922 25.7843V30.2158" stroke="#1D1D1B" stroke-width="1.4" stroke-linecap="round" stroke-linejoin="round"/>
<path d="M9.336 11.544V12.344H11.368V11.544H9.336ZM13.5597 14V8.672H12.9197C12.6637 8.936 12.2477 9.144 11.8477 9.192V9.888C12.0077 9.88 12.4477 9.816 12.6237 9.76V14H13.5597ZM16.3307 14.08C17.5308 14.08 18.2108 13.464 18.2108 12.432C18.2108 11.72 17.7708 11.28 17.3708 11.128C17.7388 10.96 18.0428 10.6 18.0428 10.016C18.0428 9.152 17.3788 8.608 16.4108 8.608C15.3388 8.608 14.7308 9.192 14.7308 10.048C14.7308 10.568 14.9868 10.976 15.3868 11.176C15.0268 11.336 14.5468 11.72 14.5468 12.464C14.5468 13.36 15.1628 14.08 16.3307 14.08ZM16.3948 13.36C15.7948 13.36 15.4828 12.952 15.4828 12.432C15.4828 11.936 15.7308 11.528 16.3708 11.528C16.9308 11.528 17.2668 11.856 17.2668 12.44C17.2668 12.984 16.9708 13.36 16.3948 13.36ZM16.3868 9.312C16.8748 9.312 17.1388 9.616 17.1388 10.08C17.1388 10.552 16.8748 10.816 16.3868 10.816C15.8748 10.816 15.6348 10.504 15.6348 10.056C15.6348 9.616 15.8828 9.312 16.3868 9.312ZM20.0829 7.376C19.2429 7.376 18.7789 8.032 18.7789 8.936C18.7789 9.896 19.1709 10.584 20.0589 10.584C20.9149 10.584 21.3389 9.944 21.3389 8.896C21.3389 8.064 20.9629 7.376 20.0829 7.376ZM20.0669 7.968C20.3949 7.968 20.6029 8.192 20.6029 8.92C20.6029 9.72 20.4269 9.984 20.0749 9.984C19.7629 9.984 19.5389 9.728 19.5389 8.936C19.5389 8.2 19.7469 7.968 20.0669 7.968ZM25.4258 12.32C25.2978 12.8 25.0418 13.304 24.2738 13.304C23.2578 13.304 22.9458 12.32 22.9458 11.24C22.9458 10.192 23.2898 9.224 24.2658 9.224C25.0418 9.224 25.2818 9.68 25.4018 10.2H26.3538C26.2818 9.32 25.7057 8.432 24.2978 8.432C22.7058 8.432 21.9458 9.728 21.9458 11.24C21.9458 12.84 22.5618 14.08 24.2578 14.08C25.6258 14.08 26.2258 13.232 26.3858 12.32H25.4258Z" fill="#1D1D1D"/>
</svg>
