<svg width="36" height="50" viewBox="0 0 36 50" fill="none" xmlns="http://www.w3.org/2000/svg">
<path d="M11.29 39.0223L23.4501 26.8622" stroke="#1D1D1B" stroke-width="1.4" stroke-miterlimit="10" stroke-linecap="round"/>
<path d="M11.29 27.3468L23.4501 38.814" stroke="#1D1D1B" stroke-width="1.4" stroke-miterlimit="10" stroke-linecap="round"/>
<path d="M15.377 40.7895L17.6288 38.5377L19.8461 40.7895" stroke="#1D1D1B" stroke-width="1.4" stroke-miterlimit="10" stroke-linecap="round"/>
<path d="M17.6289 33.0636V38.5374" stroke="#1D1D1B" stroke-width="1.4" stroke-miterlimit="10" stroke-linecap="round"/>
<path d="M17.3525 32.8206V27.3468" stroke="#1D1D1B" stroke-width="1.4" stroke-miterlimit="10" stroke-linecap="round"/>
<path d="M19.6039 25.1299L17.352 27.3472L15.1348 25.1299" stroke="#1D1D1B" stroke-width="1.4" stroke-miterlimit="10" stroke-linecap="round"/>
<path d="M9.66113 30.8459L11.913 33.0632L9.66113 35.315" stroke="#1D1D1B" stroke-width="1.4" stroke-miterlimit="10" stroke-linecap="round"/>
<path d="M17.3873 33.0636L11.8789 33.0982" stroke="#1D1D1B" stroke-width="1.4" stroke-miterlimit="10" stroke-linecap="round"/>
<path d="M17.6289 32.8209H23.1027" stroke="#1D1D1B" stroke-width="1.4" stroke-miterlimit="10" stroke-linecap="round"/>
<path d="M25.3198 35.0731L23.1025 32.8212L25.3198 30.604" stroke="#1D1D1B" stroke-width="1.4" stroke-miterlimit="10" stroke-linecap="round"/>
<path d="M1 32.9942C1 25.4418 12.1208 7.94646 16.2434 1.81444C16.4073 1.56427 16.6309 1.35882 16.8939 1.21664C17.157 1.07445 17.4514 1 17.7505 1C18.0495 1 18.3439 1.07445 18.607 1.21664C18.8701 1.35882 19.0936 1.56427 19.2575 1.81444C23.3801 8.05039 34.5009 25.5457 34.5009 32.9942C34.3048 37.3049 32.4544 41.3741 29.3345 44.3552C26.2147 47.3364 22.0656 49 17.7505 49C13.4353 49 9.28623 47.3364 6.16638 44.3552C3.04653 41.3741 1.19609 37.3049 1 32.9942V32.9942Z" stroke="#1D1D1B" stroke-width="1.4" stroke-linecap="round" stroke-linejoin="round"/>
</svg>
