<svg width="24" height="21" viewBox="0 0 24 21" fill="none" xmlns="http://www.w3.org/2000/svg">
<path d="M14.5092 0.00168631C14.3543 -0.00935292 14.1944 0.0380089 14.0697 0.14484C14.069 0.145552 14.0687 0.145909 14.0683 0.146265C13.8187 0.362776 13.7927 0.749149 14.0071 0.99771L19.8579 7.7733C19.8582 7.77366 19.8589 7.77437 19.8593 7.77473C19.9775 7.91112 20.1467 7.98341 20.3169 7.98341C20.4583 7.98341 20.5996 7.9332 20.7118 7.8374C20.7122 7.83705 20.7129 7.83634 20.7132 7.83598C20.9629 7.61947 20.9889 7.2331 20.7745 6.98453L14.9237 0.208939C14.8154 0.0832342 14.6641 0.0127255 14.5092 0.00168631V0.00168631ZM9.78403 0.00311071C9.62984 0.0187793 9.48134 0.0928489 9.37629 0.221403L3.83318 6.997C3.62379 7.25232 3.66082 7.63799 3.91793 7.84844C3.91793 7.8488 3.91793 7.8488 3.91793 7.84916C3.91793 7.84951 3.91793 7.84951 3.91793 7.84987C4.03081 7.94174 4.16863 7.98341 4.30038 7.98341C4.47381 7.98341 4.64972 7.90791 4.76902 7.76227L10.3121 0.986671C10.5222 0.730632 10.4848 0.345327 10.2274 0.135225C10.0992 0.0308869 9.93823 -0.0125579 9.78368 0.00311071H9.78403ZM0.605804 8.62297C0.420274 8.62297 0.24507 8.70843 0.130049 8.85373C0.0143149 9.00008 -0.0269932 9.19274 0.0175198 9.37257C0.0175198 9.37293 0.0175198 9.37293 0.0175198 9.37328C0.0175198 9.37364 0.0175198 9.37364 0.0175198 9.37399L2.48532 19.2406C2.48675 19.2459 2.48781 19.2491 2.48853 19.2523L2.48781 19.2502C2.51773 19.3549 2.58539 19.6059 2.76202 19.8427C2.93864 20.0796 3.257 20.3032 3.68575 20.3032H20.3155C20.7449 20.3032 21.0636 20.0788 21.2406 19.8399C21.4176 19.601 21.4849 19.3478 21.5159 19.2377C21.5162 19.237 21.5173 19.2342 21.518 19.2313L21.5187 19.2292L23.9823 9.37364C23.9823 9.37328 23.9823 9.37328 23.9823 9.37293C23.9823 9.37257 23.9823 9.37257 23.9823 9.37221C24.0275 9.1906 23.9848 9.00044 23.8708 8.85479C23.7572 8.7095 23.5824 8.62333 23.3979 8.62261C23.3975 8.62261 23.3975 8.62261 23.3972 8.62261C23.3968 8.62261 23.3968 8.62261 23.3965 8.62261L0.605804 8.62297ZM1.37926 9.83194H22.6216L20.35 18.9222C20.309 19.0622 20.282 19.0921 20.282 19.0946H3.72029C3.721 19.0924 3.69501 19.0661 3.65477 18.929C3.65406 18.9265 3.65406 18.9286 3.65334 18.9261L1.37926 9.83194ZM10.4613 11.0869C10.1291 11.0869 9.85775 11.3614 9.85775 11.6919V17.235C9.85775 17.5655 10.1319 17.8386 10.4613 17.8386C10.7918 17.8386 11.0649 17.5644 11.0649 17.235V11.6919C11.0649 11.3614 10.7925 11.0869 10.4613 11.0869ZM14.1573 11.0869C13.8251 11.0869 13.5523 11.36 13.5523 11.6919V17.235C13.5523 17.5672 13.8276 17.8386 14.1573 17.8386C14.4878 17.8386 14.7609 17.5644 14.7609 17.235V11.6919C14.7609 11.3614 14.4885 11.0869 14.1573 11.0869ZM5.46485 11.0893C5.13616 11.1267 4.89472 11.4298 4.93211 11.7585L5.54817 17.3016C5.58236 17.6085 5.84552 17.8386 6.14928 17.8386C6.15996 17.8386 6.18453 17.8397 6.21729 17.8357C6.54598 17.7984 6.78742 17.4953 6.75003 17.1666L6.13397 11.6246V11.6231C6.098 11.2998 5.79353 11.0573 5.46912 11.089C5.46841 11.089 5.46769 11.089 5.46698 11.089C5.46627 11.089 5.46556 11.089 5.46485 11.089V11.0893ZM18.5321 11.0893C18.2073 11.058 17.9046 11.3051 17.8687 11.6235L17.2526 17.1666C17.2526 17.167 17.2526 17.167 17.2526 17.1673C17.2526 17.1677 17.2526 17.1677 17.2526 17.168C17.2166 17.4957 17.4567 17.7994 17.7868 17.8357C17.8185 17.8393 17.843 17.8386 17.8537 17.8386C18.1564 17.8386 18.4196 17.6071 18.4534 17.3016V17.3002L19.0695 11.7581C19.0695 11.7578 19.0695 11.7578 19.0695 11.7574C19.0695 11.757 19.0695 11.757 19.0695 11.7567C19.1054 11.4291 18.8654 11.1253 18.5353 11.089C18.5349 11.089 18.5346 11.089 18.5339 11.089C18.5332 11.089 18.5328 11.089 18.5324 11.089L18.5321 11.0893Z" fill="#1D1D1D"/>
</svg>
