<svg width="20" height="21" viewBox="0 0 20 21" fill="none" xmlns="http://www.w3.org/2000/svg">
<path d="M10 0C8.02219 0 6.08879 0.587062 4.4443 1.68695C2.79981 2.78684 1.51809 4.35015 0.761209 6.17919C0.00433284 8.00824 -0.1937 10.0209 0.192152 11.9626C0.578004 13.9043 1.53041 15.6878 2.92894 17.0877C4.32746 18.4876 6.10929 19.441 8.0491 19.8272C9.98891 20.2134 11.9996 20.0152 13.8268 19.2576C15.6541 18.5 17.2159 17.217 18.3147 15.5709C19.4135 13.9248 20 11.9895 20 10.0098C20 8.69526 19.7413 7.39363 19.2388 6.17919C18.7362 4.96475 17.9997 3.86128 17.0711 2.93179C16.1425 2.0023 15.0401 1.26499 13.8268 0.761948C12.6136 0.25891 11.3132 0 10 0ZM15.676 8.24504L9.676 13.7504C9.48604 13.9248 9.23615 14.019 8.97848 14.0134C8.7208 14.0078 8.47524 13.9028 8.293 13.7204L5.293 10.7175C5.19749 10.6251 5.12131 10.5147 5.0689 10.3925C5.01649 10.2704 4.98891 10.1391 4.98775 10.0062C4.9866 9.87325 5.0119 9.74144 5.06218 9.61843C5.11246 9.49541 5.18672 9.38365 5.28061 9.28967C5.3745 9.19568 5.48615 9.12136 5.60905 9.07103C5.73195 9.0207 5.86363 8.99537 5.9964 8.99652C6.12918 8.99768 6.2604 9.02529 6.38241 9.07775C6.50441 9.13021 6.61476 9.20647 6.707 9.30207L9.03 11.6273L14.324 6.7696C14.5195 6.59014 14.7781 6.49575 15.0431 6.50721C15.3081 6.51866 15.5577 6.63501 15.737 6.83066C15.9163 7.02632 16.0106 7.28525 15.9991 7.5505C15.9877 7.81575 15.8715 8.06558 15.676 8.24504Z" fill="#FDB001"/>
</svg>
