<svg width="75" height="75" viewBox="0 0 75 75" fill="none" xmlns="http://www.w3.org/2000/svg">
<path d="M25.1924 39.1573L24.0257 51.0891C23.9283 52.0878 24.257 53.087 24.9279 53.8306C25.5987 54.5737 26.5558 55 27.5545 55H46.7553C47.7466 55 48.6991 54.579 49.3686 53.8452C50.0385 53.1109 50.3737 52.1208 50.2878 51.1283L49.0814 37.2098C52.8526 36.587 55.5337 33.2031 55.2525 29.3059C55.0415 26.3829 53.0012 23.7687 50.1756 22.8014C48.9096 22.3679 47.6072 22.2943 46.2973 22.5815C44.9492 19.2254 41.6969 17 38.073 17C34.6573 17 31.5667 18.9591 30.086 22.0262C28.9576 21.7347 27.7918 21.67 26.6149 21.8349C22.6637 22.3892 19.4839 25.6845 19.0536 29.6703C18.5915 33.9527 21.1562 37.878 25.1924 39.1573ZM19.9937 29.7728C20.3778 26.2136 23.2173 23.2708 26.7461 22.7756C27.1251 22.7225 27.5033 22.6958 27.8791 22.6958C28.6695 22.6958 29.4498 22.8134 30.2088 23.0479C30.2472 23.06 32.8164 23.8964 34.2778 26.3794C34.366 26.5295 34.5234 26.6127 34.685 26.6127C34.7668 26.6127 34.8499 26.5914 34.9251 26.5466C35.15 26.413 35.2243 26.1217 35.0913 25.896C33.8339 23.759 31.9033 22.7247 30.993 22.3336C32.3362 19.656 35.062 17.95 38.073 17.95C41.4393 17.95 44.4468 20.1 45.5563 23.3002C45.638 23.5364 45.8883 23.6688 46.1288 23.6018C47.3934 23.2501 48.6515 23.2831 49.8709 23.7008C52.3419 24.5467 54.126 26.8268 54.3097 29.3746C54.5646 32.9134 52.0229 35.9671 48.5232 36.3266C48.266 36.3528 48.0776 36.5817 48.1003 36.8403L49.3459 51.2107C49.4097 51.9491 49.1705 52.6568 48.6719 53.203C48.1732 53.7492 47.4927 54.05 46.7553 54.05H27.5545C26.8222 54.05 26.1205 53.7374 25.6283 53.1923C25.1366 52.6473 24.8951 51.9144 24.9667 51.1819L26.1717 38.8581C26.1943 38.6269 26.047 38.413 25.8236 38.353C22.0196 37.3297 19.5675 33.7213 19.9937 29.7728Z" fill="black"/>
<path d="M30.9894 49.451C31.2507 49.451 31.4622 49.2383 31.4622 48.976V44.4985C31.4622 44.2362 31.2507 44.0235 30.9894 44.0235C30.7281 44.0235 30.5166 44.2362 30.5166 44.4985V48.976C30.5166 49.2383 30.7281 49.451 30.9894 49.451Z" fill="black"/>
<path d="M37.1368 49.451C37.3982 49.451 37.6096 49.2383 37.6096 48.976V44.4985C37.6096 44.2362 37.3982 44.0235 37.1368 44.0235C36.8755 44.0235 36.6641 44.2362 36.6641 44.4985V48.976C36.6641 49.2383 36.8755 49.451 37.1368 49.451Z" fill="black"/>
<path d="M43.2833 49.451C43.5447 49.451 43.7561 49.2383 43.7561 48.976V44.4985C43.7561 44.2362 43.5447 44.0235 43.2833 44.0235C43.022 44.0235 42.8105 44.2362 42.8105 44.4985V48.976C42.8105 49.2383 43.022 49.451 43.2833 49.451Z" fill="black"/>
<circle cx="37.5" cy="37.5" r="36.5" stroke="#FDB001" stroke-width="2"/>
<circle cx="37.5" cy="37.5" r="31.5" stroke="#FDB001" stroke-width="0.75"/>
</svg>
