<svg width="28" height="28" viewBox="0 0 28 28" fill="none" xmlns="http://www.w3.org/2000/svg">
<g style="mix-blend-mode:multiply" opacity="0.3">
<circle cx="14" cy="14" r="14" fill="#FDB001"/>
</g>
<path d="M21 12.5455C21 17.6364 14 22 14 22C14 22 7 17.6364 7 12.5455C7 10.8095 7.7375 9.14463 9.05025 7.91712C10.363 6.68961 12.1435 6 14 6C15.8565 6 17.637 6.68961 18.9497 7.91712C20.2625 9.14463 21 10.8095 21 12.5455Z" stroke="black" stroke-linecap="round" stroke-linejoin="round"/>
<path d="M14.0008 15.0434C15.4251 15.0434 16.5798 13.9533 16.5798 12.6086C16.5798 11.2639 15.4251 10.1738 14.0008 10.1738C12.5765 10.1738 11.4219 11.2639 11.4219 12.6086C11.4219 13.9533 12.5765 15.0434 14.0008 15.0434Z" stroke="black" stroke-linecap="round" stroke-linejoin="round"/>
</svg>
