<svg width="30" height="24" viewBox="0 0 30 24" fill="none" xmlns="http://www.w3.org/2000/svg">
<path d="M4.2661 20.9111C2.71055 20.9111 1.31055 19.3556 1.31055 17.3333V5.04445C1.31055 3.02223 2.55499 1.46667 4.2661 1.46667H16.555C18.1105 1.46667 19.5105 3.02223 19.5105 5.04445V20.9111" stroke="#1D1D1D" stroke-miterlimit="10" stroke-linecap="round" stroke-linejoin="round"/>
<path d="M19.5101 20.9111H9.08789" stroke="#1D1D1D" stroke-miterlimit="10" stroke-linecap="round" stroke-linejoin="round"/>
<path d="M19.5117 9.55554H24.8006C26.9784 9.55554 28.6895 11.2667 28.6895 13.4444V17.8C28.6895 19.5111 27.4451 20.9111 25.7339 20.9111H24.3339" stroke="#1D1D1D" stroke-miterlimit="10" stroke-linecap="round" stroke-linejoin="round"/>
<path d="M6.75521 23.4C8.04387 23.4 9.08854 22.2857 9.08854 20.9111C9.08854 19.5366 8.04387 18.4222 6.75521 18.4222C5.46654 18.4222 4.42188 19.5366 4.42188 20.9111C4.42188 22.2857 5.46654 23.4 6.75521 23.4Z" stroke="#1D1D1D" stroke-miterlimit="10" stroke-linecap="round" stroke-linejoin="round"/>
<path d="M21.9993 23.4C23.288 23.4 24.3327 22.2857 24.3327 20.9111C24.3327 19.5366 23.288 18.4222 21.9993 18.4222C20.7107 18.4222 19.666 19.5366 19.666 20.9111C19.666 22.2857 20.7107 23.4 21.9993 23.4Z" stroke="#1D1D1D" stroke-miterlimit="10" stroke-linecap="round" stroke-linejoin="round"/>
<path fill-rule="evenodd" clip-rule="evenodd" d="M26.8222 15.4667H22V11.8889H24.3333C25.5778 11.8889 26.6667 12.9778 26.6667 14.2222V15.4667H26.8222Z" stroke="#1D1D1D" stroke-miterlimit="10" stroke-linecap="round" stroke-linejoin="round"/>
<path fill-rule="evenodd" clip-rule="evenodd" d="M6.75586 14.2223C6.75586 14.0667 6.91142 11.1112 7.06697 10.9556L7.22253 7.68896H8.15586L8.31141 7.84452L9.24475 9.40008C9.55586 9.71119 9.71142 10.0223 9.86697 10.3334L10.3336 10.9556V11.1112C10.3336 10.9556 10.4892 10.8001 10.6447 10.6445L12.2003 8.15563L12.3559 8.00008L12.5114 7.84452H13.4447C13.4447 7.84452 13.4447 8.15563 13.4447 8.31119C13.4447 8.46674 13.4447 8.6223 13.4447 8.77785L13.6003 11.2667C13.6003 11.889 13.6003 12.3556 13.7559 12.9779C13.7559 13.4445 13.9114 14.0667 13.9114 14.689H12.5114V14.5334C12.5114 14.2223 12.5114 13.9112 12.5114 13.6001C12.5114 13.289 12.3559 10.9556 12.3559 10.8001C12.3559 10.8001 12.3559 10.489 12.3559 10.3334C12.2003 10.3334 10.8003 12.6667 10.6447 12.8223H10.0225L8.46697 10.1779V11.1112C8.46697 11.4223 8.46697 11.889 8.46697 12.2001C8.46697 12.9779 8.31141 13.6001 8.31141 14.3779H6.91141C6.75586 14.3779 6.75586 14.2223 6.75586 14.2223Z" fill="#1D1D1D"/>
</svg>
