<svg width="108" height="42" viewBox="0 0 108 42" fill="none" xmlns="http://www.w3.org/2000/svg">
<rect width="108" height="42" fill="#E5E5E5"/>
<rect width="108" height="41.7273" rx="4" fill="#FDB40E"/>
<path d="M42.7242 26H44.6282V21.312H49.2522V19.712H44.6282V16.64H49.5562V15.024H42.7242V26ZM51.0329 26H52.9049V17.776H51.0329V26ZM51.0329 16.272H52.9049V14.368H51.0329V16.272ZM56.9362 26V14.368H55.0642V26H56.9362ZM58.1183 19.264H59.3183V24.048C59.3183 25.52 59.8783 26.096 61.3343 26.096C61.6223 26.096 62.1823 26.08 62.5663 25.952V24.624C62.3583 24.656 62.2303 24.656 62.0223 24.656C61.3503 24.656 61.2063 24.4 61.2063 23.808V19.264H62.7263V17.776H61.2063V15.504H59.3183V17.776H58.1183V19.264ZM70.6428 22.304C70.6588 22.208 70.6588 21.744 70.6588 21.648C70.6588 19.6 69.8588 17.616 67.1548 17.616C64.4508 17.616 63.4428 19.856 63.4428 21.888C63.4428 24.288 64.4668 26.16 67.0748 26.16C69.2988 26.16 70.1948 24.8 70.5468 23.552H68.7068C68.5788 23.936 68.2268 24.656 67.1388 24.656C65.8428 24.656 65.3468 23.536 65.3468 22.304H70.6428ZM65.3788 21.04C65.4268 20.224 65.7628 19.072 67.1228 19.072C68.3548 19.072 68.7868 19.952 68.8188 21.04H65.3788ZM72.2986 26H74.1706V22.16C74.1706 20.32 74.9546 19.568 76.6986 19.568V17.648C75.2426 17.648 74.4586 18.496 74.1546 19.296C74.1546 18.672 74.1386 18.144 74.1066 17.776H72.2666C72.2826 18.304 72.2986 19.232 72.2986 20.576V26ZM77.4551 23.536C77.6151 25.28 78.8791 26.144 80.7991 26.144C82.6711 26.144 84.0151 25.248 84.0151 23.6C84.0151 22.304 83.3431 21.52 81.1511 20.944C79.9031 20.624 79.5831 20.368 79.5831 19.872C79.5831 19.328 79.9511 19.008 80.6391 19.008C81.6151 19.008 81.9031 19.552 81.9831 20.08H83.8231C83.7271 18.736 82.8471 17.616 80.7351 17.616C78.4151 17.616 77.7271 18.992 77.7271 20.048C77.7271 21.2 78.2391 21.952 80.3671 22.544C81.6791 22.896 82.1591 23.168 82.1591 23.776C82.1591 24.368 81.7431 24.768 80.8471 24.768C79.9831 24.768 79.4071 24.32 79.2951 23.536H77.4551Z" fill="#1D1D1D"/>
<mask id="path-3-outside-1_1_167" maskUnits="userSpaceOnUse" x="17.6665" y="11" width="20" height="22" fill="black">
<rect fill="white" x="17.6665" y="11" width="20" height="22"/>
<path d="M18.2032 13.0218C18.384 12.9049 18.5808 12.7818 18.7899 12.728C19.3534 12.5848 19.9226 12.424 20.5012 12.3669C21.8665 12.2328 23.2385 12.115 24.61 12.0621C27.8259 11.939 31.0399 11.98 34.2379 12.3587C34.9072 12.4408 35.5731 12.5512 36.1862 12.8158C36.7624 13.0645 36.8073 13.2914 36.39 13.7017C34.2448 15.8125 32.0998 17.9231 29.9549 20.0335C29.9021 20.0823 29.861 20.1398 29.834 20.2026C29.807 20.2654 29.7947 20.3322 29.7978 20.3991C29.8025 22.2516 29.8034 24.1044 29.8006 25.9575C29.8006 27.8308 29.8006 29.7046 29.8006 31.579C29.8006 31.7431 29.7798 31.8962 29.5797 31.9729C29.3872 32.0472 29.2531 31.9561 29.1177 31.8523C27.7987 30.8374 26.4772 29.8252 25.1532 28.8158C24.9645 28.6714 24.8894 28.5212 24.8899 28.3042C24.8971 25.6649 24.8971 23.0259 24.8899 20.3872C24.8899 20.2814 24.8531 20.1501 24.7766 20.0742C23.0732 18.3902 21.3652 16.7101 19.6526 15.0341C19.1575 14.5478 18.6591 14.0645 18.165 13.577C17.9356 13.3497 17.9422 13.1905 18.2032 13.0218ZM19.8414 14.2906C21.6348 16.0521 23.4183 17.8194 25.2302 19.5674C25.5133 19.8419 25.6115 20.1066 25.6077 20.4607C25.595 23.0113 25.6021 25.5619 25.5974 28.1125C25.592 28.1828 25.6064 28.2531 25.6393 28.3174C25.6722 28.3818 25.7226 28.4382 25.7861 28.4818C26.8244 29.2684 27.8528 30.0624 28.885 30.8539C28.9379 30.895 28.9926 30.9315 29.0945 31.0045L29.0945 30.7358C29.0945 27.2756 29.0923 23.8151 29.0879 20.3544C29.0879 20.0844 29.1502 19.8809 29.3768 19.6638C30.5991 18.4948 31.7908 17.3012 32.991 16.1182C33.6055 15.5134 34.219 14.9084 34.8316 14.3033C34.8831 14.2528 34.9308 14.1995 34.9789 14.1486C34.304 14.2241 33.639 14.3094 32.9707 14.371C30.9031 14.5606 28.8279 14.6041 26.7508 14.586C25.8149 14.5778 21.7009 14.2828 20.7636 14.2614C20.6531 14.2603 20.5428 14.2537 20.4332 14.2417C20.3964 14.2372 20.3602 14.2295 20.3251 14.2188C20.1241 14.1929 19.9178 14.1621 19.6946 14.1326C19.7583 14.1991 19.797 14.2467 19.8414 14.2906ZM20.5493 13.6275C20.5828 13.6336 20.6173 13.6357 20.6517 13.6398C20.8603 13.6455 21.0694 13.6541 21.2785 13.6611C23.8186 13.9278 29.2125 14.1461 32.1684 13.8183C33.3101 13.7333 34.4428 13.5631 35.5783 13.424C35.6849 13.4108 35.7831 13.3419 35.9271 13.2824C33.8084 12.4182 20.7301 12.4273 18.8243 13.3234C19.3985 13.4249 19.9732 13.5263 20.5484 13.6275L20.5493 13.6275Z"/>
</mask>
<path d="M18.2032 13.0218C18.384 12.9049 18.5808 12.7818 18.7899 12.728C19.3534 12.5848 19.9226 12.424 20.5012 12.3669C21.8665 12.2328 23.2385 12.115 24.61 12.0621C27.8259 11.939 31.0399 11.98 34.2379 12.3587C34.9072 12.4408 35.5731 12.5512 36.1862 12.8158C36.7624 13.0645 36.8073 13.2914 36.39 13.7017C34.2448 15.8125 32.0998 17.9231 29.9549 20.0335C29.9021 20.0823 29.861 20.1398 29.834 20.2026C29.807 20.2654 29.7947 20.3322 29.7978 20.3991C29.8025 22.2516 29.8034 24.1044 29.8006 25.9575C29.8006 27.8308 29.8006 29.7046 29.8006 31.579C29.8006 31.7431 29.7798 31.8962 29.5797 31.9729C29.3872 32.0472 29.2531 31.9561 29.1177 31.8523C27.7987 30.8374 26.4772 29.8252 25.1532 28.8158C24.9645 28.6714 24.8894 28.5212 24.8899 28.3042C24.8971 25.6649 24.8971 23.0259 24.8899 20.3872C24.8899 20.2814 24.8531 20.1501 24.7766 20.0742C23.0732 18.3902 21.3652 16.7101 19.6526 15.0341C19.1575 14.5478 18.6591 14.0645 18.165 13.577C17.9356 13.3497 17.9422 13.1905 18.2032 13.0218ZM19.8414 14.2906C21.6348 16.0521 23.4183 17.8194 25.2302 19.5674C25.5133 19.8419 25.6115 20.1066 25.6077 20.4607C25.595 23.0113 25.6021 25.5619 25.5974 28.1125C25.592 28.1828 25.6064 28.2531 25.6393 28.3174C25.6722 28.3818 25.7226 28.4382 25.7861 28.4818C26.8244 29.2684 27.8528 30.0624 28.885 30.8539C28.9379 30.895 28.9926 30.9315 29.0945 31.0045L29.0945 30.7358C29.0945 27.2756 29.0923 23.8151 29.0879 20.3544C29.0879 20.0844 29.1502 19.8809 29.3768 19.6638C30.5991 18.4948 31.7908 17.3012 32.991 16.1182C33.6055 15.5134 34.219 14.9084 34.8316 14.3033C34.8831 14.2528 34.9308 14.1995 34.9789 14.1486C34.304 14.2241 33.639 14.3094 32.9707 14.371C30.9031 14.5606 28.8279 14.6041 26.7508 14.586C25.8149 14.5778 21.7009 14.2828 20.7636 14.2614C20.6531 14.2603 20.5428 14.2537 20.4332 14.2417C20.3964 14.2372 20.3602 14.2295 20.3251 14.2188C20.1241 14.1929 19.9178 14.1621 19.6946 14.1326C19.7583 14.1991 19.797 14.2467 19.8414 14.2906ZM20.5493 13.6275C20.5828 13.6336 20.6173 13.6357 20.6517 13.6398C20.8603 13.6455 21.0694 13.6541 21.2785 13.6611C23.8186 13.9278 29.2125 14.1461 32.1684 13.8183C33.3101 13.7333 34.4428 13.5631 35.5783 13.424C35.6849 13.4108 35.7831 13.3419 35.9271 13.2824C33.8084 12.4182 20.7301 12.4273 18.8243 13.3234C19.3985 13.4249 19.9732 13.5263 20.5484 13.6275L20.5493 13.6275Z" fill="#1D1D1D"/>
<path d="M18.2032 13.0218C18.384 12.9049 18.5808 12.7818 18.7899 12.728C19.3534 12.5848 19.9226 12.424 20.5012 12.3669C21.8665 12.2328 23.2385 12.115 24.61 12.0621C27.8259 11.939 31.0399 11.98 34.2379 12.3587C34.9072 12.4408 35.5731 12.5512 36.1862 12.8158C36.7624 13.0645 36.8073 13.2914 36.39 13.7017C34.2448 15.8125 32.0998 17.9231 29.9549 20.0335C29.9021 20.0823 29.861 20.1398 29.834 20.2026C29.807 20.2654 29.7947 20.3322 29.7978 20.3991C29.8025 22.2516 29.8034 24.1044 29.8006 25.9575C29.8006 27.8308 29.8006 29.7046 29.8006 31.579C29.8006 31.7431 29.7798 31.8962 29.5797 31.9729C29.3872 32.0472 29.2531 31.9561 29.1177 31.8523C27.7987 30.8374 26.4772 29.8252 25.1532 28.8158C24.9645 28.6714 24.8894 28.5212 24.8899 28.3042C24.8971 25.6649 24.8971 23.0259 24.8899 20.3872C24.8899 20.2814 24.8531 20.1501 24.7766 20.0742C23.0732 18.3902 21.3652 16.7101 19.6526 15.0341C19.1575 14.5478 18.6591 14.0645 18.165 13.577C17.9356 13.3497 17.9422 13.1905 18.2032 13.0218ZM19.8414 14.2906C21.6348 16.0521 23.4183 17.8194 25.2302 19.5674C25.5133 19.8419 25.6115 20.1066 25.6077 20.4607C25.595 23.0113 25.6021 25.5619 25.5974 28.1125C25.592 28.1828 25.6064 28.2531 25.6393 28.3174C25.6722 28.3818 25.7226 28.4382 25.7861 28.4818C26.8244 29.2684 27.8528 30.0624 28.885 30.8539C28.9379 30.895 28.9926 30.9315 29.0945 31.0045L29.0945 30.7358C29.0945 27.2756 29.0923 23.8151 29.0879 20.3544C29.0879 20.0844 29.1502 19.8809 29.3768 19.6638C30.5991 18.4948 31.7908 17.3012 32.991 16.1182C33.6055 15.5134 34.219 14.9084 34.8316 14.3033C34.8831 14.2528 34.9308 14.1995 34.9789 14.1486C34.304 14.2241 33.639 14.3094 32.9707 14.371C30.9031 14.5606 28.8279 14.6041 26.7508 14.586C25.8149 14.5778 21.7009 14.2828 20.7636 14.2614C20.6531 14.2603 20.5428 14.2537 20.4332 14.2417C20.3964 14.2372 20.3602 14.2295 20.3251 14.2188C20.1241 14.1929 19.9178 14.1621 19.6946 14.1326C19.7583 14.1991 19.797 14.2467 19.8414 14.2906ZM20.5493 13.6275C20.5828 13.6336 20.6173 13.6357 20.6517 13.6398C20.8603 13.6455 21.0694 13.6541 21.2785 13.6611C23.8186 13.9278 29.2125 14.1461 32.1684 13.8183C33.3101 13.7333 34.4428 13.5631 35.5783 13.424C35.6849 13.4108 35.7831 13.3419 35.9271 13.2824C33.8084 12.4182 20.7301 12.4273 18.8243 13.3234C19.3985 13.4249 19.9732 13.5263 20.5484 13.6275L20.5493 13.6275Z" stroke="#1D1D1D" stroke-width="0.5" mask="url(#path-3-outside-1_1_167)"/>
</svg>
