<svg width="28" height="28" viewBox="0 0 28 28" fill="none" xmlns="http://www.w3.org/2000/svg">
<circle cx="14" cy="14" r="14" fill="#AEE5E2"/>
<path d="M18.9171 21.4339C18.6653 21.681 18.3283 21.8206 17.9765 21.8233H9.91648C9.55621 21.8204 9.21151 21.675 8.95675 21.4186C8.70198 21.1622 8.55758 20.8152 8.55469 20.4526V7.54826C8.5689 7.19344 8.71829 6.85775 8.97185 6.61084C9.22541 6.36393 9.56369 6.22474 9.91648 6.22217H17.9765C18.3358 6.22511 18.6793 6.37081 18.9323 6.62755C19.1853 6.88428 19.3273 7.23124 19.3273 7.59284V13.9999" stroke="#1D1D1B" stroke-width="0.75" stroke-linecap="round" stroke-linejoin="round"/>
<path d="M8.55469 12.2954H19.3273" stroke="#1D1D1B" stroke-width="0.75" stroke-linecap="round" stroke-linejoin="round"/>
<path d="M10.3809 8.93018V10.3789" stroke="#1D1D1B" stroke-width="0.75" stroke-linecap="round" stroke-linejoin="round"/>
<path d="M10.3809 14.2788V15.7275" stroke="#1D1D1B" stroke-width="0.75" stroke-linecap="round" stroke-linejoin="round"/>
<path d="M21 15.0034L21 17.8889H17.125" stroke="#1D1D1B" stroke-width="0.75" stroke-linecap="round" stroke-linejoin="round"/>
<path d="M17.9543 19.2858L16.5703 17.8929L17.9543 16.4888" stroke="#1D1D1B" stroke-width="0.75" stroke-linecap="round" stroke-linejoin="round"/>
</svg>
