<svg width="28" height="28" viewBox="0 0 28 28" fill="none" xmlns="http://www.w3.org/2000/svg">
<circle cx="14" cy="14" r="14" fill="#AEE5E2"/>
<path d="M18.55 12.0557V20.7706C18.5386 21.1221 18.3916 21.4556 18.1398 21.7012C17.888 21.9468 17.551 22.0854 17.1993 22.0881H9.13915C8.77887 22.0852 8.43417 21.9408 8.17941 21.686C7.92464 21.4313 7.78024 21.0866 7.77734 20.7263V7.90541C7.79156 7.55289 7.94095 7.21937 8.19451 6.97405C8.44807 6.72873 8.78635 6.59045 9.13915 6.58789H17.1993C17.5585 6.59081 17.9021 6.73558 18.155 6.99065" stroke="#1D1D1B" stroke-width="0.75" stroke-linecap="round" stroke-linejoin="round"/>
<path d="M7.77734 12.6328H18.55" stroke="#1D1D1B" stroke-width="0.75" stroke-linecap="round" stroke-linejoin="round"/>
<path d="M9.60352 9.28906V10.7173" stroke="#1D1D1B" stroke-width="0.75" stroke-linecap="round" stroke-linejoin="round"/>
<path d="M9.60352 14.6035V16.0317" stroke="#1D1D1B" stroke-width="0.75" stroke-linecap="round" stroke-linejoin="round"/>
<path d="M20.2227 6.22217V9.73186H16.3477" stroke="#1D1D1B" stroke-width="0.75" stroke-linecap="round" stroke-linejoin="round"/>
<path d="M17.2218 11.138L15.8379 9.75406L17.2218 8.37012" stroke="#1D1D1B" stroke-width="0.75" stroke-linecap="round" stroke-linejoin="round"/>
</svg>
