<svg width="26" height="24" viewBox="0 0 26 24" fill="none" xmlns="http://www.w3.org/2000/svg">
<path d="M25.7177 18.0882L21.5772 13.9477C22.3064 12.4747 22.6478 10.84 22.569 9.19835C22.4903 7.55665 21.994 5.96218 21.1271 4.56578C20.2603 3.16937 19.0515 2.0172 17.6152 1.21825C16.1789 0.419306 14.5624 0 12.9189 0C11.2753 0 9.65886 0.419306 8.22253 1.21825C6.78619 2.0172 5.57743 3.16937 4.71058 4.56578C3.84373 5.96218 3.34746 7.55665 3.26871 9.19835C3.18996 10.84 3.53133 12.4747 4.26054 13.9477L0.120005 18.0882C0.0592241 18.1549 0.0194019 18.238 0.00549562 18.3272C-0.0084107 18.4163 0.00421295 18.5076 0.0417953 18.5897C0.0728144 18.6757 0.128772 18.7505 0.202522 18.8046C0.276273 18.8587 0.364469 18.8896 0.455849 18.8933H5.10245V23.5399C5.10199 23.6315 5.12889 23.7212 5.17971 23.7974C5.23053 23.8736 5.30295 23.9329 5.38769 23.9678C5.44331 23.9898 5.5027 24.0007 5.56251 24C5.62306 24.0003 5.68308 23.9887 5.73913 23.9658C5.79518 23.9429 5.84616 23.9092 5.88915 23.8665L10.66 19.0681C12.1458 19.4422 13.7011 19.4422 15.187 19.0681L19.9578 23.8481C20.0008 23.8908 20.0517 23.9245 20.1078 23.9474C20.1638 23.9703 20.2239 23.9819 20.2844 23.9816C20.3442 23.9823 20.4036 23.9714 20.4592 23.9494C20.544 23.9145 20.6164 23.8552 20.6672 23.779C20.718 23.7028 20.7449 23.6131 20.7445 23.5215V18.8933H25.3911C25.4819 18.8928 25.5706 18.8655 25.6459 18.8148C25.7212 18.764 25.7798 18.6921 25.8143 18.6081C25.8536 18.522 25.8655 18.4259 25.8482 18.3329C25.8309 18.2398 25.7853 18.1544 25.7177 18.0882V18.0882ZM6.02257 22.4128V18.4332C6.02257 18.3112 5.9741 18.1942 5.88782 18.1079C5.80154 18.0217 5.68452 17.9732 5.56251 17.9732H1.56919L4.7298 14.8126C5.88412 16.6508 7.62019 18.05 9.66164 18.7875L6.02257 22.4128ZM4.18233 9.69211C4.18233 7.96327 4.69499 6.27326 5.65548 4.83579C6.61596 3.39832 7.98114 2.27795 9.57837 1.61635C11.1756 0.954755 12.9332 0.781651 14.6288 1.11893C16.3244 1.45621 17.8819 2.28872 19.1044 3.51119C20.3268 4.73366 21.1594 6.29118 21.4966 7.9868C21.8339 9.68241 21.6608 11.44 20.9992 13.0372C20.3376 14.6344 19.2172 15.9996 17.7798 16.9601C16.3423 17.9206 14.6523 18.4332 12.9235 18.4332C10.6052 18.4332 8.38183 17.5123 6.74255 15.873C5.10327 14.2337 4.18233 12.0104 4.18233 9.69211V9.69211ZM20.2844 17.9732C20.1624 17.9732 20.0454 18.0217 19.9591 18.1079C19.8728 18.1942 19.8244 18.3112 19.8244 18.4332V22.4312L16.1853 18.7875C18.2288 18.0462 19.9641 16.6399 21.1125 14.7942L24.2777 17.9732H20.2844ZM12.9235 15.038C11.8443 15.038 10.7894 14.718 9.8921 14.1184C8.99481 13.5189 8.29547 12.6667 7.88249 11.6697C7.46952 10.6727 7.36146 9.57564 7.572 8.51722C7.78253 7.4588 8.30219 6.48658 9.06527 5.7235C9.82835 4.96042 10.8006 4.44076 11.859 4.23023C12.9174 4.01969 14.0145 4.12775 15.0115 4.54072C16.0085 4.9537 16.8607 5.65304 17.4602 6.55033C18.0598 7.44761 18.3798 8.50254 18.3798 9.58169C18.3785 11.0284 17.8033 12.4155 16.7803 13.4385C15.7573 14.4615 14.3702 15.0368 12.9235 15.038V15.038ZM12.9235 5.0455C12.0263 5.0455 11.1493 5.31155 10.4033 5.80999C9.65732 6.30843 9.0759 7.01689 8.73257 7.84577C8.38924 8.67465 8.2994 9.58672 8.47443 10.4667C8.64946 11.3466 9.08149 12.1549 9.71589 12.7893C10.3503 13.4237 11.1586 13.8557 12.0385 14.0307C12.9184 14.2057 13.8305 14.1159 14.6594 13.7726C15.4883 13.4293 16.1967 12.8478 16.6952 12.1019C17.1936 11.3559 17.4596 10.4789 17.4596 9.58169C17.4584 8.37899 16.9801 7.2259 16.1297 6.37547C15.2792 5.52503 14.1262 5.04672 12.9235 5.0455Z" fill="#1D1D1D"/>
</svg>
