<svg width="19" height="17" viewBox="0 0 19 17" fill="none" xmlns="http://www.w3.org/2000/svg">
<path d="M9.48 16.9532L9.23 16.7972C8.874 16.5793 0.500003 11.3653 0.500003 5.67525C0.498942 4.63074 0.814284 3.61041 1.4045 2.74864C1.99471 1.88687 2.8321 1.22408 3.8064 0.847569C4.78069 0.47106 5.84617 0.39849 6.86251 0.639417C7.87886 0.880345 8.79839 1.42347 9.5 2.19726C10.2017 1.42334 11.1214 0.880169 12.138 0.6393C13.1545 0.398431 14.2202 0.471167 15.1945 0.847926C16.1689 1.22469 17.0063 1.88779 17.5964 2.74987C18.1864 3.61196 18.5015 4.63257 18.5 5.67725C18.5 11.4553 10.1 16.5852 9.732 16.7972L9.48 16.9532ZM5.68 1.46726C4.56707 1.47042 3.50062 1.91394 2.71365 2.7009C1.92668 3.48787 1.48317 4.55432 1.48 5.66725C1.48 10.3073 8.116 14.8993 9.5 15.8073C10.9 14.9113 17.548 10.3793 17.548 5.66725C17.5531 4.77087 17.2713 3.89637 16.7437 3.17163C16.2162 2.4469 15.4706 1.90996 14.6161 1.63933C13.7615 1.3687 12.8428 1.37858 11.9942 1.66753C11.1457 1.95648 10.4118 2.50934 9.9 3.24525L9.5 3.79725L9.1 3.24325C8.71186 2.69604 8.19867 2.24941 7.60313 1.9405C7.00758 1.6316 6.34689 1.46935 5.676 1.46726H5.68Z" fill="#1D1D1D"/>
</svg>
