<svg width="19" height="19" viewBox="0 0 19 19" fill="none" xmlns="http://www.w3.org/2000/svg">
<path d="M16.7347 7.81405L16.7347 7.81367C16.7335 7.58201 16.545 7.39473 16.3134 7.39473C16.0817 7.39473 15.8941 7.58229 15.8941 7.81405V17.2292H12.138V13.2833C12.138 13.0516 11.9504 12.864 11.7187 12.864H7.58393C7.35218 12.864 7.16461 13.0516 7.16461 13.2833V17.2292H3.17893V7.81405C3.17893 7.58229 2.99136 7.39473 2.7596 7.39473C2.52785 7.39473 2.34028 7.58229 2.34028 7.81405V17.6485C2.34028 17.8803 2.52785 18.0679 2.7596 18.0679H7.46916C7.61493 18.0679 7.74156 17.9926 7.81689 17.8809C7.9291 17.8062 8.00421 17.6793 8.00421 17.5328V13.7017H11.3003V17.5328C11.3003 17.6786 11.3756 17.8052 11.4873 17.8806C11.5619 17.9928 11.6889 18.0679 11.8353 18.0679H16.3153C16.5471 18.0679 16.7347 17.8803 16.7347 17.6485L16.7347 7.81405Z" fill="#1D1D1D" stroke="#1D1D1D" stroke-width="0.15"/>
<path d="M0.548206 9.79266C0.629612 9.87401 0.73777 9.91591 0.845039 9.91591C0.952188 9.91591 1.05948 9.87505 1.14197 9.79256L9.49994 1.43459L17.8589 9.79352C18.023 9.95767 18.2886 9.95767 18.4527 9.79352L18.4529 9.79333C18.6159 9.62919 18.6159 9.36378 18.4518 9.19967L9.79687 0.54381L9.79687 0.543807L0.601144 9.2527L0.548111 9.19966C0.384099 9.36368 0.383795 9.62931 0.548206 9.79266ZM0.548206 9.79266C0.548174 9.79263 0.548143 9.79259 0.548111 9.79256L0.601144 9.73953L0.5483 9.79275C0.548269 9.79272 0.548237 9.79269 0.548206 9.79266ZM9.49994 1.32852L9.44691 1.38156H9.55297L9.49994 1.32852Z" fill="#1D1D1D" stroke="#1D1D1D" stroke-width="0.15"/>
</svg>
