<svg width="160" height="160" viewBox="0 0 160 160" fill="none" xmlns="http://www.w3.org/2000/svg">
<g clip-path="url(#clip0_1_2382)">
<path d="M80 157.1C122.581 157.1 157.1 122.581 157.1 79.9999C157.1 37.4187 122.581 2.8999 80 2.8999C37.4189 2.8999 2.90002 37.4187 2.90002 79.9999C2.90002 122.581 37.4189 157.1 80 157.1Z" fill="#FDB001"/>
<path d="M80 9.5C66.1 9.5 52.4 13.6 40.8 21.4C29.2 29.2 20.2 40.1 14.8 53C9.49999 65.9 8.09999 80.1 10.8 93.7C13.5 107.4 20.2 119.9 30.1 129.8C40 139.7 52.5 146.4 66.2 149.1C79.9 151.8 94.1 150.4 106.9 145.1C119.8 139.8 130.8 130.7 138.6 119.1C146.4 107.5 150.5 93.9 150.5 79.9C150.5 61.2 143 43.3 129.8 30.1C116.6 16.9 98.7 9.5 80 9.5ZM80 148.5C66.4 148.5 53.2 144.5 41.9 137C30.6 129.5 21.8 118.8 16.7 106.2C11.5 93.7 10.2 79.9 12.8 66.6C15.4 53.3 22 41.1 31.6 31.5C41.2 21.9 53.4 15.4 66.7 12.7C80 10.1 93.8 11.4 106.3 16.6C118.8 21.8 129.5 30.6 137.1 41.8C144.6 53.1 148.7 66.3 148.7 79.9C148.7 98.1 141.5 115.5 128.6 128.3C115.6 141.3 98.2 148.5 80 148.5Z" fill="#1D1D1D"/>
<path d="M80 0C64.2 0 48.7 4.7 35.6 13.5C22.4 22.3 12.1 34.8 6.09998 49.4C-2.09808e-05 64 -1.50002 80.1 1.49998 95.6C4.59998 111.1 12.2 125.4 23.4 136.6C34.6 147.8 48.8 155.4 64.4 158.5C79.9 161.6 96 160 110.6 153.9C125.2 147.8 137.7 137.6 146.5 124.4C155.3 111.3 160 95.8 160 80C160 58.8 151.5 38.5 136.5 23.5C121.5 8.5 101.2 0 80 0ZM80 153.8C65.4 153.8 51.1 149.5 39 141.4C26.9 133.3 17.4 121.7 11.8 108.2C6.19998 94.7 4.69998 79.9 7.59998 65.5C10.5 51.2 17.5 38 27.8 27.7C38.1 17.4 51.3 10.3 65.6 7.5C79.9 4.6 94.8 6.1 108.3 11.7C121.8 17.3 133.3 26.8 141.5 38.9C149.6 51 153.9 65.3 153.9 79.9C153.9 89.6 152 99.2 148.3 108.2C144.6 117.2 139.1 125.3 132.3 132.2C125.4 139.1 117.3 144.5 108.3 148.2C99.3 151.9 89.7 153.8 80 153.8Z" fill="#1D1D1D"/>
<path d="M142.5 91L142.2 92.6L141.6 92.5C141.5 92.8 141.3 93.1 141.2 93.3C141.1 93.8 141 94.2 140.9 94.7L141.7 94.9L141.3 96.5L140.5 96.3C140.3 97 140.1 97.8 139.9 98.5L140.7 98.8L140.2 100.4L139.4 100.1C139.2 100.8 138.9 101.6 138.6 102.3L139.4 102.6L138.8 104.1L138 103.8C137.7 104.5 137.4 105.2 137.1 105.9L137.9 106.3L137.2 107.8L136.4 107.4C136.1 108.1 135.7 108.7 135.3 109.4L136 109.8L135.2 111.2L134.5 110.8C134.1 111.5 133.7 112.1 133.3 112.8L134 113.3L133.1 114.7L132.4 114.2C132 114.8 131.5 115.5 131.1 116.1L131.8 116.6L130.8 117.9L130.1 117.4C129.6 118 129.1 118.6 128.7 119.2L129.4 119.7L128.4 121L127.7 120.4C127.2 121 126.7 121.6 126.2 122.1L126.8 122.7L125.7 123.9L125.1 123.3C124.6 123.9 124 124.4 123.5 124.9L124.1 125.5L122.9 126.6L122.3 126C121.7 126.5 121.1 127 120.6 127.5L121.1 128.2L119.8 129.2L119.2 128.5C118.6 129 118 129.5 117.4 129.9L117.9 130.6L116.6 131.6L116.1 130.9C115.5 131.3 114.8 131.8 114.2 132.2L114.7 132.9L113.3 133.8L112.8 133.1C112.1 133.5 111.5 133.9 110.8 134.3L111.2 135L109.8 135.8L109.4 135.1C108.7 135.5 108 135.8 107.4 136.1L107.8 136.9L106.3 137.6L105.9 136.8C105.2 137.1 104.5 137.4 103.8 137.7L104.1 138.5L102.6 139.1L102.3 138.3C101.6 138.6 100.9 138.8 100.1 139.1L100.4 139.9L98.7999 140.4L98.4999 139.6C97.7999 139.8 96.9999 140 96.2999 140.2L96.4999 141L94.8999 141.4L94.6999 140.6L92.9999 141L92.4999 141.2L92.5999 141.9L90.9999 142.2L90.8999 141.8C84.8999 144.1 78.2999 144.4 72.0999 142.7L70.9999 142.6V142.4C70.1999 142.2 69.4999 141.9 68.7999 141.6L68.6999 142.2L67.0999 141.9L67.2999 141.1C66.4999 140.9 65.7999 140.8 64.9999 140.6L64.7999 141.4L63.1999 141L63.3999 140.2C62.6999 140 61.8999 139.8 61.1999 139.6L60.8999 140.4L59.2999 139.9L59.5999 139.1C58.8999 138.8 58.0999 138.6 57.3999 138.3L57.0999 139.1L55.5999 138.5L55.8999 137.7C55.1999 137.4 54.4999 137.1 53.7999 136.8L53.3999 137.6L51.8999 136.9L52.2999 136.1C51.5999 135.8 50.8999 135.4 50.2999 135.1L49.8999 135.8L48.4999 135L48.8999 134.3C48.1999 133.9 47.5999 133.5 46.8999 133.1L46.3999 133.8L44.9999 132.9L45.4999 132.2C44.7999 131.8 44.1999 131.3 43.5999 130.9L43.0999 131.6L41.7999 130.6L42.2999 129.9C41.6999 129.4 41.0999 128.9 40.4999 128.5L39.9999 129.2L38.6999 128.2L39.2999 127.5C38.6999 127 38.0999 126.5 37.4999 126L36.8999 126.6L35.6999 125.5L36.2999 124.9C35.6999 124.4 35.1999 123.8 34.6999 123.3L34.0999 123.9L32.9999 122.7L33.5999 122.1C33.0999 121.5 32.5999 120.9 32.0999 120.4L31.3999 121L30.3999 119.7L31.0999 119.2C30.5999 118.6 30.0999 118 29.6999 117.4L28.9999 117.9L27.9999 116.6L28.6999 116.1C28.2999 115.5 27.7999 114.8 27.3999 114.2L26.6999 114.7L25.7999 113.3L26.4999 112.8C26.0999 112.1 25.6999 111.5 25.2999 110.8L24.5999 111.2L23.7999 109.8L24.4999 109.4C24.0999 108.7 23.7999 108 23.4999 107.4L22.6999 107.8L21.9999 106.3L22.7999 105.9C22.4999 105.2 22.1999 104.5 21.8999 103.8L21.0999 104.1L20.4999 102.6L21.2999 102.3C20.9999 101.6 20.7999 100.9 20.4999 100.1L19.6999 100.4L19.1999 98.8L19.9999 98.5C19.7999 97.8 19.5999 97 19.3999 96.3L18.5999 96.5L18.1999 94.9L18.9999 94.7C18.7999 94 18.5999 93.2 18.4999 92.4L17.6999 92.6L16.8999 91L17.6999 90.8L17.5999 90.1C17.3999 89.6 17.1999 89.1 17.0999 88.5L16.4999 88.6L16.2999 87H16.5999C16.3999 86.2 16.2999 85.5 16.1999 84.7H16.0999L15.9999 83.1C15.7999 81 15.7999 78.7999 15.9999 76.6999L16.0999 75.0999H16.1999C16.2999 74.2999 16.4999 73.6 16.6999 72.8L16.2999 72.6999L16.4999 71.0999L17.1999 71.1999C17.2999 70.8999 17.3999 70.7 17.4999 70.4C17.5999 69.9 17.6999 69.4 17.7999 68.9L16.9999 68.6999L17.2999 67.0999L18.0999 67.3C18.2999 66.5 18.3999 65.7999 18.5999 65L17.7999 64.8L18.1999 63.2L18.9999 63.4C19.1999 62.7 19.3999 61.9 19.5999 61.2L18.7999 60.9L19.2999 59.2999L20.0999 59.5999C20.3999 58.8999 20.5999 58.1 20.8999 57.4L19.9999 57.0999L20.5999 55.5999L21.3999 55.9C21.6999 55.2 21.9999 54.5 22.2999 53.7999L21.4999 53.4L22.1999 51.9L22.9999 52.2999C23.2999 51.5999 23.6999 50.8999 23.9999 50.2999L23.2999 49.9L24.0999 48.5L24.7999 48.9C25.1999 48.2 25.5999 47.6 25.9999 46.9L25.2999 46.4L26.1999 45L26.8999 45.5C27.2999 44.9 27.7999 44.1999 28.1999 43.5999L27.4999 43L28.4999 41.7L29.1999 42.2C29.6999 41.6 30.1999 41 30.5999 40.4L29.8999 39.7999L30.8999 38.5L31.5999 39.0999C32.0999 38.4999 32.5999 37.9 33.0999 37.4L32.4999 36.7999L33.5999 35.5999L34.1999 36.2C34.6999 35.6 35.2999 35.0999 35.7999 34.5999L35.2999 33.9L36.4999 32.7999L37.0999 33.4C37.6999 32.9 38.2999 32.4 38.8999 31.9L38.2999 31.2L39.5999 30.2L40.0999 30.9C40.6999 30.4 41.2999 29.9 41.8999 29.5L41.3999 28.8L42.6999 27.8L43.1999 28.5C43.7999 28.1 44.4999 27.6 45.0999 27.2L44.5999 26.5L45.9999 25.6L46.4999 26.3C47.1999 25.9 47.7999 25.5 48.4999 25.1L48.0999 24.4L49.4999 23.6L49.8999 24.3C50.5999 23.9 51.1999 23.6 51.8999 23.3L51.4999 22.5L52.9999 21.8L53.3999 22.6C54.0999 22.3 54.7999 22 55.4999 21.7L55.1999 20.9L56.6999 20.3L56.9999 21.1C57.6999 20.8 58.3999 20.6 59.1999 20.3L58.8999 19.5L60.4999 19L60.7999 19.8C61.4999 19.6 62.2999 19.4 62.9999 19.2V18.2L64.5999 17.8L64.7999 18.6C65.4999 18.4 66.2999 18.2 67.0999 18.1L66.8999 17.3L68.4999 17L68.6999 17.8L69.5999 17.6C70.0999 17.4 70.4999 17.3 70.9999 17.1L70.8999 16.5L72.4999 16.3V16.6C73.2999 16.4 73.9999 16.2 74.7999 16.1H74.9999C78.8999 15.5 82.8999 15.6 86.6999 16.5V16.4L88.2999 16.6V17C88.9999 17.2 89.7999 17.5 90.4999 17.8L90.5999 17.1L92.1999 17.4L91.9999 18.2C92.7999 18.4 93.4999 18.5 94.2999 18.7L94.4999 17.9L96.0999 18.3L95.9999 19.1C96.6999 19.3 97.4999 19.5 98.1999 19.7L98.4999 18.9L100.1 19.4L99.7999 20.2C100.5 20.5 101.3 20.7 102 21L102.3 20.2L103.8 20.8L103.5 21.6C104.2 21.9 104.9 22.2 105.6 22.5L106 21.7L107.5 22.4L107.1 23.2L109.1 24.2L109.5 23.5L110.9 24.3L110.5 25C111.2 25.4 111.8 25.8 112.5 26.2L113 25.5L114.4 26.4L113.9 27.1C114.5 27.5 115.2 28 115.8 28.4L116.3 27.7L117.6 28.7L117.1 29.4C117.7 29.9 118.3 30.4 118.9 30.8L119.5 30.1L120.8 31.1L120.3 31.7999C120.9 32.2999 121.5 32.7999 122 33.2999L122.6 32.7L123.8 33.7999L123.2 34.4C123.8 34.9 124.3 35.5 124.8 36L125.4 35.4L126.5 36.5999L125.9 37.2C126.4 37.8 126.9 38.4 127.4 38.9L128.1 38.2999L129.1 39.5999L128.4 40.2C128.9 40.8 129.4 41.4 129.8 42L130.5 41.5L131.5 42.7999L130.8 43.2999C131.3 43.9 131.7 44.6 132.1 45.2L132.8 44.7L133.7 46.0999L133 46.5999C133.4 47.2999 133.8 47.8999 134.2 48.5999L134.9 48.2L135.7 49.5999L135 50C135.4 50.7 135.7 51.4 136.1 52L136.9 51.5999L137.6 53.0999L136.8 53.5C137.1 54.2 137.4 54.8999 137.7 55.5999L138.5 55.2999L139.1 56.7999L138.3 57.0999C138.6 57.7999 138.8 58.5999 139.1 59.2999L139.9 59L140.4 60.5999L139.6 60.9C139.8 61.6 140 62.3999 140.2 63.0999L141 62.9L141.4 64.5L140.6 64.6999C140.8 65.3999 140.9 66.1 141.1 66.8L141.2 66.9L142 66.8L142.3 68.4L141.9 68.5C143.3 72.0999 144.1 75.9 144.1 79.7V79.5C144.1 62.4 137.2 46.1 125.1 34C113 21.9 96.5999 15.2 79.4999 15.2C62.3999 15.2 45.9999 21.9999 33.9999 34.0999C22.0999 46.4999 15.2999 62.9 15.2999 80C15.2999 97.1 22.0999 113.5 34.1999 125.6C46.2999 137.7 62.5999 144.5 79.6999 144.5C96.7999 144.5 113.2 137.8 125.3 125.7C137.4 113.6 144.2 97.2999 144.3 80.2C144.3 83.8999 143.6 87.5 142.3 91H142.5Z" fill="#1D1D1D"/>
<path d="M92.3999 142.3L92.2999 141.6C91.7999 141.8 91.2999 142 90.7999 142.2L90.8999 142.6L92.3999 142.3Z" fill="#1D1D1D"/>
<path d="M94.7 141.8L96.3 141.4L96.1 140.6L95.9 139.7C95.4 140 94.9 140.3 94.4 140.6L94.5 141L94.7 141.8Z" fill="#1D1D1D"/>
<path d="M98.5999 140.7L100.2 140.2L99.8999 139.4L99.1999 137.3C98.6999 137.7 98.2999 138 97.7999 138.4L98.2999 140L98.5999 140.7Z" fill="#1D1D1D"/>
<path d="M102.4 139.4L103.9 138.8L103.6 138L102.2 134.5L101.2 135.5L100.9 135.8L102 138.7L102.4 139.4Z" fill="#1D1D1D"/>
<path d="M106.1 137.9L107.6 137.2L107.2 136.4L105 131.7L103.8 132.9L105.8 137.1L106.1 137.9Z" fill="#1D1D1D"/>
<path d="M109.6 136.1L111 135.3L110.6 134.6L107.6 129.1L106.4 130.3L109.2 135.4L109.6 136.1Z" fill="#1D1D1D"/>
<path d="M113.1 134.1L114.5 133.2L114 132.5L110.2 126.4L109 127.6L112.6 133.3L113.1 134.1Z" fill="#1D1D1D"/>
<path d="M116.5 131.9L117.8 130.9L117.3 130.2L112.7 123.9L111.5 125.1L115.9 131.2L116.5 131.9Z" fill="#1D1D1D"/>
<path d="M119.7 129.5L121 128.5L120.4 127.8L115.2 121.5L114 122.7L119.1 128.9L119.7 129.5Z" fill="#1D1D1D"/>
<path d="M122.7 126.9L123.9 125.8L123.3 125.2L117.6 119.1L116.4 120.3L122.1 126.3L122.7 126.9Z" fill="#1D1D1D"/>
<path d="M125.6 124.1L126.7 122.9L126.1 122.3L120.1 116.6L118.9 117.8L125 123.5L125.6 124.1Z" fill="#1D1D1D"/>
<path d="M128.3 121.1L129.3 119.8L128.6 119.2L122.4 114.1L121.2 115.3L127.5 120.5L128.3 121.1Z" fill="#1D1D1D"/>
<path d="M130.8 118L131.8 116.7L131.1 116.2L125 111.8L123.8 113L130.1 117.6L130.8 118Z" fill="#1D1D1D"/>
<path d="M133.1 114.7L134 113.3L133.3 112.8L127.6 109.2L126.4 110.4L132.5 114.2L133.1 114.7Z" fill="#1D1D1D"/>
<path d="M135.1 111.3L135.9 109.9L135.2 109.5L130.1 106.7L128.9 107.9L134.4 110.9L135.1 111.3Z" fill="#1D1D1D"/>
<path d="M137 107.7L137.7 106.2L136.9 105.8L132.7 103.8L131.5 105L136.2 107.2L137 107.7Z" fill="#1D1D1D"/>
<path d="M138.6 104.1L139.2 102.6L138.4 102.3L135.5 101.2L135.4 101.3L134.3 102.4L137.8 103.8L138.6 104.1Z" fill="#1D1D1D"/>
<path d="M140 100.3L140.5 98.6999L139.7 98.3999L138.2 97.8999C137.9 98.3999 137.5 98.7999 137.1 99.2999L139.2 99.9999L140 100.3Z" fill="#1D1D1D"/>
<path d="M141.2 96.5001L141.6 94.9001L140.8 94.7001L140.4 94.6001C140.1 95.1001 139.8 95.6001 139.5 96.1001L140.3 96.3001L141.2 96.5001Z" fill="#1D1D1D"/>
<path d="M142.5 91H142.2C142 91.5 141.8 92 141.6 92.5L142.2 92.6L142.5 91Z" fill="#1D1D1D"/>
<path d="M142.1 67L141.3 67.1C141.5 67.6 141.8 68.1 142 68.6L142.4 68.5L142.1 67Z" fill="#1D1D1D"/>
<path d="M141.6 64.7001L141.2 63.1001L140.4 63.3001L139.4 63.6001C139.7 64.1001 140 64.6001 140.3 65.1001L140.8 65.0001L141.6 64.7001Z" fill="#1D1D1D"/>
<path d="M140.6 60.9001L140.1 59.3L139.3 59.6L136.9 60.4001C137.3 60.8001 137.7 61.3 138 61.8L139.8 61.2001L140.6 60.9001Z" fill="#1D1D1D"/>
<path d="M139.2 57.1001L138.6 55.6001L137.8 55.9001L134 57.4001L135.3 58.7001L138.5 57.4001L139.2 57.1001Z" fill="#1D1D1D"/>
<path d="M137.7 53.3999L137 51.8999L136.2 52.2999L131.2 54.5999L132.4 55.7999L136.8 53.6999L137.7 53.3999Z" fill="#1D1D1D"/>
<path d="M135.9 49.7999L135.1 48.3999L134.4 48.7999L128.6 51.9999L129.8 53.1999L135.2 50.1999L135.9 49.7999Z" fill="#1D1D1D"/>
<path d="M133.9 46.2999L133 44.8999L132.3 45.3999L126 49.3999L127.2 50.5999L133.2 46.7999L133.9 46.2999Z" fill="#1D1D1D"/>
<path d="M131.7 43L130.7 41.7L130 42.2L123.5 46.9L124.7 48.0999L131 43.5L131.7 43Z" fill="#1D1D1D"/>
<path d="M129.3 39.8L128.3 38.5L127.6 39.1L121.1 44.5L122.3 45.7L128.7 40.4L129.3 39.8Z" fill="#1D1D1D"/>
<path d="M126.7 36.7L125.6 35.5L125 36.1L118.7 42L119.9 43.2L126.1 37.4L126.7 36.7Z" fill="#1D1D1D"/>
<path d="M123.9 33.9001L122.7 32.8L122.1 33.4001L116.2 39.6L117.4 40.8L123.3 34.5L123.9 33.9001Z" fill="#1D1D1D"/>
<path d="M120.9 31.2L119.6 30.2L119 30.9L113.7 37.2999L114.9 38.5L120.3 32L120.9 31.2Z" fill="#1D1D1D"/>
<path d="M117.8 28.7L116.5 27.7L116 28.4L111.4 34.7L112.6 35.9L117.3 29.4L117.8 28.7Z" fill="#1D1D1D"/>
<path d="M114.5 26.4L113.1 25.5L112.6 26.2L108.8 32.2L110 33.4L114 27.1L114.5 26.4Z" fill="#1D1D1D"/>
<path d="M111.1 24.3L109.7 23.5L109.3 24.2L106.3 29.6L107.5 30.8L110.7 25L111.1 24.3Z" fill="#1D1D1D"/>
<path d="M107.5 22.4L106 21.7L105.6 22.5L103.5 26.9L104.7 28.1L107 23.1L107.5 22.4Z" fill="#1D1D1D"/>
<path d="M103.9 20.7999L102.4 20.2L102 21L100.7 24.2L101.1 24.6L101.9 25.4L103.4 21.6L103.9 20.7999Z" fill="#1D1D1D"/>
<path d="M100.1 19.3999L98.5 18.8999L98.2 19.6999L97.6 21.5999C98.1 21.8999 98.5 22.2999 99 22.6999L99.8 20.2999L100.1 19.3999Z" fill="#1D1D1D"/>
<path d="M96.2999 18.2001L94.6999 17.8L94.4999 18.6L94.2999 19.4C94.7999 19.7 95.2999 20 95.7999 20.3L96.0999 19.1L96.2999 18.2001Z" fill="#1D1D1D"/>
<path d="M92.4 17.3L90.8 17L90.7 17.7C91.2 17.9 91.7 18.1 92.2 18.3L92.3 18L92.4 17.3Z" fill="#1D1D1D"/>
<path d="M86.7999 16.3999V16.4999C87.2999 16.5999 87.8999 16.7999 88.3999 16.8999V16.5999L86.7999 16.3999Z" fill="#1D1D1D"/>
<path d="M70.7999 16.5999L70.8999 17.1999C71.3999 16.9999 71.8999 16.8999 72.4999 16.6999V16.3999L70.7999 16.5999Z" fill="#1D1D1D"/>
<path d="M68.5 17L66.9 17.3L67.1 18.1L67.2 18.7C67.7 18.5 68.2 18.2 68.7 18V17.8L68.5 17Z" fill="#1D1D1D"/>
<path d="M64.6 17.8L63 18.2001L63.2 19L63.6 20.6C64.1 20.3001 64.6 20.0001 65.1 19.7001L64.8 18.6L64.6 17.8Z" fill="#1D1D1D"/>
<path d="M60.7 18.8999L59.1 19.3999L59.4 20.1999L60.4 23.0999C60.8 22.6999 61.3 22.2999 61.8 21.9999L61 19.6999L60.7 18.8999Z" fill="#1D1D1D"/>
<path d="M56.9 20.2L55.4 20.7999L55.7 21.6L57.4 26L58.7 24.7L57.2 21L56.9 20.2Z" fill="#1D1D1D"/>
<path d="M53.2 21.7L51.7 22.4L52.0999 23.2L54.7 28.7L55.9 27.5L53.5999 22.6L53.2 21.7Z" fill="#1D1D1D"/>
<path d="M49.5999 23.5L48.2 24.3L48.5999 25L52 31.3L53.2 30.1L50 24.2L49.5999 23.5Z" fill="#1D1D1D"/>
<path d="M46.0999 25.5L44.7 26.4L45.2 27.1L49.5 33.8L50.7 32.6L46.5999 26.2L46.0999 25.5Z" fill="#1D1D1D"/>
<path d="M42.8 27.7L41.5 28.7L42 29.4L47.1 36.4L48.3 35.2L43.4 28.5L42.8 27.7Z" fill="#1D1D1D"/>
<path d="M39.5999 30.1001L38.2999 31.1001L38.8999 31.8001L44.5999 38.7001L45.7999 37.5001L40.1999 30.7001L39.5999 30.1001Z" fill="#1D1D1D"/>
<path d="M36.4999 32.7L35.2999 33.7999L35.8999 34.4L42.0999 41L43.2999 39.7999L37.0999 33.2L36.4999 32.7Z" fill="#1D1D1D"/>
<path d="M33.7 35.5L32.6 36.7L33.2 37.3L39.8 43.5L41 42.3L34.4 36.1L33.7 35.5Z" fill="#1D1D1D"/>
<path d="M31 38.5L30 39.8L30.7 40.3L37.5 45.9L38.7 44.7L31.8 39L31 38.5Z" fill="#1D1D1D"/>
<path d="M28.5 41.6001L27.5 42.9001L28.2 43.4001L34.9 48.3001L36.1 47.1001L29.1 42.0001L28.5 41.6001Z" fill="#1D1D1D"/>
<path d="M26.1999 44.8999L25.2999 46.2999L25.9999 46.7999L32.3999 50.8999L33.5999 49.6999L26.8999 45.3999L26.1999 44.8999Z" fill="#1D1D1D"/>
<path d="M24.0999 48.3L23.2999 49.7001L23.9999 50.1L29.8999 53.3L31.0999 52.1L24.7999 48.7001L24.0999 48.3Z" fill="#1D1D1D"/>
<path d="M22.3 51.8999L21.6 53.3999L22.4 53.7999L27.3 56.0999L28.5 54.8999L23 52.2999L22.3 51.8999Z" fill="#1D1D1D"/>
<path d="M20.6 55.6001L20 57.1001L20.8 57.4001L24.5 58.9001L25.7 57.7001L21.3 56.0001L20.6 55.6001Z" fill="#1D1D1D"/>
<path d="M19.2 59.3L18.7 60.9001L19.5 61.2001L21.9 62C22.3 61.5 22.6 61.1 23 60.6L20.1 59.6L19.2 59.3Z" fill="#1D1D1D"/>
<path d="M18 63.2L17.6 64.8L18.4 65L19.6 65.3C19.9 64.8 20.2 64.2999 20.5 63.7999L18.8 63.4L18 63.2Z" fill="#1D1D1D"/>
<path d="M17.0999 67L16.7999 68.6L17.5999 68.8H17.8999C18.0999 68.3 18.2999 67.8 18.5999 67.3L17.9999 67.2L17.0999 67Z" fill="#1D1D1D"/>
<path d="M16.2 72.6L16.6 72.7C16.7 72.2 16.9 71.6 17 71.1L16.4 71L16.2 72.6Z" fill="#1D1D1D"/>
<path d="M15.9 76.6C16 76.1 16 75.5 16.1 75H16L15.9 76.6Z" fill="#1D1D1D"/>
<path d="M16.2 84.6C16.1 84.1 16 83.5 16 83L16.1 84.6H16.2Z" fill="#1D1D1D"/>
<path d="M16.3999 88.5999L16.9999 88.4999C16.7999 87.9999 16.6999 87.4999 16.5999 86.8999H16.2999L16.3999 88.5999Z" fill="#1D1D1D"/>
<path d="M16.7999 91L17.0999 92.6L17.8999 92.4L18.3999 92.3C18.1999 91.8 17.9999 91.3 17.7999 90.8H17.6999L16.7999 91Z" fill="#1D1D1D"/>
<path d="M17.6 94.8999L18 96.4999L18.8 96.2999L20.3 95.8999C20 95.3999 19.7 94.8999 19.4 94.3999L18.4 94.6999L17.6 94.8999Z" fill="#1D1D1D"/>
<path d="M18.7 98.7L19.2 100.3L20 100L22.7 99.1C22.3 98.7 22 98.2 21.6 97.7L19.5 98.4L18.7 98.7Z" fill="#1D1D1D"/>
<path d="M20 102.5L20.6 104L21.4 103.7L25.4 102.1L24.5 101.2L24.2 100.9L20.8 102.3L20 102.5Z" fill="#1D1D1D"/>
<path d="M21.6 106.2L22.3 107.7L23.1 107.3L28.3 104.8L27.1 103.6L22.4 105.8L21.6 106.2Z" fill="#1D1D1D"/>
<path d="M23.2999 109.8L24.0999 111.2L24.7999 110.8L30.7999 107.5L29.5999 106.3L23.9999 109.4L23.2999 109.8Z" fill="#1D1D1D"/>
<path d="M25.2999 113.3L26.1999 114.7L26.8999 114.2L33.3999 110.1L32.1999 108.9L25.9999 112.8L25.2999 113.3Z" fill="#1D1D1D"/>
<path d="M27.5 116.6L28.5 117.9L29.2 117.4L35.9 112.5L34.7 111.3L28.2 116L27.5 116.6Z" fill="#1D1D1D"/>
<path d="M30 119.8L31 121.1L31.7 120.6L38.4 115.1L37.2 113.9L30.6 119.3L30 119.8Z" fill="#1D1D1D"/>
<path d="M32.6 122.9L33.7 124.1L34.3 123.5L40.7 117.5L39.5 116.3L33.1 122.3L32.6 122.9Z" fill="#1D1D1D"/>
<path d="M35.4 125.7L36.6 126.8L37.2 126.2L43.2 119.8L42 118.6L35.9 125L35.4 125.7Z" fill="#1D1D1D"/>
<path d="M38.2999 128.4L39.5999 129.4L40.0999 128.7L45.4999 122.1L44.2999 120.9L38.7999 127.6L38.2999 128.4Z" fill="#1D1D1D"/>
<path d="M41.5 130.9L42.8 131.9L43.3 131.2L48 124.7L46.8 123.5L41.9 130.2L41.5 130.9Z" fill="#1D1D1D"/>
<path d="M44.7999 133.2L46.1999 134.1L46.6999 133.4L50.5999 127.2L49.3999 126L45.2999 132.5L44.7999 133.2Z" fill="#1D1D1D"/>
<path d="M48.2 135.3L49.5999 136.1L50 135.4L53.0999 129.8L51.9 128.6L48.5999 134.6L48.2 135.3Z" fill="#1D1D1D"/>
<path d="M51.7 137.2L53.2 137.9L53.5999 137.1L55.7999 132.4L54.5999 131.2L52.0999 136.4L51.7 137.2Z" fill="#1D1D1D"/>
<path d="M55.4 138.8L56.9 139.4L57.2 138.6L58.6 135.2L57.3 133.9L55.7 138L55.4 138.8Z" fill="#1D1D1D"/>
<path d="M59.1 140.2L60.7 140.7L61 139.9L61.7 137.9C61.2 137.5 60.8 137.2 60.3 136.8L59.5 139.4L59.1 140.2Z" fill="#1D1D1D"/>
<path d="M63 141.4L64.6 141.8L64.8 141L65 140.2C64.5 139.9 64 139.6 63.5 139.3L63.2 140.6L63 141.4Z" fill="#1D1D1D"/>
<path d="M66.9 142.3L68.5 142.6L68.6 142C68.1 141.8 67.6 141.6 67.1 141.3V141.5L66.9 142.3Z" fill="#1D1D1D"/>
<path d="M71.9 143.1L70.9 142.8V143L71.9 143.1Z" fill="#1D1D1D"/>
<path d="M144.2 80C144.2 76.1 143.4 72.3 142 68.8C141.8 68.3 141.6 67.8 141.3 67.3L141.2 67.2C140.9 66.5 140.5 65.9 140.2 65.2C139.9 64.5 139.6 64.2 139.3 63.7C138.9 63 138.4 62.4 137.9 61.8C137.5 61.3 137.2 60.9 136.8 60.4C136.4 60 135.9 59.4 135.4 58.9L135.2 58.7L133.9 57.4L132.4 55.9L131.2 54.7L129.8 53.3L128.6 52.1L127.2 50.7L126 49.5L124.7 48.2L123.5 47L122.2 45.7L121 44.5L119.7 43.2L118.5 42L117.2 40.7L116 39.5L114.7 38.2L113.5 37L112.2 35.7L111 34.5L109.7 33.2L108.5 32L107.1 30.6L105.9 29.4L104.5 28L103.3 26.8L101.8 25.3L101 24.4L100.6 24C100 23.5 99.5 23 98.9 22.5C98.3 22 98 21.8 97.5 21.4C96.9 20.9 96.2 20.5 95.6 20.1C95.1 19.8 94.6 19.5 94.1 19.2C93.4 18.8 92.7 18.5 92 18.2C91.5 18 91 17.8 90.5 17.6C89.8 17.3 89 17.1 88.3 16.8C87.8 16.6 87.2 16.5 86.7 16.4C82.8999 15.5 78.9 15.4 75 16H74.6999C73.8999 16.1 73.1 16.3 72.4 16.5C71.9 16.6 71.3 16.8 70.8 17C70.3 17.2 69.9 17.3 69.4 17.5L68.6999 18C68.1999 18.2 67.6999 18.4 67.1999 18.7C66.4999 19 65.7999 19.4 65.0999 19.8C64.5999 20.1 64.0999 20.4 63.5999 20.7C63.0999 21 62.2999 21.6 61.7 22C61.2 22.4 60.7999 22.7 60.2999 23.1C59.8999 23.5 59.2999 24 58.7999 24.5L58.7 24.6L57.4 25.9L55.9 27.4L54.7 28.6L53.2999 30L52.0999 31.2L50.7 32.5L49.5 33.7L48.2 35L47 36.2L45.7 37.5L44.5 38.7L43.4 40L42.2 41.2L41 42.4L39.7999 43.6L38.5999 44.8L37.4 46L36.0999 47.3L35 48.4L33.7 49.7L32.5 50.9L31.1 52.2L29.9 53.4L28.5 54.8L27.2999 56L25.7999 57.5L24.6 58.7C24.1 59.2 23.6 59.8 23.1 60.4C22.6 61 22.4 61.3 22 61.8C21.5 62.4 21.1 63.1 20.7 63.7C20.3 64.3 20.1 64.7 19.8 65.2C19.4 65.9 19.1 66.6 18.7 67.2C18.5 67.7 18.2 68.2 18 68.7C17.8 69.2 17.6 69.7 17.5 70.1C17.4 70.4 17.3 70.6 17.2 70.9C17 71.4 16.9 71.9 16.8 72.5C16.6 73.3 16.4 74 16.3 74.8C16.2 75.3 16.1 75.9 16.1 76.4C15.9 78.5 15.9 80.7 16.1 82.8C16.2 83.3 16.2 83.9 16.3 84.4C16.4 85.2 16.6 85.9 16.7 86.7C16.8 87.2 17 87.8 17.1 88.3C17.3 88.8 17.4 89.3 17.6 89.9C17.7 90.1 17.8 90.3 17.9 90.6C18.1 91.1 18.3 91.6 18.5 92.1C18.8 92.8 19.2 93.5 19.5 94.2C19.8 94.7 20.1 95.2 20.4 95.7C20.8 96.4 21.2 97 21.7 97.6C22 98.1 22.4 98.5 22.8 99C23.2 99.4 23.7999 100.1 24.2999 100.7L24.6 101L25.5 101.9L27 103.4L28.2 104.6L29.6 106L30.7999 107.2L32.2 108.6L33.4 109.8L34.7 111.1L35.9 112.3L37.2 113.6L38.4 114.8L39.7 116L40.9 117.2L42.0999 118.4L43.2999 119.6L44.5 120.9L45.7 122.1L47 123.4L48.2 124.6L49.5 125.9L50.7 127.1L52.0999 128.5L53.2999 129.7L54.7 131.1L55.9 132.3L57.4 133.8L58.7 135.1L58.9 135.3C59.4 135.8 59.8999 136.2 60.2999 136.6C60.7999 137 61.2 137.4 61.7 137.7C62.2 138.1 63 138.7 63.5999 139.1C64.0999 139.4 64.5999 139.7 65.0999 140C65.7999 140.4 66.4999 140.8 67.1999 141.1C67.6999 141.3 68.1999 141.6 68.6999 141.8C69.3999 142.1 70.2 142.4 70.9 142.6L71.9 142.9C78.1 144.6 84.7 144.3 90.7 142C91.2 141.8 91.7 141.6 92.2 141.4L92.7 141.2C93.2 140.9 93.7 140.7 94.3 140.4C94.9 140.1 95.3 139.8 95.8 139.5C96.5 139.1 97.1 138.6 97.7 138.2C98.2 137.8 98.6 137.5 99.1 137.1C99.6 136.7 100.3 136.1 100.8 135.6L101.1 135.3L102.1 134.3L103.7 132.7L104.9 131.5L106.4 130L107.6 128.8L109 127.4L110.2 126.2L111.5 124.9L112.7 123.7L114 122.4L115.2 121.2L116.5 119.9L117.7 118.7L119 117.4L120.2 116.2L121.5 114.9L122.7 113.7L124 112.4L125.2 111.2L126.5 109.9L127.7 108.7L129.1 107.3L130.3 106.1L131.8 104.6L133 103.4L134.6 101.8L135.7 100.7L135.8 100.6C136.3 100 136.9 99.5 137.4 98.9C137.9 98.3 138.1 98 138.5 97.5C139 96.9 139.4 96.2 139.8 95.6C140.1 95.1 140.4 94.6 140.7 94.1C141 93.6 141.2 93.2 141.4 92.8C141.6 92.4 141.7 92.2 141.8 92C142 91.5 142.2 91 142.4 90.5C143.5 87.4 144.2 83.7 144.2 80Z" fill="white"/>
<path d="M118.3 41.7C97.1 20.5 62.8 20.5 41.6 41.7C20.4 62.9001 20.4 97.2 41.6 118.4C62.8 139.6 97.1 139.6 118.3 118.4C139.5 97.2 139.5 62.8 118.3 41.7Z" fill="white"/>
<path d="M80 145.4C75.9 145.4 71.9 144.6 68.1 143.1C64.3 141.5 60.9 139.2 58 136.3L23.7 102C17.9 96.2001 14.6 88.2001 14.6 80.0001C14.6 71.8001 17.9 63.8001 23.7 58.0001L58 23.7001C63.8 17.9001 71.8 14.6001 80 14.6001C88.3 14.6001 96.2 17.9001 102 23.7001L136.3 58.0001C142.1 63.8001 145.4 71.8001 145.4 80.0001C145.4 88.3001 142.1 96.2001 136.3 102L102 136.3C99.1 139.2 95.7 141.5 91.9 143.1C88.1 144.7 84.1 145.4 80 145.4ZM80 16.9001C76.2 16.9001 72.5 17.6001 69 19.1001C65.5 20.5001 62.3 22.7001 59.7 25.4001L25.3 59.6001C20 65.0001 16.9 72.3001 16.9 80.0001C16.9 87.7001 19.9 95.0001 25.3 100.4L59.6 134.7C65 140.1 72.3 143.1 80 143.1C87.6 143.1 95 140.1 100.4 134.7L134.7 100.4C137.4 97.7001 139.5 94.5001 141 91.1001C142.5 87.7001 143.2 83.9001 143.2 80.1001C143.2 76.3001 142.5 72.6001 141 69.1001C139.6 65.6001 137.4 62.4001 134.7 59.8001L100.4 25.5001C97.7 22.8001 94.5 20.7001 91 19.2001C87.6 17.6001 83.8 16.9001 80 16.9001Z" fill="#1D1D1D"/>
<path d="M36.8 59.7002H38.3V64.8002H42.1V59.8002H43.6V71.9002H42.1V66.2002H38.3V71.9002H36.8V59.7002Z" fill="#1D1D1D" stroke="#1D1D1D" stroke-width="0.25" stroke-miterlimit="10"/>
<path d="M54.4 65.7001C54.4 69.9001 53.3 72.0001 50.7 72.0001C48 72.0001 47 69.9001 47 65.7001C47 61.5001 48.3 59.6001 50.7 59.6001C53.1 59.6001 54.4 61.5001 54.4 65.7001ZM48.6 65.7001C48.6 69.0001 49.2 70.8001 50.8 70.8001C52.4 70.8001 53 69.1001 53 65.8001C53 62.4001 52.4 61.0001 50.8 61.0001C49.2 61.0001 48.6 62.5001 48.6 65.7001Z" fill="#1D1D1D" stroke="#1D1D1D" stroke-width="0.25" stroke-miterlimit="10"/>
<path d="M59.3 66.3001V71.8001H57.8V59.7001H61.1C61.5 59.6001 62.0001 59.7001 62.4001 59.8001C62.8001 59.9001 63.2 60.2001 63.5 60.5001C63.8 60.8001 64.1 61.2001 64.2 61.6001C64.3 62.0001 64.4001 62.4001 64.4001 62.9001C64.5001 63.5001 64.4 64.1001 64.1 64.6001C63.8 65.1001 63.4 65.5001 62.8 65.7001C63.9 66.1001 64.3001 67.1001 64.3001 68.8001V69.3001C64.3001 70.2001 64.3 71.0001 64.5 71.9001H63C62.8 71.0001 62.8 70.2001 62.8 69.3001V68.9001C62.8 67.2001 62.4 66.4001 60.8 66.4001H59.3V66.3001ZM59.3 65.1001H60.8C62.3 65.1001 62.8 64.3001 62.8 62.9001C62.8 62.6001 62.8001 62.4001 62.7001 62.1001C62.6001 61.9001 62.5 61.6001 62.3 61.4001C62.1 61.2001 61.9001 61.1001 61.7001 61.0001C61.5001 60.9001 61.2001 60.9001 60.9001 60.9001H59.3V65.1001Z" fill="#1D1D1D" stroke="#1D1D1D" stroke-width="0.25" stroke-miterlimit="10"/>
<path d="M75.1001 66.8002C75.1001 64.6002 75.1001 62.3002 75.2001 61.0002C74.7001 63.2002 73.7001 68.0002 72.8001 71.8002H71.3001C70.6001 68.4002 69.5001 63.2002 69.1001 61.0002H69.0001C69.1001 62.4002 69.1001 65.1002 69.1001 67.1002V71.8002H67.7001V59.7002H70.0001C70.9001 63.4002 71.8001 67.8002 72.1001 69.4002C72.3001 68.0002 73.5001 63.3002 74.4001 59.7002H76.6001V71.8002H75.0001L75.1001 66.8002Z" fill="#1D1D1D" stroke="#1D1D1D" stroke-width="0.25" stroke-miterlimit="10"/>
<path d="M87.3 65.7001C87.3 69.9001 86.2 72.0001 83.6 72.0001C80.9 72.0001 80 69.9001 80 65.7001C80 61.5001 81.3 59.6001 83.7 59.6001C86.1 59.6001 87.3 61.5001 87.3 65.7001ZM81.5 65.7001C81.5 69.0001 82.2 70.8001 83.7 70.8001C85.2 70.8001 85.9 69.1001 85.9 65.8001C85.9 62.4001 85.3 61.0001 83.7 61.0001C82.1 60.8001 81.5 62.5001 81.5 65.7001Z" fill="#1D1D1D" stroke="#1D1D1D" stroke-width="0.25" stroke-miterlimit="10"/>
<path d="M90.7001 71.8001V59.7001H92.5001C95.7001 67.8001 96.2001 68.9001 96.4001 69.4001C96.3001 67.8001 96.3001 66.0001 96.3001 64.0001V59.6001H97.7001V71.7001H96.0001C92.6001 63.2001 92.2001 62.1001 92.1001 61.6001C92.2001 63.1001 92.2001 65.0001 92.2001 67.2001V71.7001L90.7001 71.8001Z" fill="#1D1D1D" stroke="#1D1D1D" stroke-width="0.25" stroke-miterlimit="10"/>
<path d="M107.1 66.1002H103V70.5002H107.5L107.3 71.8002H101.5V59.7002H107.3V61.0002H103V64.8002H107.1V66.1002Z" fill="#1D1D1D" stroke="#1D1D1D" stroke-width="0.25" stroke-miterlimit="10"/>
<path d="M123.6 64.5001L121.3 69.1001C120.4 70.9001 119.6 72.0001 117.8 72.0001C116 72.0001 114.9 70.7001 114.9 68.8001C114.9 67.2001 115.6 66.2001 117.5 65.0001C119.1 63.9001 119.5 63.3001 119.5 62.2001C119.5 61.4001 119.2 60.7001 118.3 60.7001C117.4 60.7001 117.1 61.3001 117.1 62.3001C117.1 63.2001 117.5 64.0001 118.1 64.7001L123.9 71.8001H122L116.9 65.5001C116.1 64.6001 115.7 63.5001 115.6 62.4001C115.6 62.0001 115.6 61.7001 115.7 61.3001C115.8 61.0001 116 60.6001 116.3 60.4001C116.5 60.1001 116.8 59.9001 117.2 59.8001C117.5 59.7001 117.9 59.6001 118.3 59.6001C118.6 59.6001 119 59.6001 119.3 59.7001C119.6 59.8001 119.9 60.0001 120.2 60.3001C120.4 60.5001 120.6 60.8001 120.7 61.2001C120.8 61.5001 120.9 61.9001 120.8 62.2001C120.8 63.9001 119.9 64.8001 118.2 65.8001C117.7 66.0001 117.2 66.4001 116.9 66.9001C116.6 67.4001 116.4 68.0001 116.4 68.6001C116.4 69.9001 117 70.7001 117.9 70.7001C118.9 70.7001 119.4 70.0001 120.3 68.2001L122.1 64.5001H123.6Z" fill="#1D1D1D" stroke="#1D1D1D" stroke-width="0.25" stroke-miterlimit="10"/>
<path d="M41.6 86.2L40.8 89.9H39.3L42.3 77.8H44.3L47.3 89.9H45.7001L44.9001 86.2H41.6ZM44.4001 84.9C43.7001 82 43.3 80.2 43.1 79.2C42.9 80.3 42.5001 82.4 41.9001 84.9H44.4001Z" fill="#1D1D1D" stroke="#1D1D1D" stroke-width="0.25" stroke-miterlimit="10"/>
<path d="M49.9 89.9V77.8H51.8C55 85.9 55.5 87 55.7 87.5C55.6 85.9 55.6 84.1 55.6 82.1V77.8H57V89.9H55.2C51.8 81.4 51.4 80.3 51.3 79.8C51.4 81.3 51.4 83.3 51.4 85.4V89.9H49.9Z" fill="#1D1D1D" stroke="#1D1D1D" stroke-width="0.25" stroke-miterlimit="10"/>
<path d="M62.3001 79.1H59.6001V77.8H66.6001V79.1H63.9001V89.9H62.4001V79.1H62.3001Z" fill="#1D1D1D" stroke="#1D1D1D" stroke-width="0.25" stroke-miterlimit="10"/>
<path d="M70.8 77.8V89.9H69.3V77.8H70.8Z" fill="#1D1D1D" stroke="#1D1D1D" stroke-width="0.25" stroke-miterlimit="10"/>
<path d="M74.6001 77.8H77.9001C78.3001 77.8 78.7001 77.8 79.1001 77.9C79.5001 78 79.8001 78.2 80.1001 78.5C80.4001 78.8 80.6001 79.1 80.8001 79.5C80.9001 79.9 81.0001 80.3 81.0001 80.7C81.1001 81.2 81.0001 81.8 80.7001 82.2C80.4001 82.7 80.0001 83 79.5001 83.2C80.1001 83.4 80.6001 83.8 81.0001 84.4C81.3001 84.9 81.5001 85.6 81.4001 86.2C81.4001 86.7 81.4001 87.2 81.2001 87.6C81.0001 88 80.8001 88.5 80.4001 88.8C80.1001 89.1 79.7001 89.4 79.2001 89.6C78.8001 89.8 78.3001 89.8 77.8001 89.8H74.6001V77.8ZM77.5001 82.8C79.0001 82.8 79.5001 82.2 79.5001 80.9C79.5001 80.6 79.5001 80.4 79.4001 80.1C79.3001 79.9 79.2001 79.6 79.0001 79.5C78.8001 79.3 78.6001 79.2 78.4001 79.1C78.1001 79 77.9001 79 77.6001 79H76.1001V82.8H77.5001ZM76.1001 88.7H77.7001C79.1001 88.7 79.9001 87.9 79.9001 86.4C79.9001 86.1 79.9001 85.8 79.8001 85.4C79.7001 85.1 79.5001 84.8 79.3001 84.6C79.1001 84.4 78.8001 84.2 78.5001 84.1C78.2001 84 77.9001 84 77.5001 84H76.2001L76.1001 88.7Z" fill="#1D1D1D" stroke="#1D1D1D" stroke-width="0.25" stroke-miterlimit="10"/>
<path d="M86 77.8V89.9H84.5V77.8H86Z" fill="#1D1D1D" stroke="#1D1D1D" stroke-width="0.25" stroke-miterlimit="10"/>
<path d="M96.8 83.7001C96.8 87.9001 95.7 90.0001 93.1 90.0001C90.4 90.0001 89.4 87.9001 89.4 83.7001C89.4 79.5001 90.7 77.6001 93.1 77.6001C95.5 77.6001 96.8 79.6001 96.8 83.7001ZM91 83.7001C91 87.0001 91.6 88.8001 93.2 88.8001C94.7 88.8001 95.4 87.1001 95.4 83.7001C95.4 80.3001 94.8 78.9001 93.2 78.9001C91.6 78.9001 91 80.5001 91 83.7001Z" fill="#1D1D1D" stroke="#1D1D1D" stroke-width="0.25" stroke-miterlimit="10"/>
<path d="M101.5 79.1H98.8V77.8H105.8V79.1H103V89.9H101.5V79.1Z" fill="#1D1D1D" stroke="#1D1D1D" stroke-width="0.25" stroke-miterlimit="10"/>
<path d="M110 77.8V89.9H108.5V77.8H110Z" fill="#1D1D1D" stroke="#1D1D1D" stroke-width="0.25" stroke-miterlimit="10"/>
<path d="M120.4 86.5001C120.3 87.2001 120.1 90.1001 117 90.1001C113.7 90.1001 113.4 86.8001 113.4 83.8001C113.4 80.2001 114.4 77.6001 117.1 77.6001C120.1 77.6001 120.3 80.3001 120.3 81.1001H118.7C118.7 80.7001 118.6 78.9001 117 78.9001C115.2 78.9001 114.8 81.3001 114.8 83.8001C114.8 86.2001 115.1 88.8001 116.9 88.8001C118.5 88.8001 118.7 87.1001 118.7 86.5001H120.4Z" fill="#1D1D1D" stroke="#1D1D1D" stroke-width="0.25" stroke-miterlimit="10"/>
<path d="M63.7001 95.9001H69.5001V97.2001H65.2001V101.1H69.2001V102.4H65.2001V108H63.7001V95.9001Z" fill="#1D1D1D" stroke="#1D1D1D" stroke-width="0.25" stroke-miterlimit="10"/>
<path d="M73.9 102.5V108H72.4V95.9001H75.7C76.1 95.8001 76.6 95.9001 77 96.0001C77.4 96.1001 77.8 96.4001 78.1 96.7001C78.4 97.0001 78.7 97.4001 78.8 97.8001C78.9 98.2001 79 98.6001 79 99.1001C79.1 99.7001 79 100.3 78.7 100.8C78.4 101.3 77.9 101.7 77.4 101.9C78.5 102.3 78.9 103.3 78.9 105V105.5C78.9 106.4 78.9 107.2 79.1 108.1H77.6C77.4 107.2 77.4 106.4 77.4 105.5V105.1C77.4 103.4 77 102.6 75.4 102.6H73.9V102.5ZM73.9 101.2H75.4C76.9 101.2 77.4 100.4 77.4 99.0001C77.4 98.7001 77.4 98.5001 77.3 98.2001C77.2 98.0001 77.1 97.7001 76.9 97.5001C76.7 97.3001 76.5 97.2001 76.3 97.1001C76.1 97.0001 75.8 97.0001 75.5 97.0001H73.9V101.2Z" fill="#1D1D1D" stroke="#1D1D1D" stroke-width="0.25" stroke-miterlimit="10"/>
<path d="M87.8001 102.2H83.7001V106.6H88.2001L88.0001 107.9H82.2001V95.9001H88.0001V97.2001H83.7001V101H87.8001V102.2Z" fill="#1D1D1D" stroke="#1D1D1D" stroke-width="0.25" stroke-miterlimit="10"/>
<path d="M96.8001 102.2H92.7001V106.6H97.2001L97.0001 108H91.2001V95.9001H97.0001V97.2001H92.7001V101H96.8001V102.2Z" fill="#1D1D1D" stroke="#1D1D1D" stroke-width="0.25" stroke-miterlimit="10"/>
</g>
<defs>
<clipPath id="clip0_1_2382">
<rect width="160" height="160" fill="white"/>
</clipPath>
</defs>
</svg>
