<svg width="357" height="286" viewBox="0 0 357 286" fill="none" xmlns="http://www.w3.org/2000/svg">
<circle opacity="0.1" cx="246.769" cy="186.957" r="38.7688" fill="#FDB001"/>
<circle opacity="0.35" cx="246.769" cy="186.957" r="26.5843" fill="#FDB001"/>
<circle cx="246.769" cy="186.957" r="13.2922" fill="#FDB001"/>
<path d="M246.659 45.3733C265.495 52.8651 285.44 56.2048 305.287 52.4499C312.513 51.0895 318.401 50.9199 325.3 48.1484C328.704 46.7764 331.991 45.5591 335.266 43.8622C337.017 42.9595 342.173 39.5784 342.847 37.3218C343.827 33.9821 339.828 27.5012 338.319 24.685C335.572 19.7101 331.841 15.5153 327.416 12.4273C309.414 -0.209526 287.27 -1.03995 267.021 3.56346C257.486 5.47502 248.565 10.1689 241.151 17.1751C238.517 19.7278 236.304 22.7835 234.616 26.2014C232.817 29.9925 230.055 36.1123 234.054 38.8382C238.05 41.485 242.273 43.6743 246.659 45.3733Z" stroke="black" stroke-width="0.85" stroke-miterlimit="10"/>
<path d="M291 262C320.823 262 345 255.732 345 248C345 240.268 320.823 234 291 234C261.177 234 237 240.268 237 248C237 255.732 261.177 262 291 262Z" stroke="black" stroke-width="0.85" stroke-miterlimit="10"/>
<path d="M237.018 247C237.018 247 234.312 285.505 294.486 284.995C354.66 284.485 345.501 247 345.501 247" stroke="black" stroke-width="0.85" stroke-miterlimit="10"/>
<path d="M263.749 240.755C267.374 239.706 271.108 239.248 274.841 239.395L293.032 239.082C296.81 238.825 300.601 239.171 304.298 240.111C306.881 240.92 309.4 242.335 312.078 242.262C313.663 242.262 315.247 241.674 316.832 241.545C320.084 241.618 323.274 242.595 326.133 244.394C328.225 245.478 330.713 247.665 329.809 250.091C325.953 253.324 321.249 254.909 316.499 254.575C313.996 254.373 311.524 253.657 309.02 253.528C304.076 253.289 299.196 255.366 294.268 254.943C291.843 254.574 289.437 254.059 287.058 253.399C282.366 252.645 277.623 252.405 272.892 252.682C265.413 252.682 257.939 252.309 250.471 251.561C249.393 251.451 246.113 250.808 246.002 249.007C245.892 247.206 249.504 247.573 250.867 247.169C255.351 245.735 259.249 242.335 263.749 240.755Z" stroke="black" stroke-width="0.85" stroke-miterlimit="10"/>
<path d="M337.987 202.146C339.131 194.117 319.041 183.711 293.115 178.904C267.189 174.097 245.245 176.709 244.102 184.738C242.958 192.767 263.048 203.172 288.974 207.979C314.9 212.786 336.844 210.174 337.987 202.146Z" stroke="black" stroke-width="0.85" stroke-miterlimit="10"/>
<path d="M244.096 185C244.096 185 241.629 195.593 244.096 200.395C246.563 205.196 286.894 236.741 329.358 218.235C330.896 217.58 332.281 216.534 333.404 215.177C334.528 213.821 335.36 212.19 335.835 210.412L338 202.247" stroke="black" stroke-width="0.85" stroke-miterlimit="10"/>
<path d="M264 107C252.413 106.653 244.129 103.22 243.108 97.3582C242.469 93.7061 244.704 89.7983 248.933 86" stroke="black" stroke-width="0.85" stroke-miterlimit="10"/>
<path d="M283 71.4399C302.84 67.836 319.41 71.1696 320.894 79.5127C321.372 82.2157 320.224 85.1168 317.704 88" stroke="black" stroke-width="0.85" stroke-miterlimit="10"/>
<path d="M264 103C257.309 102.136 252.734 99.652 252.08 95.8C251.489 92.344 254.197 88.474 259.083 85" stroke="black" stroke-width="0.85" stroke-miterlimit="10"/>
<path d="M279 75.9346L279.882 75.7255C296.895 72.0138 311.711 74.4882 312.961 81.2495C313.068 82.3012 312.953 83.3656 312.626 84.3619C312.298 85.3582 311.765 86.2604 311.069 87" stroke="black" stroke-width="0.85" stroke-miterlimit="10"/>
<path d="M255.085 99C253.834 92.1405 266.613 83.5309 283.641 79.7476C296.084 77.0073 307.356 77.5907 313 80.7906" stroke="black" stroke-width="0.85" stroke-miterlimit="10"/>
<path d="M243 98L244.175 102.694C244.544 104.151 245.255 105.484 246.241 106.566C247.227 107.649 248.455 108.445 249.81 108.879C255.097 110.336 260.54 111.048 266 110.998" stroke="black" stroke-width="0.85" stroke-miterlimit="10"/>
<path d="M340.034 107.138C342.291 109.933 343.355 112.746 342.894 115.377C341.305 124.343 322.633 127.628 301.163 122.728C279.694 117.827 263.533 106.593 265.106 97.6278C266.584 89.1161 283.54 85.7041 303.658 89.6061C304.707 89.8057 305.772 90.0235 306.837 90.2776" stroke="black" stroke-width="0.85" stroke-miterlimit="10"/>
<path d="M328.779 104.109C332.481 107.207 334.427 110.486 333.921 113.457C332.687 120.487 318.098 123.059 301.279 119.218C284.46 115.378 271.849 106.537 273.083 99.5435C274.318 92.5503 288.906 89.9234 305.725 93.7823C306.785 94.0178 307.814 94.2714 308.89 94.5613" stroke="black" stroke-width="0.85" stroke-miterlimit="10"/>
<path d="M274 105C275.253 98.4884 290.269 96.0886 307.564 99.6464C310.755 100.3 313.905 101.146 317 102.181" stroke="black" stroke-width="0.85" stroke-miterlimit="10"/>
<path d="M264.683 98L264.076 103.222C263.884 104.846 264.057 106.499 264.578 108.025C265.099 109.55 265.95 110.898 267.051 111.939C276.107 120.489 307.93 137.683 337.048 126.135C338.4 125.601 339.608 124.67 340.551 123.435C341.494 122.199 342.139 120.702 342.424 119.092L343 115.984" stroke="black" stroke-width="0.85" stroke-miterlimit="10"/>
<path d="M290.917 62.5628C290.983 62.8061 291.01 63.0605 290.997 63.3144C290.872 64.2156 290.549 65.0683 290.057 65.796C289.564 66.5237 288.918 67.1036 288.175 67.4838C286.673 68.2186 285.345 69.3336 284.296 70.7406C284.147 70.9929 284.013 71.2559 283.895 71.528C283.743 71.9027 283.572 72.2672 283.382 72.6195C282.408 74.103 281.048 75.2152 279.487 75.8048L278.621 76.1984C278.047 76.4705 277.508 76.8255 277.018 77.2542C275.967 78.4644 274.983 79.7431 274.068 81.0837C273.074 82.1159 271.811 82.7692 270.463 82.9492C269.115 83.1293 267.75 82.827 266.566 82.0858C265.7 81.5132 266.213 82.0858 265.203 82.1931C264.193 82.3005 263.263 83.3384 262.333 83.9826C260.297 85.5036 256.306 83.5889 253.853 83.6605C253.405 83.6343 252.96 83.7523 252.57 84.0005C252.266 84.2868 251.992 84.611 251.753 84.9668C251.415 85.3316 251.012 85.6113 250.57 85.7873C250.127 85.9632 249.656 86.0312 249.188 85.9868C248.342 85.9517 247.503 85.8075 246.687 85.5573C245.995 85.4295 245.347 85.0957 244.811 84.591C244.457 84.0282 244.151 83.429 243.898 82.8016C243.561 82.2289 242.936 81.71 242.375 81.9605C240.644 81.818 239.029 80.933 237.87 79.491C237.566 79.2025 237.329 78.8361 237.18 78.423C237.03 78.0099 236.973 77.5625 237.012 77.1191C237.051 76.6758 237.187 76.2498 237.406 75.8775C237.625 75.5052 237.922 75.1978 238.271 74.9816C240.932 72.709 244.683 72.7985 247.553 70.848C249.171 69.7347 250.39 68.0259 250.999 66.0164C251.192 65.3901 251.368 64.6565 251.913 64.3522C252.226 64.2004 252.569 64.1448 252.907 64.1912C256.804 64.5971 260.734 64.1905 264.498 62.9922C265.944 62.1951 267.509 61.6979 269.114 61.5249C272 61.5249 274.228 64.567 277.13 65.1038C279.563 65.2266 281.941 64.2752 283.751 62.4554C284.922 61.2218 286.375 60.3734 287.951 60.0038C288.352 59.982 288.753 60.0534 289.129 60.2136C289.504 60.3738 289.845 60.6192 290.131 60.9344" stroke="black" stroke-width="0.85" stroke-miterlimit="10"/>
<path d="M237 78.1169C242.495 78.4773 245.728 80.0137 254.345 77.9272C257.976 77.0547 261.066 74.2474 264.57 72.8627C268.588 71.1373 272.783 70.0592 277.041 69.6571C279.473 69.6655 281.88 69.0779 284.113 67.931C287.384 65.9716 290.091 62.8939 291.885 59.0918L293 56.5311L291.885 56C290.268 59.966 287.695 63.268 284.495 65.4841C282.449 66.7441 280.201 67.4684 277.901 67.6085C273.412 67.6824 268.948 68.4345 264.618 69.8468C261.114 71.2314 257.912 73.6404 254.392 74.9113C249.152 76.8081 242.861 76.6184 237.366 76.258" stroke="black" stroke-width="0.85" stroke-miterlimit="10"/>
<path d="M302.018 86.5584C301.994 86.7976 301.994 87.0391 302.018 87.2784C302.145 88.143 302.47 88.9604 302.964 89.6574C303.458 90.3544 304.104 90.9093 304.847 91.2725C306.339 91.9854 307.662 93.0522 308.714 94.3925C309.066 94.9582 309.273 95.6096 309.609 96.1924C310.583 97.6072 311.938 98.6665 313.492 99.2266C314.384 99.5748 315.233 100.041 316.017 100.615C317.069 101.776 318.051 103.007 318.958 104.301C319.949 105.29 321.207 105.915 322.551 106.088C323.895 106.26 325.256 105.971 326.436 105.261C327.299 104.712 328.13 103.889 329.121 103.924C330.112 103.958 331.055 105.038 331.998 105.638C334.011 107.095 336.68 106.701 339.109 106.769C339.56 106.744 340.009 106.857 340.403 107.095C340.707 107.369 340.98 107.68 341.218 108.021C342.433 109.409 344.526 109.049 346.252 108.586C346.945 108.465 347.592 108.138 348.122 107.644C348.491 107.112 348.802 106.537 349.049 105.929C349.182 105.613 349.416 105.358 349.709 105.21C350.002 105.062 350.334 105.032 350.647 105.124C352.371 104.984 353.979 104.136 355.137 102.758C355.69 102.161 356 101.354 356 100.512C355.846 99.6668 355.387 98.9209 354.722 98.4381C352.085 96.2438 348.329 96.3467 345.469 94.4782C343.86 93.4074 342.646 91.7719 342.033 89.8497C341.841 89.2326 341.666 88.5469 341.138 88.2555C340.822 88.1086 340.474 88.0553 340.132 88.1012C336.247 88.4892 332.329 88.0997 328.578 86.9526C327.141 86.1892 325.587 85.7129 323.991 85.547C321.115 85.547 318.878 88.4612 316.001 88.8897C313.576 89.0036 311.207 88.0927 309.401 86.3527C308.238 85.1744 306.795 84.362 305.23 84.0041C304.828 83.9819 304.425 84.0496 304.048 84.203C303.671 84.3565 303.328 84.5923 303.041 84.8956" stroke="black" stroke-width="0.85" stroke-miterlimit="10"/>
<path d="M356 102.146C350.507 102.509 347.274 103.961 338.644 101.982C335.03 101.147 331.925 98.4611 328.422 97.1361C324.407 95.4765 320.213 94.4447 315.954 94.0687C313.524 94.0751 311.117 93.5129 308.885 92.4169C305.618 90.5418 302.918 87.5963 301.13 83.9586L300 81.5082L301.13 81C302.764 84.7585 305.334 87.884 308.519 89.9847C310.575 91.1938 312.832 91.8928 315.142 92.0357C319.631 92.0973 324.094 92.8172 328.422 94.1776C331.925 95.5026 335.125 97.8077 338.644 99.0238C343.883 100.839 350.188 100.657 355.666 100.313" stroke="black" stroke-width="0.85" stroke-miterlimit="10"/>
<path d="M272.764 117H269.749C269.749 117 243.137 127.392 222 145.025C222 145.025 236.282 133.547 259.434 154.077C282.587 174.606 288.918 167.98 288.918 167.98C288.918 167.98 299.106 149.496 319.625 149.677C340.143 149.858 340 141.585 340 141.585L318.863 129.962" stroke="black" stroke-width="0.85" stroke-miterlimit="10"/>
<path d="M222 145.414V148.07C222 148.07 236.42 136.635 259.796 157.102C283.173 177.569 289.566 170.994 289.566 170.994C293.142 165.467 297.798 160.943 303.175 157.773C308.551 154.603 314.503 152.871 320.569 152.712C340.148 152.297 343 143.915 343 143.915L341.141 142" stroke="black" stroke-width="0.85" stroke-miterlimit="10"/>
<path d="M1.638 18H9.594L9.828 16.578H3.294V5.49H1.638V18ZM11.7031 18H13.2871V8.874H11.7031V18ZM11.7031 6.768H13.2871V4.788H11.7031V6.768ZM23.4986 11.52C23.4986 10.638 23.5166 9.414 23.5346 8.874H22.0406C22.0226 9.072 21.9866 9.684 21.9686 10.098C21.7526 9.486 21.0146 8.658 19.2866 8.658C17.0726 8.658 15.3446 10.476 15.3446 13.464C15.3446 16.128 16.8746 17.964 19.1246 17.964C20.6366 17.964 21.4826 17.388 21.9686 16.362V17.1C21.9686 19.206 21.4466 20.52 19.3766 20.52C18.2066 20.52 17.3966 19.98 17.1446 18.99H15.5246C15.7046 20.232 16.5506 21.78 19.3226 21.78C22.2926 21.78 23.4986 20.106 23.4986 17.19V11.52ZM19.5206 10.008C21.4646 10.008 22.0046 11.214 22.0046 13.266C22.0046 15.3 21.4286 16.614 19.4666 16.614C17.9726 16.614 16.9826 15.318 16.9826 13.392C16.9826 11.412 17.8286 10.008 19.5206 10.008ZM26.1875 4.788V18H27.7715V13.014C27.7715 11.124 28.4915 10.026 30.1475 10.026C31.4615 10.026 32.1275 10.89 32.1275 12.438V18H33.6935V12.186C33.6935 9.468 32.0735 8.658 30.6155 8.658C29.0675 8.658 28.2395 9.432 27.7715 10.224V4.788H26.1875ZM35.1073 10.17H36.6913V15.876C36.6913 17.406 37.3213 18.126 38.7433 18.126C39.1753 18.126 39.7153 18.108 40.1113 17.964V16.776C39.8593 16.848 39.5353 16.848 39.3013 16.848C38.4913 16.848 38.2753 16.398 38.2753 15.516V10.17H40.2733V8.874H38.2753V6.192H36.6913V8.874H35.1073V10.17ZM43.539 18V4.788H41.955V18H43.539ZM45.2152 8.874L48.6352 18.36C48.0952 19.89 47.6632 20.394 46.4932 20.394C46.2412 20.394 45.9712 20.376 45.7552 20.34V21.708C46.0972 21.762 46.4392 21.78 46.7272 21.78C48.5992 21.78 49.2832 21.096 50.2192 18.432L53.4952 8.874H51.8932C50.4172 13.482 49.7512 15.57 49.4632 16.596H49.4452C49.2112 15.678 48.3832 13.248 46.9252 8.874H45.2152ZM62.4299 18H64.1039V6.912H68.1539V5.49H58.3799V6.912H62.4299V18ZM71.4665 8.658C68.7125 8.658 67.1645 10.764 67.1645 13.464C67.1645 16.2 68.7485 18.216 71.3585 18.216C74.1485 18.216 75.6605 16.056 75.6605 13.428C75.6605 10.566 74.0045 8.658 71.4665 8.658ZM71.3945 9.99C73.1045 9.99 74.0405 11.394 74.0405 13.446C74.0405 15.516 73.1045 16.902 71.4305 16.902C69.7925 16.902 68.7845 15.444 68.7845 13.446C68.7845 11.358 69.6845 9.99 71.3945 9.99ZM77.04 15.39C77.274 17.028 78.426 18.216 80.784 18.216C83.07 18.216 84.33 17.064 84.33 15.462C84.33 14.094 83.772 13.176 81.018 12.528C79.344 12.114 78.966 11.79 78.966 11.106C78.966 10.512 79.344 9.882 80.622 9.882C82.026 9.882 82.476 10.71 82.602 11.304H84.132C84.006 10.026 83.034 8.658 80.694 8.658C78.336 8.658 77.4 9.936 77.4 11.232C77.4 12.474 77.94 13.266 80.55 13.896C82.296 14.328 82.71 14.724 82.71 15.57C82.71 16.398 82.188 16.974 80.838 16.974C79.596 16.974 78.858 16.398 78.606 15.39H77.04ZM85.0995 10.17H86.6835V15.876C86.6835 17.406 87.3135 18.126 88.7355 18.126C89.1675 18.126 89.7075 18.108 90.1035 17.964V16.776C89.8515 16.848 89.5275 16.848 89.2935 16.848C88.4835 16.848 88.2675 16.398 88.2675 15.516V10.17H90.2655V8.874H88.2675V6.192H86.6835V8.874H85.0995V10.17ZM99.2745 13.734C99.3105 13.482 99.3105 13.248 99.3105 12.978C99.3105 11.034 98.3385 8.658 95.3865 8.658C92.6145 8.658 91.2465 10.836 91.2465 13.536C91.2465 15.894 92.4165 18.216 95.2965 18.216C97.7985 18.216 98.7705 16.668 99.1305 15.498H97.5465C97.2585 16.164 96.7905 16.902 95.3325 16.902C93.7845 16.902 92.8485 15.588 92.8485 13.734H99.2745ZM92.9025 12.618C93.0645 11.034 93.7665 9.918 95.3685 9.918C96.9345 9.918 97.6905 11.124 97.7085 12.618H92.9025ZM107.452 4.788V9.828C107.2 9.324 106.48 8.658 104.86 8.658C102.34 8.658 100.792 10.728 100.792 13.536C100.792 16.326 102.232 18.216 104.572 18.216C106.066 18.216 107.002 17.658 107.452 16.722C107.452 17.064 107.488 17.766 107.524 18H109.036C109.018 17.136 109.018 16.29 109.018 15.426V4.788H107.452ZM105.022 10.008C107.092 10.008 107.506 11.286 107.506 13.32C107.506 15.318 107.038 16.884 104.896 16.884C103.474 16.884 102.43 15.696 102.43 13.5C102.43 11.286 103.42 10.008 105.022 10.008ZM116.564 18H121.496C123.872 18 125.672 16.704 125.672 14.346C125.672 12.51 124.322 11.628 123.458 11.34C124.412 11.016 125.258 10.062 125.258 8.622C125.258 6.876 124.016 5.49 121.37 5.49H116.564V18ZM118.202 10.692V6.858H121.316C122.774 6.858 123.584 7.65 123.584 8.748C123.584 9.972 122.864 10.692 121.046 10.692H118.202ZM118.202 12.06H120.974C123.08 12.06 123.962 12.978 123.962 14.346C123.962 15.894 122.864 16.632 121.298 16.632H118.202V12.06ZM135.097 8.874H133.531V13.644C133.531 15.93 132.883 16.848 131.209 16.848C129.679 16.848 129.319 15.75 129.319 14.544V8.874H127.753V14.886C127.753 17.46 129.229 18.216 130.759 18.216C132.199 18.216 133.081 17.658 133.531 16.632C133.531 17.208 133.549 17.766 133.585 18H135.115C135.115 17.478 135.097 16.236 135.097 15.354V8.874ZM137.809 18H139.375V13.176C139.375 11.34 140.077 10.026 141.787 10.026C143.191 10.026 143.731 10.962 143.731 12.348V18H145.297V12.132C145.297 9.72 143.965 8.658 142.255 8.658C140.491 8.658 139.753 9.594 139.375 10.386C139.393 10.116 139.357 9.144 139.321 8.874H137.791C137.809 9.594 137.809 10.386 137.809 11.178V18Z" fill="black"/>
<path d="M1.638 273H9.594L9.828 271.578H3.294V260.49H1.638V273ZM11.7031 273H13.2871V263.874H11.7031V273ZM11.7031 261.768H13.2871V259.788H11.7031V261.768ZM23.4986 266.52C23.4986 265.638 23.5166 264.414 23.5346 263.874H22.0406C22.0226 264.072 21.9866 264.684 21.9686 265.098C21.7526 264.486 21.0146 263.658 19.2866 263.658C17.0726 263.658 15.3446 265.476 15.3446 268.464C15.3446 271.128 16.8746 272.964 19.1246 272.964C20.6366 272.964 21.4826 272.388 21.9686 271.362V272.1C21.9686 274.206 21.4466 275.52 19.3766 275.52C18.2066 275.52 17.3966 274.98 17.1446 273.99H15.5246C15.7046 275.232 16.5506 276.78 19.3226 276.78C22.2926 276.78 23.4986 275.106 23.4986 272.19V266.52ZM19.5206 265.008C21.4646 265.008 22.0046 266.214 22.0046 268.266C22.0046 270.3 21.4286 271.614 19.4666 271.614C17.9726 271.614 16.9826 270.318 16.9826 268.392C16.9826 266.412 17.8286 265.008 19.5206 265.008ZM26.1875 259.788V273H27.7715V268.014C27.7715 266.124 28.4915 265.026 30.1475 265.026C31.4615 265.026 32.1275 265.89 32.1275 267.438V273H33.6935V267.186C33.6935 264.468 32.0735 263.658 30.6155 263.658C29.0675 263.658 28.2395 264.432 27.7715 265.224V259.788H26.1875ZM35.1073 265.17H36.6913V270.876C36.6913 272.406 37.3213 273.126 38.7433 273.126C39.1753 273.126 39.7153 273.108 40.1113 272.964V271.776C39.8593 271.848 39.5353 271.848 39.3013 271.848C38.4913 271.848 38.2753 271.398 38.2753 270.516V265.17H40.2733V263.874H38.2753V261.192H36.6913V263.874H35.1073V265.17ZM43.539 273V259.788H41.955V273H43.539ZM45.2152 263.874L48.6352 273.36C48.0952 274.89 47.6632 275.394 46.4932 275.394C46.2412 275.394 45.9712 275.376 45.7552 275.34V276.708C46.0972 276.762 46.4392 276.78 46.7272 276.78C48.5992 276.78 49.2832 276.096 50.2192 273.432L53.4952 263.874H51.8932C50.4172 268.482 49.7512 270.57 49.4632 271.596H49.4452C49.2112 270.678 48.3832 268.248 46.9252 263.874H45.2152ZM62.4299 273H64.1039V261.912H68.1539V260.49H58.3799V261.912H62.4299V273ZM71.4665 263.658C68.7125 263.658 67.1645 265.764 67.1645 268.464C67.1645 271.2 68.7485 273.216 71.3585 273.216C74.1485 273.216 75.6605 271.056 75.6605 268.428C75.6605 265.566 74.0045 263.658 71.4665 263.658ZM71.3945 264.99C73.1045 264.99 74.0405 266.394 74.0405 268.446C74.0405 270.516 73.1045 271.902 71.4305 271.902C69.7925 271.902 68.7845 270.444 68.7845 268.446C68.7845 266.358 69.6845 264.99 71.3945 264.99ZM77.04 270.39C77.274 272.028 78.426 273.216 80.784 273.216C83.07 273.216 84.33 272.064 84.33 270.462C84.33 269.094 83.772 268.176 81.018 267.528C79.344 267.114 78.966 266.79 78.966 266.106C78.966 265.512 79.344 264.882 80.622 264.882C82.026 264.882 82.476 265.71 82.602 266.304H84.132C84.006 265.026 83.034 263.658 80.694 263.658C78.336 263.658 77.4 264.936 77.4 266.232C77.4 267.474 77.94 268.266 80.55 268.896C82.296 269.328 82.71 269.724 82.71 270.57C82.71 271.398 82.188 271.974 80.838 271.974C79.596 271.974 78.858 271.398 78.606 270.39H77.04ZM85.0995 265.17H86.6835V270.876C86.6835 272.406 87.3135 273.126 88.7355 273.126C89.1675 273.126 89.7075 273.108 90.1035 272.964V271.776C89.8515 271.848 89.5275 271.848 89.2935 271.848C88.4835 271.848 88.2675 271.398 88.2675 270.516V265.17H90.2655V263.874H88.2675V261.192H86.6835V263.874H85.0995V265.17ZM99.2745 268.734C99.3105 268.482 99.3105 268.248 99.3105 267.978C99.3105 266.034 98.3385 263.658 95.3865 263.658C92.6145 263.658 91.2465 265.836 91.2465 268.536C91.2465 270.894 92.4165 273.216 95.2965 273.216C97.7985 273.216 98.7705 271.668 99.1305 270.498H97.5465C97.2585 271.164 96.7905 271.902 95.3325 271.902C93.7845 271.902 92.8485 270.588 92.8485 268.734H99.2745ZM92.9025 267.618C93.0645 266.034 93.7665 264.918 95.3685 264.918C96.9345 264.918 97.6905 266.124 97.7085 267.618H92.9025ZM107.452 259.788V264.828C107.2 264.324 106.48 263.658 104.86 263.658C102.34 263.658 100.792 265.728 100.792 268.536C100.792 271.326 102.232 273.216 104.572 273.216C106.066 273.216 107.002 272.658 107.452 271.722C107.452 272.064 107.488 272.766 107.524 273H109.036C109.018 272.136 109.018 271.29 109.018 270.426V259.788H107.452ZM105.022 265.008C107.092 265.008 107.506 266.286 107.506 268.32C107.506 270.318 107.038 271.884 104.896 271.884C103.474 271.884 102.43 270.696 102.43 268.5C102.43 266.286 103.42 265.008 105.022 265.008ZM116.564 273H121.496C123.872 273 125.672 271.704 125.672 269.346C125.672 267.51 124.322 266.628 123.458 266.34C124.412 266.016 125.258 265.062 125.258 263.622C125.258 261.876 124.016 260.49 121.37 260.49H116.564V273ZM118.202 265.692V261.858H121.316C122.774 261.858 123.584 262.65 123.584 263.748C123.584 264.972 122.864 265.692 121.046 265.692H118.202ZM118.202 267.06H120.974C123.08 267.06 123.962 267.978 123.962 269.346C123.962 270.894 122.864 271.632 121.298 271.632H118.202V267.06ZM135.097 263.874H133.531V268.644C133.531 270.93 132.883 271.848 131.209 271.848C129.679 271.848 129.319 270.75 129.319 269.544V263.874H127.753V269.886C127.753 272.46 129.229 273.216 130.759 273.216C132.199 273.216 133.081 272.658 133.531 271.632C133.531 272.208 133.549 272.766 133.585 273H135.115C135.115 272.478 135.097 271.236 135.097 270.354V263.874ZM137.809 273H139.375V268.176C139.375 266.34 140.077 265.026 141.787 265.026C143.191 265.026 143.731 265.962 143.731 267.348V273H145.297V267.132C145.297 264.72 143.965 263.658 142.255 263.658C140.491 263.658 139.753 264.594 139.375 265.386C139.393 265.116 139.357 264.144 139.321 263.874H137.791C137.809 264.594 137.809 265.386 137.809 266.178V273Z" fill="black"/>
<path d="M9.9 94.454C9.414 95.678 8.568 96.776 6.642 96.776C3.762 96.776 2.682 94.184 2.682 91.736C2.682 89.198 3.816 86.696 6.57 86.696C8.55 86.696 9.45 87.722 9.9 89.09H11.556C11.196 86.984 9.594 85.31 6.642 85.31C2.826 85.31 0.936 88.388 0.936 91.79C0.936 95.318 2.826 98.162 6.57 98.162C9.414 98.162 10.998 96.578 11.556 94.454H9.9ZM13.6191 84.788V98H15.2031V93.014C15.2031 91.124 15.9231 90.026 17.5791 90.026C18.8931 90.026 19.5591 90.89 19.5591 92.438V98H21.1251V92.186C21.1251 89.468 19.5051 88.658 18.0471 88.658C16.4991 88.658 15.6711 89.432 15.2031 90.224V84.788H13.6191ZM27.4684 88.658C24.7144 88.658 23.1664 90.764 23.1664 93.464C23.1664 96.2 24.7504 98.216 27.3604 98.216C30.1504 98.216 31.6624 96.056 31.6624 93.428C31.6624 90.566 30.0064 88.658 27.4684 88.658ZM27.3964 89.99C29.1064 89.99 30.0424 91.394 30.0424 93.446C30.0424 95.516 29.1064 96.902 27.4324 96.902C25.7944 96.902 24.7864 95.444 24.7864 93.446C24.7864 91.358 25.6864 89.99 27.3964 89.99ZM33.7636 98H35.3476V88.874H33.7636V98ZM33.7636 86.768H35.3476V84.788H33.7636V86.768ZM43.6871 95.21C43.3091 96.308 42.6431 96.92 41.4911 96.92C39.9071 96.92 39.0251 95.516 39.0251 93.446C39.0251 91.376 39.9431 89.99 41.5631 89.99C42.8771 89.99 43.4531 90.782 43.6871 91.718H45.2531C45.1271 90.548 44.2271 88.658 41.5811 88.658C38.8631 88.658 37.4051 90.908 37.4051 93.5C37.4051 96.416 38.9711 98.216 41.4731 98.216C43.7951 98.216 44.8571 96.794 45.2531 95.21H43.6871ZM54.6085 93.734C54.6445 93.482 54.6445 93.248 54.6445 92.978C54.6445 91.034 53.6725 88.658 50.7205 88.658C47.9485 88.658 46.5805 90.836 46.5805 93.536C46.5805 95.894 47.7505 98.216 50.6305 98.216C53.1325 98.216 54.1045 96.668 54.4645 95.498H52.8805C52.5925 96.164 52.1245 96.902 50.6665 96.902C49.1185 96.902 48.1825 95.588 48.1825 93.734H54.6085ZM48.2365 92.618C48.3985 91.034 49.1005 89.918 50.7025 89.918C52.2685 89.918 53.0245 91.124 53.0425 92.618H48.2365ZM64.7868 88.658C62.0328 88.658 60.4848 90.764 60.4848 93.464C60.4848 96.2 62.0688 98.216 64.6788 98.216C67.4688 98.216 68.9808 96.056 68.9808 93.428C68.9808 90.566 67.3248 88.658 64.7868 88.658ZM64.7148 89.99C66.4248 89.99 67.3608 91.394 67.3608 93.446C67.3608 95.516 66.4248 96.902 64.7508 96.902C63.1128 96.902 62.1048 95.444 62.1048 93.446C62.1048 91.358 63.0048 89.99 64.7148 89.99ZM72.9712 98V90.17H74.8072V88.874H72.9712V87.884C72.9712 86.552 73.3312 85.994 74.2672 85.994C74.5192 85.994 74.8432 86.012 75.0772 86.066V84.734C74.8432 84.662 74.3932 84.608 74.0692 84.608C72.0532 84.608 71.4052 86.102 71.4052 87.794V88.874H69.9292V90.17H71.4052V98H72.9712ZM79.4582 88.874L82.6442 98H84.3722L87.7382 88.874H86.1182C84.7502 92.798 83.7782 95.534 83.5622 96.542H83.5442C83.2742 95.408 82.3742 92.618 81.1322 88.874H79.4582ZM96.6026 93.734C96.6386 93.482 96.6386 93.248 96.6386 92.978C96.6386 91.034 95.6666 88.658 92.7146 88.658C89.9426 88.658 88.5746 90.836 88.5746 93.536C88.5746 95.894 89.7446 98.216 92.6246 98.216C95.1266 98.216 96.0986 96.668 96.4586 95.498H94.8746C94.5866 96.164 94.1186 96.902 92.6606 96.902C91.1126 96.902 90.1766 95.588 90.1766 93.734H96.6026ZM90.2306 92.618C90.3926 91.034 91.0946 89.918 92.6966 89.918C94.2626 89.918 95.0186 91.124 95.0366 92.618H90.2306ZM106.344 91.52C106.344 90.638 106.362 89.414 106.38 88.874H104.886C104.868 89.072 104.832 89.684 104.814 90.098C104.598 89.486 103.86 88.658 102.132 88.658C99.9183 88.658 98.1903 90.476 98.1903 93.464C98.1903 96.128 99.7203 97.964 101.97 97.964C103.482 97.964 104.328 97.388 104.814 96.362V97.1C104.814 99.206 104.292 100.52 102.222 100.52C101.052 100.52 100.242 99.98 99.9903 98.99H98.3703C98.5503 100.232 99.3963 101.78 102.168 101.78C105.138 101.78 106.344 100.106 106.344 97.19V91.52ZM102.366 90.008C104.31 90.008 104.85 91.214 104.85 93.266C104.85 95.3 104.274 96.614 102.312 96.614C100.818 96.614 99.8283 95.318 99.8283 93.392C99.8283 91.412 100.674 90.008 102.366 90.008ZM116.557 91.52C116.557 90.638 116.575 89.414 116.593 88.874H115.099C115.081 89.072 115.045 89.684 115.027 90.098C114.811 89.486 114.073 88.658 112.345 88.658C110.131 88.658 108.403 90.476 108.403 93.464C108.403 96.128 109.933 97.964 112.183 97.964C113.695 97.964 114.541 97.388 115.027 96.362V97.1C115.027 99.206 114.505 100.52 112.435 100.52C111.265 100.52 110.455 99.98 110.203 98.99H108.583C108.763 100.232 109.609 101.78 112.381 101.78C115.351 101.78 116.557 100.106 116.557 97.19V91.52ZM112.579 90.008C114.523 90.008 115.063 91.214 115.063 93.266C115.063 95.3 114.487 96.614 112.525 96.614C111.031 96.614 110.041 95.318 110.041 93.392C110.041 91.412 110.887 90.008 112.579 90.008ZM119.246 98H120.83V88.874H119.246V98ZM119.246 86.768H120.83V84.788H119.246V86.768ZM130.898 93.734C130.934 93.482 130.934 93.248 130.934 92.978C130.934 91.034 129.962 88.658 127.01 88.658C124.238 88.658 122.87 90.836 122.87 93.536C122.87 95.894 124.04 98.216 126.92 98.216C129.422 98.216 130.394 96.668 130.754 95.498H129.17C128.882 96.164 128.414 96.902 126.956 96.902C125.408 96.902 124.472 95.588 124.472 93.734H130.898ZM124.526 92.618C124.688 91.034 125.39 89.918 126.992 89.918C128.558 89.918 129.314 91.124 129.332 92.618H124.526ZM132.288 95.39C132.522 97.028 133.674 98.216 136.032 98.216C138.318 98.216 139.578 97.064 139.578 95.462C139.578 94.094 139.02 93.176 136.266 92.528C134.592 92.114 134.214 91.79 134.214 91.106C134.214 90.512 134.592 89.882 135.87 89.882C137.274 89.882 137.724 90.71 137.85 91.304H139.38C139.254 90.026 138.282 88.658 135.942 88.658C133.584 88.658 132.648 89.936 132.648 91.232C132.648 92.474 133.188 93.266 135.798 93.896C137.544 94.328 137.958 94.724 137.958 95.57C137.958 96.398 137.436 96.974 136.086 96.974C134.844 96.974 134.106 96.398 133.854 95.39H132.288Z" fill="black"/>
<path d="M11.34 180H13.464V167.652H10.296C9.234 170.82 7.614 175.716 7.362 177.174H7.344C6.966 175.356 5.67 170.802 4.644 167.652H1.386V180H3.402V175.428C3.402 173.304 3.348 170.586 3.24 169.146H3.33C3.87 171.612 5.382 177.048 6.246 180H8.154C9.306 176.49 10.782 171.63 11.34 169.182H11.43C11.376 170.55 11.34 172.998 11.34 175.176V180ZM23.4605 175.842C23.4785 175.734 23.4785 175.212 23.4785 175.104C23.4785 172.8 22.5785 170.568 19.5365 170.568C16.4945 170.568 15.3605 173.088 15.3605 175.374C15.3605 178.074 16.5125 180.18 19.4465 180.18C21.9485 180.18 22.9565 178.65 23.3525 177.246H21.2825C21.1385 177.678 20.7425 178.488 19.5185 178.488C18.0605 178.488 17.5025 177.228 17.5025 175.842H23.4605ZM17.5385 174.42C17.5925 173.502 17.9705 172.206 19.5005 172.206C20.8865 172.206 21.3725 173.196 21.4085 174.42H17.5385ZM32.2729 173.574C32.2729 171.342 30.8509 170.568 28.7449 170.568C26.0449 170.568 25.1629 171.99 25.0549 173.466H27.1069C27.2149 172.674 27.5389 172.116 28.7089 172.116C29.9509 172.116 30.2029 172.8 30.2029 173.592V174.348C29.7709 174.348 29.3749 174.348 28.9969 174.348C25.7569 174.348 24.6949 175.77 24.6949 177.354C24.6949 178.704 25.4509 180.162 27.7369 180.162C29.1409 180.162 30.0229 179.604 30.4009 178.794C30.4189 179.172 30.4729 179.712 30.5449 180H32.4169C32.3269 179.406 32.2729 178.362 32.2729 177.732V173.574ZM30.2569 175.932C30.2569 177.48 29.8429 178.524 28.2589 178.524C27.2509 178.524 26.8189 177.912 26.8189 177.192C26.8189 176.508 27.1789 175.752 29.0329 175.752C29.5189 175.752 29.9329 175.752 30.2569 175.752V175.932ZM33.4524 172.422H34.8024V177.804C34.8024 179.46 35.4324 180.108 37.0704 180.108C37.3944 180.108 38.0244 180.09 38.4564 179.946V178.452C38.2224 178.488 38.0784 178.488 37.8444 178.488C37.0884 178.488 36.9264 178.2 36.9264 177.534V172.422H38.6364V170.748H36.9264V168.192H34.8024V170.748H33.4524V172.422ZM40.124 180H42.23V170.748H40.124V180ZM40.124 169.056H42.23V166.914H40.124V169.056ZM52.3451 173.502C52.3451 172.224 52.3631 171.216 52.3811 170.748H50.3291C50.2931 170.946 50.2391 171.414 50.2391 171.702C50.0051 171.126 49.3751 170.568 47.9171 170.568C45.8291 170.568 44.0831 172.35 44.0831 175.302C44.0831 178.164 45.5411 179.946 47.7371 179.946C48.9611 179.946 49.8251 179.55 50.2931 178.632V179.262C50.2931 181.062 49.9151 182.088 48.2231 182.088C47.1791 182.088 46.5131 181.656 46.3331 180.828H44.2451C44.3531 182.196 45.2171 183.744 48.1151 183.744C51.1931 183.744 52.3451 182.034 52.3451 179.172V173.502ZM48.3671 172.332C50.0231 172.332 50.3471 173.34 50.3471 175.248C50.3471 177.282 49.8251 178.182 48.3131 178.182C47.0351 178.182 46.2791 177.084 46.2791 175.266C46.2791 173.286 47.1431 172.332 48.3671 172.332ZM58.5114 170.568C55.4514 170.568 54.1374 172.944 54.1374 175.302C54.1374 177.804 55.2714 180.18 58.3854 180.18C61.4634 180.18 62.7234 177.948 62.7234 175.248C62.7234 172.692 61.3734 170.568 58.5114 170.568ZM58.4214 172.26C59.8614 172.26 60.5634 173.358 60.5634 175.266C60.5634 177.3 59.8614 178.488 58.4754 178.488C57.0534 178.488 56.3154 177.282 56.3154 175.248C56.3154 173.448 57.0534 172.26 58.4214 172.26ZM74.257 167.472C70.423 167.472 68.749 170.64 68.749 173.754C68.749 177.318 70.405 180.18 74.095 180.18C77.893 180.18 79.585 177.318 79.585 173.754C79.585 170.352 77.875 167.472 74.257 167.472ZM74.167 169.236C76.471 169.236 77.353 171.306 77.353 173.772C77.353 176.454 76.471 178.434 74.185 178.434C72.061 178.434 71.017 176.364 71.017 173.736C71.017 171.234 71.953 169.236 74.167 169.236ZM81.4501 180H83.5561V175.68C83.5561 173.61 84.4381 172.764 86.4001 172.764V170.604C84.7621 170.604 83.8801 171.558 83.5381 172.458C83.5381 171.756 83.5201 171.162 83.4841 170.748H81.4141C81.4321 171.342 81.4501 172.386 81.4501 173.898V180ZM87.8837 180H89.9897V170.748H87.8837V180ZM87.8837 169.056H89.9897V166.914H87.8837V169.056ZM100.105 173.502C100.105 172.224 100.123 171.216 100.141 170.748H98.0889C98.0529 170.946 97.9989 171.414 97.9989 171.702C97.7649 171.126 97.1349 170.568 95.6769 170.568C93.5889 170.568 91.8429 172.35 91.8429 175.302C91.8429 178.164 93.3009 179.946 95.4969 179.946C96.7209 179.946 97.5849 179.55 98.0529 178.632V179.262C98.0529 181.062 97.6749 182.088 95.9829 182.088C94.9389 182.088 94.2729 181.656 94.0929 180.828H92.0049C92.1129 182.196 92.9769 183.744 95.8749 183.744C98.9529 183.744 100.105 182.034 100.105 179.172V173.502ZM96.1269 172.332C97.7829 172.332 98.1069 173.34 98.1069 175.248C98.1069 177.282 97.5849 178.182 96.0729 178.182C94.7949 178.182 94.0389 177.084 94.0389 175.266C94.0389 173.286 94.9029 172.332 96.1269 172.332ZM102.491 180H104.597V170.748H102.491V180ZM102.491 169.056H104.597V166.914H102.491V169.056ZM107.026 180H109.132V174.924C109.132 173.196 109.726 172.35 111.004 172.35C112.228 172.35 112.552 173.214 112.552 174.366V180H114.676V173.97C114.676 171.72 113.614 170.568 111.76 170.568C110.374 170.568 109.51 171.288 109.132 172.044C109.132 171.612 109.078 170.928 109.06 170.748H106.99C107.008 171.162 107.026 171.738 107.026 173.646V180ZM123.996 173.574C123.996 171.342 122.574 170.568 120.468 170.568C117.768 170.568 116.886 171.99 116.778 173.466H118.83C118.938 172.674 119.262 172.116 120.432 172.116C121.674 172.116 121.926 172.8 121.926 173.592V174.348C121.494 174.348 121.098 174.348 120.72 174.348C117.48 174.348 116.418 175.77 116.418 177.354C116.418 178.704 117.174 180.162 119.46 180.162C120.864 180.162 121.746 179.604 122.124 178.794C122.142 179.172 122.196 179.712 122.268 180H124.14C124.05 179.406 123.996 178.362 123.996 177.732V173.574ZM121.98 175.932C121.98 177.48 121.566 178.524 119.982 178.524C118.974 178.524 118.542 177.912 118.542 177.192C118.542 176.508 118.902 175.752 120.756 175.752C121.242 175.752 121.656 175.752 121.98 175.752V175.932ZM128.539 180V166.914H126.433V180H128.539ZM135.736 180H140.254C142.828 180 144.592 178.668 144.592 176.292C144.592 174.492 143.476 173.628 142.576 173.286C143.26 173.016 144.178 172.332 144.178 170.748C144.178 168.984 142.918 167.652 140.362 167.652H135.736V180ZM137.878 172.584V169.326H140.092C141.334 169.326 142.054 169.902 142.054 170.964C142.054 172.08 141.424 172.584 139.966 172.584H137.878ZM137.878 174.276H139.912C141.586 174.276 142.36 175.014 142.36 176.31C142.36 177.714 141.37 178.344 140.092 178.344H137.878V174.276ZM153.854 170.748H151.73V175.914C151.73 177.678 151.01 178.398 149.894 178.398C148.76 178.398 148.418 177.624 148.418 176.58V170.748H146.294V176.94C146.294 179.172 147.446 180.162 149.156 180.162C150.362 180.162 151.226 179.748 151.748 178.776C151.766 179.28 151.784 179.73 151.838 180H153.89C153.872 179.55 153.854 178.596 153.854 177.318V170.748ZM161.355 172.422V180H163.461V172.422H165.045V170.748H163.461V169.866C163.461 169.038 163.713 168.552 164.415 168.552C164.631 168.552 164.883 168.57 165.099 168.624L165.135 166.932C164.919 166.842 164.451 166.788 164.091 166.788C162.129 166.788 161.355 168.102 161.355 169.848V170.748H158.655V169.812C158.655 169.038 158.889 168.57 159.609 168.57C159.843 168.57 160.095 168.588 160.293 168.642L160.329 166.95C160.113 166.878 159.645 166.806 159.267 166.806C157.323 166.806 156.549 168.048 156.549 169.812V170.748H155.235V172.422H156.549V180H158.655V172.422H161.355ZM3.69 203H5.886V192.47H9.342V190.652H0.252V192.47H3.69V203ZM16.6577 198.842C16.6757 198.734 16.6757 198.212 16.6757 198.104C16.6757 195.8 15.7757 193.568 12.7337 193.568C9.69173 193.568 8.55773 196.088 8.55773 198.374C8.55773 201.074 9.70973 203.18 12.6437 203.18C15.1457 203.18 16.1537 201.65 16.5497 200.246H14.4797C14.3357 200.678 13.9397 201.488 12.7157 201.488C11.2577 201.488 10.6997 200.228 10.6997 198.842H16.6577ZM10.7357 197.42C10.7897 196.502 11.1677 195.206 12.6977 195.206C14.0837 195.206 14.5697 196.196 14.6057 197.42H10.7357ZM18.5205 203H20.6265V197.924C20.6265 196.196 21.2205 195.35 22.4985 195.35C23.7225 195.35 24.0465 196.214 24.0465 197.366V203H26.1705V196.97C26.1705 194.72 25.1085 193.568 23.2545 193.568C21.8685 193.568 21.0045 194.288 20.6265 195.044C20.6265 194.612 20.5725 193.928 20.5545 193.748H18.4845C18.5025 194.162 18.5205 194.738 18.5205 196.646V203ZM36.1167 198.842C36.1347 198.734 36.1347 198.212 36.1347 198.104C36.1347 195.8 35.2347 193.568 32.1927 193.568C29.1507 193.568 28.0167 196.088 28.0167 198.374C28.0167 201.074 29.1687 203.18 32.1027 203.18C34.6047 203.18 35.6127 201.65 36.0087 200.246H33.9387C33.7947 200.678 33.3987 201.488 32.1747 201.488C30.7167 201.488 30.1587 200.228 30.1587 198.842H36.1167ZM30.1947 197.42C30.2487 196.502 30.6267 195.206 32.1567 195.206C33.5427 195.206 34.0287 196.196 34.0647 197.42H30.1947ZM37.9794 203H40.0854V198.68C40.0854 196.61 40.9674 195.764 42.9294 195.764V193.604C41.2914 193.604 40.4094 194.558 40.0674 195.458C40.0674 194.756 40.0494 194.162 40.0134 193.748H37.9434C37.9614 194.342 37.9794 195.386 37.9794 196.898V203ZM46.5542 203V189.914H44.4482V203H46.5542ZM48.9833 203H51.0893V193.748H48.9833V203ZM48.9833 192.056H51.0893V189.914H48.9833V192.056ZM57.2985 193.568C54.2385 193.568 52.9245 195.944 52.9245 198.302C52.9245 200.804 54.0585 203.18 57.1725 203.18C60.2505 203.18 61.5105 200.948 61.5105 198.248C61.5105 195.692 60.1605 193.568 57.2985 193.568ZM57.2085 195.26C58.6485 195.26 59.3505 196.358 59.3505 198.266C59.3505 200.3 58.6485 201.488 57.2625 201.488C55.8405 201.488 55.1025 200.282 55.1025 198.248C55.1025 196.448 55.8405 195.26 57.2085 195.26ZM63.3447 203H65.4507V197.924C65.4507 196.196 66.0447 195.35 67.3227 195.35C68.5467 195.35 68.8707 196.214 68.8707 197.366V203H70.9947V196.97C70.9947 194.72 69.9327 193.568 68.0787 193.568C66.6927 193.568 65.8287 194.288 65.4507 195.044C65.4507 194.612 65.3967 193.928 65.3787 193.748H63.3087C63.3267 194.162 63.3447 194.738 63.3447 196.646V203ZM86.4707 195.476L84.2747 198.878C83.1587 200.57 82.5467 201.29 81.2687 201.29C80.0807 201.29 79.4867 200.462 79.4867 199.562C79.4867 198.554 79.9727 197.834 81.8087 196.916C83.7887 195.89 84.8147 194.99 84.8147 193.37C84.8147 191.876 83.8067 190.49 81.7007 190.49C79.5587 190.49 78.4607 191.93 78.4607 193.496C78.4607 194.612 78.9647 195.458 79.9007 196.448L86.5787 203H89.4227L81.6107 195.494C80.7827 194.684 80.4047 194.126 80.4047 193.406C80.4047 192.614 80.8907 192.02 81.6827 192.02C82.6367 192.02 82.9787 192.74 82.9787 193.388C82.9787 194.27 82.3847 194.972 80.5487 195.89C78.0827 197.114 77.3267 198.302 77.3267 199.724C77.3267 201.668 78.7487 203.18 81.0707 203.18C83.3927 203.18 84.2207 201.938 85.6967 199.778L88.6307 195.476H86.4707ZM102.436 199.22C102.148 200.3 101.572 201.434 99.8445 201.434C97.5585 201.434 96.8565 199.22 96.8565 196.79C96.8565 194.432 97.6305 192.254 99.8265 192.254C101.572 192.254 102.112 193.28 102.382 194.45H104.524C104.362 192.47 103.066 190.472 99.8985 190.472C96.3165 190.472 94.6065 193.388 94.6065 196.79C94.6065 200.39 95.9925 203.18 99.8085 203.18C102.886 203.18 104.236 201.272 104.596 199.22H102.436ZM106.288 189.914V203H108.394V197.816C108.394 196.214 108.97 195.35 110.248 195.35C111.454 195.35 111.85 196.106 111.85 197.258V203H113.938V196.916C113.938 194.414 112.588 193.568 111.04 193.568C109.69 193.568 108.844 194.144 108.394 194.936V189.914H106.288ZM123.884 198.842C123.902 198.734 123.902 198.212 123.902 198.104C123.902 195.8 123.002 193.568 119.96 193.568C116.918 193.568 115.784 196.088 115.784 198.374C115.784 201.074 116.936 203.18 119.87 203.18C122.372 203.18 123.38 201.65 123.776 200.246H121.706C121.562 200.678 121.166 201.488 119.942 201.488C118.484 201.488 117.926 200.228 117.926 198.842H123.884ZM117.962 197.42C118.016 196.502 118.394 195.206 119.924 195.206C121.31 195.206 121.796 196.196 121.832 197.42H117.962ZM131.45 189.914V194.504C131.234 194.09 130.604 193.568 129.182 193.568C126.68 193.568 125.222 195.656 125.222 198.392C125.222 201.218 126.446 203.18 128.804 203.18C130.298 203.18 131 202.712 131.468 201.83C131.468 202.208 131.504 202.766 131.54 203H133.61C133.574 202.46 133.574 201.506 133.574 200.48V189.914H131.45ZM129.56 195.332C131.036 195.332 131.54 196.106 131.54 198.284C131.54 200.21 131.198 201.434 129.47 201.434C128.12 201.434 127.4 200.228 127.4 198.32C127.4 196.358 128.246 195.332 129.56 195.332ZM141.646 189.914V194.504C141.43 194.09 140.8 193.568 139.378 193.568C136.876 193.568 135.418 195.656 135.418 198.392C135.418 201.218 136.642 203.18 139 203.18C140.494 203.18 141.196 202.712 141.664 201.83C141.664 202.208 141.7 202.766 141.736 203H143.806C143.77 202.46 143.77 201.506 143.77 200.48V189.914H141.646ZM139.756 195.332C141.232 195.332 141.736 196.106 141.736 198.284C141.736 200.21 141.394 201.434 139.666 201.434C138.316 201.434 137.596 200.228 137.596 198.32C137.596 196.358 138.442 195.332 139.756 195.332ZM153.193 196.574C153.193 194.342 151.771 193.568 149.665 193.568C146.965 193.568 146.083 194.99 145.975 196.466H148.027C148.135 195.674 148.459 195.116 149.629 195.116C150.871 195.116 151.123 195.8 151.123 196.592V197.348C150.691 197.348 150.295 197.348 149.917 197.348C146.677 197.348 145.615 198.77 145.615 200.354C145.615 201.704 146.371 203.162 148.657 203.162C150.061 203.162 150.943 202.604 151.321 201.794C151.339 202.172 151.393 202.712 151.465 203H153.337C153.247 202.406 153.193 201.362 153.193 200.732V196.574ZM151.177 198.932C151.177 200.48 150.763 201.524 149.179 201.524C148.171 201.524 147.739 200.912 147.739 200.192C147.739 199.508 148.099 198.752 149.953 198.752C150.439 198.752 150.853 198.752 151.177 198.752V198.932ZM155.63 203H157.736V198.68C157.736 196.61 158.618 195.764 160.58 195.764V193.604C158.942 193.604 158.06 194.558 157.718 195.458C157.718 194.756 157.7 194.162 157.664 193.748H155.594C155.612 194.342 155.63 195.386 155.63 196.898V203ZM8.622 222.22C8.334 223.3 7.758 224.434 6.03 224.434C3.744 224.434 3.042 222.22 3.042 219.79C3.042 217.432 3.816 215.254 6.012 215.254C7.758 215.254 8.298 216.28 8.568 217.45H10.71C10.548 215.47 9.252 213.472 6.084 213.472C2.502 213.472 0.792 216.388 0.792 219.79C0.792 223.39 2.178 226.18 5.994 226.18C9.072 226.18 10.422 224.272 10.782 222.22H8.622ZM12.4736 212.914V226H14.5796V220.816C14.5796 219.214 15.1556 218.35 16.4336 218.35C17.6396 218.35 18.0356 219.106 18.0356 220.258V226H20.1236V219.916C20.1236 217.414 18.7736 216.568 17.2256 216.568C15.8756 216.568 15.0296 217.144 14.5796 217.936V212.914H12.4736ZM30.0698 221.842C30.0878 221.734 30.0878 221.212 30.0878 221.104C30.0878 218.8 29.1878 216.568 26.1458 216.568C23.1038 216.568 21.9698 219.088 21.9698 221.374C21.9698 224.074 23.1218 226.18 26.0558 226.18C28.5578 226.18 29.5658 224.65 29.9618 223.246H27.8918C27.7478 223.678 27.3518 224.488 26.1278 224.488C24.6698 224.488 24.1118 223.228 24.1118 221.842H30.0698ZM24.1478 220.42C24.2018 219.502 24.5798 218.206 26.1098 218.206C27.4958 218.206 27.9818 219.196 28.0178 220.42H24.1478ZM39.562 221.842C39.58 221.734 39.58 221.212 39.58 221.104C39.58 218.8 38.68 216.568 35.638 216.568C32.596 216.568 31.462 219.088 31.462 221.374C31.462 224.074 32.614 226.18 35.548 226.18C38.05 226.18 39.058 224.65 39.454 223.246H37.384C37.24 223.678 36.844 224.488 35.62 224.488C34.162 224.488 33.604 223.228 33.604 221.842H39.562ZM33.64 220.42C33.694 219.502 34.072 218.206 35.602 218.206C36.988 218.206 37.474 219.196 37.51 220.42H33.64ZM40.7043 223.228C40.8843 225.19 42.3063 226.162 44.4663 226.162C46.5723 226.162 48.0843 225.154 48.0843 223.3C48.0843 221.842 47.3283 220.96 44.8623 220.312C43.4583 219.952 43.0983 219.664 43.0983 219.106C43.0983 218.494 43.5123 218.134 44.2863 218.134C45.3843 218.134 45.7083 218.746 45.7983 219.34H47.8683C47.7603 217.828 46.7703 216.568 44.3943 216.568C41.7843 216.568 41.0103 218.116 41.0103 219.304C41.0103 220.6 41.5863 221.446 43.9803 222.112C45.4563 222.508 45.9963 222.814 45.9963 223.498C45.9963 224.164 45.5283 224.614 44.5203 224.614C43.5483 224.614 42.9003 224.11 42.7743 223.228H40.7043ZM57.4566 221.842C57.4746 221.734 57.4746 221.212 57.4746 221.104C57.4746 218.8 56.5746 216.568 53.5326 216.568C50.4906 216.568 49.3566 219.088 49.3566 221.374C49.3566 224.074 50.5086 226.18 53.4426 226.18C55.9446 226.18 56.9526 224.65 57.3486 223.246H55.2786C55.1346 223.678 54.7386 224.488 53.5146 224.488C52.0566 224.488 51.4986 223.228 51.4986 221.842H57.4566ZM51.5346 220.42C51.5886 219.502 51.9666 218.206 53.4966 218.206C54.8826 218.206 55.3686 219.196 55.4046 220.42H51.5346ZM63.8762 226H66.0542V221.05H68.0702C70.6982 221.05 72.5162 219.772 72.5162 217.252C72.5162 214.84 70.6082 213.652 68.2862 213.652H63.8762V226ZM66.0542 215.398H67.9982C69.3662 215.398 70.3022 215.956 70.3022 217.288C70.3022 218.782 69.3842 219.304 67.9442 219.304H66.0542V215.398ZM80.9467 219.574C80.9467 217.342 79.5247 216.568 77.4187 216.568C74.7187 216.568 73.8367 217.99 73.7287 219.466H75.7807C75.8887 218.674 76.2127 218.116 77.3827 218.116C78.6247 218.116 78.8767 218.8 78.8767 219.592V220.348C78.4447 220.348 78.0487 220.348 77.6707 220.348C74.4307 220.348 73.3687 221.77 73.3687 223.354C73.3687 224.704 74.1247 226.162 76.4107 226.162C77.8147 226.162 78.6967 225.604 79.0747 224.794C79.0927 225.172 79.1467 225.712 79.2187 226H81.0907C81.0007 225.406 80.9467 224.362 80.9467 223.732V219.574ZM78.9307 221.932C78.9307 223.48 78.5167 224.524 76.9327 224.524C75.9247 224.524 75.4927 223.912 75.4927 223.192C75.4927 222.508 75.8527 221.752 77.7067 221.752C78.1927 221.752 78.6067 221.752 78.9307 221.752V221.932ZM82.1263 218.422H83.4763V223.804C83.4763 225.46 84.1063 226.108 85.7443 226.108C86.0683 226.108 86.6983 226.09 87.1303 225.946V224.452C86.8963 224.488 86.7523 224.488 86.5183 224.488C85.7623 224.488 85.6003 224.2 85.6003 223.534V218.422H87.3103V216.748H85.6003V214.192H83.4763V216.748H82.1263V218.422ZM87.7161 218.422H89.0661V223.804C89.0661 225.46 89.6961 226.108 91.3341 226.108C91.6581 226.108 92.2881 226.09 92.7201 225.946V224.452C92.4861 224.488 92.3421 224.488 92.1081 224.488C91.3521 224.488 91.1901 224.2 91.1901 223.534V218.422H92.9001V216.748H91.1901V214.192H89.0661V216.748H87.7161V218.422ZM93.835 216.748L97.093 226.396C96.805 227.35 96.409 227.98 95.527 227.98C95.311 227.98 94.933 227.962 94.699 227.926V229.672C94.969 229.726 95.401 229.744 95.581 229.744C97.165 229.744 98.191 229.33 99.145 226.414L102.331 216.748H100.189C99.253 219.952 98.425 223.03 98.155 224.146H98.137C97.975 223.066 97.291 220.87 96.103 216.748H93.835Z" fill="black"/>
</svg>
