<svg width="28" height="29" viewBox="0 0 28 29" fill="none" xmlns="http://www.w3.org/2000/svg">
<path d="M14 27.0533C12.2733 27.0533 10.535 26.3999 9.18163 25.1049C5.73996 21.7916 1.93663 16.5066 3.37163 10.2183C4.66663 4.51325 9.6483 1.95825 14 1.95825C14 1.95825 14 1.95825 14.0116 1.95825C18.3633 1.95825 23.345 4.51325 24.64 10.2299C26.0633 16.5183 22.26 21.7916 18.8183 25.1049C17.465 26.3999 15.7266 27.0533 14 27.0533ZM14 3.70825C10.605 3.70825 6.24163 5.51659 5.08663 10.6033C3.82663 16.0983 7.27996 20.8349 10.4066 23.8333C12.425 25.7816 15.5866 25.7816 17.605 23.8333C20.72 20.8349 24.1733 16.0983 22.9366 10.6033C21.77 5.51659 17.395 3.70825 14 3.70825Z" fill="#1D1D1D"/>
<path d="M12.5416 16.5417C12.32 16.5417 12.0983 16.46 11.9233 16.285L10.1733 14.535C9.83497 14.1967 9.83497 13.6367 10.1733 13.2983C10.5116 12.96 11.0716 12.96 11.41 13.2983L12.5416 14.43L16.59 10.3817C16.9283 10.0433 17.4883 10.0433 17.8266 10.3817C18.165 10.72 18.165 11.28 17.8266 11.6183L13.16 16.285C12.985 16.46 12.7633 16.5417 12.5416 16.5417Z" fill="#1D1D1D"/>
</svg>
