<svg width="20" height="26" viewBox="0 0 20 26" fill="none" xmlns="http://www.w3.org/2000/svg">
<path fill-rule="evenodd" clip-rule="evenodd" d="M10.398 24.5136H9.44225C4.98208 24.5136 1.31836 20.7838 1.31836 16.2433C1.31836 11.7028 4.98208 7.97302 9.44225 7.97302H10.398C14.8582 7.97302 18.5219 11.7028 18.5219 16.2433C18.5219 20.946 14.8582 24.5136 10.398 24.5136Z" stroke="#1D1D1B" stroke-miterlimit="10" stroke-linecap="round" stroke-linejoin="round"/>
<path d="M4.02734 10.2433V7.4865C4.02734 4.0811 6.73531 1.32434 10.0804 1.32434C13.4256 1.32434 15.9742 4.0811 15.9742 7.4865V10.2433" stroke="#1D1D1B" stroke-miterlimit="10" stroke-linecap="round" stroke-linejoin="round"/>
<path d="M9.91996 15.1081C10.7117 15.1081 11.3536 14.4547 11.3536 13.6487C11.3536 12.8426 10.7117 12.1892 9.91996 12.1892C9.12819 12.1892 8.48633 12.8426 8.48633 13.6487C8.48633 14.4547 9.12819 15.1081 9.91996 15.1081Z" stroke="#1D1D1B" stroke-miterlimit="10" stroke-linecap="round" stroke-linejoin="round"/>
<path d="M9.91992 19.1621V15.108" stroke="#1D1D1B" stroke-miterlimit="10" stroke-linecap="round" stroke-linejoin="round"/>
</svg>
