<svg width="224" height="109" viewBox="0 0 224 109" fill="none" xmlns="http://www.w3.org/2000/svg">
<path d="M223.92 101.905L212.713 109L201.506 101.905L190.309 109L179.102 101.905L167.905 109L156.718 101.905L145.521 109L134.324 101.905L123.127 109L111.93 101.905L100.733 109L89.5361 101.905L78.3491 109L67.1521 101.905L55.9551 109L44.7681 101.905L33.5711 109L22.3841 101.905L11.1871 109L7.62939e-05 101.905L0 0H224L223.92 101.905Z" fill="white"/>
<g clip-path="url(#clip0_602_1888)">
<path fill-rule="evenodd" clip-rule="evenodd" d="M123.21 51.3766L123.26 51.2278V50.831L123.853 50.5334L123.803 50.335C123.754 50.1366 123.606 50.1366 123.457 50.0374C123.507 50.335 123.358 50.3846 123.26 50.6326C123.161 50.8806 123.26 51.079 123.21 51.3766Z" fill="#FDB001"/>
<path fill-rule="evenodd" clip-rule="evenodd" d="M139.576 50.8806C139.823 50.7814 139.922 50.6822 140.169 50.583V50.3846C140.07 50.1366 139.922 50.087 139.625 49.9878C139.724 50.0374 139.576 50.0374 139.823 50.1366C139.774 50.4838 139.625 50.4838 139.576 50.8806Z" fill="#FDB001"/>
<path fill-rule="evenodd" clip-rule="evenodd" d="M113.816 53.2119C114.014 53.1623 114.261 53.0135 114.459 52.9143V52.7159C114.36 52.5175 114.261 52.4183 113.964 52.3687L114.112 52.5671L113.816 53.2119Z" fill="#FDB001"/>
<path fill-rule="evenodd" clip-rule="evenodd" d="M172.357 62.3386C172.555 62.2393 172.753 62.0905 172.951 62.0409V61.8921C172.901 61.6937 172.753 61.5945 172.555 61.5449C172.604 61.5945 172.604 61.6441 172.654 61.6937L172.357 62.3386Z" fill="#FDB001"/>
<path fill-rule="evenodd" clip-rule="evenodd" d="M63.9271 61.3961C64.1249 61.2969 64.2732 61.1481 64.5204 61.0489L64.471 60.9001C64.4216 60.7017 64.3227 60.7017 64.1743 60.6521C64.2732 60.9993 63.9766 61.0489 63.9271 61.3961Z" fill="#FDB001"/>
<path fill-rule="evenodd" clip-rule="evenodd" d="M26.2509 61.6442C26.3004 61.6938 26.2509 61.7434 26.4487 61.793C26.5476 61.8426 26.6959 61.8426 26.7948 61.8426V61.1482C26.597 61.297 26.5476 61.4458 26.4487 61.6938L26.2509 61.6442Z" fill="#FDB001"/>
<path fill-rule="evenodd" clip-rule="evenodd" d="M108.871 52.0711C108.921 52.1703 108.871 52.1703 109.119 52.2199C109.267 52.2695 109.316 52.2695 109.465 52.2695C111.195 52.3191 113.47 52.1703 115.052 52.2695L115.151 71.1678V52.3191C115.349 51.9719 115.695 51.8231 115.843 51.4759C115.052 51.4263 109.811 51.3767 109.415 51.5255C109.218 51.7239 109.168 51.8727 109.069 52.1207L108.871 52.0711Z" fill="#FDB001"/>
<path fill-rule="evenodd" clip-rule="evenodd" d="M162.963 51.5747L163.062 51.7236H163.606C163.606 52.2692 163.556 52.0212 165.138 51.8724C166.325 51.7732 168.006 51.922 169.193 52.17C169.786 52.2692 170.33 52.666 170.874 52.6164L170.923 51.8228C170.726 51.8228 169.539 51.4259 169.094 51.3763C168.501 51.2771 167.71 51.1779 167.067 51.1283C165.682 51.0787 164.693 51.1283 163.408 51.4259C163.161 51.4259 163.111 51.4259 162.963 51.5747Z" fill="#FDB001"/>
<path fill-rule="evenodd" clip-rule="evenodd" d="M190.849 68.1416C191.245 68.1912 191.541 68.3896 191.739 68.0424L191.888 68.092C191.838 67.9928 191.888 68.0424 191.789 67.9432C191.739 67.8936 191.69 67.844 191.64 67.7944L190.948 67.1495C190.651 66.8023 190.404 66.5543 190.157 66.1575C189.761 65.6119 189.168 64.4215 189.02 63.7766C188.822 63.727 188.822 63.7766 188.674 63.8262L188.229 63.231C188.229 63.1318 188.13 62.6854 188.13 62.5862C188.08 62.3878 188.08 62.5862 188.031 62.2886C187.982 61.8918 187.982 62.0902 187.883 61.991C187.982 64.1734 188.921 66.0087 190.256 67.596C190.355 67.6952 190.404 67.7944 190.503 67.8936C190.701 68.0424 190.701 68.092 190.849 68.1416Z" fill="#FDB001"/>
<path fill-rule="evenodd" clip-rule="evenodd" d="M36.8319 71.7629C37.0791 72.011 37.6725 71.9118 38.0186 71.9118V71.1677L37.3263 71.2173C37.0791 71.4157 37.0297 71.7629 36.8319 71.7629Z" fill="#FDB001"/>
<path fill-rule="evenodd" clip-rule="evenodd" d="M138.389 71.7134C138.488 71.8126 138.34 71.763 138.538 71.8622C138.587 71.9118 138.686 71.8622 138.736 71.8622L139.477 71.8126V71.0686L138.834 71.1182L138.538 71.7134H138.389Z" fill="#FDB001"/>
<path fill-rule="evenodd" clip-rule="evenodd" d="M115.497 71.7134C115.596 71.8622 115.398 71.763 115.645 71.8622C115.695 71.9118 115.794 71.8622 115.843 71.8622L116.535 71.8126L116.585 71.0686L115.942 71.1182L115.645 71.7134H115.497Z" fill="#FDB001"/>
<path fill-rule="evenodd" clip-rule="evenodd" d="M54.3845 71.7129C54.4833 71.8617 54.2856 71.7625 54.5328 71.8617C54.5822 71.9113 54.6811 71.8617 54.78 71.8617H65.7565L65.806 71.1177H54.9283C54.8295 71.3161 54.7306 71.5145 54.6317 71.7129H54.3845Z" fill="#FDB001"/>
<path fill-rule="evenodd" clip-rule="evenodd" d="M57.1039 60.2054C57.1533 60.255 57.0544 60.3542 57.45 60.4038H64.8171V62.8839C64.9654 62.7847 64.916 62.7351 64.916 62.2886V60.4038C65.1138 60.0566 65.4599 59.9078 65.6082 59.5605H57.5983C57.4994 59.759 57.3017 60.0566 57.2522 60.2054H57.1039Z" fill="#FDB001"/>
<path fill-rule="evenodd" clip-rule="evenodd" d="M84.6934 65.8604L84.7923 66.0092H92.2089V65.2156L85.1879 65.3148C85.089 65.414 85.0395 65.5628 84.9901 65.662C84.8912 65.8108 84.9406 65.91 84.6934 65.8604Z" fill="#FDB001"/>
<path fill-rule="evenodd" clip-rule="evenodd" d="M79.5018 71.7625C79.749 72.1097 80.639 71.9113 80.9851 71.8121C80.9357 71.5641 80.7874 71.4153 80.7379 71.1177L79.9963 71.2169C79.8479 71.4153 79.749 71.8121 79.5018 71.7625Z" fill="#FDB001"/>
<path fill-rule="evenodd" clip-rule="evenodd" d="M96.2139 71.7625C96.4611 72.1097 97.3511 71.9113 97.6972 71.8121C97.6972 71.5145 97.5488 71.7129 97.4005 71.1177L96.6589 71.2169L96.3622 71.8121L96.2139 71.7625Z" fill="#FDB001"/>
<path fill-rule="evenodd" clip-rule="evenodd" d="M26.0532 65.5626C26.152 65.6618 26.0532 65.6122 26.152 65.6618C26.3004 65.761 26.7454 65.8106 26.9926 65.7114L27.2893 65.6122C27.1904 65.3642 27.042 65.3146 27.0915 64.8682L26.9926 64.9178L26.597 65.017C26.5476 65.1162 26.4982 65.1658 26.4487 65.265C26.3498 65.4138 26.3498 65.4138 26.3004 65.5626H26.0532Z" fill="#FDB001"/>
<path fill-rule="evenodd" clip-rule="evenodd" d="M89.0445 55.2948L89.1929 55.4436C89.094 55.5429 89.094 55.5925 88.9456 55.6917C88.7973 55.8405 88.7973 55.8405 88.7479 56.0885C88.7973 56.4357 89.0445 56.8821 89.1929 57.2293L90.5278 60.6518C90.8245 61.3959 91.0717 62.1399 91.4178 62.9335C91.6156 63.4295 92.2089 64.8184 92.2584 65.2648C92.6539 65.116 92.555 65.1656 93 65.1656C92.9506 64.5208 91.9123 62.1895 91.665 61.4455C91.5167 61.0486 91.665 61.247 91.7145 61.1974L90.4784 58.0725C90.2806 57.5765 90.0828 57.0805 89.8356 56.5349C89.7367 56.2869 89.6379 55.9893 89.539 55.7909C89.4401 55.5925 89.2917 55.2452 89.1434 55.0964L89.1929 55.1956C89.2423 55.394 89.1929 55.1956 89.0445 55.2948Z" fill="#F3AD39"/>
<path fill-rule="evenodd" clip-rule="evenodd" d="M93.8405 69.3324L95.1261 72.7053C95.2249 72.7549 95.2249 72.7053 95.2249 72.7549L95.7688 72.0109C95.571 71.8125 94.8788 69.8284 94.6811 69.382C94.6316 69.2332 94.5822 69.0844 94.4833 68.9356C94.2361 68.5388 94.335 68.638 94.1372 68.5884C94.1372 68.886 94.0877 68.7868 93.9888 68.9852C93.9394 69.1836 93.9394 69.1836 93.8405 69.3324Z" fill="#F3AD39"/>
<path fill-rule="evenodd" clip-rule="evenodd" d="M66.4487 49.9377V52.3186H57.9444C57.6971 52.3186 57.5488 52.269 57.4005 52.4674C58.6366 52.2194 64.8665 52.5666 66.4487 52.4178C66.597 52.021 66.4487 50.4833 66.4981 49.9377C66.6959 49.5905 67.042 49.4913 67.1903 49.0945H52.7528C52.7528 49.3921 52.7033 48.9953 53.2472 49.5409C53.3955 49.6897 53.445 49.7889 53.6922 49.8881H66.0037C66.3992 49.8385 66.3498 49.8385 66.4487 49.9377Z" fill="#FDB001"/>
<path fill-rule="evenodd" clip-rule="evenodd" d="M82.0729 67.7448C82.3696 67.6952 82.5179 68.1912 82.7157 68.3896C82.864 68.4392 92.6045 68.4392 94.0383 68.3896C94.3844 68.3896 94.4339 68.34 94.6811 68.4888C94.6317 68.1416 95.0272 67.9432 95.0766 67.5959H82.1718C82.0235 67.6455 82.1718 67.4967 82.0729 67.7448Z" fill="#FDB001"/>
<path fill-rule="evenodd" clip-rule="evenodd" d="M57.0544 69.3324C57.3016 69.6301 57.6477 69.5805 58.1421 69.5805H66.7454V72.0109V72.0605C66.8937 71.9613 66.8443 72.0605 66.8443 71.7629V70.8205C66.8443 69.3324 66.6959 69.7789 67.5365 68.8364H57.6477C57.4499 69.2332 57.6477 68.9852 57.3016 69.382L57.0544 69.3324Z" fill="#FDB001"/>
<path fill-rule="evenodd" clip-rule="evenodd" d="M164.941 64.4715L164.842 60.6521C165.04 60.8009 165.435 61.049 165.583 61.2474C165.633 61.3466 165.583 61.297 165.633 61.3962H173.593C173.643 61.3466 173.643 61.3962 173.692 61.297L173.989 60.9994C174.137 60.8505 174.236 60.7513 174.335 60.6025H164.792C164.792 61.1978 164.693 64.3723 164.891 64.6699L164.941 64.4715Z" fill="#FDB001"/>
<path fill-rule="evenodd" clip-rule="evenodd" d="M116.585 71.1181C116.684 71.0685 116.733 71.267 116.733 70.6221V61.3962C116.733 58.1225 116.832 54.7992 116.733 51.5255L117.623 52.2199H123.161V51.4263C122.666 51.5751 120.59 51.4759 119.897 51.4759C118.909 51.4759 117.574 51.3767 116.634 51.4759L116.585 71.1181Z" fill="#FDB001"/>
<path fill-rule="evenodd" clip-rule="evenodd" d="M166.177 63.4798C166.226 63.579 166.177 63.579 166.325 63.6782C166.424 63.7278 166.473 63.7278 166.622 63.7278C167.265 63.6782 170.38 63.6286 170.825 63.7774C171.022 63.579 171.319 63.2318 171.517 63.0333C171.171 62.9341 167.166 62.9837 166.721 63.0333C166.721 63.1326 166.671 63.2318 166.572 63.331C166.523 63.3806 166.523 63.4302 166.473 63.4798C166.424 63.5294 166.424 63.5294 166.375 63.579L166.177 63.4798Z" fill="#FDB001"/>
<path fill-rule="evenodd" clip-rule="evenodd" d="M90.1323 50.0865C90.0829 49.6897 90.4784 49.4913 90.5773 49.0945H86.869C86.6713 49.1441 86.7702 49.0945 86.6713 49.2433C86.8196 49.2433 86.869 49.3425 87.0174 49.4913C87.1657 49.6897 87.1657 49.7393 87.314 49.8881H90.0334L90.1323 50.0865Z" fill="#FDB001"/>
<path fill-rule="evenodd" clip-rule="evenodd" d="M37.623 50.3351C37.4747 49.4918 37.9691 49.6902 38.2163 49.0454H34.9036C34.5575 49.095 34.8047 49.0454 34.6564 49.1446C34.9036 49.343 34.953 49.4918 35.1508 49.839C35.5958 49.9382 36.9308 49.8886 37.4747 49.8886L37.623 50.3351Z" fill="#FDB001"/>
<path fill-rule="evenodd" clip-rule="evenodd" d="M18.4883 49.9873C18.4883 49.6401 18.7355 49.4913 18.785 49.0945H15.3239C15.3239 49.2433 15.2744 49.2433 15.4228 49.2433C15.5711 49.4417 15.8678 49.6897 16.115 49.8881C16.7083 49.9377 18.0433 49.6897 18.4883 49.9873Z" fill="#FDB001"/>
<path fill-rule="evenodd" clip-rule="evenodd" d="M199.205 68.9846C199.156 69.0342 199.156 69.0342 199.007 69.0838C198.711 69.183 196.634 69.183 196.288 69.183V69.6294C195.942 69.5798 195.744 69.4806 195.447 69.5302C195.546 69.6294 195.349 69.5798 195.645 69.6294C195.744 69.679 195.794 69.6294 195.892 69.679C197.129 69.8775 197.672 69.8279 198.958 69.7783V69.2326C199.452 69.2326 199.601 69.0342 200.046 68.9846L200.145 68.8854L200.293 68.687L199.205 68.9846Z" fill="#FDB001"/>
<path fill-rule="evenodd" clip-rule="evenodd" d="M188.476 68.291C189.119 69.283 191.195 70.8206 192.481 71.3167C192.53 71.3663 192.58 71.3663 192.679 71.4159C192.777 71.4655 192.728 71.4655 192.778 71.5151C193.025 71.5151 193.42 71.7135 193.667 71.8127C195.398 72.4079 197.178 72.5567 199.007 72.4079C199.65 72.3583 200.59 72.1103 201.134 72.1103C201.035 71.9119 201.183 71.8623 200.738 72.0111L199.749 72.2095C198.562 72.1103 197.771 72.7551 194.557 71.9119C193.766 71.7135 193.124 71.4655 192.481 71.1183C192.036 70.8702 191.294 70.4734 190.899 70.1262L190.701 69.9278C190.108 69.6302 189.02 68.3406 188.624 67.7949C188.08 67.0509 187.536 66.0589 187.141 64.9676C186.004 61.5947 186.35 57.577 188.328 54.5513C188.674 54.0057 189.316 53.1624 189.761 52.7656C190.256 52.2696 190.948 51.724 191.541 51.3272C192.728 50.5831 194.953 49.6903 196.288 49.6407C196.14 49.4919 196.436 49.5911 196.09 49.5415L195.398 49.6407C193.42 49.9879 191.838 50.7319 190.256 51.8728C190.108 51.972 190.108 52.0216 189.959 52.1208L188.921 53.1128C188.476 53.6584 188.08 54.0057 187.685 54.7993C187.586 55.0473 187.438 55.1961 187.339 55.4441C186.201 57.577 185.756 59.8587 186.152 62.8348C186.399 64.7196 186.993 65.7117 187.784 67.1501C187.883 67.4973 188.328 67.8941 188.476 68.291Z" fill="#FDB001"/>
<path fill-rule="evenodd" clip-rule="evenodd" d="M198.76 49.5907C199.65 49.6403 201.628 50.0867 202.221 50.3843C203.655 50.6819 205.831 52.4676 206.82 53.7572C206.968 53.9556 207.166 54.2533 207.265 54.4021C207.265 54.4021 207.314 54.4021 207.314 54.4517C207.363 54.5509 207.314 54.4021 207.512 54.6501C207.611 54.7493 207.611 54.7989 207.66 54.9477C208.352 56.1381 208.946 57.8246 209.094 59.2134C209.391 61.9911 208.946 64.868 207.413 67.1993C206.671 68.2905 206.078 68.985 205.138 69.8282C204.644 70.225 203.754 70.8202 203.161 71.1178C202.963 71.217 202.815 71.3162 202.617 71.3659C201.925 71.6635 202.122 71.5147 202.024 71.7627L202.32 71.6635C203.26 71.6635 205.336 70.0266 206.127 69.4314C206.473 69.1338 206.869 68.6874 207.166 68.3897C208.352 67.0505 209.391 64.9672 209.638 62.636C210.33 57.1798 207.759 53.5092 204.743 51.4756C204.298 51.3268 203.457 50.5331 201.331 49.9379C199.156 49.2931 198.711 49.6403 197.03 49.4419C197.079 49.5411 197.03 49.4915 197.178 49.5411C197.277 49.5411 197.326 49.5411 197.425 49.5411C197.722 49.4915 198.464 49.3427 198.76 49.5907Z" fill="#FDB001"/>
<path fill-rule="evenodd" clip-rule="evenodd" d="M158.019 65.4637C158.365 66.1085 159.007 67.0014 159.551 67.4478C159.848 67.6958 159.996 67.795 160.145 68.043C160.293 68.0926 160.837 68.4894 160.985 68.5886C161.282 68.787 161.579 68.9358 161.875 69.0846C162.37 69.3326 163.309 69.7295 163.952 69.7791L164.001 69.6303C163.952 69.6303 163.803 69.6303 163.754 69.5807C163.457 69.4815 163.655 69.5807 163.556 69.4318C162.815 69.4318 161.232 68.4398 160.54 67.8942C160.342 67.7454 160.342 67.7454 160.194 67.547C159.897 67.4478 159.057 66.3069 158.81 65.9597C158.365 65.3149 158.068 64.7197 157.821 63.8765C156.832 60.6027 157.475 57.0314 159.7 54.5513C160.342 53.8073 162.122 52.5177 163.457 52.3193C163.408 52.0712 163.507 52.2201 163.358 52.1208C161.331 52.8153 160.244 53.3113 158.859 54.8985C158.365 55.4938 157.92 56.1882 157.623 56.8826C156.733 58.8667 156.535 62.4876 157.524 64.5213C157.722 64.8189 157.969 65.2157 158.019 65.4637Z" fill="#FDB001"/>
<path fill-rule="evenodd" clip-rule="evenodd" d="M199.106 52.1202C199.551 52.1202 200.59 52.4179 200.985 52.6163C201.529 52.8147 201.974 53.0627 202.518 53.4099C203.161 53.7075 204.001 54.6003 204.397 55.0963C204.743 55.5428 205.534 56.7828 205.633 57.3284C205.831 57.5268 205.88 57.8244 205.979 58.2213C206.869 61.6934 206.028 65.2151 203.507 67.596C202.864 68.1912 202.567 68.3896 201.826 68.836C201.727 68.8856 201.579 68.9848 201.48 69.0344C200.787 69.3816 200.886 69.1336 200.689 69.5304L200.936 69.4808C201.529 69.3816 202.716 68.6376 203.161 68.34C206.918 65.6119 207.808 60.3541 205.583 56.2868C204.891 55.0467 203.556 53.6579 202.221 53.0131C202.024 52.9635 201.134 52.5171 200.491 52.3186C199.897 52.1202 199.255 51.9714 198.562 51.9714C198.859 52.0706 199.106 51.9714 199.106 52.1202Z" fill="#FDB001"/>
<path fill-rule="evenodd" clip-rule="evenodd" d="M189.119 63.7768C189.267 64.4217 189.91 65.6121 190.256 66.1577C190.503 66.5545 190.75 66.8025 191.047 67.1498L191.739 67.7946C191.789 67.8442 191.838 67.8442 191.887 67.9434C191.937 68.0426 191.887 67.993 191.986 68.0922C192.234 68.241 192.53 68.489 192.777 68.6378C193.074 68.8362 193.321 68.9354 193.618 69.0842C194.014 69.2826 195.151 69.7786 195.645 69.7786C195.942 69.7786 195.843 69.8779 195.942 69.729C195.843 69.729 195.793 69.729 195.695 69.6794C195.398 69.5802 195.546 69.6298 195.497 69.5802C194.557 69.5306 193.272 68.6874 192.481 68.1418C192.283 67.993 192.234 67.9434 192.135 67.7946C191.393 67.4474 190.206 65.4137 189.811 64.3721C188.723 61.2968 189.168 57.9734 191.096 55.3445C192.431 53.5589 193.964 53.0629 194.261 52.8149C194.36 52.5669 194.36 52.7653 194.261 52.6165H194.211H194.162H194.112L193.816 52.7157C193.717 52.7653 193.569 52.8149 193.47 52.8645C192.728 53.2117 191.541 54.0549 190.997 54.6997C190.701 55.0469 190.305 55.543 190.058 55.9398C189.91 56.1878 189.811 56.4358 189.712 56.5846C189.316 57.2294 188.772 58.7671 188.772 59.8583C188.772 60.1559 188.674 60.5031 188.674 60.8999C188.674 61.892 188.97 62.884 189.119 63.7768Z" fill="#FDB001"/>
<path fill-rule="evenodd" clip-rule="evenodd" d="M17.7466 50.8806C17.8455 51.1782 19.6255 53.7079 19.9222 54.1543C20.3177 54.6999 26.4487 63.8762 26.6465 63.9754C26.8937 64.1242 26.696 64.025 26.7949 63.9754L26.8443 62.6858C26.5971 62.6858 26.3993 62.2394 26.2015 61.9914C26.0038 61.7434 25.8554 61.4953 25.6576 61.1977L20.2683 53.2119C20.0211 52.9143 19.8727 52.7158 19.7244 52.4182C19.3783 51.8726 18.34 50.2358 17.9939 50.0374L18.0433 50.335C17.9939 50.3846 18.0433 50.335 17.9444 50.4342C17.9444 50.4342 17.9444 50.4838 17.895 50.4838L17.8455 50.583C17.7961 50.6326 17.7466 50.6822 17.7466 50.8806Z" fill="#FDB001"/>
<path fill-rule="evenodd" clip-rule="evenodd" d="M160.244 49.9377C160.59 49.9377 160.787 49.8385 160.936 49.7889L161.529 49.5905C161.974 49.4417 162.419 49.3921 163.012 49.4417V49.7393C163.655 49.6897 164.1 49.5409 164.743 49.4913C164.891 49.6401 164.792 49.4417 164.792 49.6897H167.215L165.386 49.6401C165.633 49.3921 165.633 49.4417 166.325 49.4417C167.907 49.4417 170.824 49.8385 172.209 50.6321V50.8306C172.357 50.5825 172.308 50.5825 172.604 50.4833C172.802 50.3841 173 50.3345 173.148 50.2353C172.802 49.9377 171.022 49.3425 170.33 49.1441C168.105 48.5985 165.386 48.4993 163.161 48.9457C162.567 49.0449 160.54 49.5905 160.244 49.9377Z" fill="#FDB001"/>
<path fill-rule="evenodd" clip-rule="evenodd" d="M19.4771 57.6758L25.5092 66.6041C25.707 66.6041 25.6576 66.5545 25.8059 66.3065C25.9048 66.1081 25.9542 66.0585 26.0037 65.8601L25.9542 65.7609C25.8059 65.7113 25.6081 65.3641 25.5092 65.2152L22.8393 61.2471C22.691 60.9991 22.5921 60.8503 22.4437 60.6519L20.1693 57.2294C19.9221 56.8822 20.1199 56.9814 19.6749 56.783L19.8232 56.9318C19.7243 57.279 19.5266 57.3782 19.4771 57.6758Z" fill="#FDB001"/>
<path fill-rule="evenodd" clip-rule="evenodd" d="M199.749 72.2093V71.7132C199.947 71.5644 199.996 71.5644 200.194 71.5644L200.54 71.3164C200.689 71.3164 200.639 71.366 200.639 71.1676C199.106 71.366 198.167 71.614 196.486 71.4156C195.843 71.366 195.25 71.2172 194.607 71.0188C194.162 70.87 193.272 70.4732 192.975 70.4236L192.481 70.3244L192.234 70.8204C192.085 70.7212 191.986 70.6716 191.789 70.5724C191.591 70.4732 191.541 70.4236 191.393 70.3244C191.146 70.1756 190.849 69.9276 190.602 69.8284L190.8 70.0268C191.195 70.3244 191.937 70.7708 192.382 71.0188C193.074 71.366 193.668 71.614 194.459 71.8124C197.722 72.7549 198.513 72.1597 199.749 72.2093Z" fill="#FDB001"/>
<path fill-rule="evenodd" clip-rule="evenodd" d="M193.074 52.2695C193.272 52.2695 193.47 52.1703 193.667 52.1207L194.211 51.9223C194.31 51.8727 194.36 51.8727 194.459 51.8727C194.706 51.8231 194.755 51.6743 195.398 51.6743V52.0711C195.892 52.0215 196.387 51.9223 196.881 51.8727H198.414C198.661 51.9223 198.513 51.9223 198.661 52.0711C198.414 52.0711 197.129 52.0215 197.03 52.1207C197.821 52.1207 198.315 52.1207 199.106 52.1703C199.106 52.0215 198.859 52.0711 198.661 52.0215C199.354 52.0215 199.996 52.1703 200.59 52.3687C201.183 52.5671 202.073 53.0135 202.32 53.0631C202.122 52.7655 202.122 52.9143 201.776 52.6663L201.826 52.3687C201.776 52.3191 201.776 52.3687 201.776 52.2695L201.875 52.0711C201.628 52.0215 201.875 52.1207 201.776 51.9223C201.529 51.7239 200.243 51.4263 199.798 51.3271C198.958 51.1783 198.167 51.1287 197.277 51.1783C195.991 51.2279 194.656 51.5751 193.519 52.0711C193.42 52.1207 193.371 52.1207 193.321 52.1703L193.074 52.2695Z" fill="#FDB001"/>
<path fill-rule="evenodd" clip-rule="evenodd" d="M153.667 64.0745C153.816 65.1161 154.508 66.6042 154.953 67.3482C155.447 68.1914 155.794 68.6379 156.436 69.2827C156.535 69.3819 156.585 69.4811 156.733 69.5803L156.98 69.7787L157.376 69.9275C157.376 69.9275 157.376 69.9275 157.425 69.9771L157.623 70.1755C157.771 70.0763 157.92 69.9771 158.068 69.8779L158.266 69.9275C158.167 69.7291 157.425 69.1339 157.129 68.7867C156.733 68.3899 156.436 68.0426 156.09 67.5466C155.843 67.1498 154.607 65.0665 154.656 64.5705C154.459 64.4713 154.607 64.5705 154.459 64.3721C154.409 64.3225 154.459 64.3225 154.409 64.2233C154.261 64.2729 154.261 64.2729 154.112 64.2729L154.063 64.0249C153.915 64.0745 154.014 63.9753 153.964 64.1241C153.766 64.0745 153.766 64.1241 153.667 64.0745Z" fill="#FDB001"/>
<path fill-rule="evenodd" clip-rule="evenodd" d="M202.617 54.4518C203.21 55.1958 204.1 55.4438 205.04 57.8743C205.287 58.4695 205.386 59.2136 205.534 59.412C205.583 58.9159 205.534 58.3703 205.534 57.8247C205.633 57.7751 205.682 57.7751 205.781 57.7255L205.682 57.3287C205.583 56.7831 204.792 55.543 204.446 55.0966C204.051 54.6006 203.21 53.7078 202.567 53.4102C202.666 53.6086 202.567 53.4598 202.666 53.559L202.963 53.807C202.913 53.9558 202.963 53.8566 202.864 53.9558C202.716 54.1542 202.666 54.1046 202.617 54.4518Z" fill="#FDB001"/>
<path fill-rule="evenodd" clip-rule="evenodd" d="M63.927 61.3959C63.9765 61.6935 63.927 61.8423 63.8776 61.9911L63.7787 62.0407C63.5809 62.0903 63.8776 62.0407 63.6798 62.0407H55.571C55.571 62.9832 55.4722 70.1754 55.6205 70.473C55.6699 70.3738 55.6205 70.473 55.7194 70.3738L56.4116 69.6794C56.2633 69.5306 56.3127 69.6298 56.3127 69.3322V62.8344C57.0049 62.9336 60.5649 62.884 61.5537 62.884C62.2954 62.884 63.4821 63.0328 64.1248 62.7352C64.7676 62.4872 64.817 61.4455 64.6687 61.0983C64.6193 60.8999 64.5698 60.9495 64.5204 60.8999L64.5698 61.0487C64.2732 61.1479 64.1248 61.2967 63.927 61.3959Z" fill="#F3B03F"/>
<path fill-rule="evenodd" clip-rule="evenodd" d="M169.588 64.769V68.7868C169.045 68.9852 168.6 69.0348 168.006 69.0844C167.462 69.134 166.671 69.0844 166.177 69.1836C165.831 69.2828 165.534 69.1836 165.188 69.1836C164.693 69.134 164.743 69.2332 164.743 69.6796C164.298 69.6796 164.001 69.5804 163.556 69.4812C163.655 69.63 163.457 69.5308 163.754 69.63C163.803 69.63 163.952 69.6796 164.001 69.6796L163.952 69.8284L164.595 69.9772C166.127 70.1756 167.759 70.1756 169.292 69.878C169.341 69.878 169.391 69.878 169.44 69.8284C169.588 69.7788 169.49 69.7788 169.588 69.7292L169.143 69.8284C169.292 69.5804 169.193 69.6796 169.539 69.5804C169.885 69.4812 170.182 69.3324 170.231 68.886C170.33 68.4891 170.231 65.761 170.281 65.1162C170.281 64.4714 170.33 63.9754 169.638 63.9258L169.885 64.025C169.885 64.273 169.737 64.521 169.588 64.769Z" fill="#F3B03F"/>
<path fill-rule="evenodd" clip-rule="evenodd" d="M160.243 49.9379C159.848 49.9875 158.859 50.6323 158.513 50.8307C155.695 52.7156 153.915 55.6421 153.42 59.1638C153.222 60.4535 153.272 63.0328 153.667 64.0744C153.766 64.0744 153.766 64.0744 153.915 64.124C153.964 63.9752 153.915 64.0744 154.014 64.0248L154.063 64.2728C154.211 64.2728 154.261 64.2232 154.36 64.2232C154.409 64.3224 154.409 64.3224 154.409 64.372C154.508 64.5704 154.36 64.4216 154.607 64.5704C153.618 61.4455 153.964 57.8246 155.497 55.0965C155.892 54.4021 156.782 53.2116 157.326 52.7156C158.859 51.3268 159.007 51.3764 160.787 50.4835C160.837 50.4835 160.886 50.4339 160.985 50.3843C161.084 50.3347 161.133 50.3347 161.282 50.2851C161.381 50.2355 161.677 50.1363 161.776 50.0371C162.271 50.0371 161.826 49.9875 162.023 50.2355C162.617 49.9875 164.051 49.6899 164.743 49.6899C164.743 49.4419 164.842 49.6403 164.693 49.4915C164.051 49.4915 163.606 49.6403 162.963 49.7395V49.4419C162.32 49.4419 161.925 49.4419 161.48 49.5907L160.886 49.7891C160.738 49.8387 160.59 49.9379 160.243 49.9379Z" fill="#F7B849"/>
<path fill-rule="evenodd" clip-rule="evenodd" d="M193.074 52.2692C192.58 52.3188 191.146 53.5092 190.849 53.8068C190.305 54.3524 189.663 55.1461 189.218 55.9397C188.328 57.5766 187.685 59.759 187.981 62.0407C188.08 62.1399 188.08 61.9911 188.13 62.3383C188.179 62.6359 188.179 62.4375 188.229 62.6359C188.278 62.7351 188.328 63.1815 188.328 63.2808L188.773 63.876C188.921 63.7768 188.921 63.7272 189.119 63.8264C189.02 62.9335 188.674 61.9415 188.674 60.9991C188.674 60.6023 188.773 60.255 188.773 59.9574C188.773 58.8662 189.316 57.3285 189.712 56.6837C189.811 56.4853 189.91 56.2373 190.058 56.0389C190.256 55.6421 190.701 55.1957 190.998 54.7989C191.492 54.154 192.728 53.3604 193.47 52.9636C193.569 52.914 193.717 52.8644 193.816 52.8148L194.112 52.7156H194.162H194.211H194.261C194.36 52.8644 194.36 52.666 194.261 52.914C195.151 52.666 196.041 52.2692 197.079 52.2692C197.227 52.17 198.464 52.2196 198.711 52.2196C198.562 52.0708 198.711 52.1204 198.464 52.0212H196.931C196.436 52.0708 195.942 52.17 195.447 52.2196V51.8228C194.805 51.8228 194.706 51.9716 194.508 52.0212C194.36 52.0708 194.36 52.0212 194.261 52.0708L193.717 52.2692C193.47 52.17 193.272 52.2692 193.074 52.2692Z" fill="#F7B849"/>
<path fill-rule="evenodd" clip-rule="evenodd" d="M88.995 50.8304L97.4004 70.9191C97.4993 70.9687 97.4499 70.8199 97.4499 71.1175L98.1915 71.0679C98.1915 70.7703 98.1421 70.6215 98.0432 70.3735C96.8071 67.2982 95.2249 63.5284 93.9394 60.5523L90.1322 51.4256C89.9344 51.0288 89.8355 50.384 89.4894 50.136V50.2848C89.2917 50.4336 89.3905 50.384 89.2422 50.5328C89.1433 50.7312 89.0939 50.6816 88.995 50.8304Z" fill="#F5AC36"/>
<path fill-rule="evenodd" clip-rule="evenodd" d="M107.586 53.212C107.734 52.9639 108.08 52.7655 108.278 52.5175C108.377 52.4183 108.327 52.4679 108.377 52.3687C108.229 51.8727 108.278 50.4343 108.328 49.839C109.316 49.9382 122.815 49.8886 124.248 49.8886V52.3687C124.347 52.2695 124.298 52.5175 124.298 52.2199V49.8886C124.496 49.591 124.842 49.3926 124.99 49.0454H107.536C107.487 49.343 107.388 52.9143 107.586 53.212Z" fill="#F5AC36"/>
<path fill-rule="evenodd" clip-rule="evenodd" d="M138.735 71.9111C138.686 71.9111 138.587 71.9111 138.538 71.9111C138.34 71.8119 138.488 71.8615 138.389 71.7623C137.845 71.6135 137.994 69.8278 137.994 69.183V51.2768C137.994 50.1855 138.488 49.8879 139.625 50.0367C139.972 50.0863 140.07 50.1856 140.169 50.4336C140.466 50.5824 140.318 51.376 140.318 51.7232C140.318 54.1537 140.367 70.8199 140.268 71.2663C140.12 71.7623 139.823 71.7623 139.576 72.1095L140.713 72.0599V49.9375C139.922 49.9375 138.192 50.0367 137.549 49.8879V72.0103C137.747 72.0103 137.994 72.0103 138.192 72.0103C138.29 72.0103 138.439 72.0103 138.488 72.0103C138.735 71.9607 138.637 72.0103 138.735 71.9111Z" fill="#FBCA66"/>
<path fill-rule="evenodd" clip-rule="evenodd" d="M169.638 69.7288C169.934 69.7784 170.478 69.58 170.775 69.4808L170.824 63.8262C170.627 63.8262 170.429 63.8262 170.231 63.8262C170.182 63.8262 169.984 63.8262 169.934 63.8262C169.638 63.8758 169.836 63.8262 169.737 63.9254C170.429 63.975 170.379 64.471 170.379 65.1158C170.379 65.8102 170.429 68.4887 170.33 68.8855C170.231 69.332 169.984 69.4808 169.638 69.58C169.292 69.6792 169.391 69.58 169.242 69.828L169.638 69.7288Z" fill="#FBCA66"/>
<path fill-rule="evenodd" clip-rule="evenodd" d="M166.622 63.7274C166.473 63.7274 166.424 63.7274 166.325 63.6778C166.177 63.5786 166.226 63.5289 166.177 63.4793C165.93 63.2809 165.88 62.7353 165.93 62.2889C166.028 61.7433 166.276 61.6937 166.572 61.5449C166.424 61.4953 166.325 61.5449 166.177 61.5449C165.93 61.5449 165.732 61.5945 165.633 61.4457C165.485 61.4457 165.583 61.3961 165.534 61.5449V63.8762L166.473 63.8266C166.622 63.777 166.572 63.777 166.622 63.7274Z" fill="#FBCA66"/>
<path fill-rule="evenodd" clip-rule="evenodd" d="M54.7305 71.9118C54.6811 71.9118 54.5822 71.9118 54.4833 71.9118C54.2361 71.8126 54.4339 71.9118 54.335 71.763C53.8405 71.6142 53.9394 70.6717 53.9394 70.1261V55.2456C53.9394 53.8568 53.89 52.4183 53.9394 51.0295C53.9889 49.6406 55.225 49.9878 57.1038 49.9878C57.9938 49.9878 65.3115 50.0374 65.5093 49.9878C66.0037 50.087 66.2015 50.335 66.2015 50.9303C66.152 52.4183 65.5093 52.3191 64.4215 52.3191C62.9382 52.3191 57.0544 52.3687 56.2633 52.2695V60.553C56.9061 60.4042 62.0482 60.4538 63.5315 60.4538C63.581 60.4538 63.7293 60.4538 63.7787 60.4538C64.1248 60.553 63.8776 60.4538 63.9765 60.6026L64.1743 60.6522C64.3226 60.7018 64.4215 60.7018 64.471 60.9002C64.5204 60.9498 64.5698 60.8506 64.6193 61.0986C64.7182 61.4458 64.6687 62.4875 64.0754 62.7355C63.4326 62.9835 62.2954 62.8843 61.5043 62.8843C60.5155 62.8843 56.9555 62.9339 56.2633 62.8347V69.3325C56.2633 69.6301 56.2138 69.5805 56.3622 69.6797C57.8455 69.7789 59.6749 69.6797 61.2077 69.6797C62.5426 69.6797 64.7182 69.5805 65.9543 69.7293C66.152 69.7789 66.3004 69.8285 66.3498 70.0765C66.597 70.1757 66.6465 71.267 66.2015 71.6638C65.9543 71.9118 66.0037 71.763 65.8059 72.0606L66.7454 72.011V69.5805H58.1422C57.6477 69.5805 57.3016 69.6797 57.0544 69.3325C56.6588 68.9853 56.7577 68.4893 56.7577 67.8444V64.1243C56.7577 63.4795 56.8566 63.0827 57.4499 62.9835C58.241 62.8347 63.2843 63.0827 64.8171 62.9339V60.4538H57.4499C57.0544 60.4042 57.1533 60.305 57.1038 60.2554C56.6094 60.057 56.7577 59.0153 56.7577 58.4697V54.0552C56.7577 53.3608 56.7083 52.5671 57.4005 52.5175C57.5488 52.3191 57.6972 52.3687 57.9444 52.3687H66.4487V49.9878C65.4598 49.9878 54.1867 50.087 53.5439 49.9382V72.0606C53.7417 72.0606 53.9889 72.0606 54.1867 72.0606C54.5328 72.011 54.5822 72.0606 54.7305 71.9118Z" fill="#FAC661"/>
<path fill-rule="evenodd" clip-rule="evenodd" d="M108.328 52.4181C109.218 52.3189 110.305 52.4181 111.195 52.4181C111.937 52.4181 113.321 52.3685 113.964 52.4677C114.261 52.5173 114.36 52.5669 114.459 52.8149C114.607 52.9141 114.508 52.6661 114.607 52.9637C114.755 53.3109 114.656 71.862 114.656 72.0604C114.953 72.11 115.695 72.1596 115.893 72.0108C115.843 72.0108 115.744 72.0108 115.695 72.0108C115.448 71.9116 115.645 72.0108 115.546 71.862C115.299 71.8124 115.2 71.5644 115.2 71.2667L115.101 52.3685C113.519 52.2693 111.245 52.4181 109.514 52.3685C109.366 52.3685 109.316 52.3685 109.168 52.3189C108.921 52.2693 108.97 52.2197 108.921 52.1701C108.476 52.0213 108.377 50.9796 108.674 50.4836C108.97 49.9876 109.712 50.0868 110.454 50.0868C112.58 50.0868 122.221 49.9876 123.507 50.186C123.655 50.2852 123.754 50.2852 123.853 50.4836C124.001 50.5828 123.952 50.4836 124.051 50.7316C124.1 50.93 124.051 50.93 124.051 51.1284C124.001 51.7237 123.952 52.2197 123.21 52.4181C123.21 52.4181 123.161 52.4181 123.161 52.4677C123.111 52.5669 120.491 52.5173 120.342 52.5173C119.601 52.5173 118.019 52.5669 117.425 52.4677C117.376 58.3703 117.425 64.4217 117.425 70.3739C117.425 72.2092 117.079 71.6636 116.634 72.2588L117.821 72.2092L117.92 53.3109C117.87 52.3189 119.799 52.6165 120.639 52.6165C121.826 52.6165 123.012 52.6165 124.15 52.6165V50.1364C122.765 50.1364 109.218 50.2356 108.229 50.0868C108.229 50.434 108.179 51.9221 108.328 52.4181Z" fill="#FAC661"/>
<path fill-rule="evenodd" clip-rule="evenodd" d="M154.656 64.5701C154.558 65.0661 155.794 67.1494 156.09 67.5462C156.436 68.0422 156.733 68.3894 157.129 68.7862C157.425 69.0838 158.117 69.7287 158.266 69.9271C158.513 70.0759 158.711 70.2247 158.958 70.4231C160.886 71.6135 162.914 72.3576 165.237 72.4568C168.451 72.6056 170.676 72.3576 173.593 71.2663V61.4452H165.633C165.732 61.594 165.93 61.5444 166.177 61.5444C166.325 61.5444 166.473 61.5444 166.572 61.5444C167.462 61.4452 168.698 61.5444 169.638 61.5444C170.577 61.5444 171.714 61.4948 172.604 61.594C172.802 61.6436 172.951 61.7428 173 61.9412C173.247 62.0404 173.198 62.6356 173.198 63.0324V69.3319C173.198 70.3239 173.346 70.8695 172.654 71.2663C172.011 71.6631 169.588 72.2088 168.698 72.308C167.66 72.4072 165.336 72.556 164.248 72.308L163.952 72.1591C163.26 72.1591 161.282 71.4647 160.689 71.1671C159.848 70.7207 159.403 70.4727 158.661 69.9271C158.365 69.7287 158.216 69.6295 158.068 69.3815C157.87 69.3319 157.326 68.687 157.129 68.4886C156.239 67.3974 155.546 66.2069 155.151 64.8181C153.668 59.8579 155.2 54.3025 159.551 51.5248C160.046 51.2272 161.48 50.4336 162.073 50.3344C161.925 50.136 162.37 50.136 161.826 50.136C161.727 50.2352 161.43 50.2848 161.331 50.384C161.183 50.4336 161.134 50.4336 161.035 50.4832C160.936 50.5328 160.886 50.5824 160.837 50.5824C159.057 51.4752 158.909 51.4256 157.376 52.8145C156.782 53.3601 155.942 54.5009 155.546 55.1954C154.014 57.8243 153.668 61.4452 154.656 64.5701Z" fill="#FAC661"/>
<path fill-rule="evenodd" clip-rule="evenodd" d="M129.638 36C129.836 36.0496 130.33 36.1488 130.577 36.1488C130.577 35.9008 131.863 32.1311 132.11 31.387C132.209 31.0894 132.061 31.2382 132.258 31.0894C132.258 31.3374 132.555 32.2799 132.604 32.5279C132.654 32.7759 132.703 33.0239 132.802 33.2223L133.841 36.8928C133.989 36.7936 134.137 36.496 134.236 36.2976C134.384 36.0496 134.483 35.8512 134.632 35.6528C134.78 35.4544 134.879 35.256 135.027 35.008C135.077 34.9088 135.126 34.8096 135.225 34.7104C135.324 34.5615 135.373 34.5119 135.472 34.3631C135.621 34.1151 136.906 31.8831 137.104 31.7342C137.104 31.9823 137.104 32.1807 137.104 32.4287C137.104 32.8751 137.153 32.9743 137.153 33.7679L137.302 35.7024C137.302 35.9504 137.302 36.1488 137.302 36.3968C137.302 36.6944 137.351 36.744 137.351 37.0912C137.648 37.0912 137.648 37.1408 137.845 37.1408C138.093 37.1904 138.241 37.24 138.241 37.0912C138.241 37.0912 138.192 36.0496 138.142 35.9008L137.994 33.0239C137.994 32.7263 137.944 32.6767 137.944 32.4783C137.944 32.2799 137.944 32.0319 137.944 31.8335C137.944 31.5358 137.895 31.5854 137.895 31.2878L137.747 28.9069C137.499 29.1054 136.263 31.3374 135.967 31.8335C135.818 32.0815 135.67 32.2799 135.522 32.5279C135.423 32.6767 135.373 32.7263 135.324 32.8751C135.225 33.0239 135.176 33.1231 135.077 33.2719C134.928 33.5695 134.78 33.7679 134.632 34.0159C134.533 34.1647 134.533 34.2143 134.434 34.3631C134.335 34.5119 134.286 34.5615 134.236 34.76L132.555 28.9069C132.456 28.6589 132.357 28.3117 132.357 28.0637C132.11 28.2125 131.764 29.7006 131.665 29.9982L129.638 36Z" fill="#1D1D1D"/>
<path fill-rule="evenodd" clip-rule="evenodd" d="M87.4623 29.0056L87.8578 31.8825C87.8578 32.0313 87.9073 32.1801 87.9073 32.3785L88.2534 34.809C88.3523 35.5034 88.4017 36.1978 88.55 36.793C89.0939 36.793 91.4178 36.4458 91.9122 36.1978C93.6922 35.2554 93.1483 32.2793 91.3189 32.2793C91.4178 32.1801 92.6044 31.4857 92.0605 30.0472C91.8133 29.452 91.3683 28.8568 90.6761 28.7576C90.0828 28.6584 88.9456 28.8072 88.3028 28.9064C88.0556 28.956 87.6601 29.0056 87.4623 29.0056ZM88.5006 29.7C89.3411 29.7 89.5884 29.452 90.4289 29.6504C91.0717 29.7992 91.1211 30.5928 91.1211 31.1881C91.1211 31.9817 89.6872 32.2793 88.7973 32.2793C88.7973 31.9817 88.7478 31.8825 88.7478 31.6345C88.6984 31.1385 88.5006 30.0968 88.5006 29.7ZM90.3795 32.9241C90.8739 32.9241 91.22 32.9241 91.5661 33.3209C91.9617 33.8169 92.2583 35.2554 90.9728 35.6026L89.2917 35.9002L88.995 33.8169C88.8467 32.9241 88.9456 33.1225 89.2917 33.0729C89.6872 33.0233 89.9345 32.9241 90.3795 32.9241Z" fill="#1D1D1D"/>
<path fill-rule="evenodd" clip-rule="evenodd" d="M121.282 35.5533C121.727 35.6525 121.677 35.6029 122.221 35.6029C122.221 35.3053 122.271 35.4541 122.271 34.71C122.271 33.9164 122.32 34.1644 122.32 33.7676C122.32 33.47 122.32 33.1228 122.32 32.8252C122.32 32.478 122.37 32.6268 122.37 31.8827C122.617 31.9323 122.617 32.0811 122.765 32.2795L125.138 35.7021C125.633 35.7021 125.831 35.7517 126.325 35.7517C126.276 35.5037 124.891 33.6684 124.644 33.3212C124.496 33.1724 124.446 33.0236 124.298 32.8252L123.606 31.8827C124.298 31.8827 124.792 31.7835 125.188 31.4859C126.276 30.6923 126.325 27.7162 123.853 27.7162L121.578 27.5674L121.331 32.4284C121.282 32.726 121.331 33.1724 121.331 33.5196C121.331 33.8172 121.282 33.718 121.282 33.966C121.282 34.1148 121.282 34.3132 121.282 34.462C121.331 35.206 121.282 35.3053 121.282 35.5533ZM123.556 31.2379L122.419 31.1387C122.518 30.6923 122.468 30.3947 122.468 29.8987C122.468 29.6507 122.518 29.6011 122.518 29.2538C122.518 29.0058 122.518 28.8074 122.518 28.5594C123.012 28.5594 123.754 28.609 124.199 28.7082C124.891 28.9066 124.99 29.3034 124.99 29.9979C124.99 30.3451 124.891 30.7419 124.595 30.9403C124.446 31.0891 123.853 31.2379 123.556 31.2379Z" fill="#1D1D1D"/>
<path fill-rule="evenodd" clip-rule="evenodd" d="M64.4214 33.6188C64.4214 33.8172 64.5698 34.1644 64.6192 34.3132C64.7181 34.5613 64.7676 34.7597 64.817 35.0573C64.9159 35.5037 65.1137 36.0493 65.262 36.5453L66.4981 40.8607C66.6464 41.3071 66.3003 41.4063 67.6353 41.0095C68.0308 40.8607 70.3053 40.1663 70.6019 40.1663C70.6019 39.7694 70.4536 39.6206 70.4041 39.2734C70.1075 39.2734 69.8603 39.3726 69.6625 39.4718C69.168 39.6206 67.6847 40.1167 67.2892 40.1167L66.6959 38.0334C66.6464 37.835 66.4981 37.5374 66.4981 37.2894C66.7453 37.2894 66.9925 37.1405 67.2397 37.0909C67.487 37.0413 67.7836 36.9421 68.0308 36.8429L69.5142 36.3965C69.4647 36.0989 69.3658 35.9005 69.3164 35.5533C69.0692 35.5533 66.5475 36.2477 66.152 36.4461C66.1025 35.9005 65.6081 34.8589 65.6081 34.3132L68.6242 33.4204C68.6242 33.0732 68.4758 32.8748 68.4264 32.5276L65.4598 33.3708C65.1631 33.4204 64.7676 33.6188 64.4214 33.6188Z" fill="#1D1D1D"/>
<path fill-rule="evenodd" clip-rule="evenodd" d="M94.78 28.262L95.1261 32.1806C95.1755 32.379 95.1261 32.4782 95.1261 32.6766L95.3733 35.6527C95.3733 35.8511 95.4227 35.8511 95.4227 36.1487L97.4994 35.9503C97.8455 35.9503 99.0321 35.7519 99.576 35.7519L99.5266 34.8591L98.3399 34.9087C98.1422 34.9087 98.241 34.9583 97.9444 34.9583C97.3511 34.9583 96.8566 35.1071 96.3127 35.1071L96.1644 33.6686C96.1644 33.3214 96.115 33.2222 96.115 32.9246C96.115 32.5774 96.0655 32.5278 96.0655 32.1806C96.4116 32.1806 96.4611 32.131 96.8072 32.131L98.7355 31.9326C98.8838 31.9326 99.0321 31.9326 99.1805 31.9326C99.1805 31.387 99.2299 31.4366 99.131 30.9901C98.8838 30.9901 99.0321 31.0397 98.8344 31.0397C98.2905 31.0893 97.4499 31.1389 96.8072 31.2382L96.0655 31.2878L95.8677 29.0557L99.0321 28.7581C99.0321 28.3613 98.9827 28.2124 98.9827 27.8652L94.78 28.262Z" fill="#1D1D1D"/>
<path fill-rule="evenodd" clip-rule="evenodd" d="M140.268 37.4879C140.516 37.5871 141.158 37.6863 141.455 37.7359C141.851 37.8351 142.296 37.8847 142.691 37.9839C143.087 38.0831 143.581 38.1327 143.977 38.2319C144.224 38.2815 144.422 38.5791 144.52 37.4383C143.482 37.1903 142.394 37.0415 141.356 36.7934C141.406 36.347 141.9 34.3134 141.9 33.8669L145.064 34.5118C145.312 33.3709 145.361 33.6189 144.174 33.3709C143.828 33.3213 143.482 33.2221 143.185 33.1725C142.839 33.1229 142.444 33.0237 142.147 32.9741C142.147 32.4781 142.543 31.3373 142.543 30.8412C142.889 30.8412 143.087 30.8908 143.383 30.9404L144.965 31.2381C145.262 31.2877 145.509 31.3869 145.757 31.3869C145.757 31.0396 145.905 30.8908 145.905 30.494C145.509 30.494 142.246 29.75 141.801 29.75C141.801 30.0476 141.653 30.494 141.603 30.6924C141.158 32.9245 140.713 35.4542 140.268 37.4879Z" fill="#1D1D1D"/>
<path fill-rule="evenodd" clip-rule="evenodd" d="M71.937 39.8684C72.0358 39.8684 72.7281 39.7196 72.8269 39.67C72.9753 39.6204 72.9753 39.5212 73.0247 39.3724L73.4203 37.0411L76.3869 36.3466L77.7219 38.1819C77.8208 38.3307 77.8702 38.2811 77.9196 38.4795C78.2658 38.3803 78.6119 38.2811 78.9085 38.2315C78.8591 38.0331 78.4635 37.4875 78.3152 37.3387C77.7713 36.7435 73.8158 31.2873 73.5686 31.0889C73.4697 31.2873 73.0742 33.8666 72.9753 34.313L71.937 39.8684ZM73.4203 36.1482C73.5192 35.9002 73.8158 34.065 73.9147 33.5194C73.9641 33.2217 73.8653 33.3209 74.063 33.1721C74.1125 33.3705 74.3103 33.569 74.4586 33.7674C74.7058 34.065 75.7441 35.305 75.7441 35.6026C75.2991 35.6522 73.8653 36.1482 73.4203 36.1482Z" fill="#1D1D1D"/>
<path fill-rule="evenodd" clip-rule="evenodd" d="M118.958 35.4544V34.5615L116.585 34.5119C116.189 34.5119 116.041 34.4623 115.744 34.4623L115.794 31.4862C116.338 31.4862 116.684 31.5358 117.227 31.5358H119.007V30.643C117.87 30.643 116.98 30.5934 115.843 30.5934V28.3613C116.98 28.3613 117.92 28.4109 119.057 28.4109L119.156 27.5181L115.645 27.4685C115.2 27.4189 114.953 27.2205 114.953 27.7165C114.953 27.8653 114.953 28.0637 114.953 28.2125C114.953 29.0557 115.003 28.9565 114.904 29.7502L114.854 34.9087C114.854 35.1072 114.755 35.256 114.854 35.3056C114.805 35.3552 118.612 35.4544 118.958 35.4544Z" fill="#1D1D1D"/>
<path fill-rule="evenodd" clip-rule="evenodd" d="M145.658 38.2816C146.894 38.5792 146.498 38.6784 147.388 37.4383C147.635 37.0911 147.932 36.7439 148.13 36.3967L151.096 37.0911C151.245 37.6367 151.344 38.3312 151.393 38.9264C151.443 39.2736 151.443 39.6704 151.64 39.72C151.739 39.7696 152.431 39.9184 152.53 39.9184L151.591 34.4622C151.541 34.115 151.443 33.7678 151.393 33.3214L150.998 31.1389L146.993 36.4463C146.795 36.6943 145.756 38.0336 145.658 38.2816ZM150.454 33.2222C150.651 33.371 150.553 33.1726 150.651 33.9166C150.701 34.115 150.75 34.4126 150.8 34.6606L151.096 36.1983C150.8 36.1983 150.256 35.9999 149.959 35.9503L148.773 35.7023C148.773 35.4047 149.415 34.7102 149.613 34.4622C149.761 34.2638 150.404 33.4702 150.454 33.2222Z" fill="#1D1D1D"/>
<path fill-rule="evenodd" clip-rule="evenodd" d="M100.862 27.8654C100.862 28.4111 100.812 28.3615 100.911 28.8079L103.136 28.6591C103.136 29.8495 103.284 30.9903 103.284 32.1808C103.284 32.5776 103.334 32.6272 103.334 33.024C103.334 33.4704 103.383 35.3057 103.482 35.6529C103.927 35.5537 103.878 35.6033 104.421 35.6033C104.421 34.4129 104.273 33.3216 104.273 32.1312C104.273 31.7344 104.224 31.6848 104.224 31.288C104.224 30.9903 104.224 30.6431 104.224 30.3455C104.174 29.9983 104.174 30.2463 104.174 29.5023C104.174 29.2047 104.174 28.8575 104.174 28.5599L106.3 28.5103V27.6174L104.965 27.667C103.927 27.667 101.9 27.8654 100.862 27.8654Z" fill="#1D1D1D"/>
<path fill-rule="evenodd" clip-rule="evenodd" d="M77.6229 31.5358C78.1174 31.5358 79.2546 31.139 79.8479 31.139C79.8479 31.387 79.9468 31.6846 79.9962 31.9822L80.4907 34.5119C80.6885 35.6031 80.9357 36.8432 81.1829 37.9344C81.4795 37.8848 81.8257 37.8352 82.1223 37.736C82.0729 37.4384 81.974 36.992 81.9245 36.6448L80.9357 31.635C80.7379 30.7422 80.5896 30.9902 81.7762 30.7422C82.1223 30.6926 82.6168 30.5438 82.9134 30.4941C82.9134 30.1469 82.8145 29.9485 82.7651 29.6013C82.2212 29.6013 78.6613 30.3949 77.7713 30.5438C77.5735 30.5934 77.5241 30.5438 77.4746 30.6926C77.4746 30.8414 77.6229 31.3374 77.6229 31.5358Z" fill="#1D1D1D"/>
<path fill-rule="evenodd" clip-rule="evenodd" d="M154.656 33.1726C155.398 33.371 156.189 33.6686 156.782 33.8174L154.854 40.5137C155.151 40.5633 155.497 40.7617 155.794 40.7617C155.942 40.1665 156.09 39.6704 156.288 39.0752L157.475 34.9087C157.524 34.6111 157.623 34.2639 157.722 34.0158C157.969 34.1647 158.464 34.2639 158.76 34.3631C158.909 34.4127 159.106 34.4623 159.304 34.5119C159.502 34.5615 159.65 34.6111 159.848 34.6607C159.848 34.4127 159.996 33.9662 160.095 33.7678L154.904 32.2798C154.854 32.5774 154.755 32.875 154.656 33.1726Z" fill="#1D1D1D"/>
<path fill-rule="evenodd" clip-rule="evenodd" d="M107.487 27.7658C107.487 28.113 107.536 28.1626 107.536 28.4602H109.761V35.4541H110.701V28.4602H112.926V27.7658C112.926 27.5178 112.926 27.7658 112.975 27.5674H107.487V27.7658Z" fill="#1D1D1D"/>
<path fill-rule="evenodd" clip-rule="evenodd" d="M57.8455 40.9603C58.3893 40.9603 58.6366 41.0099 59.0816 40.613C59.2793 40.4642 59.4771 40.2162 59.576 39.9682C59.6254 39.8194 59.7243 39.4226 59.7243 39.3234C59.6749 38.133 58.2905 37.1905 57.0544 38.1826C56.3622 38.7778 56.2633 40.0674 57.3016 40.7123C57.351 40.8115 57.6477 40.9603 57.8455 40.9603Z" fill="#1D1D1D"/>
<path fill-rule="evenodd" clip-rule="evenodd" d="M164.051 39.4719C164.051 40.0176 164.1 40.4144 164.545 40.8112C165.336 41.5552 167.017 41.3568 167.264 39.6703C167.363 39.0255 166.77 37.9839 165.534 37.9839C164.743 38.0335 164.051 38.7775 164.051 39.4719Z" fill="#1D1D1D"/>
<path fill-rule="evenodd" clip-rule="evenodd" d="M116.585 71.1181L116.535 71.9117L115.843 71.9613C115.645 72.1597 114.904 72.0605 114.607 72.0109C114.607 71.8125 114.706 53.2615 114.557 52.9142C114.459 52.6662 114.557 52.9142 114.409 52.7654V52.9638C114.211 53.063 113.964 53.2118 113.766 53.3111V72.8541C114.063 72.7053 114.36 72.3085 114.607 72.1101H117.821C117.92 71.1677 117.821 59.4617 117.821 57.924C117.821 57.1304 117.771 53.6583 117.87 53.1622L117.821 72.0109L116.634 72.0605C117.079 71.4653 117.425 72.0109 117.425 70.1756C117.425 64.2234 117.376 58.172 117.425 52.2694C118.068 52.4182 119.65 52.319 120.342 52.319C120.441 52.319 123.111 52.3686 123.161 52.2694C123.161 52.2694 123.21 52.2694 123.21 52.2198H117.672L116.782 51.5254C116.881 54.7495 116.782 58.1224 116.782 61.3961V70.622C116.733 71.2669 116.684 71.0685 116.585 71.1181Z" fill="#F6B646"/>
<path fill-rule="evenodd" clip-rule="evenodd" d="M167.166 49.6408C167.858 49.5912 168.748 49.7896 169.391 49.9384C170.083 50.0873 170.726 50.3849 171.319 50.5337C171.517 50.6825 171.566 50.6825 171.616 50.9305C171.517 50.9801 171.022 51.2777 170.973 51.2777L170.824 51.8233L170.775 52.6169C170.231 52.6665 169.687 52.2697 169.094 52.1705C167.957 51.9721 166.226 51.8233 165.04 51.8729C163.457 52.0217 163.507 52.2697 163.507 51.7241H162.963L162.864 51.5753C162.419 51.5257 161.331 52.0713 160.936 52.3193C159.255 53.2122 157.87 54.601 156.98 56.5355C156.041 58.5691 155.794 61.198 156.337 63.4797C156.436 63.9261 156.832 65.2654 157.079 65.4638L157.326 65.5134L157.475 65.1662C157.475 65.315 157.524 65.315 157.524 65.4638C157.771 65.4638 157.672 65.3646 157.969 65.4638C157.92 65.2158 157.722 64.819 157.574 64.571C156.585 62.5373 156.733 58.9164 157.672 56.9323C158.019 56.2379 158.414 55.5434 158.909 54.9482C160.244 53.361 161.381 52.8649 163.408 52.1705C163.556 52.3193 163.457 52.1209 163.507 52.3689C164.743 52.0713 165.88 51.9225 167.265 52.0713C167.907 52.1209 168.402 52.2201 169.045 52.3193C169.638 52.4681 170.231 52.6665 170.726 52.7657C171.022 52.5177 171.22 52.5673 171.467 52.2201C171.616 52.0217 171.813 51.5753 171.813 51.2281C172.159 51.2281 171.912 51.1785 172.011 51.3769L172.209 50.7817V50.5833C170.824 49.74 167.907 49.3928 166.325 49.3928C165.633 49.3928 165.633 49.2936 165.386 49.5912L167.166 49.6408Z" fill="#F6B646"/>
<path fill-rule="evenodd" clip-rule="evenodd" d="M206.869 55.1957C206.918 55.6421 208.105 56.8821 208.352 60.0071C208.649 63.628 207.314 66.8521 204.743 69.0842C203.853 69.8282 202.864 70.4234 201.776 70.8202C201.381 70.969 200.936 71.0682 200.59 71.217C200.59 71.3658 200.639 71.3658 200.491 71.3658L200.145 71.6139C199.947 71.6139 199.897 71.6139 199.7 71.7627V72.2587L200.688 72.0603C201.133 71.9115 200.985 71.9611 201.084 72.1595C201.282 72.0603 201.529 72.0603 201.727 71.9611C201.826 71.9115 201.925 71.9115 202.023 71.8619C202.221 71.8123 202.172 71.8123 202.32 71.7131L202.023 71.8123C202.172 71.5643 201.925 71.7131 202.617 71.4154C202.815 71.3162 202.963 71.2666 203.161 71.1674C203.754 70.8202 204.644 70.2746 205.138 69.8778C206.078 69.0346 206.721 68.3897 207.413 67.2489C208.896 64.9672 209.391 62.0903 209.094 59.263C208.946 57.8742 208.352 56.1877 207.66 54.9973C207.611 54.8981 207.561 54.8485 207.512 54.6997C207.363 54.5013 207.363 54.6501 207.314 54.5013C207.314 54.4517 207.264 54.5013 207.264 54.4517L207.363 54.7989C207.264 54.8485 207.116 54.8981 207.067 54.9477C206.918 54.9973 207.017 54.9477 206.918 54.9973L206.869 55.1957Z" fill="#F6B646"/>
<path fill-rule="evenodd" clip-rule="evenodd" d="M141.504 49.0454H136.807V72.755L137.598 72.0606C138.291 72.011 140.318 72.1598 140.763 72.011V49.7894C141.01 49.6902 141.405 49.2934 141.504 49.0454ZM139.576 50.8807C139.675 51.4759 139.625 64.8684 139.625 66.158C139.625 66.7036 139.724 71.019 139.576 71.1678V71.2174V71.9614L138.834 72.011C138.735 72.1102 138.834 72.0606 138.587 72.1102C138.488 72.1102 138.34 72.1102 138.291 72.1102C138.093 72.1102 137.846 72.1102 137.648 72.1102V49.9878C138.34 50.1366 140.021 50.0374 140.812 50.0374V72.1102L139.576 72.0606C139.873 71.7134 140.169 71.7134 140.268 71.2174C140.367 70.8206 140.318 54.1544 140.318 51.6743C140.318 51.3767 140.466 50.5335 140.169 50.3847V50.5831C139.873 50.6327 139.823 50.7319 139.576 50.8807Z" fill="#F6B545"/>
<path fill-rule="evenodd" clip-rule="evenodd" d="M192.876 49.5911C192.382 49.6407 190.8 50.5831 190.503 50.7815C186.498 53.4104 184.471 58.2218 185.312 63.182C185.559 64.6204 186.004 65.91 186.696 67.1501C186.795 67.3485 187.24 68.0925 187.388 68.1421C187.734 68.1917 187.685 68.1421 187.833 68.3901L188.031 68.2909C188.229 68.1917 188.278 68.1917 188.525 68.2909C188.377 67.8941 187.932 67.5469 187.734 67.1005C186.943 65.662 186.399 64.67 186.103 62.7851C185.707 59.809 186.152 57.5274 187.289 55.3945C187.388 55.1961 187.536 54.9977 187.635 54.7497C188.031 54.0056 188.426 53.6088 188.871 53.0632L189.91 52.0712C190.009 51.972 190.009 51.972 190.206 51.8232C191.789 50.6823 193.371 49.9383 195.349 49.5911L196.041 49.4919C196.387 49.5415 196.09 49.4423 196.239 49.5911C197.129 49.5415 197.87 49.4919 198.81 49.4919C198.513 49.2439 197.771 49.3927 197.425 49.4423C197.326 49.4423 197.277 49.4423 197.178 49.4423C197.03 49.3927 197.129 49.4423 197.03 49.3431H196.486C196.585 49.1943 196.535 49.1943 196.535 48.9959C196.239 48.9959 196.189 48.8967 195.497 48.9463C195.101 48.9463 195.002 49.0951 194.607 49.1447L193.717 49.3431C193.47 49.4919 193.223 49.5415 192.876 49.5911Z" fill="#F6B545"/>
<path fill-rule="evenodd" clip-rule="evenodd" d="M13.445 72.1103V72.7551C14.4834 72.011 13.89 72.0607 15.1261 72.0607C15.9172 72.0607 16.7578 72.0607 17.5983 72.0607C17.6972 71.4654 17.7466 70.5726 17.7466 69.9774C17.7961 68.3405 17.9939 65.5628 18.1422 63.926C18.2411 62.5867 18.34 61.1483 18.3894 59.809C18.4883 57.3289 18.34 56.8329 19.675 56.8329C20.1199 57.0313 19.9222 56.9321 20.1694 57.2793L22.4438 60.7019C22.5921 60.9499 22.691 61.0987 22.8394 61.2971L25.5093 65.2652C25.6082 65.414 25.806 65.7612 25.9543 65.8108C26.3993 65.9596 26.5971 65.7116 27.2893 65.9596C27.141 65.7116 27.4871 65.7612 27.0421 65.7612C26.7949 65.8604 26.3499 65.8108 26.2015 65.7116C26.1026 65.662 26.1521 65.662 26.1026 65.6124C25.7565 65.3148 25.2621 64.4716 24.9654 64.0748C24.6193 63.5788 24.2238 63.0331 23.8777 62.4875C23.3338 61.6443 18.6366 54.9977 18.4389 54.3528C18.1916 53.708 18.0433 52.9144 17.8455 52.22L17.7466 52.4184L16.3128 71.0686V71.1182V71.8622C15.9172 71.8622 15.3239 71.9614 15.1261 71.6142C14.5328 71.4158 14.9284 69.6302 14.9778 68.9853C15.0272 68.0429 15.1261 67.0013 15.225 66.0092C15.3239 64.1244 15.4228 62.1403 15.6206 60.1562C15.8183 58.2218 15.9667 56.1881 16.115 54.2536C16.1644 53.3112 16.2633 52.3192 16.3622 51.3271C16.4117 50.8311 16.3622 50.3847 16.7578 50.1367C17.2522 49.8391 17.6972 50.0871 17.9939 49.9879C18.34 50.2359 19.3783 51.8231 19.7244 52.3688C19.8727 52.6168 20.0705 52.8648 20.2683 53.1624L25.7071 61.1483C25.9049 61.4459 26.0532 61.6443 26.251 61.9419C26.4487 62.1899 26.5971 62.6859 26.8937 62.6363C27.0915 62.3387 27.2893 62.0411 27.4871 61.7435L32.827 53.8568C33.2225 53.2616 33.6181 52.716 34.0136 52.0712L35.2003 50.2855C35.6453 49.6407 36.9308 49.7399 37.0792 50.4343C36.9308 50.5335 36.6836 50.6327 36.4858 50.7319L36.5847 52.0216C36.5353 52.5176 37.2275 60.6523 37.2769 61.2475C37.4253 62.7851 37.4747 64.3228 37.623 65.91C37.7714 67.3485 37.9197 68.9853 37.9691 70.4734C38.0186 70.5726 38.0186 70.3742 38.068 70.6718C38.068 70.771 38.068 70.9198 38.068 70.9694L38.0186 71.0686V71.8126C37.6725 71.8126 37.1286 71.9118 36.8319 71.6638C36.3375 71.3662 36.4364 70.6222 36.3375 69.8782C36.2881 69.1837 36.1892 68.4397 36.1892 67.7453C36.1397 66.3069 35.9914 64.7692 35.8925 63.3307C35.7936 61.8923 35.6947 60.305 35.5464 58.9162L35.2497 54.452C34.9036 54.5016 35.0025 54.5016 34.8047 54.7496L32.9753 57.3785C32.9259 57.4281 32.8764 57.5273 32.827 57.5769L31.1459 60.057C31.047 60.2058 30.9976 60.305 30.8987 60.4538L28.9704 63.2811C28.6737 63.678 27.8332 65.0668 27.5365 65.3644C27.2893 65.6124 27.3387 65.5132 27.2893 65.8108C27.6354 65.7612 27.6848 65.7612 27.8332 65.5132L33.272 57.4281C33.6181 56.9321 33.6675 56.7833 34.4092 56.7833C34.6564 56.9321 34.8047 56.9321 34.8542 57.2793L34.2609 57.6265L34.3598 59.065C34.3103 59.5114 34.9036 67.9933 35.0025 69.0845C35.1014 70.1262 35.2003 71.3662 35.2003 72.4079L35.2992 72.7055L35.9914 71.9614H39.3041C39.3041 71.1678 39.1558 70.0766 39.1064 69.283C38.8591 66.6541 38.7108 63.7772 38.4636 61.0987C38.3153 59.313 38.2164 57.4281 38.0186 55.6921C37.9197 54.9977 37.5736 50.5831 37.623 50.2359L37.4747 49.7399C36.9308 49.7399 35.5958 49.7895 35.1509 49.6903C34.9531 49.3927 34.9531 49.2439 34.6564 48.9958L34.162 49.6903C33.9642 49.9879 33.8159 50.1863 33.6675 50.4343L27.8826 59.4618C27.5365 59.9578 27.1904 60.5034 26.8937 60.9995L26.7949 61.1483V61.8427C26.696 61.8427 26.5476 61.8427 26.4487 61.7931C26.251 61.7435 26.3004 61.6939 26.251 61.6443C26.0038 61.5451 22.5427 56.1881 22.3449 55.8409L18.4883 49.9383C18.0433 49.6407 16.7083 49.8887 16.0656 49.7895C15.8678 49.5911 15.5711 49.3431 15.3733 49.1447C15.225 49.1447 15.2745 49.1943 15.2745 48.9958L14.2856 60.5531C14.2856 61.2475 13.3956 71.6638 13.445 72.1103Z" fill="#F7BA52"/>
<path fill-rule="evenodd" clip-rule="evenodd" d="M82.5674 66.7527C82.6168 66.9015 82.5179 66.8023 82.6168 66.9015C83.6551 66.2567 83.309 66.2071 84.8912 66.2071C87.5612 66.2071 91.2695 66.3063 93.6922 66.2071C93.6922 65.9095 91.9617 61.991 91.7145 61.247C91.6156 61.2966 91.5167 61.0981 91.665 61.495C91.9122 62.239 92.9506 64.5703 93 65.2151C92.5056 65.2151 92.6539 65.1655 92.2584 65.3143V66.1079H84.8418L84.7429 65.9591C83.8529 65.7111 84.7924 63.975 85.089 63.1814L87.9073 55.9396C88.0062 55.642 88.0556 55.4436 88.3029 55.3444C88.5501 55.1955 88.8467 55.2948 89.0445 55.394C89.1928 55.3444 89.2423 55.4932 89.1928 55.2947L89.1434 55.1955C89.1434 54.7491 88.7478 54.4019 88.7478 53.7075C88.7478 53.4595 88.7973 52.0706 88.6984 51.9714L82.5674 66.7527Z" fill="#F7BA52"/>
<path fill-rule="evenodd" clip-rule="evenodd" d="M13 72.953V73.0522C13.1483 73.1514 13.0989 73.201 13.3461 73.2506C13.5439 73.3002 13.7417 73.3002 13.9394 73.3002C14.1867 73.6971 14.8294 74.1931 15.1755 74.5403L15.2744 74.6395C15.4227 74.7883 15.7194 75.2347 15.9666 75.2347H20.6638C21.0099 75.2347 20.911 74.4411 20.911 74.1435C20.911 73.9451 20.9604 74.0443 20.9604 73.7467C20.9604 73.1514 21.0099 72.5562 21.0593 72.0106L21.5043 65.2648C21.5538 64.7191 21.5043 64.0247 21.6032 63.5287C21.6527 63.0823 21.7021 62.3383 21.7021 61.7926C21.8504 61.8919 21.8504 61.9415 21.9493 62.0903C22.0482 62.2391 22.0977 62.2887 22.1965 62.4375C22.3449 62.6855 22.4932 62.8839 22.691 63.1815L24.6687 66.108C24.8171 66.356 24.9654 66.5544 25.1632 66.852C25.3115 67.0504 25.2621 67.0504 25.5093 67.1C25.707 67.1496 25.9048 67.1496 26.1026 67.1496C26.4487 67.6456 27.0915 68.1913 27.5859 68.6377C27.7342 68.7865 27.8826 69.0345 28.1792 69.0345H30.4536L34.063 63.6279C34.1619 63.4791 34.063 63.6279 34.1619 63.5287C34.2114 64.2727 34.3597 65.4136 34.3597 66.108C34.3597 66.4552 34.4091 66.4552 34.4091 66.7528L34.4586 68.0921C34.4586 68.3897 34.508 68.4393 34.508 68.7865L34.7058 71.3658C34.8541 72.5562 34.4091 73.2506 35.6452 73.2506C35.7936 73.4491 35.9419 73.5979 36.1397 73.7467L36.6836 74.2427C36.9308 74.4907 37.4252 75.1355 37.8208 75.1355H42.6663C42.6663 74.2923 42.5674 73.6971 42.5674 72.9034C42.5674 72.6058 42.5179 72.705 42.5179 72.457L42.2707 69.2825C42.2213 69.1337 42.2707 68.9353 42.2707 68.7865L42.0235 66.0584C42.0235 65.9096 42.0235 65.7608 42.0235 65.612C42.0235 65.3144 41.974 65.4136 41.974 65.1656C41.974 65.0168 41.974 64.8183 41.974 64.6695C41.974 64.4711 41.9246 64.5207 41.9246 64.2231L41.8257 62.3879C41.8257 62.1399 41.7763 62.2887 41.7763 61.9911L41.5785 59.7094C41.5785 59.5606 41.5785 59.4118 41.5785 59.263C41.5785 59.0149 41.5291 59.1142 41.5291 58.8165L41.3313 56.5845C41.3313 56.4357 41.3313 56.2373 41.3313 56.0884C41.3313 55.8404 41.2818 55.9396 41.2818 55.642L41.1829 53.8068C41.1829 53.5092 41.1335 53.6084 41.1335 53.3604L40.8368 51.7235C40.8368 51.1779 40.3918 50.9299 40.0457 50.5827C39.6996 50.2354 39.403 49.9378 39.0569 49.5906C37.9691 48.4994 39.9468 48.6482 35.0025 48.6482C34.8541 48.6482 34.6564 48.6978 34.5575 48.7474C34.3103 48.8962 29.9592 55.642 29.0198 57.0805C28.7726 57.4277 27.3387 59.759 27.042 59.9574C26.597 59.1142 25.6576 57.8245 25.1137 56.9813C24.8171 56.4853 21.7021 51.6739 21.3066 51.2771L20.3671 50.3346C20.3671 50.3346 20.3671 50.3346 20.3177 50.285L20.1693 50.1362C19.6749 49.6898 19.4277 48.6482 18.686 48.6482H15.4722C14.8294 48.6482 14.8294 49.1442 14.8294 49.6402C14.8294 50.1858 14.6811 50.6819 14.6811 51.2275C14.6811 51.9715 14.4833 52.8147 14.4833 53.5092C14.4833 54.3028 14.335 55.0964 14.2855 55.8404C14.2855 55.9396 14.2855 56.0884 14.2855 56.2373C14.2855 56.4853 14.2361 56.3861 14.2361 56.6341C14.1867 57.5269 14.0383 59.8086 13.9394 60.5526L13.5933 65.116C13.4944 65.612 13.5439 66.2072 13.445 66.7032C13.2967 67.3976 13.3461 69.0345 13.1978 69.7785L13 72.953ZM13.445 72.1098C13.3956 71.6138 14.2855 61.247 14.335 60.6022L15.3239 49.045H18.7849C19.0321 49.1938 19.1805 49.541 19.3288 49.7394L22.7899 54.9972C23.4821 56.0388 24.1248 57.0309 24.8171 58.0229L26.3004 60.3046C26.5476 60.6518 26.6465 60.999 26.8443 60.9494C27.1409 60.4534 27.5365 59.9078 27.8331 59.4118L33.7169 50.5331C33.9147 50.285 34.0136 50.037 34.2114 49.789L34.7058 49.0946C34.8047 48.9954 34.6069 49.045 34.953 48.9954H38.2658C38.4635 49.0946 38.4635 50.1362 38.4635 50.3843C38.513 50.9299 38.5624 51.3763 38.5624 51.9219L39.3041 60.8502C39.5019 62.8343 39.6007 64.868 39.7985 66.852C39.9963 68.7865 40.1941 70.9194 40.2435 72.8538H35.2002V72.457C35.2002 71.4154 35.0519 70.1257 35.0025 69.1337C34.9036 68.0425 34.3103 59.5606 34.3597 59.1142C34.2608 58.9653 34.2114 57.9237 34.2114 57.7253C33.7664 57.9733 28.7231 66.0088 28.0309 66.7528H25.707C25.4104 66.7032 25.6082 66.7528 25.5093 66.604L19.4771 57.6757C19.3782 57.7749 19.4277 57.6261 19.3782 57.9237L19.131 61.4454C19.0816 62.7351 18.9827 63.9751 18.8838 65.2152C18.7355 67.7449 18.5377 70.3241 18.3894 72.8538H13.3461C13.3956 72.705 13.3461 72.209 13.445 72.1098Z" fill="#1D1D1D"/>
<path fill-rule="evenodd" clip-rule="evenodd" d="M152.926 60.9499C152.926 62.1404 153.074 63.2812 153.321 64.2732C153.519 65.0173 153.717 65.6621 154.014 66.3565C154.459 67.2493 154.953 68.1422 155.596 68.9358L157.771 71.0687C157.969 71.2175 158.117 71.3167 158.315 71.4159L159.156 71.9615C159.798 72.4575 160.293 73.0527 160.985 73.4496C162.221 74.1936 163.408 74.7888 164.891 75.1856C167.067 75.7312 169.638 75.7808 171.912 75.5328C173.643 75.3344 175.423 74.9376 176.955 74.144V62.9836C176.955 62.8348 176.807 62.7356 176.708 62.6364C176.708 62.6364 176.708 62.6364 176.659 62.5868L176.412 62.3388C176.412 62.3388 176.412 62.3388 176.362 62.2892C176.362 62.2892 176.362 62.2892 176.313 62.2396L175.175 61.0491C175.175 61.0491 175.175 60.9995 175.126 60.9995C174.978 60.8507 174.978 60.8011 174.78 60.7019C174.78 60.3547 174.681 60.1563 174.335 60.1563H164.792C164.496 60.1563 164.347 60.3547 164.347 60.6523V64.6205C164.347 64.8189 164.446 65.0173 164.545 65.0669C164.693 65.1661 164.941 65.1165 165.188 65.1165C165.336 65.3645 165.484 65.4141 165.682 65.6125C166.078 65.9101 166.968 67.1005 167.413 67.1005H169.193V68.539C168.946 68.539 168.847 68.5886 168.599 68.6382C168.402 68.6878 168.105 68.6878 168.006 68.7374C167.66 68.787 166.523 68.8366 166.127 68.7374C165.88 68.6878 165.682 68.7374 165.484 68.6878C164.397 68.4894 163.26 68.2414 162.37 67.6462C161.628 67.1501 161.529 66.9517 161.232 66.0589C160.293 63.2316 160.837 59.5115 163.062 57.329C164.1 56.2874 165.386 55.6425 166.869 55.3449C167.116 55.2953 167.462 55.1961 167.66 55.1961C169.044 55.1465 169.539 55.0969 171.022 55.3449C172.159 55.5433 173.297 55.8906 174.335 56.4362C174.483 56.1882 174.632 55.7913 174.73 55.4937C174.879 55.0969 175.868 52.716 175.868 52.5176C175.868 52.3688 175.868 52.5176 175.769 52.4184L175.571 52.1704C175.423 51.972 175.175 51.8728 175.027 51.6744L174.632 51.2776C174.434 51.1288 174.335 50.9304 174.038 50.6824C173.643 50.3848 173.89 50.0871 173.593 49.8887L172.506 49.3431C169.143 48.0039 165.04 47.8551 161.578 48.8967C159.057 49.6903 156.684 51.3768 155.2 53.6089C155.101 53.8073 155.002 53.9065 154.904 54.0553C154.211 55.0969 153.717 56.3866 153.371 57.6266C153.321 57.7754 153.321 57.8746 153.272 57.9738C153.025 58.8667 152.926 59.9579 152.926 60.9499ZM161.133 67.3485C161.43 67.4478 162.567 68.4894 164.693 68.9358C165.04 68.9854 166.127 69.0846 166.177 69.1838C166.671 69.0846 167.462 69.1342 168.006 69.0846C168.599 69.035 169.044 68.9358 169.588 68.787V64.7693H164.743V60.6027H174.434V71.8127C169.737 73.896 163.111 74.0944 158.513 71.1183C158.216 70.9199 157.969 70.7215 157.722 70.5231C157.475 70.3247 157.129 70.0766 156.98 69.8286L156.733 69.6302C156.634 69.531 156.585 69.4318 156.436 69.3326C155.843 68.6382 155.497 68.2414 154.953 67.3981C154.508 66.6541 153.816 65.1661 153.667 64.1244C153.272 63.0828 153.222 60.5035 153.42 59.2139C153.915 55.6921 155.695 52.7656 158.513 50.8808C158.859 50.6328 159.848 49.9879 160.243 49.9879C160.54 49.5911 162.567 49.0951 163.21 48.9463C165.435 48.4999 168.204 48.5991 170.379 49.1447C171.072 49.2935 172.901 49.9383 173.198 50.236L173.346 50.3352C173.198 50.7816 172.061 53.9065 171.863 54.2041C171.467 54.1049 170.874 53.8073 170.429 53.6089C168.797 53.0137 166.869 52.8152 165.138 52.964C160.441 53.4105 157.821 57.6762 158.365 62.1404C158.513 63.3804 158.81 64.2236 159.353 65.2157C159.601 65.6621 159.897 66.0093 160.194 66.4061C160.342 66.6045 160.491 66.7533 160.688 66.9517C160.787 67.0509 160.985 67.1005 161.133 67.3485Z" fill="#1D1D1D"/>
<path fill-rule="evenodd" clip-rule="evenodd" d="M52.3572 49.0949V73.0525C52.8022 73.3501 52.555 73.3005 53.3461 73.3005C53.445 73.4493 55.1261 75.1854 55.2744 75.1854H70.0581V71.1676C70.0581 70.87 69.8109 70.6716 69.6131 70.5228L68.377 69.0843C68.2287 68.9355 68.2781 68.8859 68.0309 68.8859C68.0309 68.5387 67.932 68.3403 67.5859 68.3403H60.1199V66.0586H68.1298C68.2781 66.0586 68.3276 66.009 68.3276 65.8602V61.8921C68.3276 61.6937 67.9815 61.4457 67.8826 61.3465L66.6465 59.9576C66.4982 59.8088 66.5476 59.8088 66.2509 59.8088C66.152 59.412 66.1026 59.2632 65.6082 59.2632H60.1199V55.5927H69.8109V51.4261C69.8109 51.2277 69.4648 50.9797 69.3659 50.8805L68.5748 50.0869C68.4265 49.9381 68.4265 49.8885 68.3276 49.7893C68.1792 49.6405 67.932 49.3429 67.7342 49.2933C67.7342 48.946 67.6354 48.7476 67.0915 48.7476H52.9506C52.555 48.6484 52.3572 48.7476 52.3572 49.0949ZM57.6477 59.6104H65.6576C65.8554 59.7096 65.8059 59.7592 65.8059 60.0568C65.8059 61.0985 65.8554 62.8841 65.8059 63.777H57.6477V68.7371H67.6354V72.9037H52.7528C52.7033 68.9355 52.7528 64.9178 52.7528 60.9497V49.6901C52.7528 49.5909 52.7528 49.4421 52.7528 49.2933C52.7528 49.1941 52.7528 49.1941 52.7528 49.0949L52.8022 48.9957H67.2398C67.3881 49.0453 67.2893 48.946 67.3387 49.0949V53.1622H57.6477V59.6104Z" fill="#1D1D1D"/>
<path fill-rule="evenodd" clip-rule="evenodd" d="M107.19 48.7475C107.042 49.3923 107.141 52.5172 107.141 53.41C107.487 53.6581 107.438 53.6084 108.031 53.6084C108.278 53.9557 108.723 54.2533 109.02 54.5509C109.168 54.6997 109.86 55.4933 110.058 55.4933H113.47V72.6555C113.47 73.3499 113.865 73.3003 114.557 73.3003L115.991 74.7884C116.189 74.9868 116.189 75.2348 116.585 75.2348H121.134C121.282 75.2348 121.331 75.1852 121.331 75.0364V55.4933H127.512C127.66 55.4933 127.71 55.4437 127.71 55.2949V51.426C127.71 51.1284 125.979 49.6403 125.732 49.2435C125.485 48.8963 125.781 48.5491 125.04 48.5491H107.932C107.487 48.6483 107.438 48.6979 107.19 48.7475ZM124.941 49.0451C125.089 49.1443 125.04 48.8467 125.04 49.2435V53.2116H118.711V72.8539H113.964C113.668 72.8539 113.915 72.8539 113.816 72.7547V53.2116H107.536C107.388 52.914 107.487 49.3427 107.487 49.0451H124.941Z" fill="#1D1D1D"/>
<path fill-rule="evenodd" clip-rule="evenodd" d="M76.7824 72.8047V73.0527C77.0296 73.2015 77.0296 73.3007 77.6724 73.3007C77.9691 73.7967 78.859 74.4912 79.3535 74.9376C79.6501 75.2352 79.6996 75.1856 80.2435 75.1856C81.7268 75.1856 83.2101 75.1856 84.6934 75.1856C84.7429 74.9872 84.7923 74.9872 84.8417 74.7888L86.0778 71.6143C88.7972 71.6143 91.5167 71.6143 94.2361 71.6143C94.5327 72.1599 94.7305 73.1519 94.9777 73.2511C95.1755 73.3503 95.4227 73.3007 95.7194 73.3007L97.2027 74.7888C97.351 74.9376 97.4993 75.1856 97.796 75.1856H102.493C102.79 75.1856 102.592 74.9376 102.394 74.4416L93.1483 51.4264C93.0494 51.0296 92.8022 50.9304 92.3077 50.4343L91.1211 49.1943C90.8739 48.8967 91.0222 48.6487 90.4289 48.6487H86.9184C86.2756 48.6487 86.2756 49.0455 85.979 49.8391L79.2052 66.6541C78.9085 67.4477 76.7824 72.6063 76.7824 72.8047ZM77.2768 72.5567C77.3263 72.1599 78.2163 70.0766 78.4635 69.5806L84.3473 54.9977C84.5945 54.3529 86.5723 49.3431 86.7206 49.2439C86.8195 49.0951 86.7206 49.1447 86.9184 49.0951H90.6267C90.8739 49.2439 90.9233 49.5911 91.0222 49.8391L97.9443 66.9517C98.1916 67.5469 100.219 72.5071 100.318 72.9535H95.3238L95.2249 72.7551L93.9394 69.3822H83.7045L82.3696 72.9039H77.2768C77.178 72.6559 77.178 72.7055 77.2768 72.5567Z" fill="#1D1D1D"/>
<path fill-rule="evenodd" clip-rule="evenodd" d="M184.718 60.5529C184.718 62.9338 184.965 64.4218 185.905 66.5051C186.35 67.4475 186.646 67.8939 187.24 68.7372L189.564 71.0189L190.355 71.5645C190.454 71.6141 190.553 71.6637 190.602 71.7629C191.591 72.4077 191.344 72.4077 192.135 72.9533C192.332 73.1021 192.481 73.2013 192.679 73.3501L193.816 74.0446C196.585 75.4334 197.92 75.5822 200.985 75.5822C202.37 75.5822 204.545 75.0862 205.831 74.491C206.671 74.0942 206.968 73.9454 207.709 73.4493C208.303 73.0525 208.847 72.6061 209.391 72.1101C209.687 71.8621 209.836 71.6141 210.083 71.3661C211.764 69.7292 213 66.0587 213 63.8266C213 60.9001 212.654 59.4617 211.467 57.1304C211.121 56.436 210.528 55.5927 209.984 54.9975C209.885 54.8487 209.885 54.8487 209.786 54.7495C209.341 54.2535 208.946 54.0055 208.253 53.063C207.413 51.9222 205.88 50.6822 204.595 49.9877L203.012 49.2437C201.925 48.7477 199.65 48.3013 198.464 48.3013C195.447 48.3013 194.656 48.4501 192.135 49.4421C190.701 49.9877 189.761 50.831 188.674 51.6742C188.328 51.9222 187.685 52.7158 187.388 53.1126C186.993 53.6087 186.449 54.4023 186.201 54.9975C186.152 55.0967 186.103 55.1463 186.053 55.2455C185.361 56.3863 184.718 58.7672 184.718 60.5529ZM191.789 71.9117C191.294 71.8621 189.712 70.6716 189.316 70.374C188.822 69.9772 187.586 68.7868 187.339 68.1916C187.19 68.142 186.745 67.3483 186.646 67.1995C185.954 65.9595 185.509 64.6698 185.262 63.2314C184.421 58.2712 186.449 53.4598 190.454 50.831C190.8 50.6326 192.382 49.6901 192.827 49.6405L194.162 49.1445C196.585 48.4997 199.353 48.4997 201.776 49.2437C202.271 49.3925 203.853 49.9381 204.15 50.2357C205.188 50.5829 206.918 52.1206 207.66 52.9638C211.072 56.7832 211.467 62.8842 209.044 67.1499C207.66 69.5804 205.386 71.6141 202.172 72.7053C199.057 73.7469 195.349 73.5981 192.332 72.2589C192.085 72.1101 191.887 72.0109 191.789 71.9117Z" fill="#1D1D1D"/>
<path fill-rule="evenodd" clip-rule="evenodd" d="M136.362 49.1442V72.8043C136.362 73.3003 136.807 73.3003 137.302 73.3003C137.4 73.5483 138.043 73.9947 138.241 74.2427C138.686 74.6891 138.983 74.8875 139.18 75.1851H143.878C144.026 75.1851 144.075 75.1355 144.075 74.9867V51.4755C144.075 51.1283 143.828 51.0291 143.63 50.8307L143.136 50.2851C142.79 49.8883 142.394 49.2434 141.999 49.2434C141.999 48.9458 141.949 48.6978 141.356 48.6978H136.956C136.609 48.6482 136.362 48.7474 136.362 49.1442ZM136.807 49.045H141.504C141.702 49.1442 141.653 48.8962 141.653 49.3426V72.9035H136.758C136.659 66.108 136.758 58.9158 136.758 52.0707V49.7891C136.758 49.4914 136.708 49.2434 136.807 49.045Z" fill="#1D1D1D"/>
<path fill-rule="evenodd" clip-rule="evenodd" d="M192.876 67.3979C193.074 67.4475 193.321 67.6955 193.47 67.7947C193.717 67.9435 193.865 68.0427 194.112 68.1915C194.607 68.4395 195.052 68.6379 195.546 68.7868C196.931 69.1836 197.771 69.0844 199.205 69.0348L200.392 68.7372C200.985 68.3899 201.43 68.4891 202.716 67.4475C206.473 64.521 205.485 59.7592 205.583 59.412C205.435 59.2136 205.336 58.4696 205.089 57.8744C204.15 55.4439 203.26 55.1959 202.666 54.4519C201.677 53.9558 201.578 53.559 199.996 53.1126C198.958 52.815 197.623 52.7158 196.486 52.9638C191.986 53.807 189.662 57.7752 190.206 62.2393C190.404 64.025 191.245 65.6618 192.481 66.8523L192.876 67.3979ZM197.87 68.6875C196.436 68.6875 194.805 68.2411 193.667 67.3979C193.519 67.2987 193.618 67.3979 193.519 67.2987C193.321 67.0011 192.926 65.8603 192.827 65.4634C192.58 64.4714 192.629 64.4714 192.58 63.6282C192.58 63.1818 192.481 63.5786 192.58 62.9338C192.679 62.4873 192.481 62.2889 192.827 61.0489C193.074 60.0569 193.371 59.4616 193.816 58.7176C194.409 57.676 195.349 56.8327 196.337 56.2375C198.266 55.0967 200.441 54.8983 202.567 55.4935C202.815 55.5431 203.309 55.7415 203.507 55.8903C204.1 56.4359 204.644 57.8248 204.891 58.5688C205.435 60.2057 205.287 62.4873 204.644 64.1242C204.347 64.8186 203.754 65.8603 203.161 66.4555C202.468 67.1003 201.925 67.6459 200.985 68.0427C200.392 68.2907 199.403 68.6379 198.76 68.6379C198.365 68.6379 198.216 68.6875 197.87 68.6875Z" fill="#1D1D1D"/>
<path fill-rule="evenodd" clip-rule="evenodd" d="M77.2769 72.5565L77.2274 72.7549C78.068 72.4077 77.8207 72.0605 79.0568 72.0605C79.8974 72.0605 80.7379 72.0605 81.5785 72.0605C81.974 71.118 82.3201 70.126 82.7157 69.134C82.9629 68.4892 83.309 68.4892 84.1001 68.4892H93.1978C93.5933 68.4892 93.8405 68.5388 94.1372 68.5884C94.335 68.6876 94.2361 68.5884 94.4833 68.9356C94.5327 69.0844 94.5822 69.2332 94.6811 69.382C94.8788 69.878 95.5711 71.8125 95.7688 72.0109H98.9827C98.9332 71.6141 98.0927 69.7292 97.8949 69.1836C97.4994 68.2411 97.1533 67.3979 96.8071 66.4555C95.5216 62.9834 93.6922 58.9656 92.4067 55.4935C91.7144 53.6582 90.9233 51.823 90.1817 50.0373L90.0334 49.8389H87.3139C87.1162 49.6901 87.1656 49.6405 87.0173 49.4421C86.9184 49.2933 86.869 49.1941 86.6712 49.1941C86.5228 49.3429 84.5945 54.3527 84.2979 54.9479L78.4635 69.5804C78.2163 70.126 77.3263 72.1597 77.2769 72.5565ZM80.7874 70.9196L80.6885 71.118C80.7874 71.4157 80.8863 71.5645 80.9357 71.8125C80.5896 71.9117 79.749 72.1101 79.4524 71.7629C78.9085 71.4653 79.0568 70.87 79.3041 70.2748C81.9246 64.0746 84.4957 57.7256 87.1656 51.5254C87.3634 51.1286 87.6106 50.3349 87.8578 50.1365C88.4017 49.7893 88.9456 49.9877 89.3906 50.1365C89.7367 50.3845 89.885 51.0294 90.0334 51.4262L93.8405 60.5529C95.1261 63.529 96.7577 67.2987 97.9444 70.374C98.0432 70.622 98.0927 70.7708 98.0927 71.0684L97.351 71.118V71.0684C97.4994 71.6637 97.5982 71.4653 97.6477 71.7629C97.3016 71.8621 96.4116 72.0605 96.1644 71.7133C95.7688 71.5149 95.5711 70.6716 95.3238 70.126C95.1755 69.7788 94.6811 68.7372 94.6316 68.39C94.335 68.2411 94.335 68.2908 93.9889 68.2908C92.555 68.2908 82.8146 68.3404 82.6662 68.2908C82.4685 68.1419 82.3201 67.5963 82.0235 67.6459L80.7874 70.9196Z" fill="#F9C155"/>
<path fill-rule="evenodd" clip-rule="evenodd" d="M65.4598 50.831V51.3766C65.3609 51.5254 65.3609 51.4758 64.9159 51.4758H55.5711C55.5216 52.5671 55.5216 61.049 55.6205 61.3466C55.7688 61.1482 55.8183 61.1482 56.016 60.9498C56.1644 60.801 56.2138 60.7018 56.4116 60.6026C56.6094 60.5034 63.4821 60.553 64.0259 60.6026C63.927 60.4538 64.1743 60.553 63.8282 60.4538C63.7787 60.4538 63.6304 60.4538 63.5809 60.4538C62.0976 60.4538 56.9555 60.4042 56.3127 60.553V52.2695C57.1038 52.4183 62.9876 52.3191 64.4709 52.3191C65.6081 52.3191 66.2015 52.4183 66.2509 50.9302C66.3003 50.335 66.1026 50.087 65.5587 49.9878C65.5587 49.9878 65.6081 49.9878 65.6081 50.0374C65.6081 50.087 65.6576 50.087 65.6576 50.087L65.7565 50.1862C65.707 50.4838 65.6081 50.583 65.4598 50.831Z" fill="#F6AF3C"/>
<path fill-rule="evenodd" clip-rule="evenodd" d="M172.357 62.3388C172.456 63.2812 172.357 68.1917 172.407 69.8782C172.407 70.275 172.506 70.4734 172.11 70.6222C171.813 70.6222 171.368 70.8206 171.072 70.9198C170.726 71.019 170.379 71.1182 169.984 71.1679C169.292 71.3167 168.451 71.4159 167.71 71.4655C167.611 71.6143 167.66 71.5647 167.265 71.5647C166.721 71.5647 164.397 71.6639 164.199 71.5647C164.15 71.8127 164.15 71.7631 164.15 72.0607H163.902L164.199 72.2095C165.287 72.4575 167.611 72.3087 168.649 72.2095C169.539 72.1103 172.011 71.5647 172.604 71.1679C173.297 70.7214 173.148 70.1758 173.148 69.2334V62.9836C173.148 62.5868 173.247 62.0411 172.951 61.8923V62.0411C172.753 62.1403 172.555 62.2395 172.357 62.3388Z" fill="#F6B140"/>
<path fill-rule="evenodd" clip-rule="evenodd" d="M27.0914 64.9179C27.042 65.3147 27.1903 65.3643 27.2892 65.662L26.9925 65.7612C27.4375 65.7612 27.0914 65.7116 27.2398 65.9596C26.5476 65.7116 26.3992 65.9596 25.9048 65.8108L25.9542 65.91L27.3881 65.9596C27.6353 65.8604 27.5859 65.8108 27.7342 65.6123C27.5859 65.8604 27.5364 65.8604 27.1903 65.91C27.2892 65.6123 27.1903 65.7116 27.4375 65.4635C27.7342 65.1659 28.5747 63.7771 28.8714 63.3803L30.7997 60.553C30.8986 60.4042 30.948 60.305 31.0469 60.1562L32.728 57.6761C32.7775 57.6265 32.8269 57.5273 32.8764 57.4777L34.7058 54.8488C34.9035 54.5512 34.7552 54.6008 35.1508 54.5512C35.1508 54.204 35.5463 53.0631 35.6452 52.5671C35.6946 52.2695 35.6946 52.4183 35.5958 52.3191C35.2991 52.6663 34.8047 53.4599 34.508 53.9063L27.3387 64.5211C27.1409 64.8187 27.1409 64.7195 27.0914 64.9179Z" fill="#F8BC4E"/>
<path fill-rule="evenodd" clip-rule="evenodd" d="M160.194 67.5466C160.342 67.745 160.342 67.745 160.54 67.8938C161.232 68.4394 162.815 69.4315 163.556 69.4315C164.001 69.5307 164.298 69.6299 164.743 69.6299C164.743 69.1834 164.693 69.0842 165.188 69.1338C165.534 69.1338 165.831 69.2331 166.177 69.1338C166.127 69.0842 165.04 68.985 164.693 68.8858C162.567 68.4394 161.43 67.3978 161.134 67.2986H160.886L160.491 67.6458L160.194 67.5466Z" fill="#F19714"/>
<path fill-rule="evenodd" clip-rule="evenodd" d="M63.8776 61.3962C63.7787 61.3466 63.9765 61.3466 63.6798 61.3466H59.7738C58.4882 61.3466 56.8566 61.4458 55.6205 61.3466C55.5216 61.049 55.5216 52.5671 55.5711 51.5255H64.9159C65.3115 51.5255 65.3115 51.5751 65.4598 51.4263H55.5216C55.4227 51.7735 55.4227 60.7018 55.5216 61.3962H63.8776Z" fill="#A06C1D"/>
<path fill-rule="evenodd" clip-rule="evenodd" d="M65.7565 70.5721C65.6576 70.4729 65.7565 70.5225 65.6082 70.4729C65.6082 70.4729 65.4598 70.4729 65.4104 70.4729H64.4709C61.8504 70.4729 57.796 70.5721 55.5711 70.4729C55.4722 70.1753 55.5216 62.983 55.5216 62.0406H63.6304C63.8282 62.0406 63.5315 62.0406 63.7293 62.0406L63.8282 61.991H55.4722C55.3733 62.3382 55.3733 70.2249 55.4722 70.5721H65.7565Z" fill="#8D601C"/>
<path fill-rule="evenodd" clip-rule="evenodd" d="M15.0765 71.6637C15.2743 72.011 15.8676 71.9118 16.2632 71.9118V71.1677H15.571L15.2249 71.7133L15.0765 71.6637Z" fill="#F5A72C"/>
<path fill-rule="evenodd" clip-rule="evenodd" d="M170.676 52.7656L171.319 53.0136L172.011 51.3767C171.912 51.1783 172.159 51.2279 171.813 51.2279C171.764 51.5751 171.616 52.0216 171.467 52.22C171.171 52.5672 170.973 52.5176 170.676 52.7656Z" fill="#FBC968"/>
<path fill-rule="evenodd" clip-rule="evenodd" d="M65.806 70.5226C66.1026 70.4234 66.251 70.3242 66.4487 70.225L66.3993 70.0762C66.3499 69.8282 66.2015 69.8282 66.0037 69.729C66.0037 69.729 66.0532 69.8282 66.1026 69.8778L65.806 70.5226Z" fill="#F4A125"/>
<path fill-rule="evenodd" clip-rule="evenodd" d="M13.445 72.1102C13.3956 71.6142 14.2856 61.2475 14.335 60.6027L15.3239 49.0455H18.7849C19.0322 49.1943 19.1805 49.5415 19.3288 49.7399L22.7899 54.9977C23.4821 56.0393 24.1249 57.0313 24.8171 58.0234L26.3004 60.305C26.5476 60.6523 26.6465 60.9995 26.8443 60.9499C27.1409 60.4538 27.5365 59.9082 27.8331 59.4122L33.717 50.5335C33.9147 50.2855 34.0136 50.0375 34.2114 49.7895L34.7058 49.0951C34.8047 48.9958 34.6069 49.0455 34.9531 48.9958H38.2658C38.4636 49.0951 38.4636 50.1367 38.4636 50.3847C38.513 50.9303 38.5624 51.3767 38.5624 51.9224L39.3041 60.8507C39.5019 62.8347 39.6008 64.8684 39.7985 66.8525C39.9963 68.7869 40.1941 70.9198 40.2435 72.8543H35.2003V72.4575C35.2003 71.4158 35.0519 70.1262 35.0025 69.1341C34.9036 68.0429 34.3103 59.561 34.3597 59.1146C34.2608 58.9658 34.2114 57.9242 34.2114 57.7258C33.7664 57.9738 28.7231 66.0092 28.0309 66.7533H25.7071C25.4104 66.7037 25.6082 66.7533 25.5093 66.6045L19.4772 57.6761C19.3783 57.7754 19.4277 57.6265 19.3783 57.9242L19.131 61.4459C19.0816 62.7355 18.9827 63.9756 18.8838 65.2156C18.7355 67.7453 18.5377 70.3246 18.3894 72.8543H13.3461C13.3956 72.7055 13.3461 72.2095 13.445 72.1102Z" fill="#FDB001"/>
<path fill-rule="evenodd" clip-rule="evenodd" d="M16.3127 71.0684L17.6971 52.3685V52.0213C17.8949 52.1701 21.8998 58.1223 22.1471 58.4696C23.6304 60.652 25.0642 62.7849 26.5476 64.9674H26.9431L27.042 64.9178C27.0914 64.7194 27.042 64.8186 27.2398 64.521L34.508 53.8566C34.8047 53.4102 35.2991 52.6166 35.5958 52.2693L35.6947 52.0709C35.843 52.2197 36.0902 56.6343 36.0902 56.7831C36.2385 58.3208 36.3374 59.9576 36.4363 61.4953C36.5846 64.6698 36.9307 67.8443 37.1285 71.0188C37.3263 71.118 37.623 71.0684 37.8702 71.0684L37.8207 70.4732C37.7713 69.0347 37.623 67.3483 37.4746 65.9098C37.3263 64.3722 37.2769 62.8345 37.1285 61.2472C37.0791 60.7016 36.3869 52.5174 36.4363 52.0213C36.3374 51.9221 36.288 50.9797 36.288 50.7317H35.843C35.4474 51.1781 35.0024 51.9221 34.7058 52.4181L27.932 62.6361C27.7342 62.9337 26.9925 64.1242 26.7453 64.273L26.6464 64.0249C26.4487 63.8761 20.3176 54.6998 19.9221 54.1542C19.6254 53.7078 17.8455 51.1781 17.7466 50.8805H17.2521L15.6205 71.118L16.3127 71.0684Z" fill="#1D1D1D"/>
<path fill-rule="evenodd" clip-rule="evenodd" d="M57.6477 59.6106H65.6576C65.8554 59.7098 65.806 59.7594 65.806 60.057C65.806 61.0987 65.8554 62.8843 65.806 63.7772H57.6477V68.7373H67.6354V72.9039H52.7528C52.7034 68.9357 52.7528 64.918 52.7528 60.9499V49.6903C52.7528 49.5911 52.7528 49.4423 52.7528 49.2935C52.7528 49.1943 52.7528 49.1943 52.7528 49.0951L52.8023 48.9958H67.2398C67.3882 49.0455 67.2893 48.9462 67.3387 49.0951V53.1624H57.6477V59.6106Z" fill="#FDB001"/>
<path fill-rule="evenodd" clip-rule="evenodd" d="M65.7565 71.0683V70.5227H55.5216C55.4227 70.225 55.4227 62.3384 55.5216 61.9416H63.8776V61.3959H55.5216C55.4227 60.7015 55.4227 51.8228 55.5216 51.426H65.4598V50.8804H54.8294V71.1675L65.7565 71.0683Z" fill="#1D1D1D"/>
<path fill-rule="evenodd" clip-rule="evenodd" d="M77.2769 72.5561C77.3264 72.1593 78.2164 70.076 78.4636 69.58L84.3474 54.9971C84.5946 54.3523 86.5724 49.3425 86.7207 49.2433C86.8196 49.0945 86.7207 49.1441 86.9185 49.0945H90.6267C90.874 49.2433 90.9234 49.5905 91.0223 49.8385L97.9444 66.9511C98.1916 67.5463 100.219 72.5065 100.318 72.9529H95.3239L95.225 72.7545L93.9395 69.3816H83.7046L82.3696 72.9033H77.2769C77.178 72.6553 77.178 72.7049 77.2769 72.5561Z" fill="#FDB001"/>
<path fill-rule="evenodd" clip-rule="evenodd" d="M80.7874 70.9195L82.073 67.745C82.1224 67.5465 82.0235 67.6458 82.2213 67.5961H95.1261C95.3239 67.6954 95.3239 67.7946 95.4228 67.993L96.7083 71.1179C97.5489 71.1179 97.3511 71.1675 97.4005 70.9691L88.9951 50.8804H88.4512L79.9963 71.1675H80.6885L80.7874 70.9195ZM82.5674 66.7529L88.649 51.8724C88.7479 51.7732 88.5501 51.7732 88.7479 51.7732L94.9778 66.9513H82.4191L82.5674 66.7529Z" fill="#1D1D1D"/>
<path fill-rule="evenodd" clip-rule="evenodd" d="M124.941 49.0451C125.089 49.1443 125.04 48.8467 125.04 49.2435V53.2116H118.711V72.8539H113.964C113.667 72.8539 113.915 72.8539 113.816 72.7547V53.2116H107.536C107.388 52.914 107.487 49.3427 107.487 49.0451H124.941Z" fill="#FDB001"/>
<path fill-rule="evenodd" clip-rule="evenodd" d="M109.415 51.4757C109.811 51.3765 115.052 51.4261 115.843 51.4261C115.991 51.5253 115.991 51.4261 115.991 51.9717C115.942 54.9478 115.991 58.2711 115.991 61.2472C115.991 64.5209 115.942 67.7946 115.991 71.0684H116.634L116.684 51.4757C116.782 51.3765 116.585 51.3765 116.931 51.3765H123.26V50.7812H109.465L109.415 51.4757Z" fill="#1D1D1D"/>
<path fill-rule="evenodd" clip-rule="evenodd" d="M136.807 49.0945H141.504C141.702 49.1937 141.653 48.9457 141.653 49.3921V72.9529H136.758C136.659 66.1575 136.758 58.9652 136.758 52.1202V49.8385C136.758 49.5409 136.708 49.2929 136.807 49.0945Z" fill="#FDB001"/>
<path fill-rule="evenodd" clip-rule="evenodd" d="M139.527 71.1179V50.8308H138.884V71.1179H139.527Z" fill="#1D1D1D"/>
<path fill-rule="evenodd" clip-rule="evenodd" d="M161.133 67.3975C161.43 67.4967 162.567 68.5383 164.693 68.9847C165.04 69.0343 166.127 69.1335 166.177 69.2327C166.671 69.1335 167.462 69.1831 168.006 69.1335C168.599 69.0839 169.044 68.9847 169.588 68.8359V64.8182H164.743V60.6517H174.434V71.8616C169.737 73.9449 163.111 74.1433 158.513 71.1672C158.216 70.9688 157.969 70.7704 157.722 70.572C157.475 70.3736 157.129 70.1256 156.98 69.8776L156.733 69.6792C156.634 69.58 156.585 69.4808 156.436 69.3816C155.843 68.6871 155.497 68.2903 154.953 67.4471C154.508 66.7031 153.816 65.215 153.667 64.1734C153.272 63.1317 153.222 60.5524 153.42 59.2628C153.915 55.7411 155.695 52.8146 158.513 50.9297C158.859 50.6817 159.848 50.0369 160.243 50.0369C160.54 49.6401 162.567 49.1441 163.21 48.9952C165.435 48.5488 168.204 48.648 170.379 49.1937C171.072 49.3425 172.901 49.9873 173.198 50.2849L173.346 50.3841C173.198 50.8305 172.061 53.9554 171.863 54.253C171.467 54.1538 170.874 53.8562 170.429 53.6578C168.797 53.0626 166.869 52.8642 165.138 53.013C160.441 53.4594 157.821 57.7252 158.365 62.1893C158.513 63.4293 158.81 64.2726 159.353 65.2646C159.601 65.711 159.897 66.0582 160.194 66.4551C160.342 66.6535 160.491 66.8023 160.688 67.0007C160.837 67.0503 160.985 67.1495 161.133 67.3975Z" fill="#FDB001"/>
<path fill-rule="evenodd" clip-rule="evenodd" d="M158.958 69.0344C159.106 69.084 159.551 69.4312 159.749 69.58C162.221 71.3161 164.792 71.5641 167.759 71.4649C168.501 71.4153 169.292 71.3161 170.033 71.1673C170.379 71.1177 170.775 71.0185 171.121 70.9193C171.418 70.8201 171.863 70.6217 172.159 70.6217C172.258 70.5225 172.209 70.5225 172.407 70.4729V62.3382H166.869L166.82 62.9334H171.714V70.0265C170.083 70.8697 166.671 71.0185 164.644 70.7209C163.062 70.4729 161.529 69.8776 160.293 69.0344L159.452 68.3896C159.403 68.34 159.354 68.34 159.304 68.2904C159.156 68.1416 159.255 68.2408 159.205 68.1416L158.909 67.8936C158.81 67.7944 158.76 67.6952 158.612 67.596C158.117 67.0503 157.425 66.1079 157.178 65.4135C156.931 65.1655 156.535 63.8758 156.436 63.4294C155.942 61.1477 156.14 58.4692 157.079 56.4852C157.969 54.5507 159.354 53.1619 161.035 52.269C161.43 52.0706 162.518 51.4754 162.963 51.525C163.111 51.3762 163.161 51.4258 163.408 51.3266C164.693 51.029 165.682 50.9794 167.067 51.029C167.71 51.0786 168.501 51.1282 169.094 51.277C169.489 51.3762 170.676 51.7234 170.923 51.7234L171.072 51.1778C168.896 50.1858 165.188 50.0866 162.815 50.781C160.293 51.525 158.414 53.0627 157.277 54.8483C154.904 58.5189 154.904 64.2726 157.87 67.6456C158.513 68.4392 158.266 68.1416 158.909 68.7368L158.958 69.0344Z" fill="#1D1D1D"/>
<path fill-rule="evenodd" clip-rule="evenodd" d="M207.66 52.9144C206.918 52.0711 205.237 50.5335 204.15 50.1863C203.902 49.9383 202.271 49.343 201.776 49.1942C199.353 48.4998 196.585 48.4502 194.162 49.095L192.827 49.5911C192.332 49.6407 190.75 50.5831 190.454 50.7815C186.449 53.4104 184.421 58.2217 185.262 63.1819C185.509 64.6204 185.954 65.91 186.646 67.1501C186.745 67.3485 187.19 68.0925 187.339 68.1421C187.586 68.7373 188.822 69.9277 189.316 70.3246C189.663 70.6222 191.245 71.8126 191.789 71.8622C191.937 72.011 192.085 72.0606 192.332 72.1598C195.398 73.4991 199.106 73.6479 202.172 72.6062C205.386 71.515 207.66 69.4813 209.044 67.0508C211.467 62.8347 211.072 56.7337 207.66 52.9144ZM202.716 67.4477C201.43 68.4397 200.985 68.3405 200.392 68.7373L199.205 69.0349C197.771 69.1341 196.98 69.2333 195.546 68.7869C195.052 68.6381 194.607 68.4397 194.112 68.1917C193.865 68.0925 193.717 67.9437 193.47 67.7949C193.321 67.6957 193.074 67.4477 192.876 67.3981L192.382 66.902C191.146 65.7116 190.355 64.0747 190.108 62.2891C189.564 57.8249 191.937 53.8568 196.387 53.0136C197.524 52.8152 198.859 52.9144 199.897 53.1624C201.48 53.6088 201.578 53.956 202.567 54.5016C203.161 55.2456 204.051 55.4937 204.99 57.9241C205.237 58.5194 205.336 59.2634 205.485 59.4618C205.435 59.809 206.424 64.5212 202.716 67.4477Z" fill="#FDB001"/>
<path fill-rule="evenodd" clip-rule="evenodd" d="M192.975 70.5226C193.272 70.5722 194.113 70.9691 194.607 71.1179C195.2 71.3163 195.794 71.4155 196.486 71.5147C198.167 71.7131 199.106 71.5147 200.639 71.2667C200.985 71.1179 201.43 71.0187 201.826 70.8698C202.914 70.473 203.952 69.8778 204.792 69.1338C207.363 66.9017 208.698 63.6776 208.402 60.0567C208.155 56.9318 206.968 55.6917 206.918 55.2453C206.721 55.0965 206.77 55.0965 206.622 54.8981C205.583 53.3604 203.705 51.7732 202.024 51.2276C199.452 50.1363 195.991 50.1859 193.42 51.3268C191.047 52.3684 189.267 54.0549 188.229 56.4357C187.042 59.0646 186.943 62.388 188.08 65.116C188.822 66.9513 189.959 68.3898 191.443 69.481C191.986 69.8778 192.234 70.0266 192.827 70.3242C192.926 70.4234 192.926 70.4234 192.975 70.5226ZM193.074 52.2692L193.321 52.0708C193.42 52.0212 193.47 52.0212 193.519 51.9716C194.656 51.4756 196.041 51.1284 197.277 51.0788C198.117 51.0292 198.958 51.0788 199.799 51.2276C200.244 51.3268 201.529 51.6244 201.776 51.8228C202.37 51.9716 203.21 52.5172 203.655 52.8148C205.287 53.9557 206.523 55.4933 207.215 57.5766C208.303 60.7511 207.66 64.2232 206.127 66.5545C203.012 71.3163 196.189 72.2091 191.591 68.7866L190.998 68.2906C190.849 68.1914 190.948 68.241 190.849 68.0922C190.701 68.0425 190.701 67.9929 190.602 67.8937C190.503 67.7945 190.454 67.6953 190.355 67.5961C189.069 66.0089 188.13 64.1736 187.981 61.9911C187.685 59.7095 188.328 57.527 189.218 55.8901C189.663 55.0965 190.305 54.2533 190.849 53.7573C191.146 53.5092 192.58 52.3188 193.074 52.2692Z" fill="#1D1D1D"/>
<path fill-rule="evenodd" clip-rule="evenodd" d="M92.2088 65.2648C92.1594 64.8184 91.5661 63.4295 91.3683 62.9335C91.0716 62.1399 90.775 61.4455 90.4783 60.6519L89.1433 57.2293C88.995 56.8821 88.7972 56.3861 88.6983 56.0885C88.55 56.0389 88.5994 56.0885 88.4017 56.5349L86.8195 60.6022C86.5228 61.3463 86.2261 62.1399 85.9295 62.8839C85.7317 63.4295 85.1878 64.6696 85.0395 65.2152L92.2088 65.2648Z" fill="#1D1D1D"/>
<path fill-rule="evenodd" clip-rule="evenodd" d="M90.0828 60.9495L91.665 64.868H88.6489L89.3906 62.9335C89.44 62.7351 89.4895 62.6359 89.5389 62.4871C89.6378 62.1895 90.0828 61.1479 90.0828 60.9495Z" fill="white"/>
</g>
<defs>
<clipPath id="clip0_602_1888">
<rect width="200" height="48.1633" fill="white" transform="translate(13 27.4185)"/>
</clipPath>
</defs>
</svg>
