<svg width="304" height="149" viewBox="0 0 304 149" fill="none" xmlns="http://www.w3.org/2000/svg">
<g filter="url(#filter0_d_1_167)">
<path d="M263.92 101.905L252.713 109L241.506 101.905L230.309 109L219.102 101.905L207.905 109L196.718 101.905L185.521 109L174.324 101.905L163.127 109L151.93 101.905L140.733 109L129.536 101.905L118.349 109L107.152 101.905L95.9551 109L84.7681 101.905L73.5711 109L62.3841 101.905L51.1871 109L40.0001 101.905L40 0H264L263.92 101.905Z" fill="white"/>
</g>
<g clip-path="url(#clip0_1_167)">
<path fill-rule="evenodd" clip-rule="evenodd" d="M163.21 51.3766L163.26 51.2278V50.831L163.853 50.5334L163.803 50.335C163.754 50.1366 163.606 50.1366 163.457 50.0374C163.507 50.335 163.358 50.3846 163.26 50.6326C163.161 50.8806 163.26 51.079 163.21 51.3766Z" fill="#FDB001"/>
<path fill-rule="evenodd" clip-rule="evenodd" d="M179.576 50.8806C179.823 50.7814 179.922 50.6822 180.169 50.583V50.3846C180.07 50.1366 179.922 50.087 179.625 49.9878C179.724 50.0374 179.576 50.0374 179.823 50.1366C179.774 50.4838 179.625 50.4838 179.576 50.8806Z" fill="#FDB001"/>
<path fill-rule="evenodd" clip-rule="evenodd" d="M153.816 53.2119C154.014 53.1623 154.261 53.0135 154.459 52.9143V52.7159C154.36 52.5175 154.261 52.4183 153.964 52.3687L154.112 52.5671L153.816 53.2119Z" fill="#FDB001"/>
<path fill-rule="evenodd" clip-rule="evenodd" d="M212.357 62.3386C212.555 62.2393 212.753 62.0905 212.951 62.0409V61.8921C212.901 61.6937 212.753 61.5945 212.555 61.5449C212.604 61.5945 212.604 61.6441 212.654 61.6937L212.357 62.3386Z" fill="#FDB001"/>
<path fill-rule="evenodd" clip-rule="evenodd" d="M103.927 61.3961C104.125 61.2969 104.273 61.1481 104.52 61.0489L104.471 60.9001C104.422 60.7017 104.323 60.7017 104.174 60.6521C104.273 60.9993 103.977 61.0489 103.927 61.3961Z" fill="#FDB001"/>
<path fill-rule="evenodd" clip-rule="evenodd" d="M66.2509 61.6442C66.3004 61.6938 66.2509 61.7434 66.4487 61.793C66.5476 61.8426 66.6959 61.8426 66.7948 61.8426V61.1482C66.597 61.297 66.5476 61.4458 66.4487 61.6938L66.2509 61.6442Z" fill="#FDB001"/>
<path fill-rule="evenodd" clip-rule="evenodd" d="M148.871 52.0711C148.921 52.1703 148.871 52.1703 149.119 52.2199C149.267 52.2695 149.316 52.2695 149.465 52.2695C151.195 52.3191 153.47 52.1703 155.052 52.2695L155.151 71.1678V52.3191C155.349 51.9719 155.695 51.8231 155.843 51.4759C155.052 51.4263 149.811 51.3767 149.415 51.5255C149.218 51.7239 149.168 51.8727 149.069 52.1207L148.871 52.0711Z" fill="#FDB001"/>
<path fill-rule="evenodd" clip-rule="evenodd" d="M202.963 51.5747L203.062 51.7236H203.606C203.606 52.2692 203.556 52.0212 205.138 51.8724C206.325 51.7732 208.006 51.922 209.193 52.17C209.786 52.2692 210.33 52.666 210.874 52.6164L210.923 51.8228C210.726 51.8228 209.539 51.4259 209.094 51.3763C208.501 51.2771 207.71 51.1779 207.067 51.1283C205.682 51.0787 204.693 51.1283 203.408 51.4259C203.161 51.4259 203.111 51.4259 202.963 51.5747Z" fill="#FDB001"/>
<path fill-rule="evenodd" clip-rule="evenodd" d="M230.849 68.1416C231.245 68.1912 231.541 68.3896 231.739 68.0424L231.888 68.092C231.838 67.9928 231.888 68.0424 231.789 67.9432C231.739 67.8936 231.69 67.844 231.64 67.7944L230.948 67.1495C230.651 66.8023 230.404 66.5543 230.157 66.1575C229.761 65.6119 229.168 64.4215 229.02 63.7766C228.822 63.727 228.822 63.7766 228.674 63.8262L228.229 63.231C228.229 63.1318 228.13 62.6854 228.13 62.5862C228.08 62.3878 228.08 62.5862 228.031 62.2886C227.982 61.8918 227.982 62.0902 227.883 61.991C227.982 64.1734 228.921 66.0087 230.256 67.596C230.355 67.6952 230.404 67.7944 230.503 67.8936C230.701 68.0424 230.701 68.092 230.849 68.1416Z" fill="#FDB001"/>
<path fill-rule="evenodd" clip-rule="evenodd" d="M76.8319 71.7629C77.0791 72.011 77.6725 71.9118 78.0186 71.9118V71.1677L77.3263 71.2173C77.0791 71.4157 77.0297 71.7629 76.8319 71.7629Z" fill="#FDB001"/>
<path fill-rule="evenodd" clip-rule="evenodd" d="M178.389 71.7134C178.488 71.8126 178.34 71.763 178.538 71.8622C178.587 71.9118 178.686 71.8622 178.736 71.8622L179.477 71.8126V71.0686L178.834 71.1182L178.538 71.7134H178.389Z" fill="#FDB001"/>
<path fill-rule="evenodd" clip-rule="evenodd" d="M155.497 71.7134C155.596 71.8622 155.398 71.763 155.645 71.8622C155.695 71.9118 155.794 71.8622 155.843 71.8622L156.535 71.8126L156.585 71.0686L155.942 71.1182L155.645 71.7134H155.497Z" fill="#FDB001"/>
<path fill-rule="evenodd" clip-rule="evenodd" d="M94.3845 71.7129C94.4833 71.8617 94.2856 71.7625 94.5328 71.8617C94.5822 71.9113 94.6811 71.8617 94.78 71.8617H105.757L105.806 71.1177H94.9283C94.8295 71.3161 94.7306 71.5145 94.6317 71.7129H94.3845Z" fill="#FDB001"/>
<path fill-rule="evenodd" clip-rule="evenodd" d="M97.1039 60.2054C97.1533 60.255 97.0544 60.3542 97.45 60.4038H104.817V62.8839C104.965 62.7847 104.916 62.7351 104.916 62.2886V60.4038C105.114 60.0566 105.46 59.9078 105.608 59.5605H97.5983C97.4994 59.759 97.3017 60.0566 97.2522 60.2054H97.1039Z" fill="#FDB001"/>
<path fill-rule="evenodd" clip-rule="evenodd" d="M124.693 65.8604L124.792 66.0092H132.209V65.2156L125.188 65.3148C125.089 65.414 125.04 65.5628 124.99 65.662C124.891 65.8108 124.941 65.91 124.693 65.8604Z" fill="#FDB001"/>
<path fill-rule="evenodd" clip-rule="evenodd" d="M119.502 71.7625C119.749 72.1097 120.639 71.9113 120.985 71.8121C120.936 71.5641 120.787 71.4153 120.738 71.1177L119.996 71.2169C119.848 71.4153 119.749 71.8121 119.502 71.7625Z" fill="#FDB001"/>
<path fill-rule="evenodd" clip-rule="evenodd" d="M136.214 71.7625C136.461 72.1097 137.351 71.9113 137.697 71.8121C137.697 71.5145 137.549 71.7129 137.401 71.1177L136.659 71.2169L136.362 71.8121L136.214 71.7625Z" fill="#FDB001"/>
<path fill-rule="evenodd" clip-rule="evenodd" d="M66.0532 65.5626C66.152 65.6618 66.0532 65.6122 66.152 65.6618C66.3004 65.761 66.7454 65.8106 66.9926 65.7114L67.2893 65.6122C67.1904 65.3642 67.042 65.3146 67.0915 64.8682L66.9926 64.9178L66.597 65.017C66.5476 65.1162 66.4982 65.1658 66.4487 65.265C66.3498 65.4138 66.3498 65.4138 66.3004 65.5626H66.0532Z" fill="#FDB001"/>
<path fill-rule="evenodd" clip-rule="evenodd" d="M129.045 55.2948L129.193 55.4436C129.094 55.5429 129.094 55.5925 128.946 55.6917C128.797 55.8405 128.797 55.8405 128.748 56.0885C128.797 56.4357 129.045 56.8821 129.193 57.2293L130.528 60.6518C130.825 61.3959 131.072 62.1399 131.418 62.9335C131.616 63.4295 132.209 64.8184 132.258 65.2648C132.654 65.116 132.555 65.1656 133 65.1656C132.951 64.5208 131.912 62.1895 131.665 61.4455C131.517 61.0486 131.665 61.247 131.714 61.1974L130.478 58.0725C130.281 57.5765 130.083 57.0805 129.836 56.5349C129.737 56.2869 129.638 55.9893 129.539 55.7909C129.44 55.5925 129.292 55.2452 129.143 55.0964L129.193 55.1956C129.242 55.394 129.193 55.1956 129.045 55.2948Z" fill="#F3AD39"/>
<path fill-rule="evenodd" clip-rule="evenodd" d="M133.841 69.3324L135.126 72.7053C135.225 72.7549 135.225 72.7053 135.225 72.7549L135.769 72.0109C135.571 71.8125 134.879 69.8284 134.681 69.382C134.632 69.2332 134.582 69.0844 134.483 68.9356C134.236 68.5388 134.335 68.638 134.137 68.5884C134.137 68.886 134.088 68.7868 133.989 68.9852C133.939 69.1836 133.939 69.1836 133.841 69.3324Z" fill="#F3AD39"/>
<path fill-rule="evenodd" clip-rule="evenodd" d="M106.449 49.9377V52.3186H97.9444C97.6971 52.3186 97.5488 52.269 97.4005 52.4674C98.6366 52.2194 104.866 52.5666 106.449 52.4178C106.597 52.021 106.449 50.4833 106.498 49.9377C106.696 49.5905 107.042 49.4913 107.19 49.0945H92.7528C92.7528 49.3921 92.7033 48.9953 93.2472 49.5409C93.3955 49.6897 93.445 49.7889 93.6922 49.8881H106.004C106.399 49.8385 106.35 49.8385 106.449 49.9377Z" fill="#FDB001"/>
<path fill-rule="evenodd" clip-rule="evenodd" d="M122.073 67.7448C122.37 67.6952 122.518 68.1912 122.716 68.3896C122.864 68.4392 132.604 68.4392 134.038 68.3896C134.384 68.3896 134.434 68.34 134.681 68.4888C134.632 68.1416 135.027 67.9432 135.077 67.5959H122.172C122.023 67.6455 122.172 67.4967 122.073 67.7448Z" fill="#FDB001"/>
<path fill-rule="evenodd" clip-rule="evenodd" d="M97.0544 69.3324C97.3016 69.6301 97.6477 69.5805 98.1421 69.5805H106.745V72.0109V72.0605C106.894 71.9613 106.844 72.0605 106.844 71.7629V70.8205C106.844 69.3324 106.696 69.7789 107.536 68.8364H97.6477C97.4499 69.2332 97.6477 68.9852 97.3016 69.382L97.0544 69.3324Z" fill="#FDB001"/>
<path fill-rule="evenodd" clip-rule="evenodd" d="M204.941 64.4715L204.842 60.6521C205.04 60.8009 205.435 61.049 205.583 61.2474C205.633 61.3466 205.583 61.297 205.633 61.3962H213.593C213.643 61.3466 213.643 61.3962 213.692 61.297L213.989 60.9994C214.137 60.8505 214.236 60.7513 214.335 60.6025H204.792C204.792 61.1978 204.693 64.3723 204.891 64.6699L204.941 64.4715Z" fill="#FDB001"/>
<path fill-rule="evenodd" clip-rule="evenodd" d="M156.585 71.1181C156.684 71.0685 156.733 71.267 156.733 70.6221V61.3962C156.733 58.1225 156.832 54.7992 156.733 51.5255L157.623 52.2199H163.161V51.4263C162.666 51.5751 160.59 51.4759 159.897 51.4759C158.909 51.4759 157.574 51.3767 156.634 51.4759L156.585 71.1181Z" fill="#FDB001"/>
<path fill-rule="evenodd" clip-rule="evenodd" d="M206.177 63.4798C206.226 63.579 206.177 63.579 206.325 63.6782C206.424 63.7278 206.473 63.7278 206.622 63.7278C207.265 63.6782 210.38 63.6286 210.825 63.7774C211.022 63.579 211.319 63.2318 211.517 63.0333C211.171 62.9341 207.166 62.9837 206.721 63.0333C206.721 63.1326 206.671 63.2318 206.572 63.331C206.523 63.3806 206.523 63.4302 206.473 63.4798C206.424 63.5294 206.424 63.5294 206.375 63.579L206.177 63.4798Z" fill="#FDB001"/>
<path fill-rule="evenodd" clip-rule="evenodd" d="M130.132 50.0865C130.083 49.6897 130.478 49.4913 130.577 49.0945H126.869C126.671 49.1441 126.77 49.0945 126.671 49.2433C126.82 49.2433 126.869 49.3425 127.017 49.4913C127.166 49.6897 127.166 49.7393 127.314 49.8881H130.033L130.132 50.0865Z" fill="#FDB001"/>
<path fill-rule="evenodd" clip-rule="evenodd" d="M77.623 50.3351C77.4747 49.4918 77.9691 49.6902 78.2163 49.0454H74.9036C74.5575 49.095 74.8047 49.0454 74.6564 49.1446C74.9036 49.343 74.953 49.4918 75.1508 49.839C75.5958 49.9382 76.9308 49.8886 77.4747 49.8886L77.623 50.3351Z" fill="#FDB001"/>
<path fill-rule="evenodd" clip-rule="evenodd" d="M58.4883 49.9873C58.4883 49.6401 58.7355 49.4913 58.785 49.0945H55.3239C55.3239 49.2433 55.2744 49.2433 55.4228 49.2433C55.5711 49.4417 55.8678 49.6897 56.115 49.8881C56.7083 49.9377 58.0433 49.6897 58.4883 49.9873Z" fill="#FDB001"/>
<path fill-rule="evenodd" clip-rule="evenodd" d="M239.205 68.9846C239.156 69.0342 239.156 69.0342 239.007 69.0838C238.711 69.183 236.634 69.183 236.288 69.183V69.6294C235.942 69.5798 235.744 69.4806 235.447 69.5302C235.546 69.6294 235.349 69.5798 235.645 69.6294C235.744 69.679 235.794 69.6294 235.892 69.679C237.129 69.8775 237.672 69.8279 238.958 69.7783V69.2326C239.452 69.2326 239.601 69.0342 240.046 68.9846L240.145 68.8854L240.293 68.687L239.205 68.9846Z" fill="#FDB001"/>
<path fill-rule="evenodd" clip-rule="evenodd" d="M228.476 68.291C229.119 69.283 231.195 70.8206 232.481 71.3167C232.53 71.3663 232.58 71.3663 232.679 71.4159C232.777 71.4655 232.728 71.4655 232.778 71.5151C233.025 71.5151 233.42 71.7135 233.667 71.8127C235.398 72.4079 237.178 72.5567 239.007 72.4079C239.65 72.3583 240.59 72.1103 241.134 72.1103C241.035 71.9119 241.183 71.8623 240.738 72.0111L239.749 72.2095C238.562 72.1103 237.771 72.7551 234.557 71.9119C233.766 71.7135 233.124 71.4655 232.481 71.1183C232.036 70.8702 231.294 70.4734 230.899 70.1262L230.701 69.9278C230.108 69.6302 229.02 68.3406 228.624 67.7949C228.08 67.0509 227.536 66.0589 227.141 64.9676C226.004 61.5947 226.35 57.577 228.328 54.5513C228.674 54.0057 229.316 53.1624 229.761 52.7656C230.256 52.2696 230.948 51.724 231.541 51.3272C232.728 50.5831 234.953 49.6903 236.288 49.6407C236.14 49.4919 236.436 49.5911 236.09 49.5415L235.398 49.6407C233.42 49.9879 231.838 50.7319 230.256 51.8728C230.108 51.972 230.108 52.0216 229.959 52.1208L228.921 53.1128C228.476 53.6584 228.08 54.0057 227.685 54.7993C227.586 55.0473 227.438 55.1961 227.339 55.4441C226.201 57.577 225.756 59.8587 226.152 62.8348C226.399 64.7196 226.993 65.7117 227.784 67.1501C227.883 67.4973 228.328 67.8941 228.476 68.291Z" fill="#FDB001"/>
<path fill-rule="evenodd" clip-rule="evenodd" d="M238.76 49.5907C239.65 49.6403 241.628 50.0867 242.221 50.3843C243.655 50.6819 245.831 52.4676 246.82 53.7572C246.968 53.9556 247.166 54.2533 247.265 54.4021C247.265 54.4021 247.314 54.4021 247.314 54.4517C247.363 54.5509 247.314 54.4021 247.512 54.6501C247.611 54.7493 247.611 54.7989 247.66 54.9477C248.352 56.1381 248.946 57.8246 249.094 59.2134C249.391 61.9911 248.946 64.868 247.413 67.1993C246.671 68.2905 246.078 68.985 245.138 69.8282C244.644 70.225 243.754 70.8202 243.161 71.1178C242.963 71.217 242.815 71.3162 242.617 71.3659C241.925 71.6635 242.122 71.5147 242.024 71.7627L242.32 71.6635C243.26 71.6635 245.336 70.0266 246.127 69.4314C246.473 69.1338 246.869 68.6874 247.166 68.3897C248.352 67.0505 249.391 64.9672 249.638 62.636C250.33 57.1798 247.759 53.5092 244.743 51.4756C244.298 51.3268 243.457 50.5331 241.331 49.9379C239.156 49.2931 238.711 49.6403 237.03 49.4419C237.079 49.5411 237.03 49.4915 237.178 49.5411C237.277 49.5411 237.326 49.5411 237.425 49.5411C237.722 49.4915 238.464 49.3427 238.76 49.5907Z" fill="#FDB001"/>
<path fill-rule="evenodd" clip-rule="evenodd" d="M198.019 65.4637C198.365 66.1085 199.007 67.0014 199.551 67.4478C199.848 67.6958 199.996 67.795 200.145 68.043C200.293 68.0926 200.837 68.4894 200.985 68.5886C201.282 68.787 201.579 68.9358 201.875 69.0846C202.37 69.3326 203.309 69.7295 203.952 69.7791L204.001 69.6303C203.952 69.6303 203.803 69.6303 203.754 69.5807C203.457 69.4815 203.655 69.5807 203.556 69.4318C202.815 69.4318 201.232 68.4398 200.54 67.8942C200.342 67.7454 200.342 67.7454 200.194 67.547C199.897 67.4478 199.057 66.3069 198.81 65.9597C198.365 65.3149 198.068 64.7197 197.821 63.8765C196.832 60.6027 197.475 57.0314 199.7 54.5513C200.342 53.8073 202.122 52.5177 203.457 52.3193C203.408 52.0712 203.507 52.2201 203.358 52.1208C201.331 52.8153 200.244 53.3113 198.859 54.8985C198.365 55.4938 197.92 56.1882 197.623 56.8826C196.733 58.8667 196.535 62.4876 197.524 64.5213C197.722 64.8189 197.969 65.2157 198.019 65.4637Z" fill="#FDB001"/>
<path fill-rule="evenodd" clip-rule="evenodd" d="M239.106 52.1202C239.551 52.1202 240.59 52.4179 240.985 52.6163C241.529 52.8147 241.974 53.0627 242.518 53.4099C243.161 53.7075 244.001 54.6003 244.397 55.0963C244.743 55.5428 245.534 56.7828 245.633 57.3284C245.831 57.5268 245.88 57.8244 245.979 58.2213C246.869 61.6934 246.028 65.2151 243.507 67.596C242.864 68.1912 242.567 68.3896 241.826 68.836C241.727 68.8856 241.579 68.9848 241.48 69.0344C240.787 69.3816 240.886 69.1336 240.689 69.5304L240.936 69.4808C241.529 69.3816 242.716 68.6376 243.161 68.34C246.918 65.6119 247.808 60.3541 245.583 56.2868C244.891 55.0467 243.556 53.6579 242.221 53.0131C242.024 52.9635 241.134 52.5171 240.491 52.3186C239.897 52.1202 239.255 51.9714 238.562 51.9714C238.859 52.0706 239.106 51.9714 239.106 52.1202Z" fill="#FDB001"/>
<path fill-rule="evenodd" clip-rule="evenodd" d="M229.119 63.7768C229.267 64.4217 229.91 65.6121 230.256 66.1577C230.503 66.5545 230.75 66.8025 231.047 67.1498L231.739 67.7946C231.789 67.8442 231.838 67.8442 231.887 67.9434C231.937 68.0426 231.887 67.993 231.986 68.0922C232.234 68.241 232.53 68.489 232.777 68.6378C233.074 68.8362 233.321 68.9354 233.618 69.0842C234.014 69.2826 235.151 69.7786 235.645 69.7786C235.942 69.7786 235.843 69.8779 235.942 69.729C235.843 69.729 235.793 69.729 235.695 69.6794C235.398 69.5802 235.546 69.6298 235.497 69.5802C234.557 69.5306 233.272 68.6874 232.481 68.1418C232.283 67.993 232.234 67.9434 232.135 67.7946C231.393 67.4474 230.206 65.4137 229.811 64.3721C228.723 61.2968 229.168 57.9734 231.096 55.3445C232.431 53.5589 233.964 53.0629 234.261 52.8149C234.36 52.5669 234.36 52.7653 234.261 52.6165H234.211H234.162H234.112L233.816 52.7157C233.717 52.7653 233.569 52.8149 233.47 52.8645C232.728 53.2117 231.541 54.0549 230.997 54.6997C230.701 55.0469 230.305 55.543 230.058 55.9398C229.91 56.1878 229.811 56.4358 229.712 56.5846C229.316 57.2294 228.772 58.7671 228.772 59.8583C228.772 60.1559 228.674 60.5031 228.674 60.8999C228.674 61.892 228.97 62.884 229.119 63.7768Z" fill="#FDB001"/>
<path fill-rule="evenodd" clip-rule="evenodd" d="M57.7466 50.8806C57.8455 51.1782 59.6255 53.7079 59.9222 54.1543C60.3177 54.6999 66.4487 63.8762 66.6465 63.9754C66.8937 64.1242 66.696 64.025 66.7949 63.9754L66.8443 62.6858C66.5971 62.6858 66.3993 62.2394 66.2015 61.9914C66.0038 61.7434 65.8554 61.4953 65.6576 61.1977L60.2683 53.2119C60.0211 52.9143 59.8727 52.7158 59.7244 52.4182C59.3783 51.8726 58.34 50.2358 57.9939 50.0374L58.0433 50.335C57.9939 50.3846 58.0433 50.335 57.9444 50.4342C57.9444 50.4342 57.9444 50.4838 57.895 50.4838L57.8455 50.583C57.7961 50.6326 57.7466 50.6822 57.7466 50.8806Z" fill="#FDB001"/>
<path fill-rule="evenodd" clip-rule="evenodd" d="M200.244 49.9377C200.59 49.9377 200.787 49.8385 200.936 49.7889L201.529 49.5905C201.974 49.4417 202.419 49.3921 203.012 49.4417V49.7393C203.655 49.6897 204.1 49.5409 204.743 49.4913C204.891 49.6401 204.792 49.4417 204.792 49.6897H207.215L205.386 49.6401C205.633 49.3921 205.633 49.4417 206.325 49.4417C207.907 49.4417 210.824 49.8385 212.209 50.6321V50.8306C212.357 50.5825 212.308 50.5825 212.604 50.4833C212.802 50.3841 213 50.3345 213.148 50.2353C212.802 49.9377 211.022 49.3425 210.33 49.1441C208.105 48.5985 205.386 48.4993 203.161 48.9457C202.567 49.0449 200.54 49.5905 200.244 49.9377Z" fill="#FDB001"/>
<path fill-rule="evenodd" clip-rule="evenodd" d="M59.4771 57.6758L65.5092 66.6041C65.707 66.6041 65.6576 66.5545 65.8059 66.3065C65.9048 66.1081 65.9542 66.0585 66.0037 65.8601L65.9542 65.7609C65.8059 65.7113 65.6081 65.3641 65.5092 65.2152L62.8393 61.2471C62.691 60.9991 62.5921 60.8503 62.4437 60.6519L60.1693 57.2294C59.9221 56.8822 60.1199 56.9814 59.6749 56.783L59.8232 56.9318C59.7243 57.279 59.5266 57.3782 59.4771 57.6758Z" fill="#FDB001"/>
<path fill-rule="evenodd" clip-rule="evenodd" d="M239.749 72.2093V71.7132C239.947 71.5644 239.996 71.5644 240.194 71.5644L240.54 71.3164C240.689 71.3164 240.639 71.366 240.639 71.1676C239.106 71.366 238.167 71.614 236.486 71.4156C235.843 71.366 235.25 71.2172 234.607 71.0188C234.162 70.87 233.272 70.4732 232.975 70.4236L232.481 70.3244L232.234 70.8204C232.085 70.7212 231.986 70.6716 231.789 70.5724C231.591 70.4732 231.541 70.4236 231.393 70.3244C231.146 70.1756 230.849 69.9276 230.602 69.8284L230.8 70.0268C231.195 70.3244 231.937 70.7708 232.382 71.0188C233.074 71.366 233.668 71.614 234.459 71.8124C237.722 72.7549 238.513 72.1597 239.749 72.2093Z" fill="#FDB001"/>
<path fill-rule="evenodd" clip-rule="evenodd" d="M233.074 52.2695C233.272 52.2695 233.47 52.1703 233.667 52.1207L234.211 51.9223C234.31 51.8727 234.36 51.8727 234.459 51.8727C234.706 51.8231 234.755 51.6743 235.398 51.6743V52.0711C235.892 52.0215 236.387 51.9223 236.881 51.8727H238.414C238.661 51.9223 238.513 51.9223 238.661 52.0711C238.414 52.0711 237.129 52.0215 237.03 52.1207C237.821 52.1207 238.315 52.1207 239.106 52.1703C239.106 52.0215 238.859 52.0711 238.661 52.0215C239.354 52.0215 239.996 52.1703 240.59 52.3687C241.183 52.5671 242.073 53.0135 242.32 53.0631C242.122 52.7655 242.122 52.9143 241.776 52.6663L241.826 52.3687C241.776 52.3191 241.776 52.3687 241.776 52.2695L241.875 52.0711C241.628 52.0215 241.875 52.1207 241.776 51.9223C241.529 51.7239 240.243 51.4263 239.798 51.3271C238.958 51.1783 238.167 51.1287 237.277 51.1783C235.991 51.2279 234.656 51.5751 233.519 52.0711C233.42 52.1207 233.371 52.1207 233.321 52.1703L233.074 52.2695Z" fill="#FDB001"/>
<path fill-rule="evenodd" clip-rule="evenodd" d="M193.667 64.0745C193.816 65.1161 194.508 66.6042 194.953 67.3482C195.447 68.1914 195.794 68.6379 196.436 69.2827C196.535 69.3819 196.585 69.4811 196.733 69.5803L196.98 69.7787L197.376 69.9275C197.376 69.9275 197.376 69.9275 197.425 69.9771L197.623 70.1755C197.771 70.0763 197.92 69.9771 198.068 69.8779L198.266 69.9275C198.167 69.7291 197.425 69.1339 197.129 68.7867C196.733 68.3899 196.436 68.0426 196.09 67.5466C195.843 67.1498 194.607 65.0665 194.656 64.5705C194.459 64.4713 194.607 64.5705 194.459 64.3721C194.409 64.3225 194.459 64.3225 194.409 64.2233C194.261 64.2729 194.261 64.2729 194.112 64.2729L194.063 64.0249C193.915 64.0745 194.014 63.9753 193.964 64.1241C193.766 64.0745 193.766 64.1241 193.667 64.0745Z" fill="#FDB001"/>
<path fill-rule="evenodd" clip-rule="evenodd" d="M242.617 54.4518C243.21 55.1958 244.1 55.4438 245.04 57.8743C245.287 58.4695 245.386 59.2136 245.534 59.412C245.583 58.9159 245.534 58.3703 245.534 57.8247C245.633 57.7751 245.682 57.7751 245.781 57.7255L245.682 57.3287C245.583 56.7831 244.792 55.543 244.446 55.0966C244.051 54.6006 243.21 53.7078 242.567 53.4102C242.666 53.6086 242.567 53.4598 242.666 53.559L242.963 53.807C242.913 53.9558 242.963 53.8566 242.864 53.9558C242.716 54.1542 242.666 54.1046 242.617 54.4518Z" fill="#FDB001"/>
<path fill-rule="evenodd" clip-rule="evenodd" d="M103.927 61.3959C103.976 61.6935 103.927 61.8423 103.878 61.9911L103.779 62.0407C103.581 62.0903 103.878 62.0407 103.68 62.0407H95.571C95.571 62.9832 95.4722 70.1754 95.6205 70.473C95.6699 70.3738 95.6205 70.473 95.7194 70.3738L96.4116 69.6794C96.2633 69.5306 96.3127 69.6298 96.3127 69.3322V62.8344C97.0049 62.9336 100.565 62.884 101.554 62.884C102.295 62.884 103.482 63.0328 104.125 62.7352C104.768 62.4872 104.817 61.4455 104.669 61.0983C104.619 60.8999 104.57 60.9495 104.52 60.8999L104.57 61.0487C104.273 61.1479 104.125 61.2967 103.927 61.3959Z" fill="#F3B03F"/>
<path fill-rule="evenodd" clip-rule="evenodd" d="M209.588 64.769V68.7868C209.045 68.9852 208.6 69.0348 208.006 69.0844C207.462 69.134 206.671 69.0844 206.177 69.1836C205.831 69.2828 205.534 69.1836 205.188 69.1836C204.693 69.134 204.743 69.2332 204.743 69.6796C204.298 69.6796 204.001 69.5804 203.556 69.4812C203.655 69.63 203.457 69.5308 203.754 69.63C203.803 69.63 203.952 69.6796 204.001 69.6796L203.952 69.8284L204.595 69.9772C206.127 70.1756 207.759 70.1756 209.292 69.878C209.341 69.878 209.391 69.878 209.44 69.8284C209.588 69.7788 209.49 69.7788 209.588 69.7292L209.143 69.8284C209.292 69.5804 209.193 69.6796 209.539 69.5804C209.885 69.4812 210.182 69.3324 210.231 68.886C210.33 68.4891 210.231 65.761 210.281 65.1162C210.281 64.4714 210.33 63.9754 209.638 63.9258L209.885 64.025C209.885 64.273 209.737 64.521 209.588 64.769Z" fill="#F3B03F"/>
<path fill-rule="evenodd" clip-rule="evenodd" d="M200.243 49.9379C199.848 49.9875 198.859 50.6323 198.513 50.8307C195.695 52.7156 193.915 55.6421 193.42 59.1638C193.222 60.4535 193.272 63.0328 193.667 64.0744C193.766 64.0744 193.766 64.0744 193.915 64.124C193.964 63.9752 193.915 64.0744 194.014 64.0248L194.063 64.2728C194.211 64.2728 194.261 64.2232 194.36 64.2232C194.409 64.3224 194.409 64.3224 194.409 64.372C194.508 64.5704 194.36 64.4216 194.607 64.5704C193.618 61.4455 193.964 57.8246 195.497 55.0965C195.892 54.4021 196.782 53.2116 197.326 52.7156C198.859 51.3268 199.007 51.3764 200.787 50.4835C200.837 50.4835 200.886 50.4339 200.985 50.3843C201.084 50.3347 201.133 50.3347 201.282 50.2851C201.381 50.2355 201.677 50.1363 201.776 50.0371C202.271 50.0371 201.826 49.9875 202.023 50.2355C202.617 49.9875 204.051 49.6899 204.743 49.6899C204.743 49.4419 204.842 49.6403 204.693 49.4915C204.051 49.4915 203.606 49.6403 202.963 49.7395V49.4419C202.32 49.4419 201.925 49.4419 201.48 49.5907L200.886 49.7891C200.738 49.8387 200.59 49.9379 200.243 49.9379Z" fill="#F7B849"/>
<path fill-rule="evenodd" clip-rule="evenodd" d="M233.074 52.2692C232.58 52.3188 231.146 53.5092 230.849 53.8068C230.305 54.3524 229.663 55.1461 229.218 55.9397C228.328 57.5766 227.685 59.759 227.981 62.0407C228.08 62.1399 228.08 61.9911 228.13 62.3383C228.179 62.6359 228.179 62.4375 228.229 62.6359C228.278 62.7351 228.328 63.1815 228.328 63.2808L228.773 63.876C228.921 63.7768 228.921 63.7272 229.119 63.8264C229.02 62.9335 228.674 61.9415 228.674 60.9991C228.674 60.6023 228.773 60.255 228.773 59.9574C228.773 58.8662 229.316 57.3285 229.712 56.6837C229.811 56.4853 229.91 56.2373 230.058 56.0389C230.256 55.6421 230.701 55.1957 230.998 54.7989C231.492 54.154 232.728 53.3604 233.47 52.9636C233.569 52.914 233.717 52.8644 233.816 52.8148L234.112 52.7156H234.162H234.211H234.261C234.36 52.8644 234.36 52.666 234.261 52.914C235.151 52.666 236.041 52.2692 237.079 52.2692C237.227 52.17 238.464 52.2196 238.711 52.2196C238.562 52.0708 238.711 52.1204 238.464 52.0212H236.931C236.436 52.0708 235.942 52.17 235.447 52.2196V51.8228C234.805 51.8228 234.706 51.9716 234.508 52.0212C234.36 52.0708 234.36 52.0212 234.261 52.0708L233.717 52.2692C233.47 52.17 233.272 52.2692 233.074 52.2692Z" fill="#F7B849"/>
<path fill-rule="evenodd" clip-rule="evenodd" d="M128.995 50.8304L137.4 70.9191C137.499 70.9687 137.45 70.8199 137.45 71.1175L138.192 71.0679C138.192 70.7703 138.142 70.6215 138.043 70.3735C136.807 67.2982 135.225 63.5284 133.939 60.5523L130.132 51.4256C129.934 51.0288 129.836 50.384 129.489 50.136V50.2848C129.292 50.4336 129.391 50.384 129.242 50.5328C129.143 50.7312 129.094 50.6816 128.995 50.8304Z" fill="#F5AC36"/>
<path fill-rule="evenodd" clip-rule="evenodd" d="M147.586 53.212C147.734 52.9639 148.08 52.7655 148.278 52.5175C148.377 52.4183 148.327 52.4679 148.377 52.3687C148.229 51.8727 148.278 50.4343 148.328 49.839C149.316 49.9382 162.815 49.8886 164.248 49.8886V52.3687C164.347 52.2695 164.298 52.5175 164.298 52.2199V49.8886C164.496 49.591 164.842 49.3926 164.99 49.0454H147.536C147.487 49.343 147.388 52.9143 147.586 53.212Z" fill="#F5AC36"/>
<path fill-rule="evenodd" clip-rule="evenodd" d="M178.735 71.9111C178.686 71.9111 178.587 71.9111 178.538 71.9111C178.34 71.8119 178.488 71.8615 178.389 71.7623C177.845 71.6135 177.994 69.8278 177.994 69.183V51.2768C177.994 50.1855 178.488 49.8879 179.625 50.0367C179.972 50.0863 180.07 50.1856 180.169 50.4336C180.466 50.5824 180.318 51.376 180.318 51.7232C180.318 54.1537 180.367 70.8199 180.268 71.2663C180.12 71.7623 179.823 71.7623 179.576 72.1095L180.713 72.0599V49.9375C179.922 49.9375 178.192 50.0367 177.549 49.8879V72.0103C177.747 72.0103 177.994 72.0103 178.192 72.0103C178.29 72.0103 178.439 72.0103 178.488 72.0103C178.735 71.9607 178.637 72.0103 178.735 71.9111Z" fill="#FBCA66"/>
<path fill-rule="evenodd" clip-rule="evenodd" d="M209.638 69.7288C209.934 69.7784 210.478 69.58 210.775 69.4808L210.824 63.8262C210.627 63.8262 210.429 63.8262 210.231 63.8262C210.182 63.8262 209.984 63.8262 209.934 63.8262C209.638 63.8758 209.836 63.8262 209.737 63.9254C210.429 63.975 210.379 64.471 210.379 65.1158C210.379 65.8102 210.429 68.4887 210.33 68.8855C210.231 69.332 209.984 69.4808 209.638 69.58C209.292 69.6792 209.391 69.58 209.242 69.828L209.638 69.7288Z" fill="#FBCA66"/>
<path fill-rule="evenodd" clip-rule="evenodd" d="M206.622 63.7274C206.473 63.7274 206.424 63.7274 206.325 63.6778C206.177 63.5786 206.226 63.5289 206.177 63.4793C205.93 63.2809 205.88 62.7353 205.93 62.2889C206.028 61.7433 206.276 61.6937 206.572 61.5449C206.424 61.4953 206.325 61.5449 206.177 61.5449C205.93 61.5449 205.732 61.5945 205.633 61.4457C205.485 61.4457 205.583 61.3961 205.534 61.5449V63.8762L206.473 63.8266C206.622 63.777 206.572 63.777 206.622 63.7274Z" fill="#FBCA66"/>
<path fill-rule="evenodd" clip-rule="evenodd" d="M94.7305 71.9118C94.6811 71.9118 94.5822 71.9118 94.4833 71.9118C94.2361 71.8126 94.4339 71.9118 94.335 71.763C93.8405 71.6142 93.9394 70.6717 93.9394 70.1261V55.2456C93.9394 53.8568 93.89 52.4183 93.9394 51.0295C93.9889 49.6406 95.225 49.9878 97.1038 49.9878C97.9938 49.9878 105.311 50.0374 105.509 49.9878C106.004 50.087 106.201 50.335 106.201 50.9303C106.152 52.4183 105.509 52.3191 104.422 52.3191C102.938 52.3191 97.0544 52.3687 96.2633 52.2695V60.553C96.9061 60.4042 102.048 60.4538 103.532 60.4538C103.581 60.4538 103.729 60.4538 103.779 60.4538C104.125 60.553 103.878 60.4538 103.977 60.6026L104.174 60.6522C104.323 60.7018 104.422 60.7018 104.471 60.9002C104.52 60.9498 104.57 60.8506 104.619 61.0986C104.718 61.4458 104.669 62.4875 104.075 62.7355C103.433 62.9835 102.295 62.8843 101.504 62.8843C100.515 62.8843 96.9555 62.9339 96.2633 62.8347V69.3325C96.2633 69.6301 96.2138 69.5805 96.3622 69.6797C97.8455 69.7789 99.6749 69.6797 101.208 69.6797C102.543 69.6797 104.718 69.5805 105.954 69.7293C106.152 69.7789 106.3 69.8285 106.35 70.0765C106.597 70.1757 106.646 71.267 106.201 71.6638C105.954 71.9118 106.004 71.763 105.806 72.0606L106.745 72.011V69.5805H98.1422C97.6477 69.5805 97.3016 69.6797 97.0544 69.3325C96.6588 68.9853 96.7577 68.4893 96.7577 67.8444V64.1243C96.7577 63.4795 96.8566 63.0827 97.4499 62.9835C98.241 62.8347 103.284 63.0827 104.817 62.9339V60.4538H97.4499C97.0544 60.4042 97.1533 60.305 97.1038 60.2554C96.6094 60.057 96.7577 59.0153 96.7577 58.4697V54.0552C96.7577 53.3607 96.7083 52.5671 97.4005 52.5175C97.5488 52.3191 97.6972 52.3687 97.9444 52.3687H106.449V49.9878C105.46 49.9878 94.1867 50.087 93.5439 49.9382V72.0606C93.7417 72.0606 93.9889 72.0606 94.1867 72.0606C94.5328 72.011 94.5822 72.0606 94.7305 71.9118Z" fill="#FAC661"/>
<path fill-rule="evenodd" clip-rule="evenodd" d="M148.328 52.4181C149.218 52.3189 150.305 52.4181 151.195 52.4181C151.937 52.4181 153.321 52.3685 153.964 52.4677C154.261 52.5173 154.36 52.5669 154.459 52.8149C154.607 52.9141 154.508 52.6661 154.607 52.9637C154.755 53.3109 154.656 71.862 154.656 72.0604C154.953 72.11 155.695 72.1596 155.893 72.0108C155.843 72.0108 155.744 72.0108 155.695 72.0108C155.448 71.9116 155.645 72.0108 155.546 71.862C155.299 71.8124 155.2 71.5644 155.2 71.2667L155.101 52.3685C153.519 52.2693 151.245 52.4181 149.514 52.3685C149.366 52.3685 149.316 52.3685 149.168 52.3189C148.921 52.2693 148.97 52.2197 148.921 52.1701C148.476 52.0213 148.377 50.9796 148.674 50.4836C148.97 49.9876 149.712 50.0868 150.454 50.0868C152.58 50.0868 162.221 49.9876 163.507 50.186C163.655 50.2852 163.754 50.2852 163.853 50.4836C164.001 50.5828 163.952 50.4836 164.051 50.7316C164.1 50.93 164.051 50.93 164.051 51.1284C164.001 51.7237 163.952 52.2197 163.21 52.4181C163.21 52.4181 163.161 52.4181 163.161 52.4677C163.111 52.5669 160.491 52.5173 160.342 52.5173C159.601 52.5173 158.019 52.5669 157.425 52.4677C157.376 58.3703 157.425 64.4217 157.425 70.3739C157.425 72.2092 157.079 71.6636 156.634 72.2588L157.821 72.2092L157.92 53.3109C157.87 52.3189 159.799 52.6165 160.639 52.6165C161.826 52.6165 163.012 52.6165 164.15 52.6165V50.1364C162.765 50.1364 149.218 50.2356 148.229 50.0868C148.229 50.434 148.179 51.9221 148.328 52.4181Z" fill="#FAC661"/>
<path fill-rule="evenodd" clip-rule="evenodd" d="M194.656 64.5701C194.558 65.0661 195.794 67.1494 196.09 67.5462C196.436 68.0422 196.733 68.3894 197.129 68.7862C197.425 69.0838 198.117 69.7287 198.266 69.9271C198.513 70.0759 198.711 70.2247 198.958 70.4231C200.886 71.6135 202.914 72.3576 205.237 72.4568C208.451 72.6056 210.676 72.3576 213.593 71.2663V61.4452H205.633C205.732 61.594 205.93 61.5444 206.177 61.5444C206.325 61.5444 206.473 61.5444 206.572 61.5444C207.462 61.4452 208.698 61.5444 209.638 61.5444C210.577 61.5444 211.714 61.4948 212.604 61.594C212.802 61.6436 212.951 61.7428 213 61.9412C213.247 62.0404 213.198 62.6356 213.198 63.0324V69.3319C213.198 70.3239 213.346 70.8695 212.654 71.2663C212.011 71.6631 209.588 72.2088 208.698 72.308C207.66 72.4072 205.336 72.556 204.248 72.308L203.952 72.1591C203.26 72.1591 201.282 71.4647 200.689 71.1671C199.848 70.7207 199.403 70.4727 198.661 69.9271C198.365 69.7287 198.216 69.6295 198.068 69.3815C197.87 69.3319 197.326 68.687 197.129 68.4886C196.239 67.3974 195.546 66.2069 195.151 64.8181C193.668 59.8579 195.2 54.3025 199.551 51.5248C200.046 51.2272 201.48 50.4336 202.073 50.3344C201.925 50.136 202.37 50.136 201.826 50.136C201.727 50.2352 201.43 50.2848 201.331 50.384C201.183 50.4336 201.134 50.4336 201.035 50.4832C200.936 50.5328 200.886 50.5824 200.837 50.5824C199.057 51.4752 198.909 51.4256 197.376 52.8145C196.782 53.3601 195.942 54.5009 195.546 55.1954C194.014 57.8243 193.668 61.4452 194.656 64.5701Z" fill="#FAC661"/>
<path fill-rule="evenodd" clip-rule="evenodd" d="M169.638 36C169.836 36.0496 170.33 36.1488 170.577 36.1488C170.577 35.9008 171.863 32.1311 172.11 31.387C172.209 31.0894 172.061 31.2382 172.258 31.0894C172.258 31.3374 172.555 32.2799 172.604 32.5279C172.654 32.7759 172.703 33.0239 172.802 33.2223L173.841 36.8928C173.989 36.7936 174.137 36.496 174.236 36.2976C174.384 36.0496 174.483 35.8512 174.632 35.6528C174.78 35.4544 174.879 35.256 175.027 35.008C175.077 34.9088 175.126 34.8096 175.225 34.7104C175.324 34.5615 175.373 34.5119 175.472 34.3631C175.621 34.1151 176.906 31.8831 177.104 31.7342C177.104 31.9823 177.104 32.1807 177.104 32.4287C177.104 32.8751 177.153 32.9743 177.153 33.7679L177.302 35.7024C177.302 35.9504 177.302 36.1488 177.302 36.3968C177.302 36.6944 177.351 36.744 177.351 37.0912C177.648 37.0912 177.648 37.1408 177.845 37.1408C178.093 37.1904 178.241 37.24 178.241 37.0912C178.241 37.0912 178.192 36.0496 178.142 35.9008L177.994 33.0239C177.994 32.7263 177.944 32.6767 177.944 32.4783C177.944 32.2799 177.944 32.0319 177.944 31.8335C177.944 31.5358 177.895 31.5854 177.895 31.2878L177.747 28.9069C177.499 29.1054 176.263 31.3374 175.967 31.8335C175.818 32.0815 175.67 32.2799 175.522 32.5279C175.423 32.6767 175.373 32.7263 175.324 32.8751C175.225 33.0239 175.176 33.1231 175.077 33.2719C174.928 33.5695 174.78 33.7679 174.632 34.0159C174.533 34.1647 174.533 34.2143 174.434 34.3631C174.335 34.5119 174.286 34.5615 174.236 34.76L172.555 28.9069C172.456 28.6589 172.357 28.3117 172.357 28.0637C172.11 28.2125 171.764 29.7006 171.665 29.9982L169.638 36Z" fill="#1D1D1D"/>
<path fill-rule="evenodd" clip-rule="evenodd" d="M127.462 29.0056L127.858 31.8825C127.858 32.0313 127.907 32.1801 127.907 32.3785L128.253 34.809C128.352 35.5034 128.402 36.1978 128.55 36.793C129.094 36.793 131.418 36.4458 131.912 36.1978C133.692 35.2554 133.148 32.2793 131.319 32.2793C131.418 32.1801 132.604 31.4857 132.061 30.0472C131.813 29.452 131.368 28.8568 130.676 28.7576C130.083 28.6584 128.946 28.8072 128.303 28.9064C128.056 28.956 127.66 29.0056 127.462 29.0056ZM128.501 29.7C129.341 29.7 129.588 29.452 130.429 29.6504C131.072 29.7992 131.121 30.5928 131.121 31.1881C131.121 31.9817 129.687 32.2793 128.797 32.2793C128.797 31.9817 128.748 31.8825 128.748 31.6345C128.698 31.1385 128.501 30.0968 128.501 29.7ZM130.379 32.9241C130.874 32.9241 131.22 32.9241 131.566 33.3209C131.962 33.8169 132.258 35.2554 130.973 35.6026L129.292 35.9002L128.995 33.8169C128.847 32.9241 128.946 33.1225 129.292 33.0729C129.687 33.0233 129.934 32.9241 130.379 32.9241Z" fill="#1D1D1D"/>
<path fill-rule="evenodd" clip-rule="evenodd" d="M161.282 35.5533C161.727 35.6525 161.677 35.6029 162.221 35.6029C162.221 35.3053 162.271 35.4541 162.271 34.71C162.271 33.9164 162.32 34.1644 162.32 33.7676C162.32 33.47 162.32 33.1228 162.32 32.8252C162.32 32.478 162.37 32.6268 162.37 31.8827C162.617 31.9323 162.617 32.0811 162.765 32.2795L165.138 35.7021C165.633 35.7021 165.831 35.7517 166.325 35.7517C166.276 35.5037 164.891 33.6684 164.644 33.3212C164.496 33.1724 164.446 33.0236 164.298 32.8252L163.606 31.8827C164.298 31.8827 164.792 31.7835 165.188 31.4859C166.276 30.6923 166.325 27.7162 163.853 27.7162L161.578 27.5674L161.331 32.4284C161.282 32.726 161.331 33.1724 161.331 33.5196C161.331 33.8172 161.282 33.718 161.282 33.966C161.282 34.1148 161.282 34.3132 161.282 34.462C161.331 35.206 161.282 35.3053 161.282 35.5533ZM163.556 31.2379L162.419 31.1387C162.518 30.6923 162.468 30.3947 162.468 29.8987C162.468 29.6507 162.518 29.6011 162.518 29.2538C162.518 29.0058 162.518 28.8074 162.518 28.5594C163.012 28.5594 163.754 28.609 164.199 28.7082C164.891 28.9066 164.99 29.3034 164.99 29.9979C164.99 30.3451 164.891 30.7419 164.595 30.9403C164.446 31.0891 163.853 31.2379 163.556 31.2379Z" fill="#1D1D1D"/>
<path fill-rule="evenodd" clip-rule="evenodd" d="M104.421 33.6188C104.421 33.8172 104.57 34.1644 104.619 34.3132C104.718 34.5613 104.768 34.7597 104.817 35.0573C104.916 35.5037 105.114 36.0493 105.262 36.5453L106.498 40.8607C106.646 41.3071 106.3 41.4063 107.635 41.0095C108.031 40.8607 110.305 40.1663 110.602 40.1663C110.602 39.7694 110.454 39.6206 110.404 39.2734C110.107 39.2734 109.86 39.3726 109.662 39.4718C109.168 39.6206 107.685 40.1167 107.289 40.1167L106.696 38.0334C106.646 37.835 106.498 37.5374 106.498 37.2894C106.745 37.2894 106.993 37.1405 107.24 37.0909C107.487 37.0413 107.784 36.9421 108.031 36.8429L109.514 36.3965C109.465 36.0989 109.366 35.9005 109.316 35.5533C109.069 35.5533 106.548 36.2477 106.152 36.4461C106.103 35.9005 105.608 34.8589 105.608 34.3132L108.624 33.4204C108.624 33.0732 108.476 32.8748 108.426 32.5276L105.46 33.3708C105.163 33.4204 104.768 33.6188 104.421 33.6188Z" fill="#1D1D1D"/>
<path fill-rule="evenodd" clip-rule="evenodd" d="M134.78 28.262L135.126 32.1806C135.176 32.379 135.126 32.4782 135.126 32.6766L135.373 35.6527C135.373 35.8511 135.423 35.8511 135.423 36.1487L137.499 35.9503C137.845 35.9503 139.032 35.7519 139.576 35.7519L139.527 34.8591L138.34 34.9087C138.142 34.9087 138.241 34.9583 137.944 34.9583C137.351 34.9583 136.857 35.1071 136.313 35.1071L136.164 33.6686C136.164 33.3214 136.115 33.2222 136.115 32.9246C136.115 32.5774 136.066 32.5278 136.066 32.1806C136.412 32.1806 136.461 32.131 136.807 32.131L138.735 31.9326C138.884 31.9326 139.032 31.9326 139.18 31.9326C139.18 31.387 139.23 31.4366 139.131 30.9901C138.884 30.9901 139.032 31.0397 138.834 31.0397C138.29 31.0893 137.45 31.1389 136.807 31.2382L136.066 31.2878L135.868 29.0557L139.032 28.7581C139.032 28.3613 138.983 28.2124 138.983 27.8652L134.78 28.262Z" fill="#1D1D1D"/>
<path fill-rule="evenodd" clip-rule="evenodd" d="M180.268 37.4879C180.516 37.5871 181.158 37.6863 181.455 37.7359C181.851 37.8351 182.296 37.8847 182.691 37.9839C183.087 38.0831 183.581 38.1327 183.977 38.2319C184.224 38.2815 184.422 38.5791 184.52 37.4383C183.482 37.1903 182.394 37.0415 181.356 36.7934C181.406 36.347 181.9 34.3134 181.9 33.8669L185.064 34.5118C185.312 33.3709 185.361 33.6189 184.174 33.3709C183.828 33.3213 183.482 33.2221 183.185 33.1725C182.839 33.1229 182.444 33.0237 182.147 32.9741C182.147 32.4781 182.543 31.3373 182.543 30.8412C182.889 30.8412 183.087 30.8908 183.383 30.9404L184.965 31.2381C185.262 31.2877 185.509 31.3869 185.757 31.3869C185.757 31.0396 185.905 30.8908 185.905 30.494C185.509 30.494 182.246 29.75 181.801 29.75C181.801 30.0476 181.653 30.494 181.603 30.6924C181.158 32.9245 180.713 35.4542 180.268 37.4879Z" fill="#1D1D1D"/>
<path fill-rule="evenodd" clip-rule="evenodd" d="M111.937 39.8684C112.036 39.8684 112.728 39.7196 112.827 39.67C112.975 39.6204 112.975 39.5212 113.025 39.3724L113.42 37.0411L116.387 36.3466L117.722 38.1819C117.821 38.3307 117.87 38.2811 117.92 38.4795C118.266 38.3803 118.612 38.2811 118.909 38.2315C118.859 38.0331 118.464 37.4875 118.315 37.3387C117.771 36.7435 113.816 31.2873 113.569 31.0889C113.47 31.2873 113.074 33.8666 112.975 34.313L111.937 39.8684ZM113.42 36.1482C113.519 35.9002 113.816 34.065 113.915 33.5194C113.964 33.2217 113.865 33.3209 114.063 33.1721C114.112 33.3705 114.31 33.569 114.459 33.7674C114.706 34.065 115.744 35.305 115.744 35.6026C115.299 35.6522 113.865 36.1482 113.42 36.1482Z" fill="#1D1D1D"/>
<path fill-rule="evenodd" clip-rule="evenodd" d="M158.958 35.4544V34.5615L156.585 34.5119C156.189 34.5119 156.041 34.4623 155.744 34.4623L155.794 31.4862C156.338 31.4862 156.684 31.5358 157.227 31.5358H159.007V30.643C157.87 30.643 156.98 30.5934 155.843 30.5934V28.3613C156.98 28.3613 157.92 28.4109 159.057 28.4109L159.156 27.5181L155.645 27.4685C155.2 27.4189 154.953 27.2205 154.953 27.7165C154.953 27.8653 154.953 28.0637 154.953 28.2125C154.953 29.0557 155.003 28.9565 154.904 29.7502L154.854 34.9087C154.854 35.1072 154.755 35.256 154.854 35.3056C154.805 35.3552 158.612 35.4544 158.958 35.4544Z" fill="#1D1D1D"/>
<path fill-rule="evenodd" clip-rule="evenodd" d="M185.658 38.2816C186.894 38.5792 186.498 38.6784 187.388 37.4383C187.635 37.0911 187.932 36.7439 188.13 36.3967L191.096 37.0911C191.245 37.6367 191.344 38.3312 191.393 38.9264C191.443 39.2736 191.443 39.6704 191.64 39.72C191.739 39.7696 192.431 39.9184 192.53 39.9184L191.591 34.4622C191.541 34.115 191.443 33.7678 191.393 33.3214L190.998 31.1389L186.993 36.4463C186.795 36.6943 185.756 38.0336 185.658 38.2816ZM190.454 33.2222C190.651 33.371 190.553 33.1726 190.651 33.9166C190.701 34.115 190.75 34.4126 190.8 34.6606L191.096 36.1983C190.8 36.1983 190.256 35.9999 189.959 35.9503L188.773 35.7023C188.773 35.4047 189.415 34.7102 189.613 34.4622C189.761 34.2638 190.404 33.4702 190.454 33.2222Z" fill="#1D1D1D"/>
<path fill-rule="evenodd" clip-rule="evenodd" d="M140.862 27.8654C140.862 28.4111 140.812 28.3615 140.911 28.8079L143.136 28.6591C143.136 29.8495 143.284 30.9903 143.284 32.1808C143.284 32.5776 143.334 32.6272 143.334 33.024C143.334 33.4704 143.383 35.3057 143.482 35.6529C143.927 35.5537 143.878 35.6033 144.421 35.6033C144.421 34.4129 144.273 33.3216 144.273 32.1312C144.273 31.7344 144.224 31.6848 144.224 31.288C144.224 30.9903 144.224 30.6431 144.224 30.3455C144.174 29.9983 144.174 30.2463 144.174 29.5023C144.174 29.2047 144.174 28.8575 144.174 28.5599L146.3 28.5103V27.6174L144.965 27.667C143.927 27.667 141.9 27.8654 140.862 27.8654Z" fill="#1D1D1D"/>
<path fill-rule="evenodd" clip-rule="evenodd" d="M117.623 31.5358C118.117 31.5358 119.255 31.139 119.848 31.139C119.848 31.387 119.947 31.6846 119.996 31.9822L120.491 34.5119C120.688 35.6031 120.936 36.8432 121.183 37.9344C121.48 37.8848 121.826 37.8352 122.122 37.736C122.073 37.4384 121.974 36.992 121.925 36.6448L120.936 31.635C120.738 30.7422 120.59 30.9902 121.776 30.7422C122.122 30.6926 122.617 30.5438 122.913 30.4941C122.913 30.1469 122.815 29.9485 122.765 29.6013C122.221 29.6013 118.661 30.3949 117.771 30.5438C117.573 30.5934 117.524 30.5438 117.475 30.6926C117.475 30.8414 117.623 31.3374 117.623 31.5358Z" fill="#1D1D1D"/>
<path fill-rule="evenodd" clip-rule="evenodd" d="M194.656 33.1726C195.398 33.371 196.189 33.6686 196.782 33.8174L194.854 40.5137C195.151 40.5633 195.497 40.7617 195.794 40.7617C195.942 40.1665 196.09 39.6704 196.288 39.0752L197.475 34.9087C197.524 34.6111 197.623 34.2639 197.722 34.0158C197.969 34.1647 198.464 34.2639 198.76 34.3631C198.909 34.4127 199.106 34.4623 199.304 34.5119C199.502 34.5615 199.65 34.6111 199.848 34.6607C199.848 34.4127 199.996 33.9662 200.095 33.7678L194.904 32.2798C194.854 32.5774 194.755 32.875 194.656 33.1726Z" fill="#1D1D1D"/>
<path fill-rule="evenodd" clip-rule="evenodd" d="M147.487 27.7658C147.487 28.113 147.536 28.1626 147.536 28.4602H149.761V35.4541H150.701V28.4602H152.926V27.7658C152.926 27.5178 152.926 27.7658 152.975 27.5674H147.487V27.7658Z" fill="#1D1D1D"/>
<path fill-rule="evenodd" clip-rule="evenodd" d="M97.8455 40.9603C98.3893 40.9603 98.6366 41.0099 99.0816 40.613C99.2793 40.4642 99.4771 40.2162 99.576 39.9682C99.6254 39.8194 99.7243 39.4226 99.7243 39.3234C99.6749 38.133 98.2905 37.1905 97.0544 38.1826C96.3622 38.7778 96.2633 40.0674 97.3016 40.7123C97.351 40.8115 97.6477 40.9603 97.8455 40.9603Z" fill="#1D1D1D"/>
<path fill-rule="evenodd" clip-rule="evenodd" d="M204.051 39.4719C204.051 40.0176 204.1 40.4144 204.545 40.8112C205.336 41.5552 207.017 41.3568 207.264 39.6703C207.363 39.0255 206.77 37.9839 205.534 37.9839C204.743 38.0335 204.051 38.7775 204.051 39.4719Z" fill="#1D1D1D"/>
<path fill-rule="evenodd" clip-rule="evenodd" d="M156.585 71.1181L156.535 71.9117L155.843 71.9613C155.645 72.1597 154.904 72.0605 154.607 72.0109C154.607 71.8125 154.706 53.2615 154.557 52.9142C154.459 52.6662 154.557 52.9142 154.409 52.7654V52.9638C154.211 53.063 153.964 53.2118 153.766 53.3111V72.8541C154.063 72.7053 154.36 72.3085 154.607 72.1101H157.821C157.92 71.1677 157.821 59.4617 157.821 57.924C157.821 57.1304 157.771 53.6583 157.87 53.1622L157.821 72.0109L156.634 72.0605C157.079 71.4653 157.425 72.0109 157.425 70.1756C157.425 64.2234 157.376 58.172 157.425 52.2694C158.068 52.4182 159.65 52.319 160.342 52.319C160.441 52.319 163.111 52.3686 163.161 52.2694C163.161 52.2694 163.21 52.2694 163.21 52.2198H157.672L156.782 51.5254C156.881 54.7495 156.782 58.1224 156.782 61.3961V70.622C156.733 71.2669 156.684 71.0685 156.585 71.1181Z" fill="#F6B646"/>
<path fill-rule="evenodd" clip-rule="evenodd" d="M207.166 49.6408C207.858 49.5912 208.748 49.7896 209.391 49.9384C210.083 50.0873 210.726 50.3849 211.319 50.5337C211.517 50.6825 211.566 50.6825 211.616 50.9305C211.517 50.9801 211.022 51.2777 210.973 51.2777L210.824 51.8233L210.775 52.6169C210.231 52.6665 209.687 52.2697 209.094 52.1705C207.957 51.9721 206.226 51.8233 205.04 51.8729C203.457 52.0217 203.507 52.2697 203.507 51.7241H202.963L202.864 51.5753C202.419 51.5257 201.331 52.0713 200.936 52.3193C199.255 53.2122 197.87 54.601 196.98 56.5355C196.041 58.5691 195.794 61.198 196.337 63.4797C196.436 63.9261 196.832 65.2654 197.079 65.4638L197.326 65.5134L197.475 65.1662C197.475 65.315 197.524 65.315 197.524 65.4638C197.771 65.4638 197.672 65.3646 197.969 65.4638C197.92 65.2158 197.722 64.819 197.574 64.571C196.585 62.5373 196.733 58.9164 197.672 56.9323C198.019 56.2379 198.414 55.5434 198.909 54.9482C200.244 53.361 201.381 52.8649 203.408 52.1705C203.556 52.3193 203.457 52.1209 203.507 52.3689C204.743 52.0713 205.88 51.9225 207.265 52.0713C207.907 52.1209 208.402 52.2201 209.045 52.3193C209.638 52.4681 210.231 52.6665 210.726 52.7657C211.022 52.5177 211.22 52.5673 211.467 52.2201C211.616 52.0217 211.813 51.5753 211.813 51.2281C212.159 51.2281 211.912 51.1785 212.011 51.3769L212.209 50.7817V50.5833C210.824 49.74 207.907 49.3928 206.325 49.3928C205.633 49.3928 205.633 49.2936 205.386 49.5912L207.166 49.6408Z" fill="#F6B646"/>
<path fill-rule="evenodd" clip-rule="evenodd" d="M246.869 55.1957C246.918 55.6421 248.105 56.8821 248.352 60.0071C248.649 63.628 247.314 66.8521 244.743 69.0842C243.853 69.8282 242.864 70.4234 241.776 70.8202C241.381 70.969 240.936 71.0682 240.59 71.217C240.59 71.3658 240.639 71.3658 240.491 71.3658L240.145 71.6139C239.947 71.6139 239.897 71.6139 239.7 71.7627V72.2587L240.688 72.0603C241.133 71.9115 240.985 71.9611 241.084 72.1595C241.282 72.0603 241.529 72.0603 241.727 71.9611C241.826 71.9115 241.925 71.9115 242.023 71.8619C242.221 71.8123 242.172 71.8123 242.32 71.7131L242.023 71.8123C242.172 71.5643 241.925 71.7131 242.617 71.4154C242.815 71.3162 242.963 71.2666 243.161 71.1674C243.754 70.8202 244.644 70.2746 245.138 69.8778C246.078 69.0346 246.721 68.3897 247.413 67.2489C248.896 64.9672 249.391 62.0903 249.094 59.263C248.946 57.8742 248.352 56.1877 247.66 54.9973C247.611 54.8981 247.561 54.8485 247.512 54.6997C247.363 54.5013 247.363 54.6501 247.314 54.5013C247.314 54.4517 247.264 54.5013 247.264 54.4517L247.363 54.7989C247.264 54.8485 247.116 54.8981 247.067 54.9477C246.918 54.9973 247.017 54.9477 246.918 54.9973L246.869 55.1957Z" fill="#F6B646"/>
<path fill-rule="evenodd" clip-rule="evenodd" d="M181.504 49.0454H176.807V72.755L177.598 72.0606C178.291 72.011 180.318 72.1598 180.763 72.011V49.7894C181.01 49.6902 181.405 49.2934 181.504 49.0454ZM179.576 50.8807C179.675 51.4759 179.625 64.8684 179.625 66.158C179.625 66.7036 179.724 71.019 179.576 71.1678V71.2174V71.9614L178.834 72.011C178.735 72.1102 178.834 72.0606 178.587 72.1102C178.488 72.1102 178.34 72.1102 178.291 72.1102C178.093 72.1102 177.846 72.1102 177.648 72.1102V49.9878C178.34 50.1366 180.021 50.0374 180.812 50.0374V72.1102L179.576 72.0606C179.873 71.7134 180.169 71.7134 180.268 71.2174C180.367 70.8206 180.318 54.1544 180.318 51.6743C180.318 51.3767 180.466 50.5335 180.169 50.3847V50.5831C179.873 50.6327 179.823 50.7319 179.576 50.8807Z" fill="#F6B545"/>
<path fill-rule="evenodd" clip-rule="evenodd" d="M232.876 49.5911C232.382 49.6407 230.8 50.5831 230.503 50.7815C226.498 53.4104 224.471 58.2218 225.312 63.182C225.559 64.6204 226.004 65.91 226.696 67.1501C226.795 67.3485 227.24 68.0925 227.388 68.1421C227.734 68.1917 227.685 68.1421 227.833 68.3901L228.031 68.2909C228.229 68.1917 228.278 68.1917 228.525 68.2909C228.377 67.8941 227.932 67.5469 227.734 67.1005C226.943 65.662 226.399 64.67 226.103 62.7851C225.707 59.809 226.152 57.5274 227.289 55.3945C227.388 55.1961 227.536 54.9977 227.635 54.7497C228.031 54.0056 228.426 53.6088 228.871 53.0632L229.91 52.0712C230.009 51.972 230.009 51.972 230.206 51.8232C231.789 50.6823 233.371 49.9383 235.349 49.5911L236.041 49.4919C236.387 49.5415 236.09 49.4423 236.239 49.5911C237.129 49.5415 237.87 49.4919 238.81 49.4919C238.513 49.2439 237.771 49.3927 237.425 49.4423C237.326 49.4423 237.277 49.4423 237.178 49.4423C237.03 49.3927 237.129 49.4423 237.03 49.3431H236.486C236.585 49.1943 236.535 49.1943 236.535 48.9959C236.239 48.9959 236.189 48.8967 235.497 48.9463C235.101 48.9463 235.002 49.0951 234.607 49.1447L233.717 49.3431C233.47 49.4919 233.223 49.5415 232.876 49.5911Z" fill="#F6B545"/>
<path fill-rule="evenodd" clip-rule="evenodd" d="M53.445 72.1103V72.7551C54.4834 72.011 53.89 72.0606 55.1261 72.0606C55.9172 72.0606 56.7578 72.0606 57.5983 72.0606C57.6972 71.4654 57.7466 70.5726 57.7466 69.9774C57.7961 68.3405 57.9939 65.5628 58.1422 63.926C58.2411 62.5867 58.34 61.1483 58.3894 59.809C58.4883 57.3289 58.34 56.8329 59.675 56.8329C60.1199 57.0313 59.9222 56.9321 60.1694 57.2793L62.4438 60.7019C62.5921 60.9499 62.691 61.0987 62.8394 61.2971L65.5093 65.2652C65.6082 65.414 65.806 65.7612 65.9543 65.8108C66.3993 65.9596 66.5971 65.7116 67.2893 65.9596C67.141 65.7116 67.4871 65.7612 67.0421 65.7612C66.7949 65.8604 66.3499 65.8108 66.2015 65.7116C66.1026 65.662 66.1521 65.662 66.1026 65.6124C65.7565 65.3148 65.2621 64.4716 64.9654 64.0748C64.6193 63.5788 64.2238 63.0331 63.8777 62.4875C63.3338 61.6443 58.6366 54.9977 58.4389 54.3528C58.1916 53.708 58.0433 52.9144 57.8455 52.22L57.7466 52.4184L56.3128 71.0686V71.1182V71.8622C55.9172 71.8622 55.3239 71.9614 55.1261 71.6142C54.5328 71.4158 54.9284 69.6302 54.9778 68.9853C55.0272 68.0429 55.1261 67.0013 55.225 66.0092C55.3239 64.1244 55.4228 62.1403 55.6206 60.1562C55.8183 58.2218 55.9667 56.1881 56.115 54.2536C56.1644 53.3112 56.2633 52.3192 56.3622 51.3271C56.4117 50.8311 56.3622 50.3847 56.7578 50.1367C57.2522 49.8391 57.6972 50.0871 57.9939 49.9879C58.34 50.2359 59.3783 51.8231 59.7244 52.3688C59.8727 52.6168 60.0705 52.8648 60.2683 53.1624L65.7071 61.1483C65.9049 61.4459 66.0532 61.6443 66.251 61.9419C66.4487 62.1899 66.5971 62.6859 66.8937 62.6363C67.0915 62.3387 67.2893 62.0411 67.4871 61.7435L72.827 53.8568C73.2225 53.2616 73.6181 52.716 74.0136 52.0712L75.2003 50.2855C75.6453 49.6407 76.9308 49.7399 77.0792 50.4343C76.9308 50.5335 76.6836 50.6327 76.4858 50.7319L76.5847 52.0216C76.5353 52.5176 77.2275 60.6523 77.2769 61.2475C77.4253 62.7851 77.4747 64.3228 77.623 65.91C77.7714 67.3485 77.9197 68.9853 77.9691 70.4734C78.0186 70.5726 78.0186 70.3742 78.068 70.6718C78.068 70.771 78.068 70.9198 78.068 70.9694L78.0186 71.0686V71.8126C77.6725 71.8126 77.1286 71.9118 76.8319 71.6638C76.3375 71.3662 76.4364 70.6222 76.3375 69.8782C76.2881 69.1838 76.1892 68.4397 76.1892 67.7453C76.1397 66.3069 75.9914 64.7692 75.8925 63.3307C75.7936 61.8923 75.6947 60.305 75.5464 58.9162L75.2497 54.452C74.9036 54.5016 75.0025 54.5016 74.8047 54.7496L72.9753 57.3785C72.9259 57.4281 72.8764 57.5273 72.827 57.5769L71.1459 60.057C71.047 60.2058 70.9976 60.305 70.8987 60.4538L68.9704 63.2811C68.6737 63.678 67.8332 65.0668 67.5365 65.3644C67.2893 65.6124 67.3387 65.5132 67.2893 65.8108C67.6354 65.7612 67.6848 65.7612 67.8332 65.5132L73.272 57.4281C73.6181 56.9321 73.6675 56.7833 74.4092 56.7833C74.6564 56.9321 74.8047 56.9321 74.8542 57.2793L74.2609 57.6265L74.3598 59.065C74.3103 59.5114 74.9036 67.9933 75.0025 69.0845C75.1014 70.1262 75.2003 71.3662 75.2003 72.4079L75.2992 72.7055L75.9914 71.9614H79.3041C79.3041 71.1678 79.1558 70.0766 79.1064 69.283C78.8591 66.6541 78.7108 63.7772 78.4636 61.0987C78.3153 59.313 78.2164 57.4281 78.0186 55.6921C77.9197 54.9977 77.5736 50.5831 77.623 50.2359L77.4747 49.7399C76.9308 49.7399 75.5958 49.7895 75.1509 49.6903C74.9531 49.3927 74.9531 49.2439 74.6564 48.9958L74.162 49.6903C73.9642 49.9879 73.8159 50.1863 73.6675 50.4343L67.8826 59.4618C67.5365 59.9578 67.1904 60.5034 66.8937 60.9995L66.7949 61.1483V61.8427C66.696 61.8427 66.5476 61.8427 66.4487 61.7931C66.251 61.7435 66.3004 61.6939 66.251 61.6443C66.0038 61.5451 62.5427 56.1881 62.3449 55.8409L58.4883 49.9383C58.0433 49.6407 56.7083 49.8887 56.0656 49.7895C55.8678 49.5911 55.5711 49.3431 55.3733 49.1447C55.225 49.1447 55.2745 49.1943 55.2745 48.9958L54.2856 60.5531C54.2856 61.2475 53.3956 71.6638 53.445 72.1103Z" fill="#F7BA52"/>
<path fill-rule="evenodd" clip-rule="evenodd" d="M122.567 66.7527C122.617 66.9015 122.518 66.8023 122.617 66.9015C123.655 66.2567 123.309 66.2071 124.891 66.2071C127.561 66.2071 131.269 66.3063 133.692 66.2071C133.692 65.9095 131.962 61.991 131.714 61.247C131.616 61.2966 131.517 61.0981 131.665 61.495C131.912 62.239 132.951 64.5703 133 65.2151C132.506 65.2151 132.654 65.1655 132.258 65.3143V66.1079H124.842L124.743 65.9591C123.853 65.7111 124.792 63.975 125.089 63.1814L127.907 55.9396C128.006 55.642 128.056 55.4436 128.303 55.3444C128.55 55.1955 128.847 55.2948 129.045 55.394C129.193 55.3444 129.242 55.4932 129.193 55.2947L129.143 55.1955C129.143 54.7491 128.748 54.4019 128.748 53.7075C128.748 53.4595 128.797 52.0706 128.698 51.9714L122.567 66.7527Z" fill="#F7BA52"/>
<path fill-rule="evenodd" clip-rule="evenodd" d="M53 72.953V73.0522C53.1483 73.1514 53.0989 73.201 53.3461 73.2506C53.5439 73.3002 53.7417 73.3002 53.9394 73.3002C54.1867 73.6971 54.8294 74.1931 55.1755 74.5403L55.2744 74.6395C55.4227 74.7883 55.7194 75.2347 55.9666 75.2347H60.6638C61.0099 75.2347 60.911 74.4411 60.911 74.1435C60.911 73.9451 60.9604 74.0443 60.9604 73.7467C60.9604 73.1514 61.0099 72.5562 61.0593 72.0106L61.5043 65.2648C61.5538 64.7191 61.5043 64.0247 61.6032 63.5287C61.6527 63.0823 61.7021 62.3383 61.7021 61.7926C61.8504 61.8919 61.8504 61.9415 61.9493 62.0903C62.0482 62.2391 62.0977 62.2887 62.1965 62.4375C62.3449 62.6855 62.4932 62.8839 62.691 63.1815L64.6687 66.108C64.8171 66.356 64.9654 66.5544 65.1632 66.852C65.3115 67.0504 65.2621 67.0504 65.5093 67.1C65.707 67.1496 65.9048 67.1496 66.1026 67.1496C66.4487 67.6456 67.0915 68.1913 67.5859 68.6377C67.7342 68.7865 67.8826 69.0345 68.1792 69.0345H70.4536L74.063 63.6279C74.1619 63.4791 74.063 63.6279 74.1619 63.5287C74.2114 64.2727 74.3597 65.4136 74.3597 66.108C74.3597 66.4552 74.4091 66.4552 74.4091 66.7528L74.4586 68.0921C74.4586 68.3897 74.508 68.4393 74.508 68.7865L74.7058 71.3658C74.8541 72.5562 74.4091 73.2506 75.6452 73.2506C75.7936 73.4491 75.9419 73.5979 76.1397 73.7467L76.6836 74.2427C76.9308 74.4907 77.4252 75.1355 77.8208 75.1355H82.6663C82.6663 74.2923 82.5674 73.6971 82.5674 72.9034C82.5674 72.6058 82.5179 72.705 82.5179 72.457L82.2707 69.2825C82.2213 69.1337 82.2707 68.9353 82.2707 68.7865L82.0235 66.0584C82.0235 65.9096 82.0235 65.7608 82.0235 65.612C82.0235 65.3144 81.974 65.4136 81.974 65.1656C81.974 65.0168 81.974 64.8183 81.974 64.6695C81.974 64.4711 81.9246 64.5207 81.9246 64.2231L81.8257 62.3879C81.8257 62.1399 81.7763 62.2887 81.7763 61.9911L81.5785 59.7094C81.5785 59.5606 81.5785 59.4118 81.5785 59.263C81.5785 59.0149 81.5291 59.1142 81.5291 58.8165L81.3313 56.5845C81.3313 56.4357 81.3313 56.2373 81.3313 56.0884C81.3313 55.8404 81.2818 55.9396 81.2818 55.642L81.1829 53.8068C81.1829 53.5092 81.1335 53.6084 81.1335 53.3604L80.8368 51.7235C80.8368 51.1779 80.3918 50.9299 80.0457 50.5827C79.6996 50.2354 79.403 49.9378 79.0569 49.5906C77.9691 48.4994 79.9468 48.6482 75.0025 48.6482C74.8541 48.6482 74.6564 48.6978 74.5575 48.7474C74.3103 48.8962 69.9592 55.642 69.0198 57.0805C68.7726 57.4277 67.3387 59.759 67.042 59.9574C66.597 59.1142 65.6576 57.8245 65.1137 56.9813C64.8171 56.4853 61.7021 51.6739 61.3066 51.2771L60.3671 50.3346C60.3671 50.3346 60.3671 50.3346 60.3177 50.285L60.1693 50.1362C59.6749 49.6898 59.4277 48.6482 58.686 48.6482H55.4722C54.8294 48.6482 54.8294 49.1442 54.8294 49.6402C54.8294 50.1858 54.6811 50.6819 54.6811 51.2275C54.6811 51.9715 54.4833 52.8147 54.4833 53.5092C54.4833 54.3028 54.335 55.0964 54.2855 55.8404C54.2855 55.9396 54.2855 56.0884 54.2855 56.2373C54.2855 56.4853 54.2361 56.3861 54.2361 56.6341C54.1867 57.5269 54.0383 59.8086 53.9394 60.5526L53.5933 65.116C53.4944 65.612 53.5439 66.2072 53.445 66.7032C53.2967 67.3976 53.3461 69.0345 53.1978 69.7785L53 72.953ZM53.445 72.1098C53.3956 71.6138 54.2855 61.247 54.335 60.6022L55.3239 49.045H58.7849C59.0321 49.1938 59.1805 49.541 59.3288 49.7394L62.7899 54.9972C63.4821 56.0388 64.1248 57.0309 64.8171 58.0229L66.3004 60.3046C66.5476 60.6518 66.6465 60.999 66.8443 60.9494C67.1409 60.4534 67.5365 59.9078 67.8331 59.4118L73.7169 50.5331C73.9147 50.285 74.0136 50.037 74.2114 49.789L74.7058 49.0946C74.8047 48.9954 74.6069 49.045 74.953 48.9954H78.2658C78.4635 49.0946 78.4635 50.1362 78.4635 50.3843C78.513 50.9299 78.5624 51.3763 78.5624 51.9219L79.3041 60.8502C79.5019 62.8343 79.6007 64.868 79.7985 66.852C79.9963 68.7865 80.1941 70.9194 80.2435 72.8538H75.2002V72.457C75.2002 71.4154 75.0519 70.1257 75.0025 69.1337C74.9036 68.0425 74.3103 59.5606 74.3597 59.1142C74.2608 58.9653 74.2114 57.9237 74.2114 57.7253C73.7664 57.9733 68.7231 66.0088 68.0309 66.7528H65.707C65.4104 66.7032 65.6082 66.7528 65.5093 66.604L59.4771 57.6757C59.3782 57.7749 59.4277 57.6261 59.3782 57.9237L59.131 61.4454C59.0816 62.7351 58.9827 63.9751 58.8838 65.2152C58.7355 67.7449 58.5377 70.3241 58.3894 72.8538H53.3461C53.3956 72.705 53.3461 72.209 53.445 72.1098Z" fill="#1D1D1D"/>
<path fill-rule="evenodd" clip-rule="evenodd" d="M192.926 60.9499C192.926 62.1404 193.074 63.2812 193.321 64.2732C193.519 65.0173 193.717 65.6621 194.014 66.3565C194.459 67.2493 194.953 68.1422 195.596 68.9358L197.771 71.0687C197.969 71.2175 198.117 71.3167 198.315 71.4159L199.156 71.9615C199.798 72.4575 200.293 73.0527 200.985 73.4496C202.221 74.1936 203.408 74.7888 204.891 75.1856C207.067 75.7312 209.638 75.7808 211.912 75.5328C213.643 75.3344 215.423 74.9376 216.955 74.144V62.9836C216.955 62.8348 216.807 62.7356 216.708 62.6364C216.708 62.6364 216.708 62.6364 216.659 62.5868L216.412 62.3388C216.412 62.3388 216.412 62.3388 216.362 62.2892C216.362 62.2892 216.362 62.2892 216.313 62.2396L215.175 61.0491C215.175 61.0491 215.175 60.9995 215.126 60.9995C214.978 60.8507 214.978 60.8011 214.78 60.7019C214.78 60.3547 214.681 60.1563 214.335 60.1563H204.792C204.496 60.1563 204.347 60.3547 204.347 60.6523V64.6205C204.347 64.8189 204.446 65.0173 204.545 65.0669C204.693 65.1661 204.941 65.1165 205.188 65.1165C205.336 65.3645 205.484 65.4141 205.682 65.6125C206.078 65.9101 206.968 67.1005 207.413 67.1005H209.193V68.539C208.946 68.539 208.847 68.5886 208.599 68.6382C208.402 68.6878 208.105 68.6878 208.006 68.7374C207.66 68.787 206.523 68.8366 206.127 68.7374C205.88 68.6878 205.682 68.7374 205.484 68.6878C204.397 68.4894 203.26 68.2414 202.37 67.6462C201.628 67.1501 201.529 66.9517 201.232 66.0589C200.293 63.2316 200.837 59.5115 203.062 57.329C204.1 56.2874 205.386 55.6425 206.869 55.3449C207.116 55.2953 207.462 55.1961 207.66 55.1961C209.044 55.1465 209.539 55.0969 211.022 55.3449C212.159 55.5433 213.297 55.8906 214.335 56.4362C214.483 56.1882 214.632 55.7913 214.73 55.4937C214.879 55.0969 215.868 52.716 215.868 52.5176C215.868 52.3688 215.868 52.5176 215.769 52.4184L215.571 52.1704C215.423 51.972 215.175 51.8728 215.027 51.6744L214.632 51.2776C214.434 51.1288 214.335 50.9304 214.038 50.6824C213.643 50.3848 213.89 50.0871 213.593 49.8887L212.506 49.3431C209.143 48.0039 205.04 47.8551 201.578 48.8967C199.057 49.6903 196.684 51.3768 195.2 53.6089C195.101 53.8073 195.002 53.9065 194.904 54.0553C194.211 55.0969 193.717 56.3866 193.371 57.6266C193.321 57.7754 193.321 57.8746 193.272 57.9738C193.025 58.8667 192.926 59.9579 192.926 60.9499ZM201.133 67.3485C201.43 67.4478 202.567 68.4894 204.693 68.9358C205.04 68.9854 206.127 69.0846 206.177 69.1838C206.671 69.0846 207.462 69.1342 208.006 69.0846C208.599 69.035 209.044 68.9358 209.588 68.787V64.7693H204.743V60.6027H214.434V71.8127C209.737 73.896 203.111 74.0944 198.513 71.1183C198.216 70.9199 197.969 70.7215 197.722 70.5231C197.475 70.3246 197.129 70.0766 196.98 69.8286L196.733 69.6302C196.634 69.531 196.585 69.4318 196.436 69.3326C195.843 68.6382 195.497 68.2414 194.953 67.3981C194.508 66.6541 193.816 65.1661 193.667 64.1244C193.272 63.0828 193.222 60.5035 193.42 59.2139C193.915 55.6921 195.695 52.7656 198.513 50.8808C198.859 50.6328 199.848 49.9879 200.243 49.9879C200.54 49.5911 202.567 49.0951 203.21 48.9463C205.435 48.4999 208.204 48.5991 210.379 49.1447C211.072 49.2935 212.901 49.9383 213.198 50.236L213.346 50.3352C213.198 50.7816 212.061 53.9065 211.863 54.2041C211.467 54.1049 210.874 53.8073 210.429 53.6089C208.797 53.0137 206.869 52.8152 205.138 52.964C200.441 53.4105 197.821 57.6762 198.365 62.1404C198.513 63.3804 198.81 64.2236 199.353 65.2157C199.601 65.6621 199.897 66.0093 200.194 66.4061C200.342 66.6045 200.491 66.7533 200.688 66.9517C200.787 67.0509 200.985 67.1005 201.133 67.3485Z" fill="#1D1D1D"/>
<path fill-rule="evenodd" clip-rule="evenodd" d="M92.3572 49.0949V73.0525C92.8022 73.3501 92.555 73.3005 93.3461 73.3005C93.445 73.4493 95.1261 75.1854 95.2744 75.1854H110.058V71.1676C110.058 70.87 109.811 70.6716 109.613 70.5228L108.377 69.0843C108.229 68.9355 108.278 68.8859 108.031 68.8859C108.031 68.5387 107.932 68.3403 107.586 68.3403H100.12V66.0586H108.13C108.278 66.0586 108.328 66.009 108.328 65.8602V61.8921C108.328 61.6937 107.981 61.4457 107.883 61.3465L106.646 59.9576C106.498 59.8088 106.548 59.8088 106.251 59.8088C106.152 59.412 106.103 59.2632 105.608 59.2632H100.12V55.5927H109.811V51.4261C109.811 51.2277 109.465 50.9797 109.366 50.8805L108.575 50.0869C108.426 49.9381 108.426 49.8885 108.328 49.7893C108.179 49.6405 107.932 49.3429 107.734 49.2933C107.734 48.946 107.635 48.7476 107.091 48.7476H92.9506C92.555 48.6484 92.3572 48.7476 92.3572 49.0949ZM97.6477 59.6104H105.658C105.855 59.7096 105.806 59.7592 105.806 60.0568C105.806 61.0985 105.855 62.8841 105.806 63.777H97.6477V68.7371H107.635V72.9037H92.7528C92.7033 68.9355 92.7528 64.9178 92.7528 60.9497V49.6901C92.7528 49.5909 92.7528 49.4421 92.7528 49.2933C92.7528 49.1941 92.7528 49.1941 92.7528 49.0949L92.8022 48.9957H107.24C107.388 49.0453 107.289 48.946 107.339 49.0949V53.1622H97.6477V59.6104Z" fill="#1D1D1D"/>
<path fill-rule="evenodd" clip-rule="evenodd" d="M147.19 48.7475C147.042 49.3923 147.141 52.5172 147.141 53.41C147.487 53.6581 147.438 53.6084 148.031 53.6084C148.278 53.9557 148.723 54.2533 149.02 54.5509C149.168 54.6997 149.86 55.4933 150.058 55.4933H153.47V72.6555C153.47 73.3499 153.865 73.3003 154.557 73.3003L155.991 74.7884C156.189 74.9868 156.189 75.2348 156.585 75.2348H161.134C161.282 75.2348 161.331 75.1852 161.331 75.0364V55.4933H167.512C167.66 55.4933 167.71 55.4437 167.71 55.2949V51.426C167.71 51.1284 165.979 49.6403 165.732 49.2435C165.485 48.8963 165.781 48.5491 165.04 48.5491H147.932C147.487 48.6483 147.438 48.6979 147.19 48.7475ZM164.941 49.0451C165.089 49.1443 165.04 48.8467 165.04 49.2435V53.2116H158.711V72.8539H153.964C153.668 72.8539 153.915 72.8539 153.816 72.7547V53.2116H147.536C147.388 52.914 147.487 49.3427 147.487 49.0451H164.941Z" fill="#1D1D1D"/>
<path fill-rule="evenodd" clip-rule="evenodd" d="M116.782 72.8047V73.0527C117.03 73.2015 117.03 73.3007 117.672 73.3007C117.969 73.7967 118.859 74.4912 119.353 74.9376C119.65 75.2352 119.7 75.1856 120.243 75.1856C121.727 75.1856 123.21 75.1856 124.693 75.1856C124.743 74.9872 124.792 74.9872 124.842 74.7888L126.078 71.6143C128.797 71.6143 131.517 71.6143 134.236 71.6143C134.533 72.1599 134.73 73.1519 134.978 73.2511C135.175 73.3503 135.423 73.3007 135.719 73.3007L137.203 74.7888C137.351 74.9376 137.499 75.1856 137.796 75.1856H142.493C142.79 75.1856 142.592 74.9376 142.394 74.4416L133.148 51.4264C133.049 51.0296 132.802 50.9304 132.308 50.4343L131.121 49.1943C130.874 48.8967 131.022 48.6487 130.429 48.6487H126.918C126.276 48.6487 126.276 49.0455 125.979 49.8391L119.205 66.6541C118.908 67.4477 116.782 72.6063 116.782 72.8047ZM117.277 72.5567C117.326 72.1599 118.216 70.0766 118.463 69.5806L124.347 54.9977C124.595 54.3529 126.572 49.3431 126.721 49.2439C126.819 49.0951 126.721 49.1447 126.918 49.0951H130.627C130.874 49.2439 130.923 49.5911 131.022 49.8391L137.944 66.9517C138.192 67.5469 140.219 72.5071 140.318 72.9535H135.324L135.225 72.7551L133.939 69.3822H123.705L122.37 72.9039H117.277C117.178 72.6559 117.178 72.7055 117.277 72.5567Z" fill="#1D1D1D"/>
<path fill-rule="evenodd" clip-rule="evenodd" d="M224.718 60.5529C224.718 62.9338 224.965 64.4218 225.905 66.5051C226.35 67.4475 226.646 67.8939 227.24 68.7372L229.564 71.0189L230.355 71.5645C230.454 71.6141 230.553 71.6637 230.602 71.7629C231.591 72.4077 231.344 72.4077 232.135 72.9533C232.332 73.1021 232.481 73.2013 232.679 73.3501L233.816 74.0446C236.585 75.4334 237.92 75.5822 240.985 75.5822C242.37 75.5822 244.545 75.0862 245.831 74.491C246.671 74.0942 246.968 73.9454 247.709 73.4493C248.303 73.0525 248.847 72.6061 249.391 72.1101C249.687 71.8621 249.836 71.6141 250.083 71.3661C251.764 69.7292 253 66.0587 253 63.8266C253 60.9001 252.654 59.4617 251.467 57.1304C251.121 56.436 250.528 55.5927 249.984 54.9975C249.885 54.8487 249.885 54.8487 249.786 54.7495C249.341 54.2535 248.946 54.0055 248.253 53.063C247.413 51.9222 245.88 50.6822 244.595 49.9877L243.012 49.2437C241.925 48.7477 239.65 48.3013 238.464 48.3013C235.447 48.3013 234.656 48.4501 232.135 49.4421C230.701 49.9877 229.761 50.831 228.674 51.6742C228.328 51.9222 227.685 52.7158 227.388 53.1126C226.993 53.6087 226.449 54.4023 226.201 54.9975C226.152 55.0967 226.103 55.1463 226.053 55.2455C225.361 56.3863 224.718 58.7672 224.718 60.5529ZM231.789 71.9117C231.294 71.8621 229.712 70.6716 229.316 70.374C228.822 69.9772 227.586 68.7868 227.339 68.1916C227.19 68.142 226.745 67.3483 226.646 67.1995C225.954 65.9595 225.509 64.6698 225.262 63.2314C224.421 58.2712 226.449 53.4598 230.454 50.831C230.8 50.6326 232.382 49.6901 232.827 49.6405L234.162 49.1445C236.585 48.4997 239.353 48.4997 241.776 49.2437C242.271 49.3925 243.853 49.9381 244.15 50.2357C245.188 50.5829 246.918 52.1206 247.66 52.9638C251.072 56.7832 251.467 62.8842 249.044 67.1499C247.66 69.5804 245.386 71.6141 242.172 72.7053C239.057 73.7469 235.349 73.5981 232.332 72.2589C232.085 72.1101 231.887 72.0109 231.789 71.9117Z" fill="#1D1D1D"/>
<path fill-rule="evenodd" clip-rule="evenodd" d="M176.362 49.1442V72.8043C176.362 73.3003 176.807 73.3003 177.302 73.3003C177.4 73.5483 178.043 73.9947 178.241 74.2427C178.686 74.6891 178.983 74.8875 179.18 75.1851H183.878C184.026 75.1851 184.075 75.1355 184.075 74.9867V51.4755C184.075 51.1283 183.828 51.0291 183.63 50.8307L183.136 50.2851C182.79 49.8883 182.394 49.2434 181.999 49.2434C181.999 48.9458 181.949 48.6978 181.356 48.6978H176.956C176.609 48.6482 176.362 48.7474 176.362 49.1442ZM176.807 49.045H181.504C181.702 49.1442 181.653 48.8962 181.653 49.3426V72.9035H176.758C176.659 66.108 176.758 58.9158 176.758 52.0707V49.7891C176.758 49.4914 176.708 49.2434 176.807 49.045Z" fill="#1D1D1D"/>
<path fill-rule="evenodd" clip-rule="evenodd" d="M232.876 67.3979C233.074 67.4475 233.321 67.6955 233.47 67.7947C233.717 67.9435 233.865 68.0427 234.112 68.1915C234.607 68.4395 235.052 68.6379 235.546 68.7868C236.931 69.1836 237.771 69.0844 239.205 69.0348L240.392 68.7372C240.985 68.3899 241.43 68.4891 242.716 67.4475C246.473 64.521 245.485 59.7592 245.583 59.412C245.435 59.2136 245.336 58.4696 245.089 57.8744C244.15 55.4439 243.26 55.1959 242.666 54.4519C241.677 53.9558 241.578 53.559 239.996 53.1126C238.958 52.815 237.623 52.7158 236.486 52.9638C231.986 53.807 229.662 57.7752 230.206 62.2393C230.404 64.025 231.245 65.6618 232.481 66.8523L232.876 67.3979ZM237.87 68.6875C236.436 68.6875 234.805 68.2411 233.667 67.3979C233.519 67.2987 233.618 67.3979 233.519 67.2987C233.321 67.0011 232.926 65.8603 232.827 65.4634C232.58 64.4714 232.629 64.4714 232.58 63.6282C232.58 63.1818 232.481 63.5786 232.58 62.9338C232.679 62.4873 232.481 62.2889 232.827 61.0489C233.074 60.0569 233.371 59.4616 233.816 58.7176C234.409 57.676 235.349 56.8327 236.337 56.2375C238.266 55.0967 240.441 54.8983 242.567 55.4935C242.815 55.5431 243.309 55.7415 243.507 55.8903C244.1 56.4359 244.644 57.8248 244.891 58.5688C245.435 60.2057 245.287 62.4873 244.644 64.1242C244.347 64.8186 243.754 65.8603 243.161 66.4555C242.468 67.1003 241.925 67.6459 240.985 68.0427C240.392 68.2907 239.403 68.6379 238.76 68.6379C238.365 68.6379 238.216 68.6875 237.87 68.6875Z" fill="#1D1D1D"/>
<path fill-rule="evenodd" clip-rule="evenodd" d="M117.277 72.5565L117.227 72.7549C118.068 72.4077 117.821 72.0605 119.057 72.0605C119.897 72.0605 120.738 72.0605 121.578 72.0605C121.974 71.118 122.32 70.126 122.716 69.134C122.963 68.4892 123.309 68.4892 124.1 68.4892H133.198C133.593 68.4892 133.841 68.5388 134.137 68.5884C134.335 68.6876 134.236 68.5884 134.483 68.9356C134.533 69.0844 134.582 69.2332 134.681 69.382C134.879 69.878 135.571 71.8125 135.769 72.0109H138.983C138.933 71.6141 138.093 69.7292 137.895 69.1836C137.499 68.2411 137.153 67.3979 136.807 66.4555C135.522 62.9834 133.692 58.9656 132.407 55.4935C131.714 53.6582 130.923 51.823 130.182 50.0373L130.033 49.8389H127.314C127.116 49.6901 127.166 49.6405 127.017 49.4421C126.918 49.2933 126.869 49.1941 126.671 49.1941C126.523 49.3429 124.595 54.3527 124.298 54.9479L118.464 69.5804C118.216 70.126 117.326 72.1597 117.277 72.5565ZM120.787 70.9196L120.688 71.118C120.787 71.4157 120.886 71.5645 120.936 71.8125C120.59 71.9117 119.749 72.1101 119.452 71.7629C118.909 71.4653 119.057 70.87 119.304 70.2748C121.925 64.0746 124.496 57.7256 127.166 51.5254C127.363 51.1286 127.611 50.3349 127.858 50.1365C128.402 49.7893 128.946 49.9877 129.391 50.1365C129.737 50.3845 129.885 51.0294 130.033 51.4262L133.841 60.5529C135.126 63.529 136.758 67.2987 137.944 70.374C138.043 70.622 138.093 70.7708 138.093 71.0684L137.351 71.118V71.0684C137.499 71.6637 137.598 71.4653 137.648 71.7629C137.302 71.8621 136.412 72.0605 136.164 71.7133C135.769 71.5149 135.571 70.6716 135.324 70.126C135.176 69.7788 134.681 68.7372 134.632 68.39C134.335 68.2411 134.335 68.2908 133.989 68.2908C132.555 68.2908 122.815 68.3404 122.666 68.2908C122.468 68.1419 122.32 67.5963 122.023 67.6459L120.787 70.9196Z" fill="#F9C155"/>
<path fill-rule="evenodd" clip-rule="evenodd" d="M105.46 50.831V51.3766C105.361 51.5254 105.361 51.4758 104.916 51.4758H95.5711C95.5216 52.5671 95.5216 61.049 95.6205 61.3466C95.7688 61.1482 95.8183 61.1482 96.016 60.9498C96.1644 60.801 96.2138 60.7018 96.4116 60.6026C96.6094 60.5034 103.482 60.553 104.026 60.6026C103.927 60.4538 104.174 60.553 103.828 60.4538C103.779 60.4538 103.63 60.4538 103.581 60.4538C102.098 60.4538 96.9555 60.4042 96.3127 60.553V52.2695C97.1038 52.4183 102.988 52.3191 104.471 52.3191C105.608 52.3191 106.201 52.4183 106.251 50.9302C106.3 50.335 106.103 50.087 105.559 49.9878C105.559 49.9878 105.608 49.9878 105.608 50.0374C105.608 50.087 105.658 50.087 105.658 50.087L105.756 50.1862C105.707 50.4838 105.608 50.583 105.46 50.831Z" fill="#F6AF3C"/>
<path fill-rule="evenodd" clip-rule="evenodd" d="M212.357 62.3388C212.456 63.2812 212.357 68.1918 212.407 69.8782C212.407 70.275 212.506 70.4734 212.11 70.6222C211.813 70.6222 211.368 70.8206 211.072 70.9198C210.726 71.019 210.379 71.1182 209.984 71.1679C209.292 71.3167 208.451 71.4159 207.71 71.4655C207.611 71.6143 207.66 71.5647 207.265 71.5647C206.721 71.5647 204.397 71.6639 204.199 71.5647C204.15 71.8127 204.15 71.7631 204.15 72.0607H203.902L204.199 72.2095C205.287 72.4575 207.611 72.3087 208.649 72.2095C209.539 72.1103 212.011 71.5647 212.604 71.1679C213.297 70.7214 213.148 70.1758 213.148 69.2334V62.9836C213.148 62.5868 213.247 62.0411 212.951 61.8923V62.0411C212.753 62.1403 212.555 62.2395 212.357 62.3388Z" fill="#F6B140"/>
<path fill-rule="evenodd" clip-rule="evenodd" d="M67.0914 64.9179C67.042 65.3147 67.1903 65.3643 67.2892 65.662L66.9925 65.7612C67.4375 65.7612 67.0914 65.7116 67.2398 65.9596C66.5476 65.7116 66.3992 65.9596 65.9048 65.8108L65.9542 65.91L67.3881 65.9596C67.6353 65.8604 67.5859 65.8108 67.7342 65.6123C67.5859 65.8604 67.5364 65.8604 67.1903 65.91C67.2892 65.6123 67.1903 65.7116 67.4375 65.4635C67.7342 65.1659 68.5747 63.7771 68.8714 63.3803L70.7997 60.553C70.8986 60.4042 70.948 60.305 71.0469 60.1562L72.728 57.6761C72.7775 57.6265 72.8269 57.5273 72.8764 57.4777L74.7058 54.8488C74.9035 54.5512 74.7552 54.6008 75.1508 54.5512C75.1508 54.204 75.5463 53.0631 75.6452 52.5671C75.6946 52.2695 75.6946 52.4183 75.5958 52.3191C75.2991 52.6663 74.8047 53.4599 74.508 53.9063L67.3387 64.5211C67.1409 64.8187 67.1409 64.7195 67.0914 64.9179Z" fill="#F8BC4E"/>
<path fill-rule="evenodd" clip-rule="evenodd" d="M200.194 67.5466C200.342 67.745 200.342 67.745 200.54 67.8938C201.232 68.4394 202.815 69.4315 203.556 69.4315C204.001 69.5307 204.298 69.6299 204.743 69.6299C204.743 69.1834 204.693 69.0842 205.188 69.1338C205.534 69.1338 205.831 69.2331 206.177 69.1338C206.127 69.0842 205.04 68.985 204.693 68.8858C202.567 68.4394 201.43 67.3978 201.134 67.2986H200.886L200.491 67.6458L200.194 67.5466Z" fill="#F19714"/>
<path fill-rule="evenodd" clip-rule="evenodd" d="M103.878 61.3962C103.779 61.3466 103.976 61.3466 103.68 61.3466H99.7738C98.4882 61.3466 96.8566 61.4458 95.6205 61.3466C95.5216 61.049 95.5216 52.5671 95.5711 51.5255H104.916C105.311 51.5255 105.311 51.5751 105.46 51.4263H95.5216C95.4227 51.7735 95.4227 60.7018 95.5216 61.3962H103.878Z" fill="#A06C1D"/>
<path fill-rule="evenodd" clip-rule="evenodd" d="M105.756 70.5721C105.658 70.4729 105.756 70.5225 105.608 70.4729C105.608 70.4729 105.46 70.4729 105.41 70.4729H104.471C101.85 70.4729 97.796 70.5721 95.5711 70.4729C95.4722 70.1753 95.5216 62.983 95.5216 62.0406H103.63C103.828 62.0406 103.532 62.0406 103.729 62.0406L103.828 61.991H95.4722C95.3733 62.3382 95.3733 70.2249 95.4722 70.5721H105.756Z" fill="#8D601C"/>
<path fill-rule="evenodd" clip-rule="evenodd" d="M55.0765 71.6637C55.2743 72.011 55.8676 71.9118 56.2632 71.9118V71.1677H55.571L55.2249 71.7133L55.0765 71.6637Z" fill="#F5A72C"/>
<path fill-rule="evenodd" clip-rule="evenodd" d="M210.676 52.7656L211.319 53.0136L212.011 51.3767C211.912 51.1783 212.159 51.2279 211.813 51.2279C211.764 51.5751 211.616 52.0216 211.467 52.22C211.171 52.5672 210.973 52.5176 210.676 52.7656Z" fill="#FBC968"/>
<path fill-rule="evenodd" clip-rule="evenodd" d="M105.806 70.5226C106.103 70.4234 106.251 70.3242 106.449 70.225L106.399 70.0762C106.35 69.8282 106.202 69.8282 106.004 69.729C106.004 69.729 106.053 69.8282 106.103 69.8778L105.806 70.5226Z" fill="#F4A125"/>
<path fill-rule="evenodd" clip-rule="evenodd" d="M53.445 72.1102C53.3956 71.6142 54.2856 61.2475 54.335 60.6027L55.3239 49.0455H58.7849C59.0322 49.1943 59.1805 49.5415 59.3288 49.7399L62.7899 54.9977C63.4821 56.0393 64.1249 57.0313 64.8171 58.0234L66.3004 60.305C66.5476 60.6523 66.6465 60.9995 66.8443 60.9499C67.1409 60.4538 67.5365 59.9082 67.8331 59.4122L73.717 50.5335C73.9147 50.2855 74.0136 50.0375 74.2114 49.7895L74.7058 49.0951C74.8047 48.9958 74.6069 49.0455 74.9531 48.9958H78.2658C78.4636 49.0951 78.4636 50.1367 78.4636 50.3847C78.513 50.9303 78.5624 51.3767 78.5624 51.9224L79.3041 60.8507C79.5019 62.8347 79.6008 64.8684 79.7985 66.8525C79.9963 68.7869 80.1941 70.9198 80.2435 72.8543H75.2003V72.4575C75.2003 71.4158 75.0519 70.1262 75.0025 69.1341C74.9036 68.0429 74.3103 59.561 74.3597 59.1146C74.2608 58.9658 74.2114 57.9242 74.2114 57.7258C73.7664 57.9738 68.7231 66.0092 68.0309 66.7533H65.7071C65.4104 66.7037 65.6082 66.7533 65.5093 66.6045L59.4772 57.6762C59.3783 57.7754 59.4277 57.6265 59.3783 57.9242L59.131 61.4459C59.0816 62.7355 58.9827 63.9756 58.8838 65.2156C58.7355 67.7453 58.5377 70.3246 58.3894 72.8543H53.3461C53.3956 72.7055 53.3461 72.2095 53.445 72.1102Z" fill="#FDB001"/>
<path fill-rule="evenodd" clip-rule="evenodd" d="M56.3127 71.0684L57.6971 52.3685V52.0213C57.8949 52.1701 61.8998 58.1223 62.1471 58.4696C63.6304 60.652 65.0642 62.7849 66.5476 64.9674H66.9431L67.042 64.9178C67.0914 64.7194 67.042 64.8186 67.2398 64.521L74.508 53.8566C74.8047 53.4102 75.2991 52.6166 75.5958 52.2693L75.6947 52.0709C75.843 52.2197 76.0902 56.6343 76.0902 56.7831C76.2385 58.3208 76.3374 59.9576 76.4363 61.4953C76.5846 64.6698 76.9307 67.8443 77.1285 71.0188C77.3263 71.118 77.623 71.0684 77.8702 71.0684L77.8207 70.4732C77.7713 69.0347 77.623 67.3483 77.4746 65.9098C77.3263 64.3722 77.2769 62.8345 77.1285 61.2472C77.0791 60.7016 76.3869 52.5174 76.4363 52.0213C76.3374 51.9221 76.288 50.9797 76.288 50.7317H75.843C75.4474 51.1781 75.0024 51.9221 74.7058 52.4181L67.932 62.6361C67.7342 62.9337 66.9925 64.1242 66.7453 64.273L66.6464 64.0249C66.4487 63.8761 60.3176 54.6998 59.9221 54.1542C59.6254 53.7078 57.8455 51.1781 57.7466 50.8805H57.2521L55.6205 71.118L56.3127 71.0684Z" fill="#1D1D1D"/>
<path fill-rule="evenodd" clip-rule="evenodd" d="M97.6477 59.6106H105.658C105.855 59.7098 105.806 59.7594 105.806 60.057C105.806 61.0987 105.855 62.8843 105.806 63.7772H97.6477V68.7373H107.635V72.9039H92.7528C92.7034 68.9357 92.7528 64.918 92.7528 60.9499V49.6903C92.7528 49.5911 92.7528 49.4423 92.7528 49.2935C92.7528 49.1943 92.7528 49.1943 92.7528 49.0951L92.8023 48.9958H107.24C107.388 49.0455 107.289 48.9462 107.339 49.0951V53.1624H97.6477V59.6106Z" fill="#FDB001"/>
<path fill-rule="evenodd" clip-rule="evenodd" d="M105.756 71.0683V70.5226H95.5216C95.4227 70.225 95.4227 62.3384 95.5216 61.9416H103.878V61.3959H95.5216C95.4227 60.7015 95.4227 51.8228 95.5216 51.426H105.46V50.8804H94.8294V71.1675L105.756 71.0683Z" fill="#1D1D1D"/>
<path fill-rule="evenodd" clip-rule="evenodd" d="M117.277 72.5561C117.326 72.1593 118.216 70.076 118.464 69.58L124.347 54.9971C124.595 54.3523 126.572 49.3425 126.721 49.2433C126.82 49.0945 126.721 49.1441 126.918 49.0945H130.627C130.874 49.2433 130.923 49.5905 131.022 49.8385L137.944 66.9511C138.192 67.5463 140.219 72.5065 140.318 72.9529H135.324L135.225 72.7545L133.939 69.3816H123.705L122.37 72.9033H117.277C117.178 72.6553 117.178 72.7049 117.277 72.5561Z" fill="#FDB001"/>
<path fill-rule="evenodd" clip-rule="evenodd" d="M120.787 70.9195L122.073 67.745C122.122 67.5465 122.024 67.6458 122.221 67.5961H135.126C135.324 67.6954 135.324 67.7946 135.423 67.993L136.708 71.1179C137.549 71.1179 137.351 71.1675 137.401 70.9691L128.995 50.8804H128.451L119.996 71.1675H120.689L120.787 70.9195ZM122.567 66.7529L128.649 51.8724C128.748 51.7732 128.55 51.7732 128.748 51.7732L134.978 66.9513H122.419L122.567 66.7529Z" fill="#1D1D1D"/>
<path fill-rule="evenodd" clip-rule="evenodd" d="M164.941 49.0451C165.089 49.1443 165.04 48.8467 165.04 49.2435V53.2116H158.711V72.8539H153.964C153.667 72.8539 153.915 72.8539 153.816 72.7547V53.2116H147.536C147.388 52.914 147.487 49.3427 147.487 49.0451H164.941Z" fill="#FDB001"/>
<path fill-rule="evenodd" clip-rule="evenodd" d="M149.415 51.4757C149.811 51.3765 155.052 51.4261 155.843 51.4261C155.991 51.5253 155.991 51.4261 155.991 51.9717C155.942 54.9478 155.991 58.2711 155.991 61.2472C155.991 64.5209 155.942 67.7946 155.991 71.0684H156.634L156.684 51.4757C156.782 51.3765 156.585 51.3765 156.931 51.3765H163.26V50.7812H149.465L149.415 51.4757Z" fill="#1D1D1D"/>
<path fill-rule="evenodd" clip-rule="evenodd" d="M176.807 49.0945H181.504C181.702 49.1937 181.653 48.9457 181.653 49.3921V72.9529H176.758C176.659 66.1575 176.758 58.9652 176.758 52.1202V49.8385C176.758 49.5409 176.708 49.2929 176.807 49.0945Z" fill="#FDB001"/>
<path fill-rule="evenodd" clip-rule="evenodd" d="M179.527 71.1179V50.8308H178.884V71.1179H179.527Z" fill="#1D1D1D"/>
<path fill-rule="evenodd" clip-rule="evenodd" d="M201.133 67.3975C201.43 67.4967 202.567 68.5383 204.693 68.9847C205.04 69.0343 206.127 69.1335 206.177 69.2327C206.671 69.1335 207.462 69.1831 208.006 69.1335C208.599 69.0839 209.044 68.9847 209.588 68.8359V64.8182H204.743V60.6517H214.434V71.8616C209.737 73.9449 203.111 74.1433 198.513 71.1672C198.216 70.9688 197.969 70.7704 197.722 70.572C197.475 70.3736 197.129 70.1256 196.98 69.8776L196.733 69.6792C196.634 69.58 196.585 69.4808 196.436 69.3816C195.843 68.6871 195.497 68.2903 194.953 67.4471C194.508 66.7031 193.816 65.215 193.667 64.1734C193.272 63.1317 193.222 60.5524 193.42 59.2628C193.915 55.7411 195.695 52.8146 198.513 50.9297C198.859 50.6817 199.848 50.0369 200.243 50.0369C200.54 49.6401 202.567 49.1441 203.21 48.9952C205.435 48.5488 208.204 48.648 210.379 49.1937C211.072 49.3425 212.901 49.9873 213.198 50.2849L213.346 50.3841C213.198 50.8305 212.061 53.9554 211.863 54.253C211.467 54.1538 210.874 53.8562 210.429 53.6578C208.797 53.0626 206.869 52.8642 205.138 53.013C200.441 53.4594 197.821 57.7252 198.365 62.1893C198.513 63.4293 198.81 64.2726 199.353 65.2646C199.601 65.711 199.897 66.0582 200.194 66.4551C200.342 66.6535 200.491 66.8023 200.688 67.0007C200.837 67.0503 200.985 67.1495 201.133 67.3975Z" fill="#FDB001"/>
<path fill-rule="evenodd" clip-rule="evenodd" d="M198.958 69.0344C199.106 69.084 199.551 69.4312 199.749 69.58C202.221 71.3161 204.792 71.5641 207.759 71.4649C208.501 71.4153 209.292 71.3161 210.033 71.1673C210.379 71.1177 210.775 71.0185 211.121 70.9193C211.418 70.8201 211.863 70.6217 212.159 70.6217C212.258 70.5225 212.209 70.5225 212.407 70.4729V62.3382H206.869L206.82 62.9334H211.714V70.0265C210.083 70.8697 206.671 71.0185 204.644 70.7209C203.062 70.4729 201.529 69.8776 200.293 69.0344L199.452 68.3896C199.403 68.34 199.354 68.34 199.304 68.2904C199.156 68.1416 199.255 68.2408 199.205 68.1416L198.909 67.8936C198.81 67.7944 198.76 67.6952 198.612 67.596C198.117 67.0503 197.425 66.1079 197.178 65.4135C196.931 65.1655 196.535 63.8758 196.436 63.4294C195.942 61.1477 196.14 58.4692 197.079 56.4852C197.969 54.5507 199.354 53.1619 201.035 52.269C201.43 52.0706 202.518 51.4754 202.963 51.525C203.111 51.3762 203.161 51.4258 203.408 51.3266C204.693 51.029 205.682 50.9794 207.067 51.029C207.71 51.0786 208.501 51.1282 209.094 51.277C209.489 51.3762 210.676 51.7234 210.923 51.7234L211.072 51.1778C208.896 50.1858 205.188 50.0866 202.815 50.781C200.293 51.525 198.414 53.0627 197.277 54.8483C194.904 58.5189 194.904 64.2726 197.87 67.6456C198.513 68.4392 198.266 68.1416 198.909 68.7368L198.958 69.0344Z" fill="#1D1D1D"/>
<path fill-rule="evenodd" clip-rule="evenodd" d="M247.66 52.9144C246.918 52.0711 245.237 50.5335 244.15 50.1863C243.902 49.9383 242.271 49.343 241.776 49.1942C239.353 48.4998 236.585 48.4502 234.162 49.095L232.827 49.5911C232.332 49.6407 230.75 50.5831 230.454 50.7815C226.449 53.4104 224.421 58.2217 225.262 63.1819C225.509 64.6204 225.954 65.91 226.646 67.1501C226.745 67.3485 227.19 68.0925 227.339 68.1421C227.586 68.7373 228.822 69.9277 229.316 70.3246C229.663 70.6222 231.245 71.8126 231.789 71.8622C231.937 72.011 232.085 72.0606 232.332 72.1598C235.398 73.4991 239.106 73.6479 242.172 72.6062C245.386 71.515 247.66 69.4813 249.044 67.0508C251.467 62.8347 251.072 56.7337 247.66 52.9144ZM242.716 67.4477C241.43 68.4397 240.985 68.3405 240.392 68.7373L239.205 69.0349C237.771 69.1341 236.98 69.2333 235.546 68.7869C235.052 68.6381 234.607 68.4397 234.112 68.1917C233.865 68.0925 233.717 67.9437 233.47 67.7949C233.321 67.6957 233.074 67.4477 232.876 67.3981L232.382 66.902C231.146 65.7116 230.355 64.0747 230.108 62.2891C229.564 57.8249 231.937 53.8568 236.387 53.0136C237.524 52.8152 238.859 52.9144 239.897 53.1624C241.48 53.6088 241.578 53.956 242.567 54.5016C243.161 55.2456 244.051 55.4937 244.99 57.9241C245.237 58.5194 245.336 59.2634 245.485 59.4618C245.435 59.809 246.424 64.5212 242.716 67.4477Z" fill="#FDB001"/>
<path fill-rule="evenodd" clip-rule="evenodd" d="M232.975 70.5226C233.272 70.5722 234.113 70.9691 234.607 71.1179C235.2 71.3163 235.794 71.4155 236.486 71.5147C238.167 71.7131 239.106 71.5147 240.639 71.2667C240.985 71.1179 241.43 71.0187 241.826 70.8698C242.914 70.473 243.952 69.8778 244.792 69.1338C247.363 66.9017 248.698 63.6776 248.402 60.0567C248.155 56.9318 246.968 55.6917 246.918 55.2453C246.721 55.0965 246.77 55.0965 246.622 54.8981C245.583 53.3604 243.705 51.7732 242.024 51.2276C239.452 50.1363 235.991 50.1859 233.42 51.3268C231.047 52.3684 229.267 54.0549 228.229 56.4357C227.042 59.0646 226.943 62.388 228.08 65.116C228.822 66.9513 229.959 68.3898 231.443 69.481C231.986 69.8778 232.234 70.0266 232.827 70.3242C232.926 70.4234 232.926 70.4234 232.975 70.5226ZM233.074 52.2692L233.321 52.0708C233.42 52.0212 233.47 52.0212 233.519 51.9716C234.656 51.4756 236.041 51.1284 237.277 51.0788C238.117 51.0292 238.958 51.0788 239.799 51.2276C240.244 51.3268 241.529 51.6244 241.776 51.8228C242.37 51.9716 243.21 52.5172 243.655 52.8148C245.287 53.9557 246.523 55.4933 247.215 57.5766C248.303 60.7511 247.66 64.2232 246.127 66.5545C243.012 71.3163 236.189 72.2091 231.591 68.7866L230.998 68.2906C230.849 68.1914 230.948 68.241 230.849 68.0922C230.701 68.0425 230.701 67.9929 230.602 67.8937C230.503 67.7945 230.454 67.6953 230.355 67.5961C229.069 66.0089 228.13 64.1736 227.981 61.9911C227.685 59.7095 228.328 57.527 229.218 55.8901C229.663 55.0965 230.305 54.2533 230.849 53.7573C231.146 53.5092 232.58 52.3188 233.074 52.2692Z" fill="#1D1D1D"/>
<path fill-rule="evenodd" clip-rule="evenodd" d="M132.209 65.2648C132.159 64.8184 131.566 63.4295 131.368 62.9335C131.072 62.1399 130.775 61.4455 130.478 60.6519L129.143 57.2293C128.995 56.8821 128.797 56.3861 128.698 56.0885C128.55 56.0389 128.599 56.0885 128.402 56.5349L126.819 60.6022C126.523 61.3463 126.226 62.1399 125.929 62.8839C125.732 63.4295 125.188 64.6696 125.039 65.2152L132.209 65.2648Z" fill="#1D1D1D"/>
<path fill-rule="evenodd" clip-rule="evenodd" d="M130.083 60.9495L131.665 64.868H128.649L129.391 62.9335C129.44 62.7351 129.489 62.6359 129.539 62.4871C129.638 62.1895 130.083 61.1479 130.083 60.9495Z" fill="white"/>
</g>
<defs>
<filter id="filter0_d_1_167" x="0" y="-40" width="304" height="189" filterUnits="userSpaceOnUse" color-interpolation-filters="sRGB">
<feFlood flood-opacity="0" result="BackgroundImageFix"/>
<feColorMatrix in="SourceAlpha" type="matrix" values="0 0 0 0 0 0 0 0 0 0 0 0 0 0 0 0 0 0 127 0" result="hardAlpha"/>
<feOffset/>
<feGaussianBlur stdDeviation="20"/>
<feComposite in2="hardAlpha" operator="out"/>
<feColorMatrix type="matrix" values="0 0 0 0 0 0 0 0 0 0 0 0 0 0 0 0 0 0 0.16 0"/>
<feBlend mode="normal" in2="BackgroundImageFix" result="effect1_dropShadow_1_167"/>
<feBlend mode="normal" in="SourceGraphic" in2="effect1_dropShadow_1_167" result="shape"/>
</filter>
<clipPath id="clip0_1_167">
<rect width="200" height="48.1633" fill="white" transform="translate(53 27.4185)"/>
</clipPath>
</defs>
</svg>
