<svg width="107" height="32" viewBox="0 0 107 32" fill="none" xmlns="http://www.w3.org/2000/svg">
<rect width="107" height="29" fill="#F9B7AC" fill-opacity="0.5"/>
<path d="M23.35 14.5C23.35 18.5593 20.0593 21.85 16 21.85C11.9407 21.85 8.65 18.5593 8.65 14.5C8.65 10.4407 11.9407 7.15 16 7.15C20.0593 7.15 23.35 10.4407 23.35 14.5ZM7.95 14.5C7.95 18.9459 11.5541 22.55 16 22.55C20.4459 22.55 24.05 18.9459 24.05 14.5C24.05 10.0541 20.4459 6.45 16 6.45C11.5541 6.45 7.95 10.0541 7.95 14.5Z" fill="black" stroke="black" stroke-width="0.1"/>
<path d="M21.8004 14.8499C21.9937 14.8499 22.1504 14.6932 22.1504 14.4999C22.1504 11.1034 19.3969 8.3499 16.0004 8.3499C12.6038 8.3499 9.85039 11.1034 9.85039 14.4999C9.85039 14.6932 10.0071 14.8499 10.2004 14.8499C10.3937 14.8499 10.5504 14.6932 10.5504 14.4999C10.5504 11.49 12.9904 9.0499 16.0004 9.0499C19.0103 9.0499 21.4504 11.49 21.4504 14.4999C21.4504 14.6932 21.6071 14.8499 21.8004 14.8499Z" fill="black" stroke="black" stroke-width="0.1"/>
<path d="M14.8504 14.5999C14.8504 15.2903 15.41 15.8499 16.1004 15.8499C16.7907 15.8499 17.3504 15.2903 17.3504 14.5999C17.3504 13.9095 16.7907 13.3499 16.1004 13.3499C15.41 13.3499 14.8504 13.9095 14.8504 14.5999ZM16.6504 14.5999C16.6504 14.9037 16.4041 15.1499 16.1004 15.1499C15.7966 15.1499 15.5504 14.9037 15.5504 14.5999C15.5504 14.2961 15.7966 14.0499 16.1004 14.0499C16.4041 14.0499 16.6504 14.2961 16.6504 14.5999Z" fill="black" stroke="black" stroke-width="0.1"/>
<path d="M16.4498 10.6C16.4498 10.4067 16.2931 10.25 16.0998 10.25C15.9065 10.25 15.7498 10.4067 15.7498 10.6V13.4C15.7498 13.5933 15.9065 13.75 16.0998 13.75C16.2931 13.75 16.4498 13.5933 16.4498 13.4V10.6Z" fill="black" stroke="black" stroke-width="0.1"/>
<path d="M21.864 15.2196C21.6768 15.1716 21.4861 15.2845 21.4381 15.4717C21.2723 16.1184 21.0036 16.7057 20.6315 17.2357C20.4447 17.5018 20.284 17.7148 20.1537 17.8722C20.0221 18.0311 19.9249 18.1289 19.8647 18.169C19.7039 18.2762 19.6604 18.4935 19.7676 18.6543C19.8748 18.8152 20.092 18.8587 20.2529 18.7515C20.368 18.6748 20.5015 18.5445 20.6573 18.361C20.8137 18.1769 20.9947 17.9367 21.2044 17.6379C21.6256 17.0381 21.9296 16.3733 22.1162 15.6455C22.1642 15.4583 22.0513 15.2676 21.864 15.2196Z" fill="black" stroke="black" stroke-width="0.1"/>
<path d="M19.3 19.5499C19.4933 19.5499 19.65 19.3932 19.65 19.1999C19.65 19.0066 19.4933 18.8499 19.3 18.8499C19.1067 18.8499 18.95 19.0066 18.95 19.1999C18.95 19.3932 19.1067 19.5499 19.3 19.5499Z" fill="black" stroke="black" stroke-width="0.1"/>
<path d="M29.7375 18H35.4775L35.6595 16.88H31.0815V8.354H29.7375V18ZM39.629 10.734C37.417 10.734 36.395 12.512 36.395 14.36C36.395 16.32 37.263 18.126 39.531 18.126C41.841 18.126 42.765 16.404 42.765 14.332C42.765 12.302 41.701 10.734 39.629 10.734ZM39.559 11.812C40.819 11.812 41.435 12.82 41.435 14.332C41.435 15.984 40.861 17.062 39.601 17.062C38.369 17.062 37.725 15.97 37.725 14.346C37.725 12.848 38.369 11.812 39.559 11.812ZM43.4978 10.874L45.5418 18H46.9138C47.5858 15.718 48.2018 13.576 48.3978 12.526H48.4118C48.6078 13.59 49.2098 15.704 49.8118 18H51.1558L53.3118 10.874H51.9958C51.0578 14.444 50.6798 15.844 50.5258 16.614H50.5118C50.3998 15.83 49.9518 14.136 49.0698 10.874H47.8378C46.8998 14.36 46.4938 15.816 46.3118 16.656H46.2978C46.1298 15.746 45.6678 13.94 44.8978 10.874H43.4978ZM64.1334 15.158C63.8534 16.18 63.3074 17.034 61.8934 17.034C59.9054 17.034 59.3034 15.116 59.3034 13.128C59.3034 11.14 60.0314 9.348 61.8794 9.348C63.2934 9.348 63.8534 10.16 64.0914 11.224H65.4214C65.2534 9.628 64.2174 8.214 61.9354 8.214C59.1774 8.214 57.9174 10.552 57.9174 13.128C57.9174 15.984 58.9954 18.14 61.8654 18.14C64.1614 18.14 65.1834 16.712 65.4774 15.158H64.1334ZM72.1961 12.988C72.1961 11.336 71.1461 10.734 69.6201 10.734C67.6741 10.734 66.9881 11.742 66.8761 12.918H68.1501C68.2621 12.19 68.5841 11.728 69.5781 11.728C70.7261 11.728 70.9081 12.372 70.9081 13.03V13.688C70.5721 13.688 70.2501 13.688 69.8721 13.688C67.3381 13.688 66.5961 14.85 66.5961 15.97C66.5961 16.978 67.1561 18.126 68.8921 18.126C70.0401 18.126 70.7401 17.636 71.0201 16.95C71.0341 17.37 71.0761 17.762 71.1321 18H72.2941C72.2381 17.608 72.1961 16.866 72.1961 16.376V12.988ZM70.9501 14.752C70.9501 16.18 70.5301 17.09 69.1861 17.09C68.3181 17.09 67.9261 16.544 67.9261 15.886C67.9261 15.27 68.2341 14.598 69.8721 14.598C70.2921 14.598 70.6701 14.598 70.9501 14.598V14.752ZM75.4835 18V7.808H74.1815V18H75.4835ZM80.2344 10.734C78.0224 10.734 77.0004 12.512 77.0004 14.36C77.0004 16.32 77.8684 18.126 80.1364 18.126C82.4464 18.126 83.3704 16.404 83.3704 14.332C83.3704 12.302 82.3064 10.734 80.2344 10.734ZM80.1644 11.812C81.4244 11.812 82.0404 12.82 82.0404 14.332C82.0404 15.984 81.4664 17.062 80.2064 17.062C78.9744 17.062 78.3304 15.97 78.3304 14.346C78.3304 12.848 78.9744 11.812 80.1644 11.812ZM84.9003 18H86.2023V14.556C86.2023 13.002 86.8743 12.134 88.4563 12.092V10.748C87.2523 10.762 86.4963 11.462 86.1743 12.288C86.1743 11.672 86.1743 11.21 86.1463 10.874H84.8723C84.8863 11.252 84.9003 12.148 84.9003 13.296V18ZM89.6307 18H90.9327V10.874H89.6307V18ZM89.6307 9.362H90.9327V7.808H89.6307V9.362ZM98.4696 14.71C98.4836 14.654 98.4836 14.206 98.4836 14.15C98.4836 12.47 97.8256 10.734 95.5576 10.734C93.3176 10.734 92.4496 12.68 92.4496 14.43C92.4496 16.418 93.2476 18.14 95.4876 18.14C97.4056 18.14 98.1196 16.908 98.3716 15.956H97.0976C96.9716 16.32 96.6356 17.076 95.5436 17.076C94.3256 17.076 93.7656 16.026 93.7796 14.71H98.4696ZM93.8076 13.786C93.8636 12.974 94.1856 11.77 95.5296 11.77C96.7196 11.77 97.1676 12.652 97.2096 13.786H93.8076Z" fill="#1D1D1D"/>
<path d="M25 29L21.0069 32L17.0139 29L13.0208 32L8.69502 29L4.36921 32L0 29L8.69502 29L17.0139 29L25 29Z" fill="#F9B7AC" fill-opacity="0.5"/>
<path d="M49 29L45.1667 32L41.3333 29L37.5 32L33.3472 29L29.1944 32L25 29L33.3472 29L41.3333 29L49 29Z" fill="#F9B7AC" fill-opacity="0.5"/>
<path d="M90 29L86.1667 32L82.3333 29L78.5 32L74.3472 29L70.1944 32L66 29L74.3472 29L82.3333 29L90 29Z" fill="#F9B7AC" fill-opacity="0.5"/>
<path d="M107 29L103.01 32L98.6879 29L94.3656 32L90 29L98.6879 29L107 29Z" fill="#F9B7AC" fill-opacity="0.5"/>
<path d="M66 29L61.7279 32L57.4994 29L53.2709 32L49 29L57.4994 29L66 29Z" fill="#F9B7AC" fill-opacity="0.5"/>
</svg>
