<svg width="133" height="21" viewBox="0 0 133 21" fill="none" xmlns="http://www.w3.org/2000/svg">
<g clip-path="url(#clip0_185_6417)">
<path fill-rule="evenodd" clip-rule="evenodd" d="M0 14.4417V14.5153C0.102394 14.5831 0.0662558 14.6037 0.207801 14.6449C0.325661 14.6683 0.446326 14.6753 0.566181 14.6655C0.789136 14.9258 1.03613 15.1654 1.30402 15.3813L1.36425 15.4343C1.46665 15.5197 1.63229 15.7701 1.77082 15.7701H4.60172C4.82156 15.7701 4.73724 15.2988 4.75531 15.1456C4.77367 15.0731 4.78576 14.9992 4.79145 14.9247C4.79416 14.588 4.81628 14.2517 4.8577 13.9174L5.12574 9.97629C5.16489 9.66112 5.12573 9.25464 5.17392 8.95125C5.21961 8.6183 5.24275 8.28276 5.24319 7.94683C5.33052 8.00869 5.33052 8.04698 5.39377 8.1324C5.45701 8.21782 5.49014 8.25611 5.55338 8.34447C5.65276 8.4947 5.73709 8.61841 5.83948 8.76569L7.02304 10.4859C7.12544 10.6361 7.20675 10.7598 7.3242 10.9071C7.44165 11.0543 7.38744 11.0219 7.54103 11.0632C7.65889 11.0866 7.77956 11.0935 7.89941 11.0838C8.16471 11.4027 8.45795 11.6984 8.77579 11.9675C8.87818 12.0676 8.95648 12.1972 9.1432 12.1972H10.5014L12.6758 9.04551C12.739 8.96303 12.6758 9.04551 12.727 8.9866C12.7631 9.42254 12.8414 10.0823 12.8384 10.5006C12.8384 10.6979 12.8746 10.7038 12.8806 10.8658L12.9137 11.6464C12.9137 11.832 12.9559 11.8467 12.9529 12.0499L13.0643 13.5639C13.1486 14.2649 12.8746 14.6714 13.6335 14.6714C13.7229 14.7798 13.8239 14.8785 13.9347 14.966L14.2539 15.2429C14.4105 15.3813 14.6906 15.7672 14.9255 15.7672H17.8286C17.8286 15.2811 17.7684 14.9188 17.7534 14.4741C17.7463 14.3879 17.7332 14.3023 17.7142 14.2178L17.5727 12.3651C17.5664 12.267 17.5664 12.1686 17.5727 12.0705L17.4281 10.477C17.4221 10.3937 17.4221 10.31 17.4281 10.2267C17.4281 10.0617 17.398 10.1118 17.3889 9.96745C17.3889 9.87614 17.3889 9.76716 17.3889 9.6729C17.3674 9.58802 17.3553 9.50112 17.3528 9.4137L17.2775 8.34154C17.2775 8.19426 17.2504 8.2679 17.2384 8.12062L17.13 6.78925C17.13 6.70677 17.13 6.61252 17.13 6.53299C17.13 6.3916 17.0968 6.43873 17.0908 6.27673L16.9824 4.98071C16.9824 4.8894 16.9824 4.78042 16.9824 4.68616C16.9824 4.54478 16.9493 4.5919 16.9432 4.4299L16.871 3.35773C16.871 3.19573 16.8408 3.24286 16.8318 3.10147L16.7565 2.02931C16.7565 1.69941 16.4825 1.56097 16.2747 1.35773L15.6904 0.783362C15.0339 0.147132 16.2235 0.220769 13.248 0.220769C13.1519 0.219477 13.0569 0.240684 12.9709 0.282622C12.8143 0.370987 10.2033 4.31797 9.64011 5.14566C9.50158 5.35184 8.63725 6.70972 8.45656 6.82754C8.1825 6.32386 7.61632 5.5757 7.28806 5.09264C7.09833 4.81576 5.25222 1.98218 4.99925 1.75832L4.43608 1.20162L4.41801 1.18395L4.32465 1.09264C4.02349 0.815759 3.88797 0.208984 3.43924 0.208984H1.51483C1.13838 0.208984 1.13838 0.503535 1.13838 0.798086C1.13838 1.09264 1.06008 1.38719 1.06309 1.72003C1.06309 2.14418 0.951662 2.63903 0.948651 3.04846C0.948651 3.50501 0.849271 3.98218 0.834213 4.41222C0.834213 4.48291 0.834213 4.56834 0.834213 4.63608C0.834213 4.78336 0.804096 4.70972 0.795061 4.85699C0.75591 5.39013 0.686642 6.71562 0.614363 7.1545L0.394518 9.85552C0.343321 10.1501 0.373437 10.4888 0.319228 10.7775C0.243938 11.1839 0.255985 12.1353 0.168649 12.586L0 14.4417ZM0.280076 13.9733C0.243937 13.6935 0.770969 7.60516 0.81012 7.23697L1.39437 0.479975H3.4814C3.63198 0.559504 3.71932 0.774524 3.80967 0.90118L5.89971 3.98513L7.10435 5.75243L8.00783 7.0838C8.14937 7.29293 8.22165 7.47556 8.32706 7.44905C8.49872 7.1545 8.73061 6.84227 8.92938 6.56539L12.4499 1.37246L12.7511 0.927689L13.0372 0.532992C13.0974 0.474082 12.974 0.506485 13.1697 0.479975H15.1543C15.2808 0.541831 15.2748 1.14566 15.2838 1.30471C15.3049 1.59926 15.3381 1.89382 15.3591 2.18837L15.7898 7.40192C15.8952 8.58012 15.9554 9.74065 16.0729 10.9012C16.1903 12.0617 16.2987 13.2782 16.353 14.4122H13.3414V14.1707C13.3414 13.561 13.2631 12.8158 13.2089 12.2149C13.1546 11.614 12.7993 6.61841 12.8354 6.34448C12.7713 6.0752 12.7419 5.79911 12.7481 5.52268C12.4951 5.68469 9.43533 10.3857 9.04382 10.8246H7.61934C7.4537 10.7892 7.56513 10.8246 7.51393 10.7392L3.90001 5.50795C3.83075 5.56981 3.86689 5.49028 3.84279 5.64639L3.70426 7.70824C3.65909 8.45051 3.60187 9.181 3.55368 9.92327C3.4543 11.4166 3.34889 12.9071 3.25252 14.4004H0.240929C0.228882 14.3003 0.207798 14.0205 0.280076 13.9733Z" fill="#1D1D1B"/>
<path fill-rule="evenodd" clip-rule="evenodd" d="M83.9336 7.43151C83.9323 8.0906 84.0132 8.74739 84.1745 9.38733C84.2699 9.80363 84.4113 10.2086 84.5962 10.595C84.8498 11.1338 85.1683 11.641 85.5448 12.106L86.8458 13.3402C86.9542 13.4227 87.0446 13.4727 87.162 13.5493L87.674 13.8586C88.0251 14.1711 88.3963 14.4613 88.7853 14.7275C89.5058 15.1746 90.2904 15.5141 91.1132 15.7349C92.4975 16.0303 93.9226 16.097 95.3295 15.9322C96.3757 15.8459 97.3967 15.5712 98.341 15.1222V8.61266C98.341 8.53018 98.2597 8.46244 98.2085 8.40942L98.1875 8.39175L98.0429 8.23858L98.0278 8.20913L98.0098 8.19145L97.3292 7.49042V7.4698C97.2509 7.37849 97.2358 7.3402 97.1153 7.3078C97.1153 7.09278 97.0672 6.97496 96.8503 6.97496H91.0651C90.8844 6.97496 90.8 7.10161 90.8 7.26951V9.55522C90.7991 9.60364 90.8086 9.6517 90.8277 9.69633C90.8469 9.74097 90.8754 9.7812 90.9115 9.81443C91.0331 9.85622 91.1631 9.86934 91.2909 9.85271C91.3708 9.96907 91.4731 10.0691 91.5921 10.1473C91.83 10.3328 92.354 11.0044 92.6401 11.0044H93.6972V11.8527C93.5771 11.8628 93.4581 11.8835 93.3418 11.9146C93.2364 11.9322 93.0406 11.9529 92.9774 11.9617C92.5986 11.9928 92.2178 11.9928 91.839 11.9617C91.7065 11.9411 91.5861 11.9617 91.4475 11.9411C90.7907 11.8556 90.1562 11.6497 89.5773 11.3343C89.1226 11.0398 89.0684 10.9308 88.8907 10.4183C88.3125 8.75699 88.6648 6.5891 89.9899 5.30191C90.6104 4.69421 91.4039 4.28361 92.2667 4.12371C92.4261 4.08628 92.5882 4.06067 92.7515 4.04712C93.4245 3.99098 94.1022 4.02368 94.7663 4.14433C95.4579 4.25626 96.1275 4.47289 96.7509 4.78645C96.8419 4.60966 96.9194 4.42654 96.9828 4.23858C97.0702 3.99999 97.6574 2.62444 97.6574 2.49778C97.6574 2.37113 97.6574 2.51252 97.6032 2.43888L97.4918 2.2916C97.3984 2.18556 97.2508 2.12371 97.1906 2.01178L96.9467 1.7673C96.8322 1.67894 96.769 1.55228 96.5883 1.41974C96.4076 1.28719 96.498 1.06332 96.3142 0.945504L95.6517 0.650953C93.5571 -0.135757 91.2555 -0.223773 89.1045 0.400583C87.5487 0.870699 86.2002 1.83988 85.2768 3.15169L85.0961 3.41679C84.6759 4.06087 84.3704 4.76999 84.1926 5.51399C84.1715 5.59646 84.1625 5.67304 84.1504 5.729C84.0189 6.28339 83.9522 6.85061 83.9517 7.41973L83.9336 7.43151ZM88.8816 11.1694C89.0593 11.2165 89.7339 11.8527 91.0138 12.1001C91.2126 12.1384 91.8752 12.1944 91.9173 12.2327C92.2185 12.1826 92.6793 12.218 93.0196 12.1797C93.3398 12.1536 93.656 12.0923 93.9622 11.997V9.64064H91.062V7.21649L96.8895 7.20176V13.7673C94.0857 14.9867 90.0833 15.1104 87.3488 13.3638C87.1771 13.2548 87.0235 13.1399 86.8639 13.025C86.6886 12.9125 86.5348 12.7709 86.4091 12.6068L86.2465 12.486L86.0809 12.3152C85.7442 11.971 85.4501 11.5894 85.2045 11.1782C84.8387 10.5856 84.5733 9.93906 84.4185 9.26361C84.1866 8.65978 84.1625 7.14579 84.2679 6.40058C84.3874 5.42102 84.7216 4.4782 85.2475 3.63643C85.7735 2.79465 86.4789 2.07372 87.3156 1.52282C87.6307 1.29641 87.9776 1.11585 88.3456 0.986745C88.5263 0.765832 89.755 0.456554 90.1194 0.397644C91.5464 0.14302 93.0119 0.181128 94.423 0.509566C94.8386 0.609713 95.9288 0.960229 96.1215 1.1458L96.2028 1.19587C96.1245 1.45508 95.4258 3.28718 95.2993 3.44919C95.0614 3.39028 94.7151 3.20471 94.435 3.10751C93.4149 2.76929 92.3334 2.64485 91.2608 2.74227C88.442 3.01031 86.8729 5.48748 87.2072 8.10898C87.2704 8.74094 87.4706 9.35246 87.7945 9.90279C87.939 10.148 88.1064 10.3797 88.2944 10.595C88.3858 10.7061 88.4865 10.8096 88.5955 10.9043C88.6919 10.9985 88.7883 11.0398 88.8636 11.1811L88.8816 11.1694Z" fill="#1D1D1B"/>
<path fill-rule="evenodd" clip-rule="evenodd" d="M23.6136 0.491656V14.5152C23.8666 14.6831 23.7431 14.6654 24.2159 14.6654C24.2701 14.7391 25.273 15.77 25.3874 15.77H34.2506V13.4136C34.2506 13.228 34.103 13.1367 33.9976 13.0336L33.2236 12.203C33.1273 12.1058 33.1604 12.097 33.0068 12.0822C33.0068 11.8672 32.9586 11.7523 32.7418 11.7523H28.2545V10.4239H33.0459C33.1303 10.4239 33.1574 10.3974 33.1574 10.312V7.98798C33.1574 7.87899 32.9556 7.73761 32.8954 7.65513L32.1485 6.83333C32.0551 6.73613 32.0883 6.73613 31.9136 6.73319C31.8564 6.50049 31.8323 6.40034 31.5371 6.40034H28.2545V4.25896H34.0639V1.82303C34.0639 1.71699 33.8621 1.57266 33.7898 1.49902L33.317 1.03953C33.2357 0.957051 33.2417 0.933486 33.1694 0.853957C33.0786 0.728871 32.9575 0.627686 32.8171 0.559406C32.8171 0.34733 32.7598 0.226562 32.4406 0.226562H23.9419C23.7311 0.226562 23.6016 0.279583 23.6016 0.485769L23.6136 0.491656ZM26.7758 6.63599H31.5763C31.7028 6.69196 31.6576 6.7273 31.6546 6.90403C31.6546 7.52259 31.6877 8.57119 31.6546 9.06898H26.7758V11.9674H32.7779V14.4003H23.8365C23.7943 12.0852 23.8365 9.73467 23.8365 7.4195V0.859845C23.8365 0.792098 23.8365 0.703739 23.8365 0.635992C23.8333 0.60268 23.8333 0.569159 23.8365 0.535846L23.8636 0.48282H32.5249C32.6032 0.515221 32.549 0.4681 32.5972 0.535846L32.5822 2.9217H26.7728L26.7758 6.63599Z" fill="#1D1D1B"/>
<path fill-rule="evenodd" clip-rule="evenodd" d="M38.25 14.3679V14.5152C38.4036 14.6154 38.3855 14.6654 38.78 14.6654C39.0934 15.0095 39.4294 15.3332 39.7859 15.6345C39.9666 15.8112 39.9967 15.773 40.325 15.77H43.0023C43.0294 15.664 43.0535 15.6463 43.0926 15.5285L43.8335 13.6669H48.7364C48.911 13.985 49.0375 14.5506 49.1971 14.6213C49.3416 14.6631 49.4928 14.6781 49.6428 14.6654L50.5192 15.5491C50.6216 15.6492 50.7029 15.7788 50.8866 15.7788H53.7175C53.9042 15.7788 53.7808 15.6227 53.6693 15.3488L48.113 1.88783C48.0467 1.65514 47.9142 1.59328 47.616 1.29873L46.8993 0.55057C46.7427 0.370894 46.83 0.226562 46.4747 0.226562H44.3665C43.9901 0.226562 43.9901 0.462202 43.7913 0.91581L39.7317 10.7509C39.545 11.228 38.256 14.2354 38.256 14.3621L38.25 14.3679ZM38.5722 14.2236C38.6023 13.988 39.1444 12.7862 39.2709 12.4769L42.8035 3.93496C42.9571 3.56382 44.1346 0.638932 44.2129 0.556458C44.2912 0.473984 44.2129 0.500497 44.3274 0.468096H46.5499C46.6825 0.547625 46.7216 0.762645 46.7758 0.889302L50.9137 10.904C51.0553 11.2487 52.284 14.1441 52.3442 14.4062H49.3327L49.2634 14.3061L48.4924 12.3326H42.3367L41.5387 14.3945H38.4759C38.506 14.2943 38.4909 14.3031 38.5662 14.2295L38.5722 14.2236Z" fill="#1D1D1B"/>
<path fill-rule="evenodd" clip-rule="evenodd" d="M30.5188 7.70277C30.4676 7.67037 30.567 7.67921 30.4044 7.66154H28.0644C27.2844 7.66154 26.3207 7.70867 25.5618 7.66154C25.4955 7.48775 25.5226 2.52457 25.5377 1.9178H31.1694C31.4223 1.9178 31.4223 1.94136 31.4856 1.85889H25.5226C25.4684 2.07096 25.4594 7.28451 25.5226 7.68215L30.5188 7.70277Z" fill="#1D1D1B"/>
<path fill-rule="evenodd" clip-rule="evenodd" d="M31.6524 13.0518C31.6012 13.0046 31.6524 13.0282 31.5741 13.0046H31.4626H30.8965C29.3365 13.0046 26.9031 13.0606 25.5569 13.0046C25.4846 12.8426 25.5208 8.62172 25.5328 8.0768H30.4086C30.526 8.0768 30.3514 8.0768 30.4748 8.0768L30.529 8.05029H25.5087C25.4515 8.26237 25.4515 12.8721 25.5087 13.0577L31.6524 13.0518Z" fill="#1D1D1B"/>
<path fill-rule="evenodd" clip-rule="evenodd" d="M2.00008 13.3634L2.83128 2.42087V2.22647C2.96379 2.30011 5.36403 5.78759 5.49955 5.98788C6.37592 7.25739 7.26133 8.50924 8.14674 9.78169H8.38466L8.45694 9.75519C8.47802 9.63442 8.45694 9.68449 8.58342 9.52544L12.9502 3.27802C13.1219 3.02765 13.417 2.55637 13.6038 2.34724L13.679 2.22942C13.7754 2.32367 13.9139 4.8951 13.923 4.99525C13.9983 5.89952 14.0796 6.85386 14.1308 7.76402C14.2332 9.61674 14.4319 11.4695 14.5434 13.3458C14.6847 13.3825 14.8319 13.3925 14.977 13.3752L14.959 13.0335C14.9289 12.1882 14.8325 11.2073 14.7482 10.3826C14.6548 9.47536 14.6247 8.57698 14.5313 7.66682C14.4982 7.33398 14.0886 2.56521 14.1187 2.28538C14.0523 2.03747 14.0219 1.78164 14.0284 1.52544H13.7604C13.5127 1.83974 13.2815 2.16613 13.0677 2.50335L8.95385 8.39436C8.83338 8.5652 8.39369 9.27801 8.24311 9.33692L8.17686 9.18376C8.05037 9.12485 4.3702 3.75518 4.13831 3.42823C3.95762 3.17492 2.89151 1.6786 2.82526 1.5166H2.5241L1.56641 13.3664L2.00008 13.3634Z" fill="#1D1D1B"/>
<path fill-rule="evenodd" clip-rule="evenodd" d="M31.6435 13.3663V13.0512L25.4998 13.0276C25.4426 12.842 25.4426 8.23231 25.4998 8.02024H30.5202V7.69624L25.5028 7.67857C25.4486 7.28092 25.4577 2.06736 25.5028 1.85529H31.4658V1.52539H25.1113V13.3811L31.6435 13.3663Z" fill="#1D1D1B"/>
<path fill-rule="evenodd" clip-rule="evenodd" d="M40.6716 13.2667L41.4516 11.4022C41.4938 11.2755 41.4215 11.3462 41.533 11.302H49.2667C49.3842 11.3492 49.3752 11.4199 49.4294 11.5436L50.2094 13.3639C50.7244 13.3786 50.6009 13.3816 50.622 13.2814L45.5896 1.52002H45.2523L40.1777 13.3727H40.5994L40.6716 13.2667ZM41.7227 10.8249L45.3818 2.13858C45.43 2.07672 45.3306 2.06788 45.433 2.09145L49.1674 10.981H41.6384L41.7227 10.8249Z" fill="#1D1D1B"/>
<path fill-rule="evenodd" clip-rule="evenodd" d="M56.5097 0.306304C56.4193 0.680383 56.4705 2.51249 56.4705 3.03974C56.6903 3.18407 56.6512 3.14872 57.0005 3.14872C57.1831 3.35409 57.3847 3.54244 57.6029 3.71131C57.7022 3.80851 58.1088 4.25622 58.2052 4.25622H60.241V14.2945C60.241 14.6922 60.491 14.6657 60.8825 14.6657L61.7408 15.5228C61.8522 15.6347 61.8733 15.7702 62.0901 15.7702H64.8006C64.8849 15.7702 64.912 15.7467 64.912 15.6612V4.25622H68.6102C68.6976 4.25622 68.7217 4.22971 68.7217 4.14724V1.89393C68.7217 1.70542 67.6917 0.839434 67.517 0.630302C67.3423 0.421171 67.5471 0.232666 67.0954 0.232666H56.85C56.7334 0.240211 56.6186 0.26504 56.5097 0.306304ZM67.1707 0.480088C67.252 0.55078 67.2369 0.371099 67.2369 0.603794V2.90718H63.4423V14.3947H60.5964C60.4157 14.3947 60.5783 14.3947 60.509 14.3475V2.90424H56.7506C56.6482 2.71572 56.7084 0.639145 56.7084 0.471252L67.1707 0.480088Z" fill="#1D1D1B"/>
<path fill-rule="evenodd" clip-rule="evenodd" d="M57.8437 1.90273C58.0726 1.83203 61.2167 1.86149 61.6895 1.87917C61.7828 1.93513 61.7678 1.87916 61.7648 2.18844C61.7377 3.92629 61.7648 5.87327 61.7648 7.61407C61.7648 9.52276 61.7316 11.4432 61.7648 13.3608H62.1533L62.1713 1.91156C62.2316 1.86149 62.1111 1.86444 62.3189 1.86149H66.1015V1.51392H57.8105L57.8437 1.90273Z" fill="#1D1D1B"/>
<path fill-rule="evenodd" clip-rule="evenodd" d="M74.0127 0.530156V14.374C74.0127 14.6686 74.2777 14.6686 74.5789 14.6686C74.6301 14.807 75.0246 15.0869 75.1541 15.2106C75.3627 15.375 75.5498 15.564 75.7112 15.7732H78.5392C78.6265 15.7732 78.6536 15.7496 78.6536 15.6642V1.89393C78.6536 1.70247 78.503 1.62589 78.3976 1.5169L78.0965 1.18406C77.8796 0.966092 77.6598 0.571392 77.4068 0.565501C77.4068 0.394661 77.3887 0.232666 77.0303 0.232666H74.3891C74.1663 0.232666 74.0127 0.309249 74.0127 0.527217V0.530156ZM74.2777 0.483027H77.0966C77.205 0.533101 77.1779 0.403501 77.1839 0.642087V14.4123H74.2416C74.1844 10.4477 74.2416 6.23267 74.2416 2.22088V0.892457C74.2203 0.756082 74.2327 0.61672 74.2777 0.485975V0.483027Z" fill="#1D1D1B"/>
<path fill-rule="evenodd" clip-rule="evenodd" d="M75.9011 13.3757L75.9101 1.52002L75.5156 1.52297V13.3728L75.9011 13.3757Z" fill="#1D1D1B"/>
<path fill-rule="evenodd" clip-rule="evenodd" d="M87.5676 12.168C87.7338 12.2648 87.8929 12.3731 88.0434 12.492C89.5251 13.4935 91.055 13.6407 92.8409 13.6054C93.2963 13.5721 93.7489 13.5101 94.1961 13.4198C94.4099 13.3786 94.6298 13.3226 94.8346 13.2667C95.036 13.1932 95.2436 13.137 95.455 13.0988C95.5152 13.0399 95.4971 13.0516 95.5965 13.0192V8.25635H92.2838L92.2536 8.60392H95.196V12.763C94.2262 13.2431 92.1844 13.3521 90.9526 13.1783C90.0161 13.0439 89.1209 12.7112 88.3295 12.2033L87.8146 11.8204C87.7784 11.788 87.7573 11.7821 87.7302 11.7527C87.6459 11.6731 87.7001 11.7291 87.658 11.6614L87.4773 11.5229C87.411 11.4581 87.3749 11.4198 87.3116 11.3521C86.9603 10.9766 86.6735 10.5478 86.4624 10.0826C86.2628 9.71105 86.1159 9.31467 86.0257 8.90436C85.7165 7.54063 85.8545 6.11629 86.4202 4.83367C86.9085 3.7734 87.7433 2.90198 88.7933 2.3565C89.0373 2.22984 89.6968 1.897 89.9588 1.92646C90.0552 1.84693 90.0823 1.85576 90.2178 1.8263C90.9392 1.66465 91.6811 1.60906 92.4193 1.66136C92.8237 1.67761 93.2263 1.7229 93.6239 1.79686C93.8648 1.84104 94.5816 2.06489 94.7111 2.059L94.7864 1.74973C93.4733 1.1783 91.2719 1.1135 89.8203 1.52881C88.451 1.90107 87.2658 2.7454 86.4834 3.90584C85.062 6.05901 85.071 9.40805 86.8268 11.4022C87.0211 11.6382 87.2423 11.8516 87.4863 12.0384L87.5676 12.168Z" fill="#1D1D1B"/>
<path fill-rule="evenodd" clip-rule="evenodd" d="M103.024 7.20808C102.974 8.40521 103.223 9.59626 103.75 10.6779C103.964 11.1451 104.237 11.5844 104.563 11.9857L105.942 13.3288L106.412 13.647C106.466 13.6794 106.517 13.7177 106.569 13.7501C106.884 13.962 107.186 14.1932 107.472 14.4422C107.58 14.5218 107.674 14.5984 107.794 14.6808L108.478 15.0844C110.14 15.8944 110.929 15.9945 112.791 15.9945C113.787 15.9608 114.768 15.744 115.682 15.3554C116.08 15.1811 116.461 14.9721 116.82 14.7309C117.174 14.4915 117.513 14.2318 117.835 13.9533C118.01 13.8119 118.094 13.6587 118.251 13.5115C119.262 12.5394 119.994 10.4098 119.994 9.0932C119.994 7.3907 119.802 6.54829 119.064 5.16685C118.814 4.72268 118.51 4.30933 118.16 3.93562C118.091 3.85903 118.109 3.85904 118.046 3.7854C117.725 3.47517 117.423 3.14666 117.142 2.8016C116.537 2.06827 115.794 1.45532 114.953 0.996006L114.01 0.554179C113.135 0.235937 112.215 0.0530852 111.282 0.012207C109.475 0.012207 109.008 0.100569 107.475 0.680834C106.614 1.00779 106.039 1.50263 105.388 1.99748C105.11 2.25631 104.852 2.53387 104.614 2.82811C104.337 3.16989 104.094 3.53681 103.888 3.92384C103.861 3.97686 103.831 4.01809 103.804 4.06522C103.319 5.04694 103.052 6.11811 103.021 7.20808H103.024ZM107.255 13.8325C106.954 13.8001 106.002 13.102 105.78 12.9253C105.478 12.6985 104.747 11.9828 104.602 11.6381C104.44 11.4598 104.302 11.2618 104.192 11.049C103.776 10.3306 103.492 9.54581 103.355 8.7309C103.093 7.35573 103.249 5.93548 103.803 4.64599C104.358 3.3565 105.287 2.2544 106.475 1.47612C106.668 1.35241 107.617 0.804547 107.9 0.783929L108.692 0.504102C110.191 0.119949 111.768 0.137249 113.257 0.554179C113.752 0.694857 114.229 0.892612 114.676 1.14328C115.311 1.35241 116.332 2.25374 116.784 2.7368C118.82 4.96655 119.058 8.53945 117.609 11.0461C116.704 12.5956 115.233 13.753 113.492 14.2861C111.553 14.8973 109.453 14.8011 107.58 14.0151C107.46 13.9796 107.35 13.917 107.258 13.8325H107.255Z" fill="#1D1D1B"/>
<path fill-rule="evenodd" clip-rule="evenodd" d="M107.929 11.2106C108.056 11.2701 108.176 11.3454 108.284 11.4345C108.405 11.5152 108.531 11.589 108.66 11.6554C108.933 11.7983 109.22 11.9137 109.516 12C110.353 12.2415 110.841 12.1856 111.699 12.1326L112.416 11.9676C112.762 11.7555 113.018 11.8115 113.798 11.2195C116.045 9.49634 115.446 6.72756 115.515 6.53021C115.425 6.41533 115.361 5.97351 115.214 5.64656C114.648 4.2386 114.121 4.09133 113.762 3.6554C113.16 3.36085 113.115 3.14288 112.151 2.88368C111.464 2.70119 110.745 2.66701 110.043 2.78352C107.35 3.28131 105.935 5.60237 106.266 8.21504C106.395 9.24328 106.875 10.199 107.628 10.9279L107.929 11.2106ZM110.907 11.9706C110.009 11.9744 109.13 11.7148 108.383 11.2253C108.308 11.1723 108.347 11.2106 108.305 11.1576C108.122 10.8206 107.979 10.4637 107.88 10.0943C107.775 9.74456 107.727 9.38064 107.739 9.01622C107.739 8.74228 107.667 8.98382 107.739 8.60385C107.74 8.22846 107.787 7.85455 107.88 7.49045C108.006 7.0038 108.209 6.53958 108.483 6.1149C108.849 5.5157 109.368 5.01948 109.989 4.67454C110.549 4.35467 111.17 4.15045 111.814 4.07446C112.457 3.99846 113.11 4.05233 113.732 4.23272C113.929 4.28076 114.116 4.36038 114.286 4.46835C114.642 4.78941 114.979 5.60533 115.129 6.04126C115.441 7.11447 115.388 8.25768 114.979 9.29899C114.766 9.7959 114.468 10.2533 114.096 10.651C113.727 11.0452 113.278 11.3602 112.777 11.5759C112.355 11.7626 111.906 11.8839 111.446 11.9352C111.205 11.9411 111.13 11.9706 110.907 11.9706Z" fill="#1D1D1B"/>
<path fill-rule="evenodd" clip-rule="evenodd" d="M107.989 13.0249C108.17 13.0249 108.688 13.2812 108.959 13.3607C109.323 13.4688 109.697 13.5438 110.076 13.5845C111.085 13.6935 111.639 13.5698 112.567 13.4402C112.777 13.3577 113.039 13.2988 113.271 13.2134C113.922 12.9769 114.526 12.6321 115.057 12.1943C115.828 11.5468 116.428 10.7264 116.804 9.80309C117.181 8.87983 117.323 7.88115 117.219 6.89234C117.06 5.0514 116.349 4.33269 116.316 4.07349C116.208 3.99396 116.232 3.99691 116.153 3.88203C115.473 2.9085 114.509 2.15813 113.386 1.72887C111.727 1.09178 109.879 1.11397 108.236 1.79072C106.842 2.36332 105.723 3.4333 105.107 4.78336C104.387 6.39919 104.35 8.22797 105.004 9.87026C105.42 10.8931 106.124 11.7797 107.034 12.427C107.293 12.6129 107.567 12.7774 107.853 12.9189C107.947 12.9689 107.932 12.9571 107.986 13.019L107.989 13.0249ZM108.028 2.34448L108.17 2.24433L108.299 2.18542C109.012 1.86917 109.781 1.69112 110.564 1.66112C111.068 1.63972 111.573 1.67132 112.07 1.75538C112.479 1.82411 112.878 1.94081 113.259 2.10294C113.665 2.24351 114.048 2.44202 114.395 2.69205C115.397 3.36796 116.147 4.34522 116.53 5.47556C116.825 6.34398 116.919 7.26579 116.805 8.17416C116.691 9.08254 116.372 9.95469 115.87 10.7274C113.988 13.5109 109.901 14.0499 107.149 12.0381L106.793 11.7436C106.718 11.6729 106.751 11.7082 106.706 11.6287C106.661 11.5492 106.622 11.5816 106.549 11.5021C106.477 11.4225 106.45 11.396 106.39 11.3253C105.561 10.4176 105.065 9.26658 104.977 8.05288C104.836 6.81767 105.094 5.57024 105.715 4.48586C105.98 4.02538 106.312 3.60474 106.7 3.23697C106.884 3.07496 107.733 2.37688 108.031 2.35037L108.028 2.34448Z" fill="#1D1D1B"/>
<path fill-rule="evenodd" clip-rule="evenodd" d="M47.0132 8.59782C46.8295 8.12359 46.6639 7.71416 46.4892 7.26645L45.7032 5.2635C45.6017 5.04384 45.5162 4.81746 45.4472 4.58604C45.3478 4.56542 45.384 4.58604 45.2786 4.84819L44.342 7.21933C44.1673 7.65232 43.9956 8.10297 43.818 8.55069C43.6158 8.99775 43.4409 9.45608 43.2939 9.9233L47.5102 9.94097C47.3744 9.48323 47.2084 9.03457 47.0132 8.59782ZM45.8086 8.59782C45.8538 8.48589 45.8658 8.43287 45.911 8.32683C46.0387 8.03906 46.1483 7.74397 46.2393 7.44318L47.1819 9.73184H45.375L45.8086 8.59782Z" fill="#1D1D1B"/>
</g>
<path d="M125.008 3.78C124.616 4.62 124.322 6.02 124.308 7.322H125.47C125.47 5.684 125.82 4.382 126.016 3.78H125.008ZM126.442 11.928C126.582 13.426 127.674 14.126 129.214 14.126C130.768 14.126 131.846 13.328 131.846 11.97C131.846 10.85 131.272 10.206 129.424 9.716C128.262 9.422 127.996 9.156 127.996 8.652C127.996 8.092 128.346 7.728 129.088 7.728C130.026 7.728 130.32 8.274 130.418 8.806H131.692C131.594 7.7 130.908 6.734 129.158 6.734C127.324 6.734 126.694 7.826 126.694 8.764C126.694 9.73 127.156 10.36 128.92 10.85C130.11 11.172 130.558 11.48 130.558 12.082C130.558 12.67 130.166 13.132 129.242 13.132C128.416 13.132 127.842 12.698 127.716 11.928H126.442Z" fill="#1D1D1D"/>
<defs>
<clipPath id="clip0_185_6417">
<rect width="120" height="16" fill="white"/>
</clipPath>
</defs>
</svg>
