<svg width="36" height="36" viewBox="0 0 36 36" fill="none" xmlns="http://www.w3.org/2000/svg">
<path d="M16.4368 1.95874C17.2375 0.955469 18.7625 0.95547 19.5632 1.95874L23.5409 6.94288C23.8553 7.33685 24.3069 7.59757 24.8053 7.67288L31.1105 8.62559C32.3797 8.81736 33.1423 10.1381 32.6737 11.3331L30.3462 17.27C30.1622 17.7393 30.1622 18.2607 30.3462 18.73L32.6737 24.6669C33.1423 25.8619 32.3797 27.1826 31.1105 27.3744L24.8053 28.3271C24.3069 28.4024 23.8553 28.6631 23.5409 29.0571L19.5632 34.0413C18.7625 35.0445 17.2375 35.0445 16.4368 34.0413L12.4591 29.0571C12.1447 28.6631 11.6931 28.4024 11.1947 28.3271L4.88946 27.3744C3.62027 27.1826 2.85774 25.8619 3.32626 24.6669L5.6538 18.73C5.83778 18.2607 5.83778 17.7393 5.6538 17.27L3.32625 11.3331C2.85774 10.1381 3.62027 8.81736 4.88946 8.62559L11.1947 7.67288C11.6931 7.59757 12.1447 7.33685 12.4591 6.94288L16.4368 1.95874Z" fill="#CEEAB5"/>
<line x1="22.883" y1="12.3214" x2="13.884" y2="23.046" stroke="black"/>
<circle cx="14.5" cy="13.8625" r="1.5" fill="#1D1D1D"/>
<circle cx="22.5" cy="21.8625" r="1.5" fill="#1D1D1D"/>
</svg>
