<svg width="26" height="27" viewBox="0 0 26 27" fill="none" xmlns="http://www.w3.org/2000/svg">
<path d="M23.4399 13.515L24.8661 10.6055C25.1799 9.97801 24.9231 9.20785 24.2956 8.89408L21.4432 7.3823L20.8727 4.21611C20.7586 3.53153 20.1025 3.04661 19.418 3.16071L16.2232 3.6171L13.9128 1.36368C13.3993 0.878772 12.6007 0.878772 12.0872 1.36368L9.77676 3.6171L6.58204 3.16071C5.89746 3.07514 5.24141 3.53153 5.12731 4.21611L4.55682 7.3823L1.7044 8.89408C1.07687 9.23638 0.848671 9.97801 1.13391 10.6055L2.56013 13.515L1.13391 16.4245C0.820147 17.052 1.07687 17.8222 1.7044 18.1359L4.55682 19.6477L5.12731 22.8139C5.24141 23.4985 5.89746 23.9834 6.58204 23.8693L9.77676 23.4129L12.0872 25.6663C12.6007 26.1513 13.3993 26.1513 13.9128 25.6663L16.2232 23.4129L19.418 23.8693C20.1025 23.9549 20.7586 23.4985 20.8727 22.8139L21.4432 19.6477L24.2956 18.1359C24.9231 17.7936 25.1513 17.052 24.8661 16.4245L23.4399 13.515Z" stroke="black" stroke-width="1.4" stroke-miterlimit="10" stroke-linecap="round"/>
<path d="M16.8499 8.38037L9.43359 18.0786" stroke="black" stroke-width="1.4" stroke-miterlimit="10" stroke-linecap="round"/>
<path d="M10.5748 11.5187C11.5988 11.5187 12.4289 10.6886 12.4289 9.66462C12.4289 8.64065 11.5988 7.81055 10.5748 7.81055C9.5508 7.81055 8.7207 8.64065 8.7207 9.66462C8.7207 10.6886 9.5508 11.5187 10.5748 11.5187Z" stroke="black" stroke-width="1.4" stroke-miterlimit="10" stroke-linecap="round"/>
<path d="M15.4244 18.9347C16.4484 18.9347 17.2785 18.1046 17.2785 17.0806C17.2785 16.0567 16.4484 15.2266 15.4244 15.2266C14.4004 15.2266 13.5703 16.0567 13.5703 17.0806C13.5703 18.1046 14.4004 18.9347 15.4244 18.9347Z" stroke="black" stroke-width="1.4" stroke-miterlimit="10" stroke-linecap="round"/>
</svg>
