<svg width="155" height="155" viewBox="0 0 155 155" fill="none" xmlns="http://www.w3.org/2000/svg">
<path d="M77.5 3C118.7 3 152 24.8 152 77.5C152 136.8 118.6 152 77.5 152C22.5 152 3 118.7 3 77.5C3 25.7 36.3 3 77.5 3Z" fill="#FDB001"/>
<path d="M107.7 134.3H47.3C40.1 134.3 33.2 131.5 28 126.5C22.9 121.5 20 114.8 20 107.8V48.9999C20 41.9999 22.9 35.1999 28 30.1999C33.1 25.1999 40 22.3999 47.3 22.3999H107.6C114.8 22.3999 121.8 25.1999 126.9 30.1999C132 35.1999 134.9 41.8999 134.9 48.9999V107.8C134.9 114.8 132 121.6 126.9 126.5C121.8 131.5 114.9 134.3 107.7 134.3ZM47.3 25.9999C41.1 25.9999 35.1 28.3999 30.7 32.6999C26.3 36.9999 23.8 42.7999 23.8 48.8999V107.7C23.8 113.8 26.3 119.6 30.7 123.9C35.1 128.2 41.1 130.6 47.3 130.6H107.6C113.8 130.6 119.8 128.2 124.2 123.9C128.6 119.6 131.1 113.8 131.1 107.7V48.9999C131.1 42.8999 128.6 37.0999 124.2 32.7999C119.8 28.4999 113.8 26.0999 107.6 26.0999L47.3 25.9999Z" fill="#1D1D1D"/>
<path d="M106.5 138.3H48.5C39.9 138.3 31.6 134.9 25.5 129C19.4 123.1 16 115 16 106.6V50.0999C16 41.6999 19.4 33.5999 25.5 27.6999C31.6 21.7999 39.9 18.3999 48.5 18.3999H106.6C115.2 18.3999 123.5 21.7999 129.6 27.6999C135.7 33.5999 139.1 41.6999 139.1 50.0999V106.6C139.1 115 135.7 123.1 129.6 129C123.4 135 115.2 138.3 106.5 138.3ZM48.5 20.1999C40.4 20.1999 32.6 23.3999 26.8 28.9999C21 34.5999 17.8 42.1999 17.8 50.0999V106.6C17.8 114.5 21 122.1 26.8 127.7C32.6 133.3 40.4 136.5 48.5 136.5H106.6C114.7 136.5 122.5 133.3 128.3 127.7C134.1 122.1 137.3 114.5 137.3 106.6V50.0999C137.3 42.1999 134.1 34.5999 128.3 28.9999C122.5 23.3999 114.7 20.1999 106.6 20.1999H48.5Z" fill="#1D1D1D"/>
<path d="M106.9 128.5H48.1C42.3 128.5 36.6 126.2 32.5 122.2C28.4 118.2 26 112.7 26 107V49.7C26 44 28.3 38.5 32.5 34.5C36.6 30.5 42.2 28.2 48.1 28.2H107C112.8 28.2 118.4 30.5 122.6 34.5C126.7 38.5 129.1 44 129.1 49.7V107C129.1 112.7 126.8 118.2 122.6 122.2C118.4 126.2 112.8 128.5 106.9 128.5ZM48.1 31.7999C43.2 31.7999 38.6 33.7 35.1 37C31.7 40.3 29.7 44.8999 29.7 49.5999V107C29.7 111.7 31.6 116.3 35.1 119.6C38.5 122.9 43.2 124.8 48.1 124.8H107C111.9 124.8 116.5 122.9 119.9 119.6C123.3 116.3 125.3 111.7 125.3 107V49.7C125.3 45 123.4 40.3999 119.9 37.0999C116.5 33.7999 111.8 31.9 107 31.9H48.1V31.7999Z" fill="#1D1D1D"/>
<path d="M14.5 58.4L57.3 15.6C68 4.8 85.5 4.8 96.2 15.6L139 58.4C149.7 69.1 149.7 86.6 139 97.3L96.2 140.1C85.5 150.8 68 150.8 57.3 140.1L14.5 97.3C3.79998 86.5 3.79998 69.1 14.5 58.4Z" fill="#FDB001"/>
<path d="M77.5 141.2C74 141.2 70.5 140.5 67.3 139.2C64.1 137.9 62.3 135 59.8 132.6L21.5 95.5C16.5 90.6 12.5 85.0999 12.5 78.1999C12.5 71.2999 16.2 66.2 21.2 61.2999L59.5 24.2C64.5 19.4 70.4 15.2 77.5 15.2C84.6 15.2 90.2 19.1 95.2 24L133.5 61.0999C138.5 66 142.5 71.3999 142.5 78.1999C142.5 85.0999 138.5 90.6 133.5 95.5L95.4 132.2C92.9 134.6 90.9 137.9 87.6 139.2C84.5 140.5 81 141.2 77.5 141.2Z" fill="white"/>
<path d="M77.5 6V9.6C81.2 9.6 84.7999 10.3 88.2 11.7C91.6 13.1 94.7 15.1 97.2 17.6L139.9 59.2C145.1 64.3 148.1 71.2 148.1 78.4C148.1 85.6 145.2 92.5 139.9 97.6L97.2 139.2C92 144.3 84.9 147.1 77.5 147.1C70.1 147.1 63 144.2 57.7999 139.2L15.1 97.6C9.89995 92.5 6.99995 85.6 6.99995 78.4C6.99995 71.2 9.89995 64.3 15.2 59.2L57.9 17.6C60.5 15.1 63.6 13.1 66.9 11.7C70.2999 10.3 73.9 9.6 77.6 9.7V6H77.5ZM77.5 6C73.3 6 69.2 6.8 65.4 8.3C61.6 9.8 58.0999 12.1 55.0999 15L12.5 56.6C9.59995 59.5 7.19995 62.9 5.59995 66.6C3.99995 70.3 3.19995 74.3 3.19995 78.4C3.19995 82.4 3.99995 86.5 5.59995 90.2C7.19995 93.9 9.49995 97.3 12.5 100.2L55.2 141.8C61.1 147.6 69.2 150.8 77.6 150.8C86 150.8 94 147.6 100 141.8L142.7 100.2C145.6 97.3 148 93.9 149.6 90.2C151.2 86.5 152 82.5 152 78.4C152 74.4 151.2 70.3 149.6 66.6C148 62.9 145.7 59.5 142.7 56.6L99.9 15C97 12.1 93.5 9.9 89.6 8.3C85.7999 6.7 81.7 6 77.5 6Z" fill="#1D1D1D"/>
<path d="M77.5 145.6C74 145.6 70.6 144.9 67.4 143.7C64.2 142.4 61.3 140.5 58.9 138.1L16.2 96.5C13.8 94.1 11.8 91.2999 10.5 88.2C9.2 85.1 8.5 81.7 8.5 78.4C8.5 75 9.2 71.6999 10.5 68.5999C11.8 65.5 13.8 62.7 16.2 60.2999L58.9 18.8C61.3 16.4 64.3 14.5 67.4 13.2C70.6 11.9 74 11.2 77.5 11.2C81 11.2 84.4 11.9 87.6 13.2C90.8 14.5 93.7 16.4 96.1 18.8L138.8 60.4C141.2 62.8 143.2 65.5999 144.5 68.6999C145.8 71.7999 146.5 75.2 146.5 78.5C146.5 81.8 145.8 85.2 144.5 88.3C143.2 91.4 141.2 94.2 138.8 96.6L96.1 138.2C93.6 140.6 90.7 142.5 87.5 143.7C84.4 144.9 81 145.6 77.5 145.6ZM77.5 12.9C74.3 12.9 71.1 13.5 68.1 14.7C65.1 15.9 62.4 17.7 60.2 19.9L17.5 61.5C12.9 66 10.4 72 10.4 78.4C10.4 84.8 13 90.8 17.6 95.3L60.3 136.9C62.6 139.1 65.3 140.9 68.2 142.1C71.2 143.3 74.4 143.9 77.6 143.9C80.8 143.9 84 143.3 87 142.1C90 140.9 92.7 139.1 94.9 136.9L137.6 95.3C142.2 90.8 144.8 84.8 144.8 78.4C144.8 72 142.2 66 137.6 61.5L94.9 19.9C92.6 17.7 89.9 15.9 86.9 14.7C83.9 13.5 80.7 12.9 77.5 12.9Z" fill="#1D1D1D"/>
<path d="M77.5 142.8C74.7 142.8 72 142.3 69.4001 141.2C66.8001 140.2 64.5 138.6 62.5 136.7L17.5 92.8999C13.5 88.9999 11.3 83.7999 11.3 78.2999C11.3 72.7999 13.5 67.5999 17.5 63.6999L62.5 19.8999C66.5 15.9999 71.9 13.8999 77.5 13.8999C83.1 13.8999 88.5 16.0999 92.5 19.8999L137.5 63.7999C141.5 67.6999 143.7 72.8999 143.7 78.3999C143.7 83.8999 141.5 89.0999 137.5 92.9999L92.5 136.8C90.5 138.7 88.2 140.2 85.6 141.3C83 142.3 80.3 142.8 77.5 142.8ZM77.5 15.7999C75 15.7999 72.5 16.2999 70.2 17.1999C67.9 18.0999 65.8 19.4999 64 21.2999L19 65.0999C17.2 66.7999 15.8 68.8999 14.8 71.1999C13.8 73.4999 13.3 75.8999 13.3 78.3999C13.3 80.8999 13.8 83.2999 14.8 85.5999C15.8 87.8999 17.2 89.8999 19 91.6999L64 135.5C65.8 137.2 67.9 138.6 70.2 139.6C72.5 140.5 75 141 77.6 141C80.1 141 82.6 140.5 85 139.6C87.3 138.7 89.4 137.3 91.2 135.5L136.2 91.6999C138 89.9999 139.4 87.8999 140.4 85.5999C141.4 83.2999 141.9 80.8999 141.9 78.3999C141.9 75.8999 141.4 73.4999 140.4 71.1999C139.4 68.8999 138 66.8999 136.2 65.0999L91.2 21.2999C89.4 19.5999 87.3 18.1999 85 17.1999C82.5 16.2999 80 15.7999 77.5 15.7999Z" fill="#1D1D1D"/>
<path d="M92 155H63C46.3 155 30.3 148.5 18.5 137C6.7 125.5 0 109.9 0 93.6V61.4C0 45.1 6.7 29.5 18.5 18C30.3 6.5 46.3 0 63 0H92C108.7 0 124.7 6.5 136.5 18C148.3 29.5 155 45.1 155 61.4V93.6C155 109.9 148.3 125.5 136.5 137C124.7 148.5 108.7 155 92 155ZM63.8 7.6C48.9 7.6 34.7 13.4 24.2 23.6C13.7 33.8 7.7 47.7 7.7 62.2V92.8C7.7 107.3 13.6 121.2 24.1 131.4C34.6 141.6 48.9 147.4 63.7 147.4H91.2C106.1 147.4 120.3 141.6 130.8 131.4C141.3 121.2 147.2 107.3 147.2 92.8V62.2C147.2 47.7 141.3 33.8 130.8 23.6C120.3 13.4 106 7.6 91.2 7.6H63.8Z" fill="#1D1D1D"/>
<path d="M49.7 52.2H53.0999C53.5999 52.2 54 52.2 54.5 52.4C54.9 52.6 55.3 52.8 55.7 53.2C56 53.5 56.3 53.9 56.4 54.4C56.6 54.8 56.5999 55.2999 56.5999 55.7999C56.5999 56.2999 56.6 56.8 56.4 57.2C56.2 57.7 55.9999 58.1 55.5999 58.4C55.2999 58.7 54.8 59 54.4 59.2C53.9 59.4 53.4 59.4 52.9 59.4H51.2999V64.6999H49.7999V52.2H49.7ZM51.2999 58H52.7999C54.2999 58 55.0999 57.3 55.0999 55.7C55.0999 55.4 55.1 55.1 55 54.9C54.9 54.6 54.7999 54.4 54.5999 54.2C54.3999 54 54.2 53.8 53.9 53.7C53.6 53.6 53.3 53.4999 53 53.5999H51.4L51.2999 58Z" fill="#1D1D1D" stroke="#1D1D1D" stroke-width="0.25" stroke-miterlimit="10"/>
<path d="M60.2999 60.8L59.3999 64.6H57.7999L60.8999 52.3H62.8999L66.0999 64.6H64.3999L63.4999 60.8H60.2999ZM63.2999 59.4001C62.5999 56.5001 62.1999 54.6 61.9999 53.6C61.7999 54.7 61.2999 56.8001 60.6999 59.4001H63.2999Z" fill="#1D1D1D" stroke="#1D1D1D" stroke-width="0.25" stroke-miterlimit="10"/>
<path d="M75.8 61.1C75.8 61.8 75.4 64.7 72.2 64.7C68.7 64.7 68.5 61.3 68.5 58.3C68.5 54.6 69.5 52 72.4 52C75.6 52 75.8 54.8 75.8 55.6H74.2C74.2 55.2 74.1 53.4 72.4 53.4C70.5 53.4 70.1 55.9 70.1 58.4C70.1 60.9 70.4 63.5 72.2 63.5C73.8 63.5 74.1 61.8 74.1 61.2L75.8 61.1Z" fill="#1D1D1D" stroke="#1D1D1D" stroke-width="0.25" stroke-miterlimit="10"/>
<path d="M79 52.2H80.6V58.2C81.5 57 83.5 54 84.8 52.2H86.6L83 57.2L86.7 64.5999H84.9L81.9 58.5L80.6 60.2V64.5999H79V52.2Z" fill="#1D1D1D" stroke="#1D1D1D" stroke-width="0.25" stroke-miterlimit="10"/>
<path d="M95.1 58.7H90.8V63.2H95.5L95.3 64.5H89.2V52.2H95.2V53.5999H90.7V57.4H95L95.1 58.7Z" fill="#1D1D1D" stroke="#1D1D1D" stroke-width="0.25" stroke-miterlimit="10"/>
<path d="M98.6 52.2H101.6C104.6 52.2 105.9 54.1999 105.9 58.0999C105.9 62.2999 104.7 64.5999 101.4 64.5999H98.6V52.2ZM100.2 63.2H101.3C103.6 63.2 104.3 61.4999 104.3 58.0999C104.3 54.8999 103.5 53.5 101.4 53.5H100.3L100.2 63.2Z" fill="#1D1D1D" stroke="#1D1D1D" stroke-width="0.25" stroke-miterlimit="10"/>
<path d="M32.7 70.7H38.7V72H34.2V75.9H38.4V77.2H34.2V83H32.6L32.7 70.7Z" fill="#1D1D1D" stroke="#1D1D1D" stroke-width="0.25" stroke-miterlimit="10"/>
<path d="M49.1 76.7C49.1 81 48 83.2 45.2 83.2C42.4 83.2 41.4 81.1 41.4 76.8C41.4 72.5 42.7 70.6 45.3 70.6C47.8 70.5 49.1 72.5 49.1 76.7ZM43 76.7C43 80.1 43.7 81.9 45.3 81.9C46.9 81.9 47.6 80.2 47.6 76.8C47.6 73.4 46.9 71.9 45.3 71.9C43.7 71.8 43 73.5 43 76.7Z" fill="#1D1D1D" stroke="#1D1D1D" stroke-width="0.25" stroke-miterlimit="10"/>
<path d="M54.2 77.4001V83.0001H52.6V70.7001H56.1C56.6 70.6001 57 70.7001 57.4 70.8001C57.8 70.9001 58.2 71.2001 58.6 71.5001C58.9 71.8001 59.2 72.2001 59.3 72.6001C59.5 73.0001 59.5 73.5001 59.5 73.9001C59.6 74.5001 59.5 75.1001 59.1 75.6001C58.8 76.1001 58.3 76.5001 57.7 76.8001C58.8 77.2001 59.2 78.2001 59.2 79.9001V80.4001C59.2 81.3001 59.2 82.2001 59.4 83.0001H57.8C57.6 82.1001 57.6 81.2001 57.6 80.3001V79.9001C57.6 78.2001 57.2 77.4001 55.5 77.4001H54.2ZM54.2 76.1001H55.7C57.2 76.1001 57.8 75.3001 57.8 73.9001C57.8 73.6001 57.8 73.4001 57.7 73.1001C57.6 72.8001 57.5 72.6001 57.3 72.4001C57.1 72.2001 56.9 72.1001 56.6 72.0001C56.3 71.9001 56.1 71.9001 55.8 71.9001H54.1V76.1001H54.2Z" fill="#1D1D1D" stroke="#1D1D1D" stroke-width="0.25" stroke-miterlimit="10"/>
<path d="M68.9 79.7C69 80.9 69.6 81.9 71 81.9C72.4 81.9 72.9 81.2 72.9 79.9C72.9 78.6 72.4 78 70.6 77.2C68.5 76.3 67.7 75.4 67.7 73.6C67.8 72.8 68.1 72 68.8 71.5C69.5 71 70.2 70.6 71.1 70.7C71.9 70.7 72.7 71 73.3 71.6C73.9 72.2 74.3 73 74.3 73.8H72.8C72.7 73.2 72.6 71.8 71 71.8C70.8 71.8 70.5 71.8 70.3 71.9C70.1 72 69.9 72.1 69.7 72.3C69.5 72.5 69.4 72.7 69.3 72.9C69.2 73.1 69.2 73.3 69.2 73.6C69.2 74.7 69.7 75.3 71.3 76C73.6 77 74.4 78 74.4 79.9C74.4 80.4 74.4 80.8 74.2 81.3C74 81.7 73.8 82.1 73.4 82.5C73.1 82.8 72.6 83.1 72.2 83.2C71.7 83.4 71.3 83.4 70.8 83.4C68.2 83.4 67.3 81.7 67.2 79.9L68.9 79.7Z" fill="#1D1D1D" stroke="#1D1D1D" stroke-width="0.25" stroke-miterlimit="10"/>
<path d="M79.5 79.2L78.7 83H77.1L80.2 70.7H82.3L85.4 83H83.7L82.8 79.2H79.5ZM82.5 77.9C81.8 75 81.4 73.1 81.2 72.1C81 73.2 80.5 75.3 79.9 77.9H82.5Z" fill="#1D1D1D" stroke="#1D1D1D" stroke-width="0.25" stroke-miterlimit="10"/>
<path d="M88.2 70.7H94.3V72H89.8V75.9H94V77.2H89.8V83H88.2V70.7Z" fill="#1D1D1D" stroke="#1D1D1D" stroke-width="0.25" stroke-miterlimit="10"/>
<path d="M103.2 77.2H98.8999V81.7H103.6L103.4 83H97.2999V70.7H103.3V72H98.7999V75.8H103.1L103.2 77.2Z" fill="#1D1D1D" stroke="#1D1D1D" stroke-width="0.25" stroke-miterlimit="10"/>
<path d="M108.8 72H106V70.7H113.3V72H110.5V83H108.9V72H108.8Z" fill="#1D1D1D" stroke="#1D1D1D" stroke-width="0.25" stroke-miterlimit="10"/>
<path d="M118.8 83V78.4C118.8 78.3 118.8 78.2 118.7 78.1L115.4 70.7H117.2C118 72.8 119.2 75.6 119.6 76.7C120.1 75.5 121.2 72.7 122 70.7H123.7L120.4 78.1C120.4 78.2 120.4 78.3 120.4 78.4V83H118.8Z" fill="#1D1D1D" stroke="#1D1D1D" stroke-width="0.25" stroke-miterlimit="10"/>
<path d="M46.1 94L43.7 98.7C42.7 100.5 42 101.6 40.1 101.6C38.2 101.6 37.1 100.2 37.1 98.3C37.1 96.7 37.8 95.7 39.8 94.5C41.5 93.5 41.9 92.8 41.9 91.7C41.9 90.9 41.6 90.2 40.7 90.2C39.8 90.2 39.5 90.8 39.5 91.8C39.5 92.7 39.9 93.6 40.6 94.2L46.7 101.4H44.7L39.2 95C38.4 94.1 37.9 93 37.9 91.8C37.9 91.4 37.9 91.1 38 90.7C38.1 90.4 38.3 90 38.6 89.8C38.9 89.5 39.2 89.3 39.5 89.2C39.8 89.1 40.2 89 40.6 89C41 89 41.3 89 41.6 89.2C41.9 89.3 42.2 89.5 42.5 89.8C42.8 90 42.9 90.3 43.1 90.7C43.2 91 43.3 91.4 43.2 91.7C43.2 93.5 42.3 94.3 40.4 95.4C39.8 95.7 39.4 96.1 39 96.6C38.7 97.1 38.5 97.7 38.5 98.3C38.5 99.6 39.1 100.4 40.1 100.4C41.1 100.4 41.7 99.7 42.6 97.9L44.5 94.1L46.1 94Z" fill="#1D1D1D" stroke="#1D1D1D" stroke-width="0.25" stroke-miterlimit="10"/>
<path d="M54.7 89.1001H56.2999V94.2001H60.2999V89.1001H61.9V101.4H60.2999V95.6001H56.2999V101.4H54.7V89.1001Z" fill="#1D1D1D" stroke="#1D1D1D" stroke-width="0.25" stroke-miterlimit="10"/>
<path d="M67.6999 101.4V96.8C67.6999 96.7 67.6999 96.6 67.5999 96.5L64.2999 89.2H66.0999C66.8999 91.3 68.0999 94.1 68.4999 95.2C68.9999 93.9 70.0999 91.1 70.8999 89.2H72.5999L69.2999 96.6C69.1999 96.7 69.1999 96.8 69.1999 96.9V101.5H67.6999V101.4Z" fill="#1D1D1D" stroke="#1D1D1D" stroke-width="0.25" stroke-miterlimit="10"/>
<path d="M82.0999 101.4H80.8999C80.7999 101 80.7999 100.6 80.7999 100.1C80.5999 100.6 80.1999 101 79.7999 101.2C79.2999 101.5 78.7999 101.6 78.2999 101.5C75.4999 101.5 74.7999 98.8 74.7999 95.2C74.7999 90.9 76.1999 88.8 78.7999 88.8C79.2999 88.8 79.6999 88.9 80.0999 89C80.4999 89.1 80.8999 89.4 81.1999 89.7C81.4999 90 81.7999 90.4 81.8999 90.8C82.0999 91.2 82.0999 91.7 82.0999 92.1H80.4999C80.4999 91.6 80.3999 90 78.5999 90C76.8999 90 76.2999 92 76.2999 95C76.2999 98 76.7999 100 78.5999 100C80.3999 100 80.5999 98.7 80.5999 96.3V96H78.4999V94.7H82.1999L82.0999 101.4Z" fill="#1D1D1D" stroke="#1D1D1D" stroke-width="0.25" stroke-miterlimit="10"/>
<path d="M87.3999 89.1001V101.4H85.7999V89.1001H87.3999Z" fill="#1D1D1D" stroke="#1D1D1D" stroke-width="0.25" stroke-miterlimit="10"/>
<path d="M97.3 95.6001H93V100.1H97.7L97.5 101.4H91.4V89.1001H97.4V90.5001H93V94.3001H97.3V95.6001Z" fill="#1D1D1D" stroke="#1D1D1D" stroke-width="0.25" stroke-miterlimit="10"/>
<path d="M100.8 101.4V89.1001H102.7C106.1 97.3001 106.6 98.5001 106.7 99.0001C106.6 97.4001 106.6 95.5001 106.6 93.5001V89.1001H108.1V101.4H106.3C102.8 92.8001 102.3 91.6001 102.2 91.1001C102.3 92.6001 102.3 94.6001 102.3 96.8001V101.4H100.8Z" fill="#1D1D1D" stroke="#1D1D1D" stroke-width="0.25" stroke-miterlimit="10"/>
<path d="M117.9 95.6001H113.6V100.1H118.3L118.1 101.4H112V89.1001H118V90.5001H113.5V94.3001H117.8L117.9 95.6001Z" fill="#1D1D1D" stroke="#1D1D1D" stroke-width="0.25" stroke-miterlimit="10"/>
</svg>
