<svg width="463" height="168" viewBox="0 0 463 168" fill="none" xmlns="http://www.w3.org/2000/svg">
<g filter="url(#filter0_d_590_14596)">
<path fill-rule="evenodd" clip-rule="evenodd" d="M423 123.467L411.94 115.407L400.87 123.467L389.8 115.407L378.73 123.467L367.66 115.407L356.59 123.467L345.52 115.407L334.46 123.467L323.39 115.407L312.32 123.467L301.26 115.407L290.19 123.467L279.13 115.407L268.06 123.467L257.62 115.859L247.256 123.467L236.337 115.451L225.427 123.467L214.507 115.451L203.598 123.467L192.698 115.451L181.788 123.467L170.878 115.451L159.968 123.467L149.059 115.451L138.149 123.467L127.239 115.451L116.339 123.467L105.429 115.451L94.5196 123.467L83.6196 115.451L72.7098 123.467L61.8098 115.451L50.9001 123.467L40.0001 115.451L40 36.4734H257V36H423V123.467Z" fill="white"/>
</g>
<defs>
<filter id="filter0_d_590_14596" x="0" y="0" width="463" height="167.467" filterUnits="userSpaceOnUse" color-interpolation-filters="sRGB">
<feFlood flood-opacity="0" result="BackgroundImageFix"/>
<feColorMatrix in="SourceAlpha" type="matrix" values="0 0 0 0 0 0 0 0 0 0 0 0 0 0 0 0 0 0 127 0" result="hardAlpha"/>
<feOffset dy="4"/>
<feGaussianBlur stdDeviation="20"/>
<feComposite in2="hardAlpha" operator="out"/>
<feColorMatrix type="matrix" values="0 0 0 0 0 0 0 0 0 0 0 0 0 0 0 0 0 0 0.12 0"/>
<feBlend mode="normal" in2="BackgroundImageFix" result="effect1_dropShadow_590_14596"/>
<feBlend mode="normal" in="SourceGraphic" in2="effect1_dropShadow_590_14596" result="shape"/>
</filter>
</defs>
</svg>
