<svg width="265" height="60" viewBox="0 0 265 60" fill="none" xmlns="http://www.w3.org/2000/svg">
<g clip-path="url(#clip0_590_13888)">
<line x1="132.498" y1="0.714355" x2="132.498" y2="59.2858" stroke="#1D1D1D"/>
<line x1="161.285" y1="30.5" x2="102.714" y2="30.5" stroke="#1D1D1D"/>
<line x1="153.061" y1="9.64555" x2="111.644" y2="51.0618" stroke="#1D1D1D"/>
<line x1="152.353" y1="51.0616" x2="110.937" y2="9.6453" stroke="#1D1D1D"/>
<line x1="140.061" y1="1.84181" x2="124.902" y2="58.4175" stroke="#1D1D1D"/>
<line x1="160.158" y1="38.0626" x2="103.582" y2="22.9031" stroke="#1D1D1D"/>
<line x1="147.074" y1="4.88818" x2="117.788" y2="55.6125" stroke="#1D1D1D"/>
<line x1="157.111" y1="45.0761" x2="106.387" y2="15.7904" stroke="#1D1D1D"/>
<line x1="157.611" y1="15.7904" x2="106.887" y2="45.0761" stroke="#1D1D1D"/>
<line x1="146.208" y1="55.6123" x2="116.922" y2="4.88796" stroke="#1D1D1D"/>
<line x1="160.417" y1="22.9034" x2="103.841" y2="38.0628" stroke="#1D1D1D"/>
<line x1="139.095" y1="58.417" x2="123.936" y2="1.84134" stroke="#1D1D1D"/>
<line x1="128.258" y1="0.950127" x2="136.732" y2="58.9054" stroke="#1D1D1D"/>
<line x1="161.049" y1="26.2584" x2="103.094" y2="34.7318" stroke="#1D1D1D"/>
<line x1="149.895" y1="6.81285" x2="114.906" y2="53.785" stroke="#1D1D1D"/>
<line x1="155.188" y1="47.8956" x2="108.215" y2="12.9067" stroke="#1D1D1D"/>
<line x1="135.903" y1="0.971753" x2="129.088" y2="59.1453" stroke="#1D1D1D"/>
<line x1="161.028" y1="33.9043" x2="102.854" y2="27.0891" stroke="#1D1D1D"/>
<line x1="143.283" y1="2.97184" x2="121.644" y2="57.3993" stroke="#1D1D1D"/>
<line x1="159.028" y1="41.2844" x2="104.601" y2="19.645" stroke="#1D1D1D"/>
<line x1="155.287" y1="12.2351" x2="109.333" y2="48.5509" stroke="#1D1D1D"/>
<line x1="149.766" y1="53.2871" x2="113.45" y2="7.33304" stroke="#1D1D1D"/>
<line x1="159.09" y1="18.8674" x2="105.303" y2="42.052" stroke="#1D1D1D"/>
<line x1="143.133" y1="57.0915" x2="119.948" y2="3.30407" stroke="#1D1D1D"/>
<path d="M155.498 34.5457C157.945 31.9233 157.98 27.7974 155.463 25.1401L155.428 25.1051C156.651 21.7135 155.078 17.9373 151.756 16.4338C151.721 16.4338 151.721 16.4338 151.686 16.3988C151.512 12.7974 148.609 9.8953 144.938 9.82537C144.903 9.82537 144.903 9.82537 144.868 9.82537C143.33 6.57362 139.519 5.03516 136.127 6.3988C136.092 6.3988 136.092 6.3988 136.057 6.43376C133.4 4.02118 129.274 4.09111 126.651 6.64355L126.616 6.67852C123.225 5.48971 119.449 7.16803 118.015 10.5247C118.015 10.5596 118.015 10.5596 117.98 10.5946C114.763 10.8044 112.141 13.2519 111.651 16.4338C108.959 18.0422 107.665 21.3638 108.679 24.4757C108.679 24.5107 108.679 24.5107 108.714 24.5457C106.162 27.0631 105.987 31.189 108.365 33.9512L108.4 33.9862C107.036 37.3079 108.435 41.189 111.721 42.7974C111.756 42.7974 111.756 42.7974 111.791 42.8324C111.826 46.4338 114.623 49.4408 118.26 49.6505C118.295 49.6505 118.295 49.6505 118.33 49.6505C119.728 52.9722 123.505 54.6505 126.931 53.4268C126.966 53.4268 126.966 53.4268 127.001 53.3918C129.589 55.9093 133.714 55.9792 136.407 53.5317L136.442 53.4967C139.798 54.7904 143.644 53.2869 145.183 50.0002C145.183 49.9652 145.183 49.9652 145.218 49.9303C148.819 49.8254 151.756 46.9582 151.896 43.3219C151.896 43.2869 151.896 43.2869 151.896 43.2519C155.183 41.7834 156.791 37.9722 155.498 34.5806V34.5457Z" fill="white"/>
<path d="M131.791 55.6995C130.042 55.6995 128.294 55.0701 126.895 53.8114C123.399 54.9303 119.623 53.2869 118.049 49.9653C114.413 49.6506 111.546 46.6436 111.371 43.0072C108.119 41.3289 106.651 37.4478 107.909 34.0212C105.567 31.189 105.707 27.0632 108.224 24.4058C107.28 21.259 108.504 17.9373 111.266 16.1541C111.826 12.9723 114.483 10.4897 117.7 10.1751C119.203 6.81842 122.979 5.1401 126.476 6.18905C129.168 3.70653 133.294 3.56667 136.091 5.90933C139.518 4.65059 143.399 6.15408 145.077 9.40583C148.749 9.58065 151.721 12.4478 152 16.0841C155.322 17.6576 156.93 21.4688 155.812 24.9303C158.259 27.6576 158.294 31.8184 155.881 34.5457C157.07 38.0072 155.497 41.8534 152.21 43.4618C151.965 47.0981 149.028 50.0352 145.392 50.245C143.749 53.5317 139.902 55.0702 136.476 53.8813C135.182 55.1401 133.469 55.6995 131.791 55.6995ZM127.105 52.9373L127.28 53.1121C129.728 55.4897 133.609 55.5597 136.161 53.252L136.371 53.0422L136.616 53.1471C139.798 54.3708 143.399 52.9373 144.833 49.8604L144.972 49.5806H145.217C148.609 49.4757 151.406 46.7485 151.511 43.3569V43.0422L151.721 42.9373C154.833 41.5387 156.336 37.9373 155.112 34.7555L155.007 34.4758L155.182 34.3009C157.49 31.8184 157.49 27.9023 155.147 25.4198L154.937 25.21L155.007 24.9653C156.196 21.7834 154.658 18.182 151.546 16.8184L151.266 16.7135V16.4688C151.126 13.0772 148.329 10.3499 144.902 10.28H144.833H144.588L144.483 10.0702C143.014 6.99324 139.413 5.55968 136.231 6.81842L135.951 6.92331L135.777 6.74849C133.224 4.47576 129.343 4.58066 126.895 6.95828L126.686 7.16807L126.476 7.06317C123.259 5.94429 119.693 7.55268 118.399 10.6995L118.294 10.9793H118.049C115.007 11.189 112.49 13.4967 112.07 16.4688L112.035 16.6436L111.86 16.7485C109.273 18.3219 108.119 21.4338 109.063 24.3359L109.168 24.6156L108.993 24.8254C106.581 27.238 106.441 31.1191 108.679 33.6716L108.888 33.8813L108.784 34.1261C107.49 37.273 108.853 40.9093 111.93 42.4128L112.21 42.5527V42.7974C112.245 46.189 114.902 49.0212 118.329 49.231H118.644L118.749 49.4408C120.077 52.5876 123.644 54.1261 126.86 53.0072L127.105 52.9373Z" fill="#1D1D1D"/>
<path d="M127.845 49.6312L127.753 49.5703L127.668 49.6389L127.524 49.7537C124.829 50.6918 121.855 49.3557 120.746 46.7548L120.74 46.742L120.733 46.7305L120.602 46.5343L120.557 46.4674H120.477H120.253C117.394 46.2741 115.172 43.9208 115.139 41.0587V40.8307V40.7318L115.048 40.6928L114.824 40.5964C112.251 39.3226 111.108 36.2692 112.188 33.6296L112.189 33.6297L112.192 33.6201L112.257 33.424L112.283 33.3448L112.23 33.2806L112.067 33.0844L112.067 33.0844L112.064 33.0813C110.189 30.95 110.285 27.673 112.318 25.6697L112.319 25.6689L112.482 25.5054L112.55 25.4371L112.517 25.3468L112.42 25.0881C111.626 22.6694 112.581 20.0312 114.772 18.7281L114.779 18.7239L114.785 18.7191L114.916 18.621L114.962 18.5866L114.973 18.5304L115.006 18.367L115.006 18.367L115.007 18.3601C115.388 15.8465 117.487 13.9058 120.029 13.7467L120.043 13.7459L120.056 13.7425L120.318 13.6772L120.397 13.6572L120.423 13.579L120.487 13.3887C121.601 10.7833 124.556 9.44966 127.256 10.3716L127.269 10.3761L127.283 10.3781L127.512 10.4108L127.605 10.4242L127.658 10.3455L127.779 10.1632C129.848 8.19984 133.083 8.11018 135.207 10.0144L135.215 10.0215L135.224 10.0274L135.42 10.1582L135.481 10.199L135.551 10.1757L135.747 10.1103L135.747 10.1107L135.756 10.1068C138.393 9.02592 141.444 10.2341 142.652 12.8107L142.652 12.8107L142.653 12.814L142.751 13.0102L142.793 13.0932H142.886H143.145C145.973 13.1576 148.323 15.4151 148.452 18.2755V18.4684V18.5672L148.543 18.6062L148.77 18.7038C148.771 18.7039 148.771 18.704 148.771 18.7041C151.376 19.8491 152.648 22.8714 151.663 25.5436L151.662 25.5436L151.661 25.5481L151.596 25.7443L151.566 25.8322L151.632 25.8977L151.826 26.0922C153.796 28.1925 153.795 31.4368 151.856 33.5364L151.856 33.5361L151.849 33.5445L151.719 33.7079L151.666 33.7745L151.695 33.8542L151.793 34.115C151.793 34.1153 151.793 34.1155 151.793 34.1158C152.779 36.789 151.538 39.8115 148.932 40.9882L148.921 40.9933L148.911 41.0002L148.715 41.1309L148.648 41.1755V41.2557V41.4821C148.551 44.3431 146.233 46.6318 143.374 46.6963H143.18H143.081L143.042 46.7873L142.945 47.0138C141.736 49.59 138.716 50.829 136.048 49.7799L136.048 49.7797L136.041 49.7772L135.845 49.7118L135.765 49.6854L135.701 49.7389L135.505 49.9024L135.505 49.9023L135.501 49.9059C133.371 51.8152 130.096 51.7509 128.062 49.7791L128.052 49.7696L128.041 49.762L127.845 49.6312ZM119.921 47.3804C121.303 50.2155 124.569 51.6534 127.597 50.709C128.821 51.7428 130.332 52.2927 131.845 52.2927C133.323 52.2927 134.768 51.7759 135.958 50.8079C138.954 51.8181 142.253 50.4783 143.699 47.6766C146.842 47.4379 149.389 44.9222 149.628 41.7759C152.426 40.3287 153.798 37.0287 152.79 34.0298C154.821 31.6088 154.789 28.0471 152.723 25.6587C153.666 22.6609 152.263 19.3612 149.43 17.9777C149.126 14.8336 146.547 12.3501 143.403 12.1763C141.892 9.37688 138.562 8.10155 135.598 9.14412C133.147 7.14394 129.556 7.24141 127.232 9.37483C124.205 8.49722 120.974 9.96841 119.626 12.8352C116.842 13.1362 114.558 15.2653 114.037 18.0174C111.658 19.552 110.608 22.4326 111.391 25.1636C109.26 27.488 109.129 31.0814 111.128 33.5363C110.054 36.5031 111.328 39.8359 114.125 41.3481C114.299 44.4948 116.78 47.0757 119.921 47.3804Z" fill="#FDB001" stroke="#FDB001" stroke-width="0.3"/>
<path fill-rule="evenodd" clip-rule="evenodd" d="M123.153 37.3782C123.118 37.0636 123.713 30.2104 123.747 29.7908L124.377 22.1685H126.685C126.859 22.2734 126.964 22.4831 127.034 22.658L129.342 26.1545C129.796 26.8188 130.216 27.4831 130.671 28.1475L131.685 29.651C131.824 29.8957 131.929 30.1055 132.034 30.0706C132.209 29.7209 132.489 29.3713 132.699 29.0566L136.58 23.1824C136.685 23.0076 136.789 22.8678 136.894 22.6929L137.209 22.2384C137.279 22.1685 137.139 22.2034 137.349 22.1685H139.552C139.692 22.2384 139.692 22.9027 139.692 23.1125C139.727 23.4622 139.761 23.7768 139.761 24.1265L140.251 30.0006C140.356 31.3293 140.426 32.658 140.566 33.9517C140.706 35.2454 140.81 36.644 140.88 37.9027H137.559V37.623C137.559 36.9237 137.454 36.0845 137.419 35.4202C137.349 34.6859 136.964 29.0915 136.999 28.8118C136.929 28.7069 136.929 28.0426 136.894 27.8678C136.615 28.0076 133.258 33.3223 132.803 33.8118H131.265C131.09 33.7768 131.195 33.8118 131.16 33.7069L127.174 27.8328C127.104 27.9027 127.139 27.7978 127.104 27.9727L126.964 30.3153C126.929 31.1545 126.859 31.9587 126.789 32.7978C126.685 34.4761 126.58 36.1545 126.44 37.8328H123.118C123.118 37.7279 123.083 37.4132 123.153 37.3782Z" fill="#1D1D1D"/>
<path d="M132 60C115.462 60 102 46.5385 102 30C102 13.4615 115.462 0 132 0C148.538 0 162 13.4615 162 30C162 46.5385 148.538 60 132 60ZM132 0.804196C115.881 0.804196 102.804 13.8811 102.804 30C102.804 46.1189 115.916 59.1958 132 59.1958C148.084 59.1958 161.196 46.0839 161.196 30C161.196 13.9161 148.119 0.804196 132 0.804196Z" fill="#1D1D1D"/>
</g>
<path d="M187.181 33H189.133V28.6H190.301C192.365 28.6 193.565 27.496 193.565 25.4C193.565 23.256 192.237 22.184 190.445 22.184H187.181V33ZM189.133 23.752H190.173C191.069 23.752 191.629 24.296 191.629 25.368C191.629 26.52 191.149 27.048 190.077 27.048H189.133V23.752ZM201.414 28.392C202.63 28.392 202.966 28.888 202.966 30.328V30.728C202.966 31.656 202.998 32.504 203.158 33H205.03C204.934 32.424 204.886 31.976 204.886 30.744V30.312C204.886 28.712 204.486 27.992 203.654 27.608C204.214 27.384 205.046 26.712 205.046 25.144C205.046 23.208 203.942 22.184 201.974 22.184H198.646V33H200.582V28.392H201.414ZM200.582 23.752H201.686C202.678 23.752 203.11 24.296 203.11 25.224C203.11 26.312 202.662 26.824 201.494 26.824H200.582V23.752ZM215.738 26.52H212.266V23.88H215.898V22.184H210.346V33H215.93L216.17 31.336H212.266V28.2H215.738V26.52ZM227.795 33H229.667V22.184H226.835C226.259 25.048 225.587 28.312 225.363 29.784H225.347C225.139 28.2 224.643 25.176 224.067 22.184H221.171V33H222.947V29.16C222.947 27.304 222.899 25.032 222.835 23.768H222.899C223.235 25.864 223.859 29.736 224.387 33H226.131C226.851 29.496 227.443 25.848 227.827 23.8H227.859C227.827 25.016 227.795 27.128 227.795 28.984V33ZM235.354 22.184V33H237.306V22.184H235.354ZM242.957 22.184V29.672C242.957 31.704 243.709 33.192 246.285 33.192C248.909 33.192 249.661 31.624 249.661 29.672V22.184H247.725V29.64C247.725 30.68 247.469 31.576 246.317 31.576C245.133 31.576 244.909 30.52 244.909 29.624V22.184H242.957ZM261.94 33H263.812V22.184H260.98C260.404 25.048 259.732 28.312 259.508 29.784H259.492C259.284 28.2 258.788 25.176 258.212 22.184H255.316V33H257.092V29.16C257.092 27.304 257.044 25.032 256.98 23.768H257.044C257.38 25.864 258.004 29.736 258.532 33H260.276C260.996 29.496 261.588 25.848 261.972 23.8H262.004C261.972 25.016 261.94 27.128 261.94 28.984V33Z" fill="#FDB001"/>
<path d="M1.18144 33H3.13344V28.6H4.30144C6.36544 28.6 7.56544 27.496 7.56544 25.4C7.56544 23.256 6.23744 22.184 4.44544 22.184H1.18144V33ZM3.13344 23.752H4.17344C5.06944 23.752 5.62944 24.296 5.62944 25.368C5.62944 26.52 5.14944 27.048 4.07744 27.048H3.13344V23.752ZM15.4144 28.392C16.6304 28.392 16.9664 28.888 16.9664 30.328V30.728C16.9664 31.656 16.9984 32.504 17.1584 33H19.0304C18.9344 32.424 18.8864 31.976 18.8864 30.744V30.312C18.8864 28.712 18.4864 27.992 17.6544 27.608C18.2144 27.384 19.0464 26.712 19.0464 25.144C19.0464 23.208 17.9424 22.184 15.9744 22.184H12.6464V33H14.5824V28.392H15.4144ZM14.5824 23.752H15.6864C16.6784 23.752 17.1104 24.296 17.1104 25.224C17.1104 26.312 16.6624 26.824 15.4944 26.824H14.5824V23.752ZM29.7378 26.52H26.2658V23.88H29.8978V22.184H24.3458V33H29.9298L30.1698 31.336H26.2658V28.2H29.7378V26.52ZM41.7949 33H43.6669V22.184H40.8349C40.2589 25.048 39.5869 28.312 39.3629 29.784H39.3469C39.1389 28.2 38.6429 25.176 38.0669 22.184H35.1709V33H36.9469V29.16C36.9469 27.304 36.8989 25.032 36.8349 23.768H36.8989C37.2349 25.864 37.8589 29.736 38.3869 33H40.1309C40.8509 29.496 41.4429 25.848 41.8269 23.8H41.8589C41.8269 25.016 41.7949 27.128 41.7949 28.984V33ZM49.3539 22.184V33H51.3059V22.184H49.3539ZM56.9573 22.184V29.672C56.9573 31.704 57.7093 33.192 60.2853 33.192C62.9093 33.192 63.6613 31.624 63.6613 29.672V22.184H61.7253V29.64C61.7253 30.68 61.4693 31.576 60.3173 31.576C59.1333 31.576 58.9093 30.52 58.9093 29.624V22.184H56.9573ZM75.9399 33H77.8119V22.184H74.9799C74.4039 25.048 73.7319 28.312 73.5079 29.784H73.4919C73.2839 28.2 72.7879 25.176 72.2119 22.184H69.3159V33H71.0919V29.16C71.0919 27.304 71.0439 25.032 70.9799 23.768H71.0439C71.3799 25.864 72.0039 29.736 72.5319 33H74.2759C74.9959 29.496 75.5879 25.848 75.9719 23.8H76.0039C75.9719 25.016 75.9399 27.128 75.9399 28.984V33Z" fill="#FDB001"/>
<defs>
<clipPath id="clip0_590_13888">
<rect width="60" height="60" fill="white" transform="translate(102)"/>
</clipPath>
</defs>
</svg>
