<svg width="48" height="48" viewBox="0 0 48 48" fill="none" xmlns="http://www.w3.org/2000/svg">
<circle opacity="0.3" cx="24" cy="24" r="24" fill="#FDB001"/>
<path d="M24.0159 36C21.6412 36.0031 19.3189 35.3016 17.3431 33.9843C15.3673 32.6669 13.8267 30.7929 12.9165 28.5996C12.0063 26.4062 11.7673 23.9921 12.2298 21.6628C12.6923 19.3336 13.8355 17.1939 15.5147 15.5147C17.1939 13.8355 19.3336 12.6923 21.6628 12.2298C23.9921 11.7673 26.4062 12.0063 28.5996 12.9165C30.7929 13.8267 32.6669 15.3673 33.9843 17.3431C35.3016 19.3189 36.0031 21.6412 36 24.016C35.9958 27.193 34.7318 30.2388 32.4853 32.4853C30.2388 34.7318 27.193 35.9958 24.0159 36V36ZM24.0159 12.8138C21.8067 12.8138 19.647 13.4689 17.8101 14.6963C15.9732 15.9237 14.5415 17.6683 13.696 19.7094C12.8506 21.7505 12.6294 23.9964 13.0604 26.1632C13.4914 28.33 14.5552 30.3204 16.1174 31.8826C17.6796 33.4448 19.6699 34.5086 21.8367 34.9396C24.0036 35.3706 26.2495 35.1494 28.2906 34.304C30.3317 33.4585 32.0762 32.0268 33.3036 30.1899C34.531 28.3529 35.1862 26.1933 35.1862 23.984C35.1862 22.5171 34.8972 21.0646 34.3359 19.7094C33.7745 18.3541 32.9517 17.1228 31.9145 16.0855C30.8772 15.0483 29.6458 14.2255 28.2906 13.6641C26.9354 13.1028 25.4828 12.8138 24.0159 12.8138V12.8138Z" fill="#1D1D1B"/>
<path d="M20.5106 18.48H23.4626C23.5746 18.48 23.7 18.4853 23.8386 18.496C23.9826 18.5013 24.1293 18.5173 24.2786 18.544C24.876 18.64 25.3826 18.8533 25.7986 19.184C26.22 19.5093 26.5373 19.92 26.7506 20.416C26.9693 20.9067 27.0786 21.4533 27.0786 22.056C27.0786 22.8827 26.876 23.6027 26.4706 24.216C26.0653 24.824 25.468 25.2453 24.6786 25.48C24.4866 25.5333 24.292 25.5707 24.0946 25.592C23.9026 25.6133 23.6813 25.624 23.4306 25.624H20.5106V24.504H23.4306C23.532 24.504 23.6466 24.4987 23.7746 24.488C23.9026 24.4773 24.028 24.4587 24.1506 24.432C24.54 24.3467 24.8626 24.1867 25.1186 23.952C25.3746 23.712 25.564 23.4267 25.6866 23.096C25.8093 22.76 25.8706 22.4133 25.8706 22.056C25.8706 21.6987 25.8093 21.3547 25.6866 21.024C25.564 20.688 25.3746 20.4 25.1186 20.16C24.8626 19.9147 24.54 19.752 24.1506 19.672C24.028 19.6453 23.9026 19.6293 23.7746 19.624C23.6466 19.6133 23.532 19.608 23.4306 19.608H20.5106V18.48ZM20.5106 25.624L21.6946 25.176L27.1586 30H25.4626L20.5106 25.624ZM20.5346 22.544V21.56H28.1986V22.544H20.5346ZM23.3666 19.464V18.48H28.1826V19.464H23.3666Z" fill="#1D1D1D"/>
</svg>
