<svg width="28" height="28" viewBox="0 0 28 28" fill="none" xmlns="http://www.w3.org/2000/svg">
<circle cx="14" cy="14" r="14" fill="#CEEAB5"/>
<path d="M14.012 23C12.2309 23.0024 10.4892 22.4762 9.00733 21.4882C7.52546 20.5002 6.37005 19.0947 5.68738 17.4497C5.00471 15.8047 4.82547 13.9941 5.17235 12.2471C5.51924 10.5002 6.37665 8.89544 7.63604 7.63604C8.89543 6.37665 10.5002 5.51924 12.2471 5.17235C13.9941 4.82547 15.8047 5.00471 17.4497 5.68738C19.0947 6.37005 20.5002 7.52546 21.4882 9.00733C22.4762 10.4892 23.0024 12.2309 23 14.012C22.9968 16.3948 22.0489 18.6791 20.364 20.364C18.6791 22.0489 16.3948 22.9968 14.012 23ZM14.012 5.61037C12.355 5.61037 10.7353 6.10171 9.35758 7.02226C7.97989 7.94281 6.9061 9.25122 6.27202 10.782C5.63793 12.3129 5.47202 13.9973 5.79528 15.6224C6.11853 17.2475 6.91643 18.7403 8.08806 19.9119C9.2597 21.0836 10.7525 21.8815 12.3776 22.2047C14.0027 22.528 15.6871 22.3621 17.2179 21.728C18.7488 21.0939 20.0572 20.0201 20.9777 18.6424C21.8983 17.2647 22.3896 15.645 22.3896 13.988C22.3896 12.8879 22.1729 11.7985 21.7519 10.782C21.3309 9.76561 20.7138 8.84207 19.9359 8.06413C19.1579 7.28619 18.2344 6.6691 17.2179 6.24808C16.2015 5.82706 15.1121 5.61037 14.012 5.61037Z" fill="#1D1D1B"/>
<path d="M11.383 10.36H13.597C13.681 10.36 13.775 10.364 13.879 10.372C13.987 10.376 14.097 10.388 14.209 10.408C14.657 10.48 15.037 10.64 15.349 10.888C15.665 11.132 15.903 11.44 16.063 11.812C16.227 12.18 16.309 12.59 16.309 13.042C16.309 13.662 16.157 14.202 15.853 14.662C15.549 15.118 15.101 15.434 14.509 15.61C14.365 15.65 14.219 15.678 14.071 15.694C13.927 15.71 13.761 15.718 13.573 15.718H11.383V14.878H13.573C13.649 14.878 13.735 14.874 13.831 14.866C13.927 14.858 14.021 14.844 14.113 14.824C14.405 14.76 14.647 14.64 14.839 14.464C15.031 14.284 15.173 14.07 15.265 13.822C15.357 13.57 15.403 13.31 15.403 13.042C15.403 12.774 15.357 12.516 15.265 12.268C15.173 12.016 15.031 11.8 14.839 11.62C14.647 11.436 14.405 11.314 14.113 11.254C14.021 11.234 13.927 11.222 13.831 11.218C13.735 11.21 13.649 11.206 13.573 11.206H11.383V10.36ZM11.383 15.718L12.271 15.382L16.369 19H15.097L11.383 15.718ZM11.401 13.408V12.67H17.149V13.408H11.401ZM13.525 11.098V10.36H17.137V11.098H13.525Z" fill="#1D1D1D"/>
</svg>
