<svg width="30" height="200" viewBox="0 0 30 200" fill="none" xmlns="http://www.w3.org/2000/svg">
<g opacity="0.65">
<mask id="mask0_590_4234" style="mask-type:alpha" maskUnits="userSpaceOnUse" x="0" y="0" width="30" height="200">
<rect width="30" height="200" transform="matrix(1 0 0 -1 0 200)" fill="#C4C4C4"/>
</mask>
<g mask="url(#mask0_590_4234)">
<line y1="-0.526675" x2="206.157" y2="-0.526675" transform="matrix(0.550131 -0.835078 -0.835078 -0.550132 -69.5117 36.2214)" stroke="#FDB001" stroke-width="1.05335"/>
<line y1="-0.526675" x2="206.157" y2="-0.526675" transform="matrix(0.550132 -0.835078 -0.835078 -0.550132 -67.1641 43.8185)" stroke="#FDB001" stroke-width="1.05335"/>
<line y1="-0.526675" x2="206.157" y2="-0.526675" transform="matrix(0.550132 -0.835078 -0.835078 -0.550131 -64.8145 51.4153)" stroke="#FDB001" stroke-width="1.05335"/>
<line y1="-0.526675" x2="206.157" y2="-0.526675" transform="matrix(0.550132 -0.835078 -0.835078 -0.550132 -62.4648 59.0118)" stroke="#FDB001" stroke-width="1.05335"/>
<line y1="-0.526675" x2="206.157" y2="-0.526675" transform="matrix(0.550131 -0.835078 -0.835078 -0.550132 -60.1172 66.6084)" stroke="#FDB001" stroke-width="1.05335"/>
<line y1="-0.526675" x2="206.157" y2="-0.526675" transform="matrix(0.550132 -0.835078 -0.835078 -0.550132 -57.7676 74.2053)" stroke="#FDB001" stroke-width="1.05335"/>
<line y1="-0.526675" x2="206.157" y2="-0.526675" transform="matrix(0.550132 -0.835078 -0.835078 -0.550132 -55.4199 81.8024)" stroke="#FDB001" stroke-width="1.05335"/>
<line y1="-0.526675" x2="206.157" y2="-0.526675" transform="matrix(0.550131 -0.835078 -0.835078 -0.550132 -53.0703 89.399)" stroke="#FDB001" stroke-width="1.05335"/>
<line y1="-0.526675" x2="206.157" y2="-0.526675" transform="matrix(0.550132 -0.835078 -0.835078 -0.550131 -50.7227 96.9955)" stroke="#FDB001" stroke-width="1.05335"/>
<line y1="-0.526675" x2="206.157" y2="-0.526675" transform="matrix(0.550131 -0.835078 -0.835078 -0.550132 -48.373 104.593)" stroke="#FDB001" stroke-width="1.05335"/>
<line y1="-0.526675" x2="206.157" y2="-0.526675" transform="matrix(0.550131 -0.835078 -0.835078 -0.550132 -46.0254 112.189)" stroke="#FDB001" stroke-width="1.05335"/>
<line y1="-0.526675" x2="206.157" y2="-0.526675" transform="matrix(0.550132 -0.835078 -0.835078 -0.550131 -43.6758 119.786)" stroke="#FDB001" stroke-width="1.05335"/>
<line y1="-0.526675" x2="206.157" y2="-0.526675" transform="matrix(0.550132 -0.835078 -0.835078 -0.550132 -41.3262 127.383)" stroke="#FDB001" stroke-width="1.05335"/>
<line y1="-0.526675" x2="206.157" y2="-0.526675" transform="matrix(0.550131 -0.835078 -0.835078 -0.550132 -38.9785 134.979)" stroke="#FDB001" stroke-width="1.05335"/>
<line y1="-0.526675" x2="206.157" y2="-0.526675" transform="matrix(0.550131 -0.835078 -0.835078 -0.550132 -36.6289 142.576)" stroke="#FDB001" stroke-width="1.05335"/>
<line y1="-0.526675" x2="298.031" y2="-0.526675" transform="matrix(0.550132 -0.835078 -0.835078 -0.550132 -87.752 232.941)" stroke="#FDB001" stroke-width="1.05335"/>
<line y1="-0.526675" x2="298.031" y2="-0.526675" transform="matrix(0.550132 -0.835078 -0.835078 -0.550132 -86.6426 242.418)" stroke="#FDB001" stroke-width="1.05335"/>
<line y1="-0.526675" x2="298.031" y2="-0.526675" transform="matrix(0.550131 -0.835078 -0.835078 -0.550132 -85.5312 251.895)" stroke="#FDB001" stroke-width="1.05335"/>
<line y1="-0.526675" x2="298.031" y2="-0.526675" transform="matrix(0.550132 -0.835078 -0.835078 -0.550132 -84.4219 261.371)" stroke="#FDB001" stroke-width="1.05335"/>
<line y1="-0.526675" x2="298.031" y2="-0.526675" transform="matrix(0.550132 -0.835078 -0.835078 -0.550131 -83.3125 270.848)" stroke="#FDB001" stroke-width="1.05335"/>
<line y1="-0.526675" x2="298.031" y2="-0.526675" transform="matrix(0.550132 -0.835078 -0.835078 -0.550131 -82.2012 280.325)" stroke="#FDB001" stroke-width="1.05335"/>
<line y1="-0.526675" x2="298.031" y2="-0.526675" transform="matrix(0.550132 -0.835078 -0.835078 -0.550131 -81.0918 289.802)" stroke="#FDB001" stroke-width="1.05335"/>
<line y1="-0.526675" x2="298.031" y2="-0.526675" transform="matrix(0.550132 -0.835078 -0.835078 -0.550132 -79.9805 299.279)" stroke="#FDB001" stroke-width="1.05335"/>
<line y1="-0.526675" x2="298.031" y2="-0.526675" transform="matrix(0.550131 -0.835078 -0.835078 -0.550132 -78.8711 308.755)" stroke="#FDB001" stroke-width="1.05335"/>
<line y1="-0.526675" x2="298.031" y2="-0.526675" transform="matrix(0.550132 -0.835078 -0.835078 -0.550131 -77.7617 318.232)" stroke="#FDB001" stroke-width="1.05335"/>
<line y1="-0.526675" x2="298.031" y2="-0.526675" transform="matrix(0.550132 -0.835078 -0.835078 -0.550131 -76.6504 327.709)" stroke="#FDB001" stroke-width="1.05335"/>
<line y1="-0.526675" x2="298.031" y2="-0.526675" transform="matrix(0.550132 -0.835078 -0.835078 -0.550131 -75.541 337.186)" stroke="#FDB001" stroke-width="1.05335"/>
<line y1="-0.526675" x2="298.031" y2="-0.526675" transform="matrix(0.550132 -0.835078 -0.835078 -0.550131 -74.4297 346.663)" stroke="#FDB001" stroke-width="1.05335"/>
<line y1="-0.526675" x2="298.031" y2="-0.526675" transform="matrix(0.550132 -0.835078 -0.835078 -0.550131 -73.3203 356.139)" stroke="#FDB001" stroke-width="1.05335"/>
<line y1="-0.526675" x2="298.031" y2="-0.526675" transform="matrix(0.550131 -0.835078 -0.835078 -0.550132 -72.209 365.616)" stroke="#FDB001" stroke-width="1.05335"/>
</g>
</g>
</svg>
