<svg width="36" height="36" viewBox="0 0 36 36" fill="none" xmlns="http://www.w3.org/2000/svg">
<circle opacity="0.3" cx="18" cy="18" r="18" fill="#FDB001"/>
<path d="M9.07813 21.2272C9.07812 20.0557 9.30889 18.8957 9.75724 17.8134C10.2056 16.731 10.8627 15.7476 11.6912 14.9192C12.5196 14.0909 13.5031 13.4338 14.5856 12.9855C15.668 12.5371 16.8281 12.3064 17.9997 12.3064C19.1713 12.3064 20.3314 12.5371 21.4138 12.9855C22.4962 13.4338 23.4798 14.0909 24.3082 14.9192C25.1366 15.7476 25.7938 16.731 26.2422 17.8134C26.6905 18.8957 26.9213 20.0557 26.9213 21.2272" stroke="#1D1D1B" stroke-linecap="round" stroke-linejoin="round"/>
<path d="M26.8095 21.2273H9.19048C8.53299 21.2273 8 21.7602 8 22.4176V22.8097C8 23.4671 8.53299 24.0001 9.19048 24.0001H26.8095C27.467 24.0001 28 23.4671 28 22.8097V22.4176C28 21.7602 27.467 21.2273 26.8095 21.2273Z" stroke="#1D1D1B" stroke-linecap="round" stroke-linejoin="round"/>
<path d="M17.2722 11.9283C17.2412 11.8199 17.2358 11.7058 17.2564 11.595C17.2771 11.4842 17.3231 11.3797 17.391 11.2897C17.4589 11.1997 17.5467 11.1267 17.6476 11.0764C17.7485 11.0262 17.8597 11 17.9724 11C18.0852 11 18.1964 11.0262 18.2972 11.0764C18.3981 11.1267 18.486 11.1997 18.5539 11.2897C18.6218 11.3797 18.6678 11.4842 18.6884 11.595C18.7091 11.7058 18.7037 11.8199 18.6727 11.9283" stroke="#1D1D1B" stroke-linecap="round" stroke-linejoin="round"/>
</svg>
