<svg width="36" height="36" viewBox="0 0 36 36" fill="none" xmlns="http://www.w3.org/2000/svg">
<circle opacity="0.3" cx="18" cy="18" r="18" fill="#FDB001"/>
<path d="M25 14.8619C25 17.9481 20.3473 25.1173 18.6338 27.6709C18.5636 27.7723 18.4691 27.8553 18.3586 27.9126C18.2481 27.97 18.125 28 18 28C17.875 28 17.7519 27.97 17.6414 27.9126C17.5309 27.8553 17.4364 27.7723 17.3662 27.6709C15.6527 25.0763 11 17.9481 11 14.8619C11 13.042 11.7375 11.2967 13.0503 10.0098C14.363 8.72295 16.1435 8 18 8C19.8565 8 21.637 8.72295 22.9497 10.0098C24.2625 11.2967 25 13.042 25 14.8619Z" stroke="#1D1D1B" stroke-linecap="round" stroke-linejoin="round"/>
<path d="M17.9924 17.6065C19.685 17.6065 21.0571 16.2615 21.0571 14.6023C21.0571 12.9432 19.685 11.5981 17.9924 11.5981C16.2998 11.5981 14.9277 12.9432 14.9277 14.6023C14.9277 16.2615 16.2998 17.6065 17.9924 17.6065Z" stroke="#1D1D1B" stroke-linecap="round" stroke-linejoin="round"/>
</svg>
