<svg width="36" height="36" viewBox="0 0 36 36" fill="none" xmlns="http://www.w3.org/2000/svg">
<circle opacity="0.3" cx="18" cy="18" r="18" fill="#FDB001"/>
<path d="M25.9937 8C25.9937 10.6531 22.4015 12.7959 17.9031 12.7959C13.4047 12.7959 9.8125 10.6531 9.8125 8H25.9937Z" stroke="#1D1D1B" stroke-linecap="round" stroke-linejoin="round"/>
<path d="M25.7184 28.0001H10.2816C9.67924 28.0001 9.10135 27.7498 8.67394 27.3038C8.24653 26.8577 8.00427 26.2522 8 25.6191L9.61812 17.932C9.62239 17.299 9.86465 16.6934 10.2921 16.2474C10.7195 15.8013 11.2974 15.551 11.8997 15.551H24.1003C24.4041 15.551 24.7048 15.6146 24.9848 15.7383C25.2648 15.862 25.5185 16.0432 25.731 16.2713C25.9435 16.4994 26.1106 16.7698 26.2223 17.0667C26.3341 17.3635 26.3883 17.6808 26.3819 18L28 25.6872C27.979 26.3083 27.7294 26.8966 27.3038 27.3281C26.8782 27.7595 26.3098 28.0005 25.7184 28.0001V28.0001Z" stroke="#1D1D1B" stroke-linecap="round" stroke-linejoin="round"/>
<path d="M18.0007 24.803C19.8953 24.803 21.4312 23.1888 21.4312 21.1975C21.4312 19.2063 19.8953 17.592 18.0007 17.592C16.1062 17.592 14.5703 19.2063 14.5703 21.1975C14.5703 23.1888 16.1062 24.803 18.0007 24.803Z" stroke="#1D1D1B" stroke-linecap="round" stroke-linejoin="round"/>
<path d="M18 21.1974V19.2927" stroke="#1D1D1B" stroke-linecap="round" stroke-linejoin="round"/>
<path d="M18 15.5509V12.7959" stroke="#1D1D1B" stroke-linecap="round" stroke-linejoin="round"/>
</svg>
