<svg width="382" height="32" viewBox="0 0 382 32" fill="none" xmlns="http://www.w3.org/2000/svg">
<path fill-rule="evenodd" clip-rule="evenodd" d="M0 0H382V32H365C365 25.3726 359.627 20 353 20C346.373 20 341 25.3726 341 32H329C329 25.3726 323.627 20 317 20C310.373 20 305 25.3726 305 32H293C293 25.3726 287.627 20 281 20C274.373 20 269 25.3726 269 32H257C257 25.3726 251.627 20 245 20C238.373 20 233 25.3726 233 32H221C221 25.3726 215.627 20 209 20C202.373 20 197 25.3726 197 32H185C185 25.3726 179.627 20 173 20C166.373 20 161 25.3726 161 32H149C149 25.3726 143.627 20 137 20C130.373 20 125 25.3726 125 32H113C113 25.3726 107.627 20 101 20C94.3726 20 89 25.3726 89 32H77C77 25.3726 71.6274 20 65 20C58.3726 20 53 25.3726 53 32H41C41 25.3726 35.6274 20 29 20C22.3726 20 17 25.3726 17 32H0V0Z" fill="white"/>
</svg>
