<svg width="18" height="14" viewBox="0 0 18 14" fill="none" xmlns="http://www.w3.org/2000/svg">
<path d="M5.51953 7.8125H6.82031L6.1875 5.94922L5.51953 7.8125ZM12.375 7.25C11.8828 7.25 11.5312 7.63672 11.5312 8.09375C11.5312 8.58594 11.8828 8.9375 12.375 8.9375C12.832 8.9375 13.2188 8.58594 13.2188 8.09375C13.2188 7.63672 12.832 7.25 12.375 7.25ZM16.3125 0.5H1.6875C0.738281 0.5 0 1.27344 0 2.1875V12.3125C0 13.2617 0.738281 14 1.6875 14H16.3125C17.2266 14 18 13.2617 18 12.3125V2.1875C18 1.27344 17.2266 0.5 16.3125 0.5ZM8.78906 10.625H8.19141C7.94531 10.625 7.73438 10.4844 7.66406 10.2734L7.41797 9.5H4.92188L4.67578 10.2734C4.60547 10.4844 4.39453 10.6602 4.14844 10.6602V10.625H3.55078C3.16406 10.625 2.88281 10.2734 3.02344 9.88672L4.92188 4.47266C5.02734 4.12109 5.34375 3.875 5.69531 3.875H6.64453C6.99609 3.875 7.3125 4.12109 7.45312 4.47266L9.31641 9.88672C9.45703 10.2734 9.17578 10.625 8.78906 10.625ZM14.9062 10.0625C14.9062 10.3789 14.625 10.625 14.3438 10.625H13.7812C13.6055 10.625 13.4297 10.5547 13.3594 10.4492C13.043 10.5547 12.6914 10.625 12.375 10.625C10.9688 10.625 9.84375 9.5 9.84375 8.09375C9.84375 6.72266 10.9688 5.5625 12.375 5.5625C12.6562 5.5625 12.9375 5.63281 13.2188 5.73828V4.4375C13.2188 4.15625 13.4648 3.875 13.7812 3.875H14.3438C14.625 3.875 14.9062 4.15625 14.9062 4.4375V10.0625Z" fill="white"/>
</svg>
