<svg width="48" height="48" viewBox="0 0 48 48" fill="none" xmlns="http://www.w3.org/2000/svg">
<circle opacity="0.3" cx="24" cy="24" r="24" fill="#FDB001"/>
<path d="M24.0159 36C21.6412 36.0031 19.3189 35.3016 17.3431 33.9843C15.3673 32.6669 13.8267 30.7929 12.9165 28.5996C12.0063 26.4062 11.7673 23.9921 12.2298 21.6628C12.6923 19.3336 13.8355 17.1939 15.5147 15.5147C17.1939 13.8355 19.3336 12.6923 21.6628 12.2298C23.9921 11.7673 26.4062 12.0063 28.5996 12.9165C30.7929 13.8267 32.6669 15.3673 33.9843 17.3431C35.3016 19.3189 36.0031 21.6412 36 24.016C35.9958 27.193 34.7318 30.2388 32.4853 32.4853C30.2388 34.7318 27.193 35.9958 24.0159 36V36ZM24.0159 12.8138C21.8067 12.8138 19.647 13.4689 17.8101 14.6963C15.9732 15.9237 14.5415 17.6683 13.696 19.7094C12.8506 21.7505 12.6294 23.9964 13.0604 26.1632C13.4914 28.33 14.5552 30.3204 16.1174 31.8826C17.6796 33.4448 19.6699 34.5086 21.8367 34.9396C24.0036 35.3706 26.2495 35.1494 28.2906 34.304C30.3317 33.4585 32.0762 32.0268 33.3036 30.1899C34.531 28.3529 35.1862 26.1933 35.1862 23.984C35.1862 22.5171 34.8972 21.0646 34.3359 19.7094C33.7745 18.3541 32.9517 17.1228 31.9145 16.0855C30.8772 15.0483 29.6458 14.2255 28.2906 13.6641C26.9354 13.1028 25.4828 12.8138 24.0159 12.8138V12.8138Z" fill="#1D1D1B"/>
<path d="M24.5917 30.6381H24.4481C24.3818 30.5974 24.3294 30.5373 24.2981 30.4661C24.2667 30.3948 24.2578 30.3156 24.2726 30.2392V18.3988C24.2691 18.3301 24.2834 18.2617 24.3142 18.2002C24.3449 18.1386 24.3911 18.0861 24.4481 18.0477C24.5222 18.0166 24.6046 18.0106 24.6824 18.0308C24.7602 18.051 24.8293 18.0962 24.879 18.1594L29.8736 23.7764C29.9364 23.8466 29.9712 23.9375 29.9712 24.0317C29.9712 24.126 29.9364 24.2168 29.8736 24.2871L24.879 30.5105C24.8037 30.5891 24.7005 30.6349 24.5917 30.6381V30.6381ZM24.9907 19.4679V29.1222L29.0598 24.0317L24.9907 19.4679Z" fill="#1D1D1B"/>
<path d="M20.4258 30.6383H20.5534C20.6175 30.6373 20.6805 30.6225 20.7383 30.595C20.7961 30.5674 20.8474 30.5278 20.8885 30.4787L24.2719 26.2496V24.9957L20.9524 29.1223V19.4681L24.2719 23.2172V21.9562L20.8566 18.1277C20.803 18.0648 20.7311 18.0202 20.651 18C20.5709 17.9797 20.4865 17.9848 20.4095 18.0146C20.3324 18.0444 20.2665 18.0973 20.2208 18.1662C20.1751 18.235 20.152 18.3164 20.1545 18.3989V30.2713C20.1567 30.3529 20.1839 30.4318 20.2325 30.4974C20.281 30.5631 20.3484 30.6122 20.4258 30.6383Z" fill="#1D1D1B"/>
</svg>
