<svg width="48" height="48" viewBox="0 0 48 48" fill="none" xmlns="http://www.w3.org/2000/svg">
<circle opacity="0.3" cx="24" cy="24" r="24" fill="#FDB001"/>
<path d="M14.2947 33.2006H33.0054C33.6156 33.2006 34.2011 32.936 34.6343 32.4645C35.0674 31.993 35.3131 31.3528 35.3178 30.6835V27.4776H34.4352V30.6835C34.4352 30.8885 34.3981 31.0915 34.326 31.2807C34.254 31.47 34.1484 31.6416 34.0154 31.7857C33.8824 31.9298 33.7246 32.0435 33.5512 32.1202C33.3779 32.1968 33.1923 32.235 33.0054 32.2325H14.2947C13.9202 32.2325 13.561 32.0693 13.2962 31.7788C13.0314 31.4883 12.8826 31.0943 12.8826 30.6835V17.5946C12.8826 17.1837 13.0314 16.7897 13.2962 16.4993C13.561 16.2088 13.9202 16.0456 14.2947 16.0456L33.0054 15.9681C33.1923 15.9656 33.3779 16.0037 33.5512 16.0804C33.7246 16.1571 33.8824 16.2708 34.0154 16.4149C34.1484 16.559 34.254 16.7306 34.326 16.9198C34.3981 17.109 34.4352 17.312 34.4352 17.5171V20.8006H35.3178V17.5171C35.3131 16.8477 35.0674 16.2076 34.6343 15.7361C34.2011 15.2646 33.6156 15 33.0054 15H14.2947C13.6861 15 13.1024 15.2652 12.6721 15.7372C12.2418 16.2093 12 16.8495 12 17.5171V30.6835C12 31.351 12.2418 31.9913 12.6721 32.4633C13.1024 32.9354 13.6861 33.2006 14.2947 33.2006Z" fill="#1D1D1B"/>
<path d="M36.9589 27.4694H31.0279C30.7517 27.4694 30.4868 27.349 30.2915 27.1348C30.0962 26.9206 29.9865 26.63 29.9865 26.327V21.9511C29.9841 21.8004 30.0094 21.6507 30.0609 21.5109C30.1124 21.3711 30.189 21.2441 30.2862 21.1375C30.3834 21.0309 30.4991 20.9469 30.6266 20.8904C30.754 20.8339 30.8905 20.8061 31.0279 20.8088H36.9589C37.2351 20.8088 37.5 20.9291 37.6953 21.1434C37.8906 21.3576 38.0003 21.6482 38.0003 21.9511V26.327C37.9958 26.6284 37.8846 26.9161 37.6903 27.1293C37.4959 27.3425 37.2337 27.4644 36.9589 27.4694ZM31.0279 21.6607C31.0041 21.6576 30.9799 21.6605 30.9572 21.6691C30.9345 21.6777 30.9138 21.6919 30.8968 21.7105C30.8798 21.7292 30.8669 21.7518 30.8591 21.7767C30.8512 21.8016 30.8486 21.8282 30.8514 21.8543V26.2302C30.8514 26.2816 30.87 26.3308 30.9031 26.3671C30.9362 26.4034 30.9811 26.4238 31.0279 26.4238H36.9589C37.0043 26.4195 37.047 26.3977 37.0793 26.3623C37.1115 26.3268 37.1314 26.2801 37.1354 26.2302V21.9511C37.1354 21.8998 37.1168 21.8505 37.0837 21.8142C37.0506 21.7779 37.0057 21.7575 36.9589 21.7575L31.0279 21.6607Z" fill="#1D1D1B"/>
<path d="M32.7694 24.9446C33.272 24.9446 33.6794 24.5389 33.6794 24.0385C33.6794 23.538 33.272 23.1323 32.7694 23.1323C32.2668 23.1323 31.8594 23.538 31.8594 24.0385C31.8594 24.5389 32.2668 24.9446 32.7694 24.9446Z" fill="#1D1D1B"/>
</svg>
