<svg width="20" height="21" viewBox="0 0 20 21" fill="none" xmlns="http://www.w3.org/2000/svg">
<path d="M10 0.624512C8.02219 0.624512 6.08879 1.21157 4.4443 2.31146C2.79981 3.41135 1.51809 4.97466 0.761209 6.8037C0.00433284 8.63275 -0.1937 10.6454 0.192152 12.5871C0.578004 14.5288 1.53041 16.3124 2.92894 17.7122C4.32746 19.1121 6.10929 20.0655 8.0491 20.4517C9.98891 20.8379 11.9996 20.6397 13.8268 19.8821C15.6541 19.1245 17.2159 17.8415 18.3147 16.1954C19.4135 14.5493 20 12.614 20 10.6343C20 9.31977 19.7413 8.01814 19.2388 6.8037C18.7362 5.58926 17.9997 4.4858 17.0711 3.5563C16.1425 2.62681 15.0401 1.8895 13.8268 1.38646C12.6136 0.883422 11.3132 0.624512 10 0.624512ZM15.676 8.86955L9.676 14.3749C9.48604 14.5493 9.23615 14.6435 8.97848 14.6379C8.7208 14.6323 8.47524 14.5273 8.293 14.3449L5.293 11.342C5.19749 11.2496 5.12131 11.1392 5.0689 11.0171C5.01649 10.8949 4.98891 10.7636 4.98775 10.6307C4.9866 10.4978 5.0119 10.366 5.06218 10.2429C5.11246 10.1199 5.18672 10.0082 5.28061 9.91418C5.3745 9.82019 5.48615 9.74587 5.60905 9.69554C5.73195 9.64521 5.86363 9.61988 5.9964 9.62104C6.12918 9.62219 6.2604 9.6498 6.38241 9.70226C6.50441 9.75472 6.61476 9.83098 6.707 9.92659L9.03 12.2519L14.324 7.39411C14.5195 7.21465 14.7781 7.12027 15.0431 7.13172C15.3081 7.14317 15.5577 7.25952 15.737 7.45517C15.9163 7.65083 16.0106 7.90976 15.9991 8.17501C15.9877 8.44026 15.8715 8.69009 15.676 8.86955Z" fill="white"/>
</svg>
