<svg width="1201" height="149" viewBox="0 0 1201 149" fill="none" xmlns="http://www.w3.org/2000/svg">
<rect width="1201" height="149" fill="#FDB001"/>
<mask id="mask0_1_167" style="mask-type:alpha" maskUnits="userSpaceOnUse" x="0" y="114" width="1201" height="35">
<rect y="114" width="1201" height="35" fill="#C4C4C4"/>
</mask>
<g mask="url(#mask0_1_167)">
<line y1="-2" x2="487.704" y2="-2" transform="matrix(0.554087 -0.832459 -0.837668 -0.54618 -267.852 514.883)" stroke="white" stroke-width="4"/>
<line y1="-2" x2="487.704" y2="-2" transform="matrix(0.554087 -0.832459 -0.837668 -0.54618 -229.557 514.883)" stroke="white" stroke-width="4"/>
<line y1="-2" x2="487.704" y2="-2" transform="matrix(0.554087 -0.832459 -0.837668 -0.54618 -210.41 514.883)" stroke="white" stroke-width="4"/>
<line y1="-2" x2="487.704" y2="-2" transform="matrix(0.554087 -0.832459 -0.837668 -0.54618 -191.262 514.883)" stroke="white" stroke-width="4"/>
<line y1="-2" x2="487.704" y2="-2" transform="matrix(0.554087 -0.832459 -0.837668 -0.54618 -172.114 514.883)" stroke="white" stroke-width="4"/>
<line y1="-2" x2="487.704" y2="-2" transform="matrix(0.554087 -0.832459 -0.837668 -0.54618 -152.967 514.883)" stroke="white" stroke-width="4"/>
<line y1="-2" x2="487.704" y2="-2" transform="matrix(0.554087 -0.832459 -0.837668 -0.54618 -133.819 514.883)" stroke="white" stroke-width="4"/>
<line y1="-2" x2="487.704" y2="-2" transform="matrix(0.554087 -0.832459 -0.837668 -0.54618 -114.671 514.883)" stroke="white" stroke-width="4"/>
<line y1="-2" x2="487.704" y2="-2" transform="matrix(0.554087 -0.832459 -0.837668 -0.54618 -95.5238 514.883)" stroke="white" stroke-width="4"/>
<line y1="-2" x2="487.704" y2="-2" transform="matrix(0.554087 -0.832459 -0.837668 -0.54618 -76.3762 514.883)" stroke="white" stroke-width="4"/>
<line y1="-2" x2="487.704" y2="-2" transform="matrix(0.554087 -0.832459 -0.837668 -0.54618 -57.2285 514.883)" stroke="white" stroke-width="4"/>
<line y1="-2" x2="487.704" y2="-2" transform="matrix(0.554087 -0.832459 -0.837668 -0.54618 -38.0807 514.883)" stroke="white" stroke-width="4"/>
<line y1="-2" x2="487.704" y2="-2" transform="matrix(0.554087 -0.832459 -0.837668 -0.54618 -248.705 514.883)" stroke="white" stroke-width="4"/>
<line y1="-2" x2="487.704" y2="-2" transform="matrix(0.554087 -0.832459 -0.837668 -0.54618 -18.9331 514.883)" stroke="white" stroke-width="4"/>
<line y1="-2" x2="487.704" y2="-2" transform="matrix(0.554087 -0.832459 -0.837668 -0.54618 0.963318 514.877)" stroke="white" stroke-width="4"/>
<line y1="-2" x2="487.704" y2="-2" transform="matrix(0.554087 -0.832459 -0.837668 -0.54618 20.1108 514.883)" stroke="white" stroke-width="4"/>
<line y1="-2" x2="487.704" y2="-2" transform="matrix(0.554087 -0.832459 -0.837668 -0.54618 58.4061 514.883)" stroke="white" stroke-width="4"/>
<line y1="-2" x2="487.704" y2="-2" transform="matrix(0.554087 -0.832459 -0.837668 -0.54618 77.5536 514.883)" stroke="white" stroke-width="4"/>
<line y1="-2" x2="487.704" y2="-2" transform="matrix(0.554087 -0.832459 -0.837668 -0.54618 96.7013 514.883)" stroke="white" stroke-width="4"/>
<line y1="-2" x2="487.704" y2="-2" transform="matrix(0.554087 -0.832459 -0.837668 -0.54618 115.849 514.883)" stroke="white" stroke-width="4"/>
<line y1="-2" x2="487.704" y2="-2" transform="matrix(0.554087 -0.832459 -0.837668 -0.54618 134.996 514.883)" stroke="white" stroke-width="4"/>
<line y1="-2" x2="487.704" y2="-2" transform="matrix(0.554087 -0.832459 -0.837668 -0.54618 154.144 514.883)" stroke="white" stroke-width="4"/>
<line y1="-2" x2="487.704" y2="-2" transform="matrix(0.554087 -0.832459 -0.837668 -0.54618 173.292 514.883)" stroke="white" stroke-width="4"/>
<line y1="-2" x2="487.704" y2="-2" transform="matrix(0.554087 -0.832459 -0.837668 -0.54618 192.439 514.883)" stroke="white" stroke-width="4"/>
<line y1="-2" x2="487.704" y2="-2" transform="matrix(0.554087 -0.832459 -0.837668 -0.54618 211.587 514.883)" stroke="white" stroke-width="4"/>
<line y1="-2" x2="487.704" y2="-2" transform="matrix(0.554087 -0.832459 -0.837668 -0.54618 230.735 514.883)" stroke="white" stroke-width="4"/>
<line y1="-2" x2="487.704" y2="-2" transform="matrix(0.554087 -0.832459 -0.837668 -0.54618 249.883 514.883)" stroke="white" stroke-width="4"/>
<line y1="-2" x2="487.704" y2="-2" transform="matrix(0.554087 -0.832459 -0.837668 -0.54618 39.2584 514.883)" stroke="white" stroke-width="4"/>
<line y1="-2" x2="487.704" y2="-2" transform="matrix(0.554087 -0.832459 -0.837668 -0.54618 269.03 514.883)" stroke="white" stroke-width="4"/>
<line y1="-2" x2="487.704" y2="-2" transform="matrix(0.554087 -0.832459 -0.837668 -0.54618 288.21 514.877)" stroke="white" stroke-width="4"/>
<line y1="-2" x2="487.704" y2="-2" transform="matrix(0.554087 -0.832459 -0.837668 -0.54618 307.358 514.883)" stroke="white" stroke-width="4"/>
<line y1="-2" x2="487.704" y2="-2" transform="matrix(0.554087 -0.832459 -0.837668 -0.54618 345.653 514.883)" stroke="white" stroke-width="4"/>
<line y1="-2" x2="487.704" y2="-2" transform="matrix(0.554087 -0.832459 -0.837668 -0.54618 364.801 514.883)" stroke="white" stroke-width="4"/>
<line y1="-2" x2="487.704" y2="-2" transform="matrix(0.554087 -0.832459 -0.837668 -0.54618 383.948 514.883)" stroke="white" stroke-width="4"/>
<line y1="-2" x2="487.704" y2="-2" transform="matrix(0.554087 -0.832459 -0.837668 -0.54618 403.096 514.883)" stroke="white" stroke-width="4"/>
<line y1="-2" x2="487.704" y2="-2" transform="matrix(0.554087 -0.832459 -0.837668 -0.54618 422.243 514.883)" stroke="white" stroke-width="4"/>
<line y1="-2" x2="487.704" y2="-2" transform="matrix(0.554087 -0.832459 -0.837668 -0.54618 441.391 514.883)" stroke="white" stroke-width="4"/>
<line y1="-2" x2="487.704" y2="-2" transform="matrix(0.554087 -0.832459 -0.837668 -0.54618 460.538 514.883)" stroke="white" stroke-width="4"/>
<line y1="-2" x2="487.704" y2="-2" transform="matrix(0.554087 -0.832459 -0.837668 -0.54618 479.686 514.883)" stroke="white" stroke-width="4"/>
<line y1="-2" x2="487.704" y2="-2" transform="matrix(0.554087 -0.832459 -0.837668 -0.54618 498.834 514.883)" stroke="white" stroke-width="4"/>
<line y1="-2" x2="487.704" y2="-2" transform="matrix(0.554087 -0.832459 -0.837668 -0.54618 517.982 514.883)" stroke="white" stroke-width="4"/>
<line y1="-2" x2="487.704" y2="-2" transform="matrix(0.554087 -0.832459 -0.837668 -0.54618 537.129 514.883)" stroke="white" stroke-width="4"/>
<line y1="-2" x2="487.704" y2="-2" transform="matrix(0.554087 -0.832459 -0.837668 -0.54618 326.505 514.883)" stroke="white" stroke-width="4"/>
<line y1="-2" x2="487.704" y2="-2" transform="matrix(0.554087 -0.832459 -0.837668 -0.54618 556.277 514.883)" stroke="white" stroke-width="4"/>
<line y1="-2" x2="487.704" y2="-2" transform="matrix(0.554087 -0.832459 -0.837668 -0.54618 575.457 514.877)" stroke="white" stroke-width="4"/>
<line y1="-2" x2="487.704" y2="-2" transform="matrix(0.554087 -0.832459 -0.837668 -0.54618 594.604 514.883)" stroke="white" stroke-width="4"/>
<line y1="-2" x2="487.704" y2="-2" transform="matrix(0.554087 -0.832459 -0.837668 -0.54618 632.899 514.883)" stroke="white" stroke-width="4"/>
<line y1="-2" x2="487.704" y2="-2" transform="matrix(0.554087 -0.832459 -0.837668 -0.54618 652.047 514.883)" stroke="white" stroke-width="4"/>
<line y1="-2" x2="487.704" y2="-2" transform="matrix(0.554087 -0.832459 -0.837668 -0.54618 671.194 514.883)" stroke="white" stroke-width="4"/>
<line y1="-2" x2="487.704" y2="-2" transform="matrix(0.554087 -0.832459 -0.837668 -0.54618 690.342 514.883)" stroke="white" stroke-width="4"/>
<line y1="-2" x2="487.704" y2="-2" transform="matrix(0.554087 -0.832459 -0.837668 -0.54618 709.49 514.883)" stroke="white" stroke-width="4"/>
<line y1="-2" x2="487.704" y2="-2" transform="matrix(0.554087 -0.832459 -0.837668 -0.54618 728.637 514.883)" stroke="white" stroke-width="4"/>
<line y1="-2" x2="487.704" y2="-2" transform="matrix(0.554087 -0.832459 -0.837668 -0.54618 747.785 514.883)" stroke="white" stroke-width="4"/>
<line y1="-2" x2="487.704" y2="-2" transform="matrix(0.554087 -0.832459 -0.837668 -0.54618 766.932 514.883)" stroke="white" stroke-width="4"/>
<line y1="-2" x2="487.704" y2="-2" transform="matrix(0.554087 -0.832459 -0.837668 -0.54618 786.08 514.883)" stroke="white" stroke-width="4"/>
<line y1="-2" x2="487.704" y2="-2" transform="matrix(0.554087 -0.832459 -0.837668 -0.54618 805.228 514.883)" stroke="white" stroke-width="4"/>
<line y1="-2" x2="487.704" y2="-2" transform="matrix(0.554087 -0.832459 -0.837668 -0.54618 824.376 514.883)" stroke="white" stroke-width="4"/>
<line y1="-2" x2="487.704" y2="-2" transform="matrix(0.554087 -0.832459 -0.837668 -0.54618 613.752 514.883)" stroke="white" stroke-width="4"/>
<line y1="-2" x2="487.704" y2="-2" transform="matrix(0.554087 -0.832459 -0.837668 -0.54618 843.523 514.883)" stroke="white" stroke-width="4"/>
<line y1="-2" x2="487.704" y2="-2" transform="matrix(0.554087 -0.832459 -0.837668 -0.54618 862.703 514.877)" stroke="white" stroke-width="4"/>
<line y1="-2" x2="487.704" y2="-2" transform="matrix(0.554087 -0.832459 -0.837668 -0.54618 881.85 514.883)" stroke="white" stroke-width="4"/>
<line y1="-2" x2="487.704" y2="-2" transform="matrix(0.554087 -0.832459 -0.837668 -0.54618 920.146 514.883)" stroke="white" stroke-width="4"/>
<line y1="-2" x2="487.704" y2="-2" transform="matrix(0.554087 -0.832459 -0.837668 -0.54618 939.293 514.883)" stroke="white" stroke-width="4"/>
<line y1="-2" x2="487.704" y2="-2" transform="matrix(0.554087 -0.832459 -0.837668 -0.54618 958.441 514.883)" stroke="white" stroke-width="4"/>
<line y1="-2" x2="487.704" y2="-2" transform="matrix(0.554087 -0.832459 -0.837668 -0.54618 977.589 514.883)" stroke="white" stroke-width="4"/>
<line y1="-2" x2="487.704" y2="-2" transform="matrix(0.554087 -0.832459 -0.837668 -0.54618 996.736 514.883)" stroke="white" stroke-width="4"/>
<line y1="-2" x2="487.704" y2="-2" transform="matrix(0.554087 -0.832459 -0.837668 -0.54618 1015.88 514.883)" stroke="white" stroke-width="4"/>
<line y1="-2" x2="487.704" y2="-2" transform="matrix(0.554087 -0.832459 -0.837668 -0.54618 1035.03 514.883)" stroke="white" stroke-width="4"/>
<line y1="-2" x2="487.704" y2="-2" transform="matrix(0.554087 -0.832459 -0.837668 -0.54618 1054.18 514.883)" stroke="white" stroke-width="4"/>
<line y1="-2" x2="487.704" y2="-2" transform="matrix(0.554087 -0.832459 -0.837668 -0.54618 1073.33 514.883)" stroke="white" stroke-width="4"/>
<line y1="-2" x2="487.704" y2="-2" transform="matrix(0.554087 -0.832459 -0.837668 -0.54618 1092.47 514.883)" stroke="white" stroke-width="4"/>
<line y1="-2" x2="487.704" y2="-2" transform="matrix(0.554087 -0.832459 -0.837668 -0.54618 1111.62 514.883)" stroke="white" stroke-width="4"/>
<line y1="-2" x2="487.704" y2="-2" transform="matrix(0.554087 -0.832459 -0.837668 -0.54618 900.998 514.883)" stroke="white" stroke-width="4"/>
<line y1="-2" x2="487.704" y2="-2" transform="matrix(0.554087 -0.832459 -0.837668 -0.54618 1130.77 514.883)" stroke="white" stroke-width="4"/>
</g>
</svg>
