<svg width="42" height="317" viewBox="0 0 42 317" fill="none" xmlns="http://www.w3.org/2000/svg">
<g opacity="0.65">
<mask id="mask0_185_7817" style="mask-type:alpha" maskUnits="userSpaceOnUse" x="0" y="0" width="42" height="317">
<rect width="42" height="317" transform="matrix(1 0 0 -1 0 317)" fill="#C4C4C4"/>
</mask>
<g mask="url(#mask0_185_7817)">
<line y1="-0.618504" x2="242.102" y2="-0.618504" transform="matrix(0.550132 -0.835078 -0.835078 -0.550132 -78.4365 130.174)" stroke="#FDB001" stroke-width="1.23701"/>
<line y1="-0.618504" x2="242.102" y2="-0.618504" transform="matrix(0.550132 -0.835078 -0.835078 -0.550132 -75.6777 139.095)" stroke="#FDB001" stroke-width="1.23701"/>
<line y1="-0.618504" x2="242.102" y2="-0.618504" transform="matrix(0.550132 -0.835078 -0.835078 -0.550132 -72.9199 148.017)" stroke="#FDB001" stroke-width="1.23701"/>
<line y1="-0.618504" x2="242.102" y2="-0.618504" transform="matrix(0.550132 -0.835078 -0.835078 -0.550132 -70.1611 156.938)" stroke="#FDB001" stroke-width="1.23701"/>
<line y1="-0.618504" x2="242.102" y2="-0.618504" transform="matrix(0.550132 -0.835078 -0.835078 -0.550132 -67.4033 165.859)" stroke="#FDB001" stroke-width="1.23701"/>
<line y1="-0.618504" x2="242.102" y2="-0.618504" transform="matrix(0.550132 -0.835078 -0.835078 -0.550132 -64.6445 174.78)" stroke="#FDB001" stroke-width="1.23701"/>
<line y1="-0.618504" x2="242.102" y2="-0.618504" transform="matrix(0.550132 -0.835078 -0.835078 -0.550132 -61.8867 183.702)" stroke="#FDB001" stroke-width="1.23701"/>
<line y1="-0.618504" x2="242.102" y2="-0.618504" transform="matrix(0.550132 -0.835078 -0.835078 -0.550132 -59.1279 192.623)" stroke="#FDB001" stroke-width="1.23701"/>
<line y1="-0.618504" x2="242.102" y2="-0.618504" transform="matrix(0.550132 -0.835078 -0.835078 -0.550132 -56.3701 201.544)" stroke="#FDB001" stroke-width="1.23701"/>
<line y1="-0.618504" x2="242.102" y2="-0.618504" transform="matrix(0.550132 -0.835078 -0.835078 -0.550132 -53.6123 210.466)" stroke="#FDB001" stroke-width="1.23701"/>
<line y1="-0.618504" x2="242.102" y2="-0.618504" transform="matrix(0.550132 -0.835078 -0.835078 -0.550132 -50.8535 219.387)" stroke="#FDB001" stroke-width="1.23701"/>
<line y1="-0.618504" x2="242.102" y2="-0.618504" transform="matrix(0.550132 -0.835078 -0.835078 -0.550132 -48.0947 228.309)" stroke="#FDB001" stroke-width="1.23701"/>
<line y1="-0.618504" x2="242.102" y2="-0.618504" transform="matrix(0.550132 -0.835078 -0.835078 -0.550132 -45.3369 237.23)" stroke="#FDB001" stroke-width="1.23701"/>
<line y1="-0.618504" x2="242.102" y2="-0.618504" transform="matrix(0.550132 -0.835078 -0.835078 -0.550132 -42.5791 246.151)" stroke="#FDB001" stroke-width="1.23701"/>
<line y1="-0.618504" x2="242.102" y2="-0.618504" transform="matrix(0.550132 -0.835078 -0.835078 -0.550132 -39.8203 255.072)" stroke="#FDB001" stroke-width="1.23701"/>
<line y1="-0.618504" x2="349.995" y2="-0.618504" transform="matrix(0.550132 -0.835078 -0.835078 -0.550132 -99.8555 361.192)" stroke="#FDB001" stroke-width="1.23701"/>
<line y1="-0.618504" x2="349.995" y2="-0.618504" transform="matrix(0.550132 -0.835078 -0.835078 -0.550132 -98.5518 372.322)" stroke="#FDB001" stroke-width="1.23701"/>
<line y1="-0.618504" x2="349.995" y2="-0.618504" transform="matrix(0.550132 -0.835078 -0.835078 -0.550132 -97.248 383.451)" stroke="#FDB001" stroke-width="1.23701"/>
<line y1="-0.618504" x2="349.995" y2="-0.618504" transform="matrix(0.550132 -0.835078 -0.835078 -0.550132 -95.9443 394.58)" stroke="#FDB001" stroke-width="1.23701"/>
<line y1="-0.618504" x2="349.995" y2="-0.618504" transform="matrix(0.550132 -0.835078 -0.835078 -0.550132 -94.6396 405.709)" stroke="#FDB001" stroke-width="1.23701"/>
<line y1="-0.618504" x2="349.995" y2="-0.618504" transform="matrix(0.550132 -0.835078 -0.835078 -0.550132 -93.3369 416.838)" stroke="#FDB001" stroke-width="1.23701"/>
<line y1="-0.618504" x2="349.995" y2="-0.618504" transform="matrix(0.550132 -0.835078 -0.835078 -0.550132 -92.0332 427.967)" stroke="#FDB001" stroke-width="1.23701"/>
<line y1="-0.618504" x2="349.995" y2="-0.618504" transform="matrix(0.550132 -0.835078 -0.835078 -0.550132 -90.7295 439.096)" stroke="#FDB001" stroke-width="1.23701"/>
<line y1="-0.618504" x2="349.995" y2="-0.618504" transform="matrix(0.550132 -0.835078 -0.835078 -0.550132 -89.4258 450.225)" stroke="#FDB001" stroke-width="1.23701"/>
<line y1="-0.618504" x2="349.995" y2="-0.618504" transform="matrix(0.550132 -0.835078 -0.835078 -0.550132 -88.1211 461.355)" stroke="#FDB001" stroke-width="1.23701"/>
<line y1="-0.618504" x2="349.995" y2="-0.618504" transform="matrix(0.550132 -0.835078 -0.835078 -0.550132 -86.8184 472.484)" stroke="#FDB001" stroke-width="1.23701"/>
<line y1="-0.618504" x2="349.995" y2="-0.618504" transform="matrix(0.550132 -0.835078 -0.835078 -0.550132 -85.5137 483.613)" stroke="#FDB001" stroke-width="1.23701"/>
<line y1="-0.618504" x2="349.995" y2="-0.618504" transform="matrix(0.550132 -0.835078 -0.835078 -0.550132 -84.21 494.742)" stroke="#FDB001" stroke-width="1.23701"/>
<line y1="-0.618504" x2="349.995" y2="-0.618504" transform="matrix(0.550132 -0.835078 -0.835078 -0.550132 -82.9072 505.871)" stroke="#FDB001" stroke-width="1.23701"/>
<line y1="-0.618504" x2="349.995" y2="-0.618504" transform="matrix(0.550132 -0.835078 -0.835078 -0.550132 -81.6025 517)" stroke="#FDB001" stroke-width="1.23701"/>
</g>
</g>
</svg>
