<svg width="29" height="182" viewBox="0 0 29 182" fill="none" xmlns="http://www.w3.org/2000/svg">
<g opacity="0.65">
<mask id="mask0_185_6645" style="mask-type:alpha" maskUnits="userSpaceOnUse" x="-1" y="0" width="30" height="182">
<rect width="30" height="182" transform="matrix(1 0 0 -1 -1 182)" fill="#C4C4C4"/>
</mask>
<g mask="url(#mask0_185_6645)">
<line y1="-0.526675" x2="206.157" y2="-0.526675" transform="matrix(0.550132 -0.835078 -0.835078 -0.550132 -70.5127 18.2214)" stroke="#FDB001" stroke-width="1.05335"/>
<line y1="-0.526675" x2="206.157" y2="-0.526675" transform="matrix(0.550132 -0.835078 -0.835078 -0.550132 -68.1641 25.8185)" stroke="#FDB001" stroke-width="1.05335"/>
<line y1="-0.526675" x2="206.157" y2="-0.526675" transform="matrix(0.550132 -0.835078 -0.835078 -0.550132 -65.8154 33.4153)" stroke="#FDB001" stroke-width="1.05335"/>
<line y1="-0.526675" x2="206.157" y2="-0.526675" transform="matrix(0.550132 -0.835078 -0.835078 -0.550132 -63.4668 41.0118)" stroke="#FDB001" stroke-width="1.05335"/>
<line y1="-0.526675" x2="206.157" y2="-0.526675" transform="matrix(0.550132 -0.835078 -0.835078 -0.550132 -61.1182 48.6083)" stroke="#FDB001" stroke-width="1.05335"/>
<line y1="-0.526675" x2="206.157" y2="-0.526675" transform="matrix(0.550132 -0.835078 -0.835078 -0.550132 -58.7695 56.2053)" stroke="#FDB001" stroke-width="1.05335"/>
<line y1="-0.526675" x2="206.157" y2="-0.526675" transform="matrix(0.550132 -0.835078 -0.835078 -0.550132 -56.4209 63.8024)" stroke="#FDB001" stroke-width="1.05335"/>
<line y1="-0.526675" x2="206.157" y2="-0.526675" transform="matrix(0.550132 -0.835078 -0.835078 -0.550132 -54.0723 71.399)" stroke="#FDB001" stroke-width="1.05335"/>
<line y1="-0.526675" x2="206.157" y2="-0.526675" transform="matrix(0.550132 -0.835078 -0.835078 -0.550132 -51.7227 78.9955)" stroke="#FDB001" stroke-width="1.05335"/>
<line y1="-0.526675" x2="206.157" y2="-0.526675" transform="matrix(0.550132 -0.835078 -0.835078 -0.550132 -49.374 86.5925)" stroke="#FDB001" stroke-width="1.05335"/>
<line y1="-0.526675" x2="206.157" y2="-0.526675" transform="matrix(0.550132 -0.835078 -0.835078 -0.550132 -47.0254 94.1894)" stroke="#FDB001" stroke-width="1.05335"/>
<line y1="-0.526675" x2="206.157" y2="-0.526675" transform="matrix(0.550132 -0.835078 -0.835078 -0.550132 -44.6768 101.786)" stroke="#FDB001" stroke-width="1.05335"/>
<line y1="-0.526675" x2="206.157" y2="-0.526675" transform="matrix(0.550132 -0.835078 -0.835078 -0.550132 -42.3281 109.383)" stroke="#FDB001" stroke-width="1.05335"/>
<line y1="-0.526675" x2="206.157" y2="-0.526675" transform="matrix(0.550132 -0.835078 -0.835078 -0.550132 -39.9795 116.979)" stroke="#FDB001" stroke-width="1.05335"/>
<line y1="-0.526675" x2="206.157" y2="-0.526675" transform="matrix(0.550132 -0.835078 -0.835078 -0.550132 -37.6309 124.576)" stroke="#FDB001" stroke-width="1.05335"/>
<line y1="-0.526675" x2="298.031" y2="-0.526675" transform="matrix(0.550132 -0.835078 -0.835078 -0.550132 -88.7529 214.941)" stroke="#FDB001" stroke-width="1.05335"/>
<line y1="-0.526675" x2="298.031" y2="-0.526675" transform="matrix(0.550132 -0.835078 -0.835078 -0.550132 -87.6426 224.418)" stroke="#FDB001" stroke-width="1.05335"/>
<line y1="-0.526675" x2="298.031" y2="-0.526675" transform="matrix(0.550132 -0.835078 -0.835078 -0.550132 -86.5322 233.895)" stroke="#FDB001" stroke-width="1.05335"/>
<line y1="-0.526675" x2="298.031" y2="-0.526675" transform="matrix(0.550132 -0.835078 -0.835078 -0.550132 -85.4219 243.371)" stroke="#FDB001" stroke-width="1.05335"/>
<line y1="-0.526675" x2="298.031" y2="-0.526675" transform="matrix(0.550132 -0.835078 -0.835078 -0.550132 -84.3115 252.848)" stroke="#FDB001" stroke-width="1.05335"/>
<line y1="-0.526675" x2="298.031" y2="-0.526675" transform="matrix(0.550132 -0.835078 -0.835078 -0.550132 -83.2012 262.325)" stroke="#FDB001" stroke-width="1.05335"/>
<line y1="-0.526675" x2="298.031" y2="-0.526675" transform="matrix(0.550132 -0.835078 -0.835078 -0.550132 -82.0918 271.802)" stroke="#FDB001" stroke-width="1.05335"/>
<line y1="-0.526675" x2="298.031" y2="-0.526675" transform="matrix(0.550132 -0.835078 -0.835078 -0.550132 -80.9814 281.279)" stroke="#FDB001" stroke-width="1.05335"/>
<line y1="-0.526675" x2="298.031" y2="-0.526675" transform="matrix(0.550132 -0.835078 -0.835078 -0.550132 -79.8711 290.755)" stroke="#FDB001" stroke-width="1.05335"/>
<line y1="-0.526675" x2="298.031" y2="-0.526675" transform="matrix(0.550132 -0.835078 -0.835078 -0.550132 -78.7607 300.232)" stroke="#FDB001" stroke-width="1.05335"/>
<line y1="-0.526675" x2="298.031" y2="-0.526675" transform="matrix(0.550132 -0.835078 -0.835078 -0.550132 -77.6504 309.709)" stroke="#FDB001" stroke-width="1.05335"/>
<line y1="-0.526675" x2="298.031" y2="-0.526675" transform="matrix(0.550132 -0.835078 -0.835078 -0.550132 -76.54 319.186)" stroke="#FDB001" stroke-width="1.05335"/>
<line y1="-0.526675" x2="298.031" y2="-0.526675" transform="matrix(0.550132 -0.835078 -0.835078 -0.550132 -75.4307 328.663)" stroke="#FDB001" stroke-width="1.05335"/>
<line y1="-0.526675" x2="298.031" y2="-0.526675" transform="matrix(0.550132 -0.835078 -0.835078 -0.550132 -74.3203 338.139)" stroke="#FDB001" stroke-width="1.05335"/>
<line y1="-0.526675" x2="298.031" y2="-0.526675" transform="matrix(0.550132 -0.835078 -0.835078 -0.550132 -73.21 347.616)" stroke="#FDB001" stroke-width="1.05335"/>
</g>
</g>
</svg>
