<svg width="30" height="182" viewBox="0 0 30 182" fill="none" xmlns="http://www.w3.org/2000/svg">
<g opacity="0.65">
<mask id="mask0_185_6680" style="mask-type:alpha" maskUnits="userSpaceOnUse" x="0" y="0" width="30" height="182">
<rect width="30" height="182" transform="matrix(1 0 0 -1 0 182)" fill="#C4C4C4"/>
</mask>
<g mask="url(#mask0_185_6680)">
<line y1="-0.526675" x2="206.157" y2="-0.526675" transform="matrix(0.550132 -0.835078 -0.835078 -0.550132 -69.5127 18.2214)" stroke="#FDB001" stroke-width="1.05335"/>
<line y1="-0.526675" x2="206.157" y2="-0.526675" transform="matrix(0.550132 -0.835078 -0.835078 -0.550132 -67.1641 25.8185)" stroke="#FDB001" stroke-width="1.05335"/>
<line y1="-0.526675" x2="206.157" y2="-0.526675" transform="matrix(0.550132 -0.835078 -0.835078 -0.550132 -64.8154 33.4153)" stroke="#FDB001" stroke-width="1.05335"/>
<line y1="-0.526675" x2="206.157" y2="-0.526675" transform="matrix(0.550132 -0.835078 -0.835078 -0.550132 -62.4668 41.0118)" stroke="#FDB001" stroke-width="1.05335"/>
<line y1="-0.526675" x2="206.157" y2="-0.526675" transform="matrix(0.550132 -0.835078 -0.835078 -0.550132 -60.1182 48.6083)" stroke="#FDB001" stroke-width="1.05335"/>
<line y1="-0.526675" x2="206.157" y2="-0.526675" transform="matrix(0.550132 -0.835078 -0.835078 -0.550132 -57.7695 56.2053)" stroke="#FDB001" stroke-width="1.05335"/>
<line y1="-0.526675" x2="206.157" y2="-0.526675" transform="matrix(0.550132 -0.835078 -0.835078 -0.550132 -55.4209 63.8024)" stroke="#FDB001" stroke-width="1.05335"/>
<line y1="-0.526675" x2="206.157" y2="-0.526675" transform="matrix(0.550132 -0.835078 -0.835078 -0.550132 -53.0723 71.399)" stroke="#FDB001" stroke-width="1.05335"/>
<line y1="-0.526675" x2="206.157" y2="-0.526675" transform="matrix(0.550132 -0.835078 -0.835078 -0.550132 -50.7227 78.9955)" stroke="#FDB001" stroke-width="1.05335"/>
<line y1="-0.526675" x2="206.157" y2="-0.526675" transform="matrix(0.550132 -0.835078 -0.835078 -0.550132 -48.374 86.5925)" stroke="#FDB001" stroke-width="1.05335"/>
<line y1="-0.526675" x2="206.157" y2="-0.526675" transform="matrix(0.550132 -0.835078 -0.835078 -0.550132 -46.0254 94.1894)" stroke="#FDB001" stroke-width="1.05335"/>
<line y1="-0.526675" x2="206.157" y2="-0.526675" transform="matrix(0.550132 -0.835078 -0.835078 -0.550132 -43.6768 101.786)" stroke="#FDB001" stroke-width="1.05335"/>
<line y1="-0.526675" x2="206.157" y2="-0.526675" transform="matrix(0.550132 -0.835078 -0.835078 -0.550132 -41.3281 109.383)" stroke="#FDB001" stroke-width="1.05335"/>
<line y1="-0.526675" x2="206.157" y2="-0.526675" transform="matrix(0.550132 -0.835078 -0.835078 -0.550132 -38.9795 116.979)" stroke="#FDB001" stroke-width="1.05335"/>
<line y1="-0.526675" x2="206.157" y2="-0.526675" transform="matrix(0.550132 -0.835078 -0.835078 -0.550132 -36.6309 124.576)" stroke="#FDB001" stroke-width="1.05335"/>
<line y1="-0.526675" x2="298.031" y2="-0.526675" transform="matrix(0.550132 -0.835078 -0.835078 -0.550132 -87.7529 214.941)" stroke="#FDB001" stroke-width="1.05335"/>
<line y1="-0.526675" x2="298.031" y2="-0.526675" transform="matrix(0.550132 -0.835078 -0.835078 -0.550132 -86.6426 224.418)" stroke="#FDB001" stroke-width="1.05335"/>
<line y1="-0.526675" x2="298.031" y2="-0.526675" transform="matrix(0.550132 -0.835078 -0.835078 -0.550132 -85.5322 233.895)" stroke="#FDB001" stroke-width="1.05335"/>
<line y1="-0.526675" x2="298.031" y2="-0.526675" transform="matrix(0.550132 -0.835078 -0.835078 -0.550132 -84.4219 243.371)" stroke="#FDB001" stroke-width="1.05335"/>
<line y1="-0.526675" x2="298.031" y2="-0.526675" transform="matrix(0.550132 -0.835078 -0.835078 -0.550132 -83.3115 252.848)" stroke="#FDB001" stroke-width="1.05335"/>
<line y1="-0.526675" x2="298.031" y2="-0.526675" transform="matrix(0.550132 -0.835078 -0.835078 -0.550132 -82.2012 262.325)" stroke="#FDB001" stroke-width="1.05335"/>
<line y1="-0.526675" x2="298.031" y2="-0.526675" transform="matrix(0.550132 -0.835078 -0.835078 -0.550132 -81.0918 271.802)" stroke="#FDB001" stroke-width="1.05335"/>
<line y1="-0.526675" x2="298.031" y2="-0.526675" transform="matrix(0.550132 -0.835078 -0.835078 -0.550132 -79.9814 281.279)" stroke="#FDB001" stroke-width="1.05335"/>
<line y1="-0.526675" x2="298.031" y2="-0.526675" transform="matrix(0.550132 -0.835078 -0.835078 -0.550132 -78.8711 290.755)" stroke="#FDB001" stroke-width="1.05335"/>
<line y1="-0.526675" x2="298.031" y2="-0.526675" transform="matrix(0.550132 -0.835078 -0.835078 -0.550132 -77.7607 300.232)" stroke="#FDB001" stroke-width="1.05335"/>
<line y1="-0.526675" x2="298.031" y2="-0.526675" transform="matrix(0.550132 -0.835078 -0.835078 -0.550132 -76.6504 309.709)" stroke="#FDB001" stroke-width="1.05335"/>
<line y1="-0.526675" x2="298.031" y2="-0.526675" transform="matrix(0.550132 -0.835078 -0.835078 -0.550132 -75.54 319.186)" stroke="#FDB001" stroke-width="1.05335"/>
<line y1="-0.526675" x2="298.031" y2="-0.526675" transform="matrix(0.550132 -0.835078 -0.835078 -0.550132 -74.4307 328.663)" stroke="#FDB001" stroke-width="1.05335"/>
<line y1="-0.526675" x2="298.031" y2="-0.526675" transform="matrix(0.550132 -0.835078 -0.835078 -0.550132 -73.3203 338.139)" stroke="#FDB001" stroke-width="1.05335"/>
<line y1="-0.526675" x2="298.031" y2="-0.526675" transform="matrix(0.550132 -0.835078 -0.835078 -0.550132 -72.21 347.616)" stroke="#FDB001" stroke-width="1.05335"/>
</g>
</g>
</svg>
