<svg width="160" height="160" viewBox="0 0 160 160" fill="none" xmlns="http://www.w3.org/2000/svg">
<g clip-path="url(#clip0_1_2145)">
<path d="M79.8 158.3C123.154 158.3 158.3 123.154 158.3 79.8C158.3 36.4457 123.154 1.30005 79.8 1.30005C36.4457 1.30005 1.30005 36.4457 1.30005 79.8C1.30005 123.154 36.4457 158.3 79.8 158.3Z" fill="#FDB001"/>
<path d="M77.2 156.8C75.9 156.8 75 155.7 74.2 154.6C73.6 153.9 72.9 153.1 72.5 153C72 153 71.2 153.7 70.5 154.2C69.4 155.1 68.3 156 67.1 155.8C65.9 155.6 65.2001 154.4 64.4001 153.2C63.9001 152.5 63.4001 151.5 62.9001 151.4C62.4001 151.3 61.5 151.9 60.8 152.4C59.6 153.1 58.4 153.9 57.3 153.5C56.2001 153.2 55.6 151.9 55 150.6C54.6 149.8 54.2001 148.8 53.7001 148.6C53.3 148.4 52.3 148.9 51.5 149.3C50.2001 149.9 49 150.4 47.9001 150C46.8001 149.5 46.4001 148.2 46 146.8C45.7001 146 45.4001 144.9 45 144.7C44.6 144.5 43.5 144.8 42.7001 145.1C41.4001 145.5 40 145.9 39 145.3C38 144.7 37.8 143.3 37.5 141.9C37.4001 141 37.2001 139.9 36.8 139.7C36.4 139.4 35.3 139.6 34.5 139.8C33.2001 140 31.8 140.3 30.8 139.5C29.9 138.7 29.8 137.3 29.8 136C29.8 135.1 29.7 134 29.4 133.7C29.1 133.4 28 133.4 27.1 133.4C25.7001 133.4 24.3 133.5 23.5 132.6C22.7001 131.7 22.8 130.3 23 129C23.1 128.1 23.2 127 22.9 126.7C22.6 126.3 21.5 126.2 20.6 126.1C19.2001 126 17.8 125.8 17.1 124.8C16.4 123.8 16.7 122.4 17 121.1C17.2 120.2 17.5 119.2 17.2 118.8C17 118.4 15.9 118.1 15 117.9C13.7 117.6 12.3 117.3 11.8 116.3C11.2 115.3 11.7 113.9 12.2 112.6C12.5 111.8 12.9 110.7 12.7 110.3C12.5 109.9 11.5 109.5 10.7 109.2C9.40005 108.7 8.10005 108.2 7.60005 107.1C7.20005 106 7.80005 104.7 8.50005 103.5C8.90005 102.7 9.50005 101.7 9.30005 101.3C9.10005 100.8 8.20005 100.3 7.40005 99.9C6.30005 99 5.00005 98.4 4.80005 97.2C4.50005 96 5.30005 94.9 6.10005 93.8C6.60005 93.1001 7.30005 92.2 7.20005 91.7C7.10005 91.2 6.20005 90.6 5.50005 90.1C4.40005 89.3 3.20005 88.5 3.10005 87.3C3.00005 86 4.00005 85 4.90005 84C5.50005 83.4 6.30005 82.5 6.30005 82.1C6.30005 81.6 5.50005 80.9 4.80005 80.3C3.80005 79.4 2.80005 78.4 2.80005 77.2C2.80005 76 3.90005 75.1 5.00005 74.2C5.70005 73.6 6.50005 72.9 6.60005 72.5C6.60005 72 5.90005 71.2 5.40005 70.5C4.50005 69.4 3.60005 68.3 3.80005 67.2C4.00005 66 5.20005 65.2001 6.40005 64.5C7.20005 64 8.10005 63.5 8.20005 63C8.30005 62.6 7.70005 61.6001 7.30005 60.9001C6.60005 59.7001 5.80005 58.5 6.20005 57.4001C6.50005 56.3001 7.80005 55.7 9.10005 55.1C9.90005 54.7 10.9 54.3 11.1 53.8C11.3 53.4 10.8 52.4 10.4 51.6C9.80005 50.3 9.30005 49.1 9.70005 48C10.2 46.9001 11.6 46.5 12.9 46.1C13.7 45.8 14.8 45.5 15 45.1C15.2 44.7 14.9 43.6 14.6 42.8C14.2 41.5 13.8 40.1 14.4 39.1C15 38.1 16.4 37.9 17.8 37.6C18.7 37.5 19.8 37.3001 20 36.9001C20.3 36.5 20.1 35.4 19.9 34.6C19.7 33.2 19.5 31.8 20.2001 30.9C21 30 22.4001 29.9 23.7001 29.9C24.6 29.9 25.7001 29.8 26 29.5C26.3 29.2001 26.3 28.1 26.3 27.2001C26.3 25.8001 26.2001 24.4 27.1 23.6C28 22.8001 29.4001 22.9 30.7001 23.1C31.6 23.2001 32.7001 23.3 33 23C33.4 22.7001 33.5 21.6 33.6 20.7001C33.7 19.3001 33.9001 17.9 34.9001 17.2C35.9001 16.5 37.3 16.8 38.6 17.1C39.5 17.3 40.5 17.6 40.9001 17.3C41.3001 17.1 41.5 16 41.7001 15.1C42 13.8 42.3001 12.4 43.4001 11.8C44.5 11.2 45.8 11.7 47.1 12.2C47.9 12.5 49 12.9 49.4001 12.7C49.8001 12.5 50.2001 11.5 50.5 10.6C51 9.30005 51.5 8.00005 52.6 7.60005C53.7 7.20005 55 7.80005 56.2001 8.50005C57 8.90005 58 9.50005 58.4001 9.30005C58.9001 9.10005 59.4 8.20005 59.8 7.40005C60.4 6.20005 61.1 5.00005 62.3 4.70005C63.5 4.40005 64.6 5.30005 65.7 6.00005C66.4 6.50005 67.3 7.20005 67.8 7.10005C68.3 7.00005 68.9 6.10005 69.4 5.40005C70.2001 4.30005 71 3.10005 72.2 3.00005C73.5 3.00005 74.6 4.00005 75.6 4.90005C76.2 5.50005 77.1 6.30005 77.5 6.30005C78 6.30005 78.7001 5.50005 79.3 4.80005C80.2001 3.80005 81.2001 2.80005 82.4 2.80005C83.6 2.80005 84.5 3.90005 85.4 5.00005C86 5.70005 86.7 6.50005 87.1 6.60005C87.6 6.60005 88.4 5.90005 89.1 5.40005C90.2 4.50005 91.3 3.60005 92.4 3.80005C93.6 4.00005 94.3 5.20005 95.1 6.40005C95.6 7.10005 96.1 8.10005 96.6 8.20005C97 8.30005 98 7.70005 98.7 7.30005C99.9 6.60005 101.1 5.80005 102.2 6.20005C103.3 6.50005 103.9 7.80005 104.5 9.10005C104.9 9.90005 105.3 10.9 105.8 11.1C106.2 11.3 107.2 10.8 108.1 10.4C109.3 9.80005 110.6 9.30005 111.7 9.70005C112.8 10.2 113.2 11.5 113.6 12.9C113.9 13.8 114.2 14.8 114.6 15C115 15.2 116.1 14.9 116.9 14.6C118.2 14.2 119.5 13.8 120.6 14.4C121.6 15 121.8 16.4 122.1 17.8C122.2 18.7 122.4 19.8 122.8 20C123.2 20.3 124.3 20.1 125.1 19.9C126.5 19.7 127.8 19.5 128.8 20.2001C129.7 21 129.8 22.4001 129.8 23.7001C129.8 24.6 129.9 25.7001 130.2 26C130.5 26.3 131.6 26.3 132.5 26.3C133.9 26.3 135.3 26.2001 136.1 27.1C136.9 28 136.8 29.4001 136.6 30.7001C136.5 31.6 136.4 32.7 136.7 33.1C137 33.5 138.1 33.6 139 33.7001C140.4 33.8001 141.8 34 142.5 35C143.2 36 142.9 37.3 142.6 38.7001C142.4 39.6001 142.1 40.7001 142.4 41C142.6 41.4001 143.7 41.6 144.6 41.8C145.9 42.1 147.3 42.4001 147.9 43.5C148.5 44.6 148 45.9001 147.5 47.2001C147.2 48 146.8 49.1 147 49.5C147.2 49.9001 148.2 50.3 149.1 50.6C150.4 51.1 151.7 51.6001 152.1 52.7001C152.5 53.8 151.9 55.1 151.2 56.3C150.8 57.1 150.2 58.1 150.4 58.5C150.6 59 151.5 59.5 152.3 59.9001C153.5 60.5 154.7 61.2001 155 62.4001C155.3 63.6001 154.4 64.7001 153.7 65.8001C153.2 66.5001 152.5 67.4 152.6 67.9C152.7 68.4 153.6 69 154.3 69.5C155.4 70.3 156.6 71.1001 156.7 72.3C156.8 73.5 155.8 74.5 154.9 75.5C154.3 76.1 153.5 77 153.5 77.4C153.5 77.9 154.3 78.6 155 79.2C156 80.1 157 81.1001 157 82.3C157 83.5 155.9 84.4 154.8 85.3C154.1 85.9 153.3 86.6 153.2 87C153.2 87.5 153.9 88.3 154.4 89C155.3 90.1 156.2 91.2001 156 92.4C155.8 93.6 154.6 94.3 153.4 95.1C152.7 95.6 151.7 96.1 151.6 96.6C151.5 97 152.1 98 152.6 98.7C153.3 99.9 154.1 101.1 153.7 102.2C153.4 103.3 152.1 103.9 150.8 104.5C150 104.9 149 105.3 148.8 105.8C148.6 106.2 149.1 107.2 149.5 108C150.1 109.3 150.6 110.5 150.2 111.6C149.7 112.7 148.3 113.1 147 113.5C146.1 113.8 145.1 114.1 144.9 114.5C144.7 114.9 145 116 145.3 116.8C145.7 118.1 146.1 119.5 145.5 120.5C144.9 121.5 143.5 121.7 142.1 122C141.2 122.1 140.1 122.3 139.8 122.7C139.5 123.1 139.7 124.2 139.8 125C140 126.3 140.2 127.7 139.5 128.7C138.7 129.6 137.3 129.7 136 129.7C135.1 129.7 134 129.8 133.7 130.1C133.4 130.4 133.4 131.5 133.4 132.4C133.4 133.8 133.5 135.2 132.6 136C131.7 136.8 130.3 136.7 129 136.5C128.1 136.4 127 136.3 126.6 136.6C126.2 136.9 126.1 138 126 138.9C125.9 140.3 125.7 141.7 124.7 142.4C123.7 143.1 122.3 142.8 121 142.5C120.1 142.3 119.1 142 118.7 142.3C118.3 142.5 118.1 143.6 117.9 144.5C117.6 145.8 117.3 147.2 116.2 147.8C115.1 148.4 113.8 147.9 112.5 147.4C111.7 147.1 110.6 146.7 110.2 146.9C109.8 147.1 109.4 148.1 109.1 149C108.6 150.3 108.1 151.6 107 152C105.9 152.4 104.6 151.8 103.4 151.1C102.6 150.7 101.6 150.1 101.2 150.3C100.7 150.5 100.2 151.4 99.8 152.2C99.1001 153.4 98.5 154.6 97.3 154.9C96.1001 155.2 95 154.3 93.9 153.6C93.2001 153.1 92.3 152.5 91.8 152.5C91.3 152.6 90.7 153.5 90.2 154.2C89.4 155.3 88.6 156.5 87.4 156.6C86.2001 156.7 85.2 155.7 84.2 154.8C83.6 154.2 82.8 153.4 82.3 153.4C81.8 153.4 81.1 154.2 80.5 154.9C79.4 155.8 78.4 156.8 77.2 156.8ZM72.5 151.3C72.6 151.3 72.6 151.3 72.7 151.3C73.8 151.4 74.7 152.5 75.5 153.5C76 154.2 76.8 155.1 77.2 155.1C77.7 155.1 78.5 154.3 79 153.6C79.9 152.6 80.8 151.7 82 151.6C83.1 151.6 84.1 152.5 85.1 153.4C85.7 154 86.6 154.8 87 154.7C87.5 154.7 88.1 153.7 88.6 153C89.4 151.9 90.2001 150.8 91.3 150.6C92.4 150.4 93.5 151.2 94.6 152C95.3 152.5 96.3 153.2 96.7 153.1C97.1 153 97.7 152 98.1 151.2C98.7 150.1 99.4 148.9 100.4 148.5C101.5 148.1 102.7 148.8 103.9 149.4C104.6 149.8 105.7 150.4 106.1 150.2C106.5 150 106.9 148.9 107.2 148.1C107.7 146.9 108.1 145.6 109.2 145.1C110.2 144.6 111.5 145.1 112.7 145.6C113.5 145.9 114.6 146.3 115 146.1C115.4 145.9 115.7 144.7 115.9 143.9C116.2 142.6 116.5 141.3 117.5 140.7C118.5 140.1 119.8 140.4 121.1 140.7C121.9 140.9 123.1 141.2 123.5 140.9C123.9 140.6 124 139.5 124.1 138.6C124.2 137.3 124.4 135.9 125.3 135.2C126.2 134.5 127.5 134.6 128.9 134.7C129.8 134.8 130.9 134.9 131.3 134.6C131.6 134.3 131.6 133.1 131.6 132.3C131.6 131 131.5 129.6 132.3 128.8C133.1 128 134.4 127.9 135.8 127.9C136.7 127.9 137.8 127.8 138.1 127.5C138.4 127.2 138.2 126 138.1 125.2C137.9 123.9 137.7 122.6 138.3 121.6C139 120.7 140.3 120.4 141.6 120.2C142.4 120.1 143.6 119.9 143.8 119.5C144 119.1 143.7 118 143.4 117.2C143 115.9 142.6 114.6 143.2 113.6C143.8 112.6 145 112.2 146.3 111.8C147.1 111.5 148.3 111.2 148.4 110.8C148.6 110.4 148.1 109.3 147.7 108.5C147.2 107.3 146.6 106.1 147 105C147.4 103.9 148.6 103.4 149.8 102.8C150.6 102.4 151.7 102 151.8 101.5C151.9 101.1 151.3 100.1 150.9 99.3C150.2 98.2001 149.5 97 149.7 95.9C150 94.8 151.1 94.1 152.2 93.4C152.9 92.9 153.9 92.3 154 91.9C154.1 91.4 153.4 90.6 152.8 89.9C152 88.9 151.1 87.8 151.2 86.7C151.3 85.6 152.4 84.7001 153.4 83.9C154.1 83.4 155 82.6 155 82.2C155 81.7 154.2 80.9 153.5 80.4C152.5 79.5 151.6 78.6 151.5 77.4C151.5 76.3 152.4 75.3 153.3 74.3C153.9 73.7001 154.7 72.8 154.6 72.4C154.6 71.9 153.6 71.3 152.9 70.8C151.8 70 150.7 69.2 150.5 68.1C150.3 67 151.1 65.9001 151.9 64.8001C152.4 64.1001 153.1 63.2001 153 62.7001C152.9 62.3 151.9 61.7001 151.1 61.3C150 60.7001 148.8 60 148.4 59C148 57.9001 148.7 56.7001 149.3 55.5C149.7 54.8 150.3 53.7001 150.1 53.3C149.9 52.9 148.9 52.5 148 52.2001C146.8 51.7001 145.5 51.3 145 50.2001C144.5 49.2001 145 47.9001 145.5 46.7001C145.8 45.9001 146.2 44.8001 146 44.4001C145.8 44 144.6 43.7001 143.8 43.5C142.5 43.2001 141.2 42.9001 140.6 41.9001C140 40.9001 140.3 39.6 140.6 38.3C140.8 37.5 141.1 36.3 140.8 36C140.5 35.6 139.4 35.5 138.5 35.4001C137.2 35.3001 135.8 35.1001 135.1 34.2001C134.4 33.3001 134.5 32 134.6 30.6C134.7 29.7001 134.8 28.6 134.5 28.2001C134.2 27.9001 133 27.9 132.2 27.9C130.9 27.9 129.5 28 128.7 27.2001C127.9 26.4001 127.8 25.1 127.8 23.7001C127.8 22.8001 127.7 21.7 127.4 21.4C127.1 21.1 125.9 21.3 125 21.4C123.7 21.6 122.4 21.8001 121.4 21.2001C120.5 20.5 120.3 19.2 120 17.9C119.9 17 119.7 15.9 119.3 15.6C118.9 15.4 117.8 15.7 117 16C115.7 16.4 114.4 16.8 113.4 16.2C112.4 15.6 112 14.4 111.6 13.1C111.3 12.3 111 11.1 110.6 11C110.2 10.8 109.1 11.3 108.3 11.7C107.1 12.2 105.9 12.8 104.8 12.4C103.7 12 103.2 10.8 102.6 9.60005C102.2 8.80005 101.8 7.70005 101.3 7.60005C100.9 7.50005 99.9 8.10005 99.1 8.50005C98 9.20005 96.8 9.90005 95.7 9.70005C94.6 9.40005 93.9 8.30005 93.2 7.20005C92.7 6.50005 92.1 5.50005 91.7 5.40005C91.2 5.30005 90.4 6.00005 89.7 6.60005C88.7 7.40005 87.6 8.30005 86.5 8.20005C85.4 8.10005 84.5 7.00005 83.7 6.00005C83.2 5.30005 82.4 4.40005 82 4.40005C81.5 4.40005 80.8 5.20005 80.2 5.90005C79.3 6.90005 78.4 7.90005 77.2 7.90005C76 7.90005 75.1 7.00005 74.1 6.10005C73.5 5.50005 72.6 4.70005 72.2 4.70005C71.7 4.70005 71.1 5.70005 70.6 6.40005C69.8 7.50005 69 8.60005 67.9 8.80005C66.8 9.00005 65.7 8.20005 64.6 7.40005C63.9 6.90005 63 6.20005 62.5 6.30005C62.1 6.40005 61.5 7.40005 61.1 8.20005C60.5 9.30005 59.8 10.5 58.8 10.9C57.7001 11.3 56.5 10.6 55.3 10C54.6 9.60005 53.5 9.00005 53.1 9.20005C52.7 9.40005 52.3 10.4 52 11.3C51.5 12.5 51.1 13.8 50 14.3C49 14.8 47.7001 14.3 46.4001 13.8C45.6001 13.5 44.5 13.1 44.1 13.3C43.7 13.5 43.4001 14.7 43.2001 15.5C42.9001 16.8 42.6 18.1 41.6 18.7C40.6 19.3 39.3 19 38 18.7C37.2001 18.5 36 18.2 35.7001 18.5C35.3 18.8 35.2 19.9 35.1 20.8C35 22.1 34.8 23.5 34 24.2001C33.1 24.9001 31.8 24.8001 30.5 24.7001C29.6 24.6 28.5 24.5 28.1 24.8C27.8001 25.1 27.8 26.3001 27.8 27.1C27.8 28.4 27.9 29.8001 27.1 30.6C26.3001 31.4 25 31.5 23.7001 31.5C22.8001 31.5 21.7 31.6 21.4 31.9C21.1 32.2 21.3 33.4 21.4 34.3C21.6 35.6 21.8001 36.9001 21.2001 37.9001C20.5 38.8001 19.2 39 17.9 39.3C17 39.4 15.9 39.6 15.6 40C15.4 40.4001 15.7 41.5 15.9 42.3C16.3 43.6 16.7 44.9001 16.1 45.9001C15.6 46.9001 14.3 47.3 13 47.7001C12.2 48 11 48.3 10.9 48.7001C10.7 49.1001 11.2 50.2001 11.6 51C12.1 52.2001 12.7 53.4001 12.3 54.5C11.9 55.6 10.7 56.1001 9.50005 56.7001C8.70005 57.1001 7.60005 57.5 7.50005 58C7.40005 58.4001 8.00005 59.4001 8.40005 60.2001C9.10005 61.3 9.80005 62.5 9.60005 63.6C9.30005 64.7 8.20005 65.4 7.10005 66.1C6.40005 66.6 5.40005 67.2 5.30005 67.6C5.20005 68.1 5.90005 68.9 6.50005 69.6C7.30005 70.6 8.20005 71.7001 8.10005 72.8C8.00005 73.9 6.90005 74.8 5.90005 75.6C5.20005 76.1 4.30005 76.9 4.30005 77.3C4.30005 77.8 5.10005 78.6 5.80005 79.2C6.80005 80.1 7.70005 81 7.80005 82.2C7.80005 83.3 6.90005 84.3 6.00005 85.3C5.40005 85.9 4.60005 86.8 4.70005 87.2C4.70005 87.7 5.70005 88.3 6.40005 88.8C7.50005 89.6001 8.60005 90.4 8.80005 91.5C9.00005 92.6 8.20005 93.7001 7.40005 94.8C6.90005 95.5 6.20005 96.5 6.30005 96.9C6.40005 97.3 7.40005 97.9 8.20005 98.3C9.30005 98.9 10.5 99.6 10.9 100.6C11.3 101.7 10.6 102.9 10 104.1C9.60005 104.8 9.00005 105.9 9.20005 106.3C9.40005 106.7 10.5 107.2 11.3 107.5C12.5 108 13.8 108.4 14.2 109.4C14.7 110.4 14.2 111.7 13.7 113C13.4 113.8 13 114.9 13.2 115.3C13.4 115.7 14.5 116 15.4 116.2C16.7 116.5 18 116.8 18.6 117.8C19.2 118.8 18.9 120.1 18.6 121.4C18.4 122.2 18.1 123.4 18.4 123.8C18.7 124.2 19.8001 124.3 20.7001 124.4C22 124.5 23.4 124.7 24.1 125.5C24.8001 126.4 24.7001 127.7 24.6 129C24.5 129.9 24.4001 131 24.7001 131.4C25 131.7 26.2001 131.7 27 131.7C28.3 131.7 29.7001 131.6 30.5 132.4C31.3 133.2 31.4 134.6 31.4 135.9C31.4 136.8 31.5 137.9 31.8 138.2C32.1 138.5 33.3 138.3 34.1 138.2C35.4 138 36.8 137.8 37.7001 138.4C38.6001 139.1 38.8 140.4 39.1 141.7C39.2 142.5 39.4 143.7 39.8 144C40.2001 144.2 41.3 143.9 42.1 143.7C43.4 143.3 44.7001 142.9 45.7001 143.5C46.7001 144 47.1 145.3 47.5 146.6C47.8 147.4 48.1 148.6 48.5 148.7C48.9001 148.9 50 148.4 50.8 148C52 147.5 53.2001 146.9 54.3 147.3C55.4 147.7 55.9001 148.9 56.5 150.1C56.9001 150.9 57.3 152 57.8 152.1C58.2001 152.2 59.2001 151.6 60 151.2C61.1 150.5 62.3001 149.8 63.4001 150C64.5 150.3 65.2001 151.4 65.9001 152.5C66.4001 153.2 67 154.2 67.4 154.3C67.9 154.4 68.7001 153.7 69.4 153.1C70.4 152.1 71.4 151.3 72.5 151.3Z" fill="#1D1D1D"/>
<path d="M79.8 150.2C41 150.2 9.40002 118.6 9.40002 79.7999C9.40002 40.9999 41 9.3999 79.8 9.3999C118.6 9.3999 150.2 40.9999 150.2 79.7999C150.2 118.6 118.6 150.2 79.8 150.2ZM79.8 11.2999C42.1 11.2999 11.3 41.9999 11.3 79.7999C11.3 117.5 42 148.3 79.8 148.3C117.6 148.3 148.3 117.6 148.3 79.7999C148.3 42.0999 117.5 11.2999 79.8 11.2999Z" fill="#1D1D1D"/>
<path d="M79.8 159.6C35.8 159.6 0 123.8 0 79.8C0 35.8 35.8 0 79.8 0C123.8 0 159.6 35.8 159.6 79.8C159.6 123.8 123.8 159.6 79.8 159.6ZM79.8 6.4C39.3 6.4 6.4 39.3 6.4 79.8C6.4 120.3 39.3 153.2 79.8 153.2C120.3 153.2 153.2 120.3 153.2 79.8C153.2 39.3 120.3 6.4 79.8 6.4Z" fill="#1D1D1D"/>
<path d="M79.4 144.1C43.8 144.1 14.9 115.2 14.9 79.6001C14.9 44.0001 43.8 15.1001 79.4 15.1001C115 15.1001 143.9 44.0001 143.9 79.6001C143.9 115.2 115 144.1 79.4 144.1ZM79.4 16.7001C44.7 16.7001 16.5 44.9001 16.5 79.6001C16.5 114.3 44.7 142.5 79.4 142.5C114.1 142.5 142.3 114.3 142.3 79.6001C142.3 44.9001 114.1 16.7001 79.4 16.7001Z" fill="#1D1D1D"/>
<path d="M80.2 79.6001H78.6V143.3H80.2V79.6001Z" fill="#1D1D1D"/>
<path d="M80.192 79.513L78.5952 79.6135L82.5992 143.186L84.196 143.086L80.192 79.513Z" fill="#1D1D1D"/>
<path d="M80.196 79.451L78.6086 79.6516L86.5966 142.848L88.184 142.648L80.196 79.451Z" fill="#1D1D1D"/>
<path d="M80.2152 79.4116L78.6436 79.7114L90.5809 142.284L92.1526 141.984L80.2152 79.4116Z" fill="#1D1D1D"/>
<path d="M80.2506 79.3933L78.7008 79.791L94.5366 141.491L96.0864 141.093L80.2506 79.3933Z" fill="#1D1D1D"/>
<path d="M80.2026 79.2987L78.681 79.7932L98.3707 140.372L99.8923 139.877L80.2026 79.2987Z" fill="#1D1D1D"/>
<path d="M80.2335 79.3178L78.7458 79.9067L102.194 139.135L103.681 138.546L80.2335 79.3178Z" fill="#1D1D1D"/>
<path d="M80.1717 79.2858L78.724 79.967L105.847 137.603L107.295 136.922L80.1717 79.2858Z" fill="#1D1D1D"/>
<path d="M80.1745 79.2399L78.7722 80.0105L109.45 135.837L110.852 135.067L80.1745 79.2399Z" fill="#1D1D1D"/>
<path d="M80.0927 79.1364L78.7417 79.9937L112.872 133.782L114.223 132.925L80.0927 79.1364Z" fill="#1D1D1D"/>
<path d="M80.1067 79.0825L78.8123 80.0229L116.255 131.556L117.55 130.616L80.1067 79.0825Z" fill="#1D1D1D"/>
<path d="M80.0242 79.122L78.7914 80.1418L119.394 129.223L120.627 128.203L80.0242 79.122Z" fill="#1D1D1D"/>
<path d="M80.0191 79.0967L78.8525 80.1919L122.455 126.636L123.622 125.54L80.0191 79.0967Z" fill="#1D1D1D"/>
<path d="M80.0446 79.0051L78.9492 80.1714L125.38 123.78L126.476 122.614L80.0446 79.0051Z" fill="#1D1D1D"/>
<path d="M79.9163 78.933L78.8965 80.1658L127.977 120.768L128.997 119.535L79.9163 78.933Z" fill="#1D1D1D"/>
<path d="M79.9242 78.9753L78.9835 80.2695L130.51 117.719L131.451 116.425L79.9242 78.9753Z" fill="#1D1D1D"/>
<path d="M79.8336 78.9313L78.9762 80.2822L132.758 114.419L133.616 113.068L79.8336 78.9313Z" fill="#1D1D1D"/>
<path d="M79.8099 78.9358L79.0388 80.3379L134.859 111.035L135.63 109.633L79.8099 78.9358Z" fill="#1D1D1D"/>
<path d="M79.7825 78.8306L79.1012 80.2783L136.737 107.402L137.418 105.954L79.7825 78.8306Z" fill="#1D1D1D"/>
<path d="M79.767 78.8216L79.1779 80.3091L138.4 103.763L138.989 102.276L79.767 78.8216Z" fill="#1D1D1D"/>
<path d="M79.6834 78.8727L79.1888 80.3943L139.768 100.084L140.262 98.5624L79.6834 78.8727Z" fill="#1D1D1D"/>
<path d="M79.6664 78.8116L79.2683 80.3613L140.968 96.2099L141.366 94.6601L79.6664 78.8116Z" fill="#1D1D1D"/>
<path d="M79.57 78.8321L79.2701 80.4038L141.843 92.3412L142.142 90.7695L79.57 78.8321Z" fill="#1D1D1D"/>
<path d="M79.4924 78.8365L79.2917 80.4238L142.489 88.4118L142.689 86.8244L79.4924 78.8365Z" fill="#1D1D1D"/>
<path d="M79.4298 78.8182L79.3292 80.415L142.902 84.4197L143.002 82.8229L79.4298 78.8182Z" fill="#1D1D1D"/>
<path d="M143.1 78.8H79.4V80.4H143.1V78.8Z" fill="#1D1D1D"/>
<path d="M142.981 74.8058L79.4086 78.7866L79.5086 80.3834L143.081 76.4026L142.981 74.8058Z" fill="#1D1D1D"/>
<path d="M142.554 70.8283L79.351 78.7908L79.551 80.3783L142.754 72.4158L142.554 70.8283Z" fill="#1D1D1D"/>
<path d="M141.884 66.8409L79.3113 78.7847L79.6113 80.3563L142.184 68.4126L141.884 66.8409Z" fill="#1D1D1D"/>
<path d="M140.908 63.0172L79.2086 78.8594L79.6065 80.4091L141.306 64.5669L140.908 63.0172Z" fill="#1D1D1D"/>
<path d="M139.809 59.1868L79.2236 78.8638L79.7179 80.3855L140.303 60.7086L139.809 59.1868Z" fill="#1D1D1D"/>
<path d="M138.388 55.4447L79.1471 78.8608L79.7353 80.3488L138.976 56.9327L138.388 55.4447Z" fill="#1D1D1D"/>
<path d="M136.727 51.7341L79.0719 78.8257L79.7524 80.2738L137.407 53.1822L136.727 51.7341Z" fill="#1D1D1D"/>
<path d="M134.892 48.243L79.0717 78.9272L79.8424 80.3293L135.663 49.645L134.892 48.243Z" fill="#1D1D1D"/>
<path d="M132.801 44.7595L79.0062 78.8772L79.8632 80.2284L133.658 46.1107L132.801 44.7595Z" fill="#1D1D1D"/>
<path d="M130.463 41.5483L78.9359 78.9976L79.8766 80.2918L131.403 42.8426L130.463 41.5483Z" fill="#1D1D1D"/>
<path d="M127.996 38.3979L78.9028 78.9875L79.9224 80.2207L129.016 39.631L127.996 38.3979Z" fill="#1D1D1D"/>
<path d="M125.316 35.4083L78.8917 79.0237L79.9872 80.1898L126.412 36.5744L125.316 35.4083Z" fill="#1D1D1D"/>
<path d="M122.476 32.6152L78.8793 79.0588L80.0458 80.1539L123.642 33.7102L122.476 32.6152Z" fill="#1D1D1D"/>
<path d="M119.46 30.0278L78.8514 79.1023L80.0841 80.1223L120.693 31.0478L119.46 30.0278Z" fill="#1D1D1D"/>
<path d="M116.204 27.5812L78.761 79.1145L80.0554 80.055L117.498 28.5217L116.204 27.5812Z" fill="#1D1D1D"/>
<path d="M112.861 25.4212L78.718 79.1968L80.0687 80.0544L114.212 26.2788L112.861 25.4212Z" fill="#1D1D1D"/>
<path d="M109.415 23.4226L78.731 79.2429L80.133 80.0136L110.817 24.1933L109.415 23.4226Z" fill="#1D1D1D"/>
<path d="M105.837 21.6755L78.7009 79.3049L80.1484 79.9865L107.285 22.3571L105.837 21.6755Z" fill="#1D1D1D"/>
<path d="M102.146 20.084L78.6985 79.3123L80.1862 79.9012L103.634 20.673L102.146 20.084Z" fill="#1D1D1D"/>
<path d="M98.3451 18.7887L78.6682 79.3738L80.19 79.868L99.8669 19.283L98.3451 18.7887Z" fill="#1D1D1D"/>
<path d="M94.5529 17.7211L78.698 79.4146L80.2476 79.8128L96.1025 18.1193L94.5529 17.7211Z" fill="#1D1D1D"/>
<path d="M90.5612 16.9214L78.6238 79.4939L80.1955 79.7937L92.1328 17.2212L90.5612 16.9214Z" fill="#1D1D1D"/>
<path d="M86.6287 16.272L78.6344 79.4688L80.2218 79.6695L88.2161 16.4728L86.6287 16.272Z" fill="#1D1D1D"/>
<path d="M82.636 15.9552L78.6163 79.5278L80.2131 79.6288L84.2328 16.0562L82.636 15.9552Z" fill="#1D1D1D"/>
<path d="M80.2 15.8999H78.6V79.5999H80.2V15.8999Z" fill="#1D1D1D"/>
<path d="M76.1962 16.0141L74.5994 16.1147L78.606 79.6873L80.2028 79.5867L76.1962 16.0141Z" fill="#1D1D1D"/>
<path d="M72.1932 16.2564L70.6058 16.457L78.5938 79.6538L80.1812 79.4532L72.1932 16.2564Z" fill="#1D1D1D"/>
<path d="M68.325 16.9062L66.7533 17.2061L78.6907 79.7786L80.2624 79.4787L68.325 16.9062Z" fill="#1D1D1D"/>
<path d="M64.3557 17.7044L62.8059 18.1023L78.6481 79.8021L80.1979 79.4042L64.3557 17.7044Z" fill="#1D1D1D"/>
<path d="M60.4982 18.7061L58.9766 19.2007L78.6662 79.7794L80.1878 79.2848L60.4982 18.7061Z" fill="#1D1D1D"/>
<path d="M56.7079 20.048L55.2202 20.637L78.6682 79.8652L80.1559 79.2763L56.7079 20.048Z" fill="#1D1D1D"/>
<path d="M53.0456 21.5788L51.5979 22.2603L78.7277 79.896L80.1754 79.2146L53.0456 21.5788Z" fill="#1D1D1D"/>
<path d="M49.4376 23.3523L48.0355 24.123L78.7198 79.9434L80.1219 79.1726L49.4376 23.3523Z" fill="#1D1D1D"/>
<path d="M46.0267 25.4018L44.6758 26.259L78.8062 80.0409L80.1571 79.1837L46.0267 25.4018Z" fill="#1D1D1D"/>
<path d="M42.64 27.6108L41.3456 28.5513L78.7884 80.0846L80.0828 79.1441L42.64 27.6108Z" fill="#1D1D1D"/>
<path d="M39.4092 30.0191L38.1765 31.0391L78.7853 80.1135L80.0179 79.0935L39.4092 30.0191Z" fill="#1D1D1D"/>
<path d="M36.3684 32.614L35.202 33.7092L78.8047 80.1465L79.9711 79.0513L36.3684 32.614Z" fill="#1D1D1D"/>
<path d="M33.4995 35.3841L32.4043 36.5505L78.8416 80.1532L79.9368 78.9868L33.4995 35.3841Z" fill="#1D1D1D"/>
<path d="M30.8289 38.3373L29.8091 39.5701L78.8899 80.1724L79.9098 78.9396L30.8289 38.3373Z" fill="#1D1D1D"/>
<path d="M28.3661 41.4644L27.4257 42.7588L78.959 80.2016L79.8994 78.9073L28.3661 41.4644Z" fill="#1D1D1D"/>
<path d="M26.07 44.8294L25.2128 46.1804L79.001 80.3109L79.8583 78.9598L26.07 44.8294Z" fill="#1D1D1D"/>
<path d="M23.978 48.2254L23.2073 49.6274L79.0276 80.3117L79.7983 78.9097L23.978 48.2254Z" fill="#1D1D1D"/>
<path d="M22.1366 51.769L21.4554 53.2168L79.0976 80.3339L79.7787 78.886L22.1366 51.769Z" fill="#1D1D1D"/>
<path d="M20.468 55.4115L19.879 56.8992L79.1073 80.3471L79.6962 78.8595L20.468 55.4115Z" fill="#1D1D1D"/>
<path d="M19.071 59.1902L18.5768 60.7119L79.1618 80.3888L79.6561 78.8671L19.071 59.1902Z" fill="#1D1D1D"/>
<path d="M17.9025 62.951L17.5048 64.5007L79.2046 80.3366L79.6023 78.7868L17.9025 62.951Z" fill="#1D1D1D"/>
<path d="M17.0185 66.9203L16.7186 68.4919L79.2911 80.4293L79.591 78.8576L17.0185 66.9203Z" fill="#1D1D1D"/>
<path d="M16.3624 70.8614L16.1621 72.4487L79.3589 80.424L79.5592 78.8366L16.3624 70.8614Z" fill="#1D1D1D"/>
<path d="M15.8496 74.8458L15.7493 76.4426L79.3219 80.4366L79.4222 78.8398L15.8496 74.8458Z" fill="#1D1D1D"/>
<path d="M79.4 78.8H15.7V80.4H79.4V78.8Z" fill="#1D1D1D"/>
<path d="M79.3855 78.7909L15.8129 82.8105L15.9138 84.4073L79.4864 80.3877L79.3855 78.7909Z" fill="#1D1D1D"/>
<path d="M79.3483 78.8057L16.1515 86.8064L16.3524 88.3938L79.5492 80.393L79.3483 78.8057Z" fill="#1D1D1D"/>
<path d="M79.2936 78.8434L16.7211 90.7871L17.0211 92.3588L79.5936 80.415L79.2936 78.8434Z" fill="#1D1D1D"/>
<path d="M79.1946 78.815L17.4948 94.6572L17.8927 96.207L79.5925 80.3648L79.1946 78.815Z" fill="#1D1D1D"/>
<path d="M79.1843 78.796L18.5992 98.4729L19.0935 99.9947L79.6786 80.3177L79.1843 78.796Z" fill="#1D1D1D"/>
<path d="M79.1654 78.8361L19.9244 102.252L20.5126 103.74L79.7536 80.3241L79.1654 78.8361Z" fill="#1D1D1D"/>
<path d="M79.0448 78.9179L21.4218 106.073L22.1038 107.521L79.7269 80.3653L79.0448 78.9179Z" fill="#1D1D1D"/>
<path d="M79.0957 78.93L23.2754 109.614L24.0461 111.016L79.8664 80.3321L79.0957 78.93Z" fill="#1D1D1D"/>
<path d="M79.034 78.9567L25.2394 113.074L26.0963 114.426L79.891 80.3079L79.034 78.9567Z" fill="#1D1D1D"/>
<path d="M78.9245 78.925L27.4103 116.393L28.3514 117.687L79.8656 80.2189L78.9245 78.925Z" fill="#1D1D1D"/>
<path d="M78.8955 79.0075L29.8019 119.597L30.8214 120.83L79.915 80.2406L78.8955 79.0075Z" fill="#1D1D1D"/>
<path d="M78.8965 78.9847L32.4719 122.6L33.5674 123.766L79.992 80.1508L78.8965 78.9847Z" fill="#1D1D1D"/>
<path d="M78.8484 79.0293L35.233 125.454L36.3991 126.549L80.0145 80.1248L78.8484 79.0293Z" fill="#1D1D1D"/>
<path d="M78.7856 79.0451L38.1959 128.139L39.429 129.158L80.0187 80.0646L78.7856 79.0451Z" fill="#1D1D1D"/>
<path d="M78.8439 79.1306L41.3756 130.645L42.6695 131.586L80.1379 80.0717L78.8439 79.1306Z" fill="#1D1D1D"/>
<path d="M78.7493 79.1802L44.6316 132.975L45.9828 133.832L80.1005 80.0372L78.7493 79.1802Z" fill="#1D1D1D"/>
<path d="M78.6927 79.25L48.0084 135.07L49.4105 135.841L80.0948 80.0207L78.6927 79.25Z" fill="#1D1D1D"/>
<path d="M78.7015 79.2759L51.5334 136.893L52.9806 137.575L80.1487 79.9583L78.7015 79.2759Z" fill="#1D1D1D"/>
<path d="M78.6732 79.2563L55.2571 138.497L56.7451 139.085L80.1612 79.8445L78.6732 79.2563Z" fill="#1D1D1D"/>
<path d="M78.6606 79.3942L58.9836 139.979L60.5054 140.473L80.1823 79.8884L78.6606 79.3942Z" fill="#1D1D1D"/>
<path d="M78.7163 79.3844L62.8613 141.078L64.4109 141.476L80.2659 79.7827L78.7163 79.3844Z" fill="#1D1D1D"/>
<path d="M78.6559 79.4665L66.7185 142.039L68.2902 142.339L80.2276 79.7664L78.6559 79.4665Z" fill="#1D1D1D"/>
<path d="M78.6212 79.4802L70.665 142.683L72.2526 142.883L80.2087 79.68L78.6212 79.4802Z" fill="#1D1D1D"/>
<path d="M78.6237 79.5377L74.6429 143.11L76.2397 143.21L80.2205 79.6377L78.6237 79.5377Z" fill="#1D1D1D"/>
<path d="M130.5 56.7C130 49.8 127.1 43.4 122.3 38.4C117.6 33.4 111.2 30.2 104.4 29.4C101.8 29.1 99.2001 29.1 96.6001 29.5C85.2001 31.1 73.6001 31.1 62.2001 29.5C59.6001 29 57.0001 29 54.4001 29.3C47.6001 30.2 41.3001 33.4 36.5001 38.4C31.8001 43.4 28.9001 49.9 28.4001 56.7C28.3001 58 28.3001 59.2 28.4001 60.5C29.1001 73.2 29.1001 85.9 28.4001 98.6C28.3001 99.9 28.3001 101.2 28.4001 102.4C28.9001 109.3 31.8001 115.7 36.5001 120.7C41.2001 125.7 47.6001 128.9 54.4001 129.8C56.4001 130 58.5001 130.1 60.5001 129.9C73.1001 128.9 85.7001 128.9 98.3001 129.9C100.3 130.1 102.3 130 104.3 129.8C111.1 128.9 117.5 125.7 122.2 120.7C126.9 115.7 129.8 109.2 130.4 102.4C130.5 101.1 130.5 99.7999 130.4 98.6C129.7 85.9 129.7 73.2 130.4 60.5C130.5 59.2 130.5 58 130.5 56.7Z" fill="white"/>
<path d="M58 131.2C56.7 131.2 55.5 131.1 54.2 131C47.1 130.1 40.5 126.8 35.6 121.6C30.7 116.4 27.7 109.7 27.1 102.6C27 101.3 27 99.9 27.1 98.6C27.8 86 27.8 73.2 27.1 60.6C27 59.3 27 58 27.1 56.7C27.6 49.6 30.6 42.8 35.5 37.7C40.4 32.6 47 29.2 54.1 28.3C56.8 28 59.5 28 62.2 28.4C73.5 30 85 30 96.3 28.4C99 28 101.7 28 104.3 28.3C111.4 29.2 118 32.5 122.9 37.7C127.8 42.9 130.8 49.6 131.4 56.7C131.5 58 131.5 59.3 131.4 60.7C130.7 73.3 130.7 86.1 131.4 98.7C131.5 100 131.5 101.4 131.4 102.7C130.9 109.8 127.8 116.6 122.9 121.7C118 126.9 111.4 130.2 104.3 131.1C102.2 131.3 100.1 131.4 98 131.2C85.5 130.2 72.8 130.2 60.4 131.2C59.8 131.2 58.9 131.2 58 131.2ZM58 30.2C56.8 30.2 55.7 30.3 54.5 30.4C48 31.2 41.8 34.3 37.3 39.1C32.7 43.9 30 50.2 29.5 56.7C29.4 57.9 29.4 59.1 29.5 60.4C30.2 73.1 30.2 86 29.5 98.7C29.4 99.9 29.4 101.2 29.5 102.4C30 109 32.8 115.2 37.3 120C41.9 124.8 48 127.9 54.5 128.7C56.4 128.9 58.4 129 60.4 128.8C73 127.8 85.8 127.8 98.4 128.8C100.3 129 102.3 128.9 104.2 128.7C110.7 127.9 116.9 124.8 121.4 120C125.9 115.2 128.7 109 129.2 102.4C129.3 101.2 129.3 99.9 129.2 98.7C128.5 86 128.5 73.1 129.2 60.4C129.3 59.2 129.3 57.9 129.2 56.7C128.7 50.1 125.9 43.9 121.4 39.1C116.8 34.3 110.7 31.2 104.2 30.4C101.7 30.1 99.2 30.1 96.7 30.5C85.2 32.1 73.5 32.1 62 30.5C60.7 30.3 59.4 30.2 58 30.2Z" fill="#1D1D1D"/>
<path d="M53.6001 68.3999L51.1001 55.8999H52.8001C53.6001 60.0999 54.4001 64.3999 54.5001 66.2999C54.8001 64.3999 56.0001 58.7999 56.6001 55.8999H58.1001C58.7001 58.6999 59.9001 64.3999 60.1001 66.1999C60.4001 63.9999 61.5001 58.5999 62.0001 55.8999H63.6001L60.9001 68.3999H59.3001C58.8001 65.5999 57.6001 60.2999 57.3001 58.2999C57.0001 60.3999 55.8001 65.5999 55.3001 68.3999H53.6001Z" fill="#1D1D1D" stroke="#1D1D1D" stroke-width="0.25" stroke-miterlimit="10"/>
<path d="M68 55.8999V68.3999H66.4V55.8999H68Z" fill="#1D1D1D" stroke="#1D1D1D" stroke-width="0.25" stroke-miterlimit="10"/>
<path d="M72 55.8999H75C78 55.8999 79.3 57.8999 79.3 61.7999C79.3 66.0999 78.1 68.3999 74.8 68.3999H72.1L72 55.8999ZM73.6 67.0999H74.7C76.9 67.0999 77.6 65.3999 77.6 61.8999C77.6 58.6999 76.8 57.1999 74.7 57.1999H73.6V67.0999Z" fill="#1D1D1D" stroke="#1D1D1D" stroke-width="0.25" stroke-miterlimit="10"/>
<path d="M88.5 62.4999H84.3V67.0999H89L88.8 68.3999H82.8V55.8999H88.8V57.2999H84.3V61.1999H88.5V62.4999Z" fill="#1D1D1D" stroke="#1D1D1D" stroke-width="0.25" stroke-miterlimit="10"/>
<path d="M93.1 65.0999C93.2 66.2999 93.8 67.3 95.1 67.3C96.5 67.3 97 66.5999 97 65.1999C97 63.8999 96.5 63.3 94.8 62.4C92.8 61.4 91.9 60.5999 91.9 58.7999C92 57.9999 92.3 57.1999 93 56.5999C93.6 55.9999 94.4 55.7 95.3 55.7C96.1 55.7 96.9 55.9999 97.5 56.5999C98.1 57.1999 98.4 57.9999 98.5 58.7999H97C96.9 58.1999 96.7 56.7999 95.2 56.7999C95 56.7999 94.7 56.8 94.5 56.9C94.3 57 94.1 57.0999 93.9 57.2999C93.7 57.4999 93.6 57.7 93.6 57.9C93.5 58.1 93.5 58.3999 93.5 58.5999C93.5 59.6999 94 60.3 95.6 61C97.8 62 98.7 63.1 98.7 65C98.7 65.5 98.7 65.9 98.5 66.4C98.3 66.8 98.1 67.1999 97.7 67.5999C97.4 67.8999 97 68.2 96.5 68.3C96.1 68.5 95.6 68.5 95.1 68.5C92.5 68.5 91.6 66.8 91.5 65L93.1 65.0999Z" fill="#1D1D1D" stroke="#1D1D1D" stroke-width="0.25" stroke-miterlimit="10"/>
<path d="M103.6 57.2999H100.8V55.8999H108V57.2999H105.2V68.4999H103.6V57.2999Z" fill="#1D1D1D" stroke="#1D1D1D" stroke-width="0.25" stroke-miterlimit="10"/>
<path d="M40.5 83.8999C40.6 85.0999 41.2 86.0999 42.5 86.0999C43.9 86.0999 44.4001 85.3999 44.4001 83.9999C44.4001 82.6999 43.9001 82.0999 42.2001 81.1999C40.2001 80.1999 39.3 79.3999 39.3 77.5999C39.3 76.6999 39.7 75.8999 40.3 75.2999C40.9 74.6999 41.8 74.3999 42.6 74.3999C43.5 74.3999 44.3001 74.7999 44.9001 75.3999C45.5001 75.9999 45.8 76.8999 45.8 77.6999H44.3C44.2 77.0999 44 75.6999 42.5 75.6999C42.3 75.6999 42 75.6999 41.8 75.7999C41.6 75.8999 41.4001 75.9999 41.2001 76.1999C41.0001 76.3999 40.9001 76.5999 40.9001 76.7999C40.8001 76.9999 40.8 77.2999 40.8 77.4999C40.8 78.5999 41.3001 79.1999 42.9001 79.8999C45.1001 80.8999 46 81.9999 46 83.8999C46 84.3999 46 84.7999 45.8 85.2999C45.6 85.6999 45.4 86.0999 45 86.4999C44.6 86.8999 44.3 87.0999 43.8 87.1999C43.4 87.3999 42.9001 87.3999 42.4001 87.3999C39.8001 87.3999 38.9 85.6999 38.8 83.8999H40.5Z" fill="#1D1D1D" stroke="#1D1D1D" stroke-width="0.25" stroke-miterlimit="10"/>
<path d="M55.1 81.3H50.9V85.9H55.6L55.4 87.3H49.4V74.7H55.4V76.1H50.9V80H55.2V81.3H55.1Z" fill="#1D1D1D" stroke="#1D1D1D" stroke-width="0.25" stroke-miterlimit="10"/>
<path d="M58.5 74.7H60.1V85.9H64.6L64.4 87.2H58.6V74.7H58.5Z" fill="#1D1D1D" stroke="#1D1D1D" stroke-width="0.25" stroke-miterlimit="10"/>
<path d="M73.1 81.3H68.9V85.9H73.6L73.4 87.3H67.4V74.7H73.4V76.1H68.9V80H73.1V81.3Z" fill="#1D1D1D" stroke="#1D1D1D" stroke-width="0.25" stroke-miterlimit="10"/>
<path d="M83.5 83.7C83.5 84.4 83.1 87.4 80 87.4C76.6 87.4 76.3 84 76.3 80.9C76.3 77.2 77.3 74.5 80.2 74.5C83.3 74.5 83.6 77.3 83.6 78.1H82C82 77.7 81.9 75.9 80.2 75.9C78.3 75.9 78 78.4 78 80.9C78 83.4 78.3 86.1 80.1 86.1C81.7 86.1 82 84.4 82 83.8L83.5 83.7Z" fill="#1D1D1D" stroke="#1D1D1D" stroke-width="0.25" stroke-miterlimit="10"/>
<path d="M88.5001 76.1H85.7001V74.7H92.9001V76.1H90.1001V87.3H88.5001V76.1Z" fill="#1D1D1D" stroke="#1D1D1D" stroke-width="0.25" stroke-miterlimit="10"/>
<path d="M97.3001 74.7V87.2H95.7001V74.7H97.3001Z" fill="#1D1D1D" stroke="#1D1D1D" stroke-width="0.25" stroke-miterlimit="10"/>
<path d="M108.5 80.8998C108.5 85.1998 107.4 87.4998 104.6 87.4998C101.8 87.4998 100.8 85.2998 100.8 80.9998C100.8 76.5998 102.1 74.5998 104.6 74.5998C107.2 74.4998 108.5 76.5998 108.5 80.8998ZM102.5 80.8998C102.5 84.3998 103.2 86.0998 104.7 86.0998C106.3 86.0998 106.9 84.3998 106.9 80.8998C106.9 77.3998 106.2 75.8998 104.7 75.8998C103.1 75.8998 102.5 77.5998 102.5 80.8998Z" fill="#1D1D1D" stroke="#1D1D1D" stroke-width="0.25" stroke-miterlimit="10"/>
<path d="M112 87.2V74.7H113.9C117.3 83 117.7 84.2 117.9 84.8C117.8 83.2 117.8 81.3 117.8 79.2V74.7H119.3V87.2H117.5C114 78.4 113.6 77.2 113.4 76.7C113.5 78.3 113.5 80.3 113.5 82.5V87.1L112 87.2Z" fill="#1D1D1D" stroke="#1D1D1D" stroke-width="0.25" stroke-miterlimit="10"/>
<path d="M55.9001 99.6999C55.9001 104 54.8001 106.3 52.0001 106.3C49.2001 106.3 48.2001 104.1 48.2001 99.6999C48.2001 95.2999 49.5001 93.3999 52.0001 93.3999C54.5001 93.3999 55.9001 95.3999 55.9001 99.6999ZM49.9001 99.6999C49.9001 103.2 50.6001 104.9 52.1001 104.9C53.7001 104.9 54.3001 103.2 54.3001 99.6999C54.3001 96.1999 53.6001 94.6999 52.1001 94.6999C50.6001 94.6999 49.9001 96.3999 49.9001 99.6999Z" fill="#1D1D1D" stroke="#1D1D1D" stroke-width="0.25" stroke-miterlimit="10"/>
<path d="M59.4 93.5H65.4V94.9H60.9V98.9H65.1V100.3H61V106.1H59.4V93.5Z" fill="#1D1D1D" stroke="#1D1D1D" stroke-width="0.25" stroke-miterlimit="10"/>
<path d="M81.1 100.8C81.1 98.5 81.1 96.1 81.2 94.8C80.7 97 79.7 102 78.7 106H77.2C76.5 102.5 75.4 97.1 74.9 94.8C75 96.3 75 99 75 101.1V106H73.5V93.5H75.8C76.8 97.3 77.7 101.9 78 103.6C78.2 102.2 79.4 97.2 80.3 93.5H82.6V106H81.1V100.8Z" fill="#1D1D1D" stroke="#1D1D1D" stroke-width="0.25" stroke-miterlimit="10"/>
<path d="M92.3001 100.1H88.1001V104.7H92.8001L92.6001 106.1H86.6001V93.5H92.6001V94.9H88.1001V98.8H92.3001V100.1Z" fill="#1D1D1D" stroke="#1D1D1D" stroke-width="0.25" stroke-miterlimit="10"/>
<path d="M97.7 102.2L96.8 106H95.3L98.3 93.5H100.3L103.4 106H101.7L100.8 102.2H97.7ZM100.7 100.9C100 97.9 99.6 96 99.4 95C99.2 96.1 98.7 98.3 98.1 100.9H100.7Z" fill="#1D1D1D" stroke="#1D1D1D" stroke-width="0.25" stroke-miterlimit="10"/>
<path d="M107 94.9H104.2V93.5H111.4V94.9H108.6V106.1H107V94.9Z" fill="#1D1D1D" stroke="#1D1D1D" stroke-width="0.25" stroke-miterlimit="10"/>
</g>
<defs>
<clipPath id="clip0_1_2145">
<rect width="159.6" height="159.6" fill="white"/>
</clipPath>
</defs>
</svg>
